<?xml version="1.0" encoding="UTF-8"?>
<svg width="32px" height="28px" viewBox="0 0 32 28" version="1.1" xmlns="http://www.w3.org/2000/svg" xmlns:xlink="http://www.w3.org/1999/xlink">
    <!-- Generator: Sketch 48.2 (47327) - http://www.bohemiancoding.com/sketch -->
    <title>linkedin</title>
    <desc>Created with Sketch.</desc>
    <defs>
        <polygon id="path-1" points="0.9522 0.0177 31.426 0.0177 31.426 27.9997 0.9522 27.9997"></polygon>
    </defs>
    <g id="footer" stroke="none" stroke-width="1" fill="none" fill-rule="evenodd" transform="translate(-1210.000000, -343.000000)">
        <g id="Page-1">
            <g transform="translate(1110.000000, 342.000000)">
                <g id="linkedin" transform="translate(100.000000, 0.982700)">
                    <mask id="mask-2" fill="white">
                        <use xlink:href="#path-1"></use>
                    </mask>
                    <g id="Clip-7"></g>
                    <path d="M31.4262,27.9997 L24.6902,27.9997 L24.6902,18.1627 C24.6902,15.5877 23.6382,13.8307 21.3202,13.8307 C19.5482,13.8307 18.5632,15.0167 18.1042,16.1597 C17.9322,16.5687 17.9592,17.1417 17.9592,17.7137 L17.9592,27.9997 L11.2862,27.9997 C11.2862,27.9997 11.3732,10.5747 11.2862,8.9897 L17.9592,8.9897 L17.9592,11.9737 C18.3532,10.6697 20.4852,8.8077 23.8892,8.8077 C28.1102,8.8077 31.4262,11.5427 31.4262,17.4297 L31.4262,27.9997 Z M4.5382,6.6117 L4.4952,6.6117 C2.3452,6.6117 0.9522,5.1587 0.9522,3.3177 C0.9522,1.4407 2.3872,0.0177 4.5802,0.0177 C6.7712,0.0177 8.1192,1.4377 8.1622,3.3127 C8.1622,5.1547 6.7712,6.6117 4.5382,6.6117 Z M1.7202,27.9997 L7.6602,27.9997 L7.6602,8.9897 L1.7202,8.9897 L1.7202,27.9997 Z" id="Fill-6" fill="#FEFEFE" mask="url(#mask-2)"></path>
                </g>
            </g>
        </g>
    </g>
</svg>