<?xml version="1.0" encoding="UTF-8"?>
<svg width="29px" height="24px" viewBox="0 0 29 24" version="1.1" xmlns="http://www.w3.org/2000/svg" xmlns:xlink="http://www.w3.org/1999/xlink">
    <!-- Generator: Sketch 48.2 (47327) - http://www.bohemiancoding.com/sketch -->
    <title>twitter</title>
    <desc>Created with Sketch.</desc>
    <defs>
        <polygon id="path-1" points="0 0.1401 29.1108 0.1401 29.1108 23.7971 0 23.7971"></polygon>
    </defs>
    <g id="footer" stroke="none" stroke-width="1" fill="none" fill-rule="evenodd" transform="translate(-1110.000000, -347.000000)">
        <g id="Page-1">
            <g transform="translate(1110.000000, 342.000000)">
                <g id="twitter" transform="translate(0.000000, 4.982700)">
                    <mask id="mask-2" fill="white">
                        <use xlink:href="#path-1"></use>
                    </mask>
                    <g id="Clip-2"></g>
                    <path d="M29.1108,2.9411 C28.0408,3.4161 26.8878,3.7371 25.6808,3.8811 C26.9148,3.1421 27.8618,1.9721 28.3068,0.5781 C27.1518,1.2621 25.8758,1.7581 24.5128,2.0251 C23.4258,0.8651 21.8728,0.1401 20.1538,0.1401 C16.8578,0.1401 14.1838,2.8151 14.1838,6.1121 C14.1838,6.5811 14.2348,7.0361 14.3368,7.4721 C9.3738,7.2221 4.9738,4.8471 2.0268,1.2311 C1.5128,2.1171 1.2178,3.1421 1.2178,4.2371 C1.2178,6.3061 2.2728,8.1351 3.8758,9.2071 C2.8968,9.1771 1.9748,8.9061 1.1688,8.4621 L1.1688,8.5351 C1.1688,11.4291 3.2278,13.8431 5.9618,14.3911 C5.4598,14.5311 4.9328,14.6011 4.3868,14.6011 C4.0028,14.6011 3.6268,14.5651 3.2638,14.4951 C4.0228,16.8671 6.2288,18.5951 8.8418,18.6401 C6.7988,20.2441 4.2228,21.1981 1.4248,21.1981 C0.9428,21.1981 0.4668,21.1711 -0.0002,21.1161 C2.6428,22.8081 5.7828,23.7971 9.1548,23.7971 C20.1418,23.7971 26.1478,14.6991 26.1478,6.8051 C26.1478,6.5451 26.1418,6.2881 26.1318,6.0331 C27.2988,5.1901 28.3128,4.1381 29.1108,2.9411" id="Fill-1" fill="#FEFEFE" mask="url(#mask-2)"></path>
                </g>
            </g>
        </g>
    </g>
</svg>