<?xml version="1.0" encoding="UTF-8"?>
<svg xmlns="http://www.w3.org/2000/svg" xmlns:xlink="http://www.w3.org/1999/xlink" width="151px" height="67px" viewBox="0 0 151 67">
  <!-- Generator: Sketch 49 (51002) - http://www.bohemiancoding.com/sketch -->
  <title>accenture</title>
  <desc>Created with Sketch.</desc>
  <defs>
    <polygon id="path-1" points="0 66.3526 150.599 66.3526 150.599 -0.0004 0 -0.0004"></polygon>
  </defs>
  <g id="Visual-Design" stroke="none" stroke-width="1" fill="none" fill-rule="evenodd">
    <g id="customers" transform="translate(-142.000000, -1806.000000)">
      <g id="select-clients" transform="translate(142.000000, 1720.000000)">
        <g id="accenture" transform="translate(0.000000, 86.000000)">
          <path d="M6.7473,39.1079 C5.2483,39.1079 4.3663,38.3339 4.3663,36.7979 C4.3663,33.9009 8.6113,33.3269 10.7513,33.3269 C10.7513,35.7939 9.7373,39.1079 6.7473,39.1079 Z M15.0403,41.8149 L15.0403,28.1129 C15.0403,23.6699 12.1243,22.1359 8.0423,22.1359 C4.0473,22.1359 0.7203,23.8329 0.7203,28.2409 L5.0973,28.2409 C5.0973,26.3369 6.1073,25.2909 8.0423,25.2909 C10.2623,25.2909 10.7513,26.8989 10.7513,28.8019 L10.7513,30.7019 C6.3853,30.8229 0.0003,31.4329 0.0003,37.2119 C0.0003,40.4839 2.5893,42.2609 5.6563,42.2609 C7.7603,42.2609 9.6983,41.5739 10.6733,39.5929 L10.7513,39.5929 L10.7513,41.8149 L15.0403,41.8149 Z" id="Fill-1" fill="#90908F"></path>
          <path d="M25.7942,22.1362 C20.0242,22.1362 16.9822,25.7672 16.9822,31.3432 C16.9822,38.0522 20.4202,42.2612 27.2862,42.2612 C29.1902,42.2612 31.0872,41.9442 32.9082,41.3712 L32.9082,38.6242 C31.8552,38.9862 30.7632,39.1082 29.6802,39.1082 C24.5772,39.1082 21.7532,35.3892 21.7532,30.5412 C21.7532,28.2402 22.6022,25.2902 25.4332,25.2902 C27.7732,25.2902 28.3402,27.1892 28.3402,29.1662 L33.1102,29.1662 C33.1102,24.4362 30.4872,22.1362 25.7942,22.1362" id="Fill-3" fill="#90908F"></path>
          <path d="M44.5247,42.2612 C46.4237,42.2612 48.3277,41.9442 50.1407,41.3712 L50.1407,38.6242 C49.0937,38.9862 47.9997,39.1082 46.9097,39.1082 C41.8207,39.1082 38.9827,35.3892 38.9827,30.5412 C38.9827,28.2402 39.8377,25.2902 42.6657,25.2902 C45.0067,25.2902 45.5757,27.1892 45.5757,29.1662 L50.3497,29.1662 C50.3497,24.4362 47.7157,22.1362 43.0307,22.1362 C37.2527,22.1362 34.2187,25.7672 34.2187,31.3432 C34.2187,38.0522 37.6527,42.2612 44.5247,42.2612" id="Fill-5" fill="#90908F"></path>
          <path d="M59.7493,24.9956 C61.8183,24.9956 63.1613,26.2576 63.1613,28.3156 L56.1303,28.3156 C56.3343,26.3736 57.8243,24.9956 59.7493,24.9956 M61.5373,42.2616 C63.3583,42.2616 65.1863,42.0616 66.9083,41.4936 L66.9083,38.3846 C65.7763,38.7856 64.4503,39.1076 63.2373,39.1076 C58.8773,39.1076 55.9983,35.1096 55.9983,31.0296 L67.4053,31.0296 L67.4053,29.9336 C67.4053,25.2476 64.9803,22.1366 60.0893,22.1366 C54.3533,22.1366 51.8393,25.7316 51.8393,31.1886 C51.8393,37.5266 54.7083,42.2616 61.5373,42.2616" id="Fill-7" fill="#90908F"></path>
          <path d="M80.014,26.7036 C80.774,27.4286 80.699,29.8906 80.699,30.8226 L80.699,41.8146 L85.196,41.8146 L85.196,28.4786 C85.196,25.1706 83.646,22.1366 79.972,22.1366 C77.223,22.1366 75.288,23.7156 74.274,26.1746 L74.196,26.1746 L74.196,22.5676 L69.7,22.5676 L69.7,41.8146 L74.196,41.8146 L74.196,33.4906 C74.196,30.8986 75.489,26.3366 78.712,26.3366 C79.172,26.3366 79.68,26.3736 80.014,26.7036" id="Fill-9" fill="#90908F"></path>
          <path d="M94.5159,16.1919 L90.0489,18.0089 L90.0489,22.5679 L86.2859,22.5679 L86.2859,25.6899 L90.0489,25.6899 L90.0489,36.9629 C90.0489,40.9699 92.0089,42.2609 95.9429,42.2609 C97.1599,42.2609 98.4029,42.1449 99.6099,41.9439 L99.6099,38.7859 C98.9349,38.9529 98.2509,39.1079 97.5499,39.1079 C94.7549,39.1079 94.5159,37.0459 94.5159,34.7809 L94.5159,25.6899 L100.2309,25.6899 L100.2309,22.5679 L94.5159,22.5679 L94.5159,16.1919 Z" id="Fill-11" fill="#90908F"></path>
          <path d="M113.1341,38.2251 L113.2111,38.2251 L113.2111,41.8151 L117.6971,41.8151 L117.6971,22.5681 L113.2111,22.5681 L113.2111,30.8991 C113.2111,33.4911 111.9151,38.0521 108.6761,38.0521 C108.2401,38.0521 107.7041,38.0201 107.3831,37.6971 C106.6121,36.9631 106.6981,34.4961 106.6981,33.5741 L106.6981,22.5681 L102.2171,22.5681 L102.2171,35.9151 C102.2171,39.2331 103.7401,42.2611 107.4271,42.2611 C110.1441,42.2611 112.1191,40.6411 113.1341,38.2251" id="Fill-13" fill="#90908F"></path>
          <path d="M125.0931,26.1284 L125.0131,26.1284 L125.0131,22.5674 L120.5201,22.5674 L120.5201,41.8154 L125.0131,41.8154 L125.0131,33.3704 C125.0131,28.8424 126.7101,26.8254 131.3141,26.8254 L131.3141,22.1364 C128.0851,22.1364 126.5821,23.4704 125.0931,26.1284" id="Fill-15" fill="#90908F"></path>
          <path d="M140.136,24.9956 C142.204,24.9956 143.539,26.2576 143.539,28.3156 L136.504,28.3156 C136.705,26.3736 138.202,24.9956 140.136,24.9956 Z M147.295,38.3846 C146.165,38.7856 144.829,39.1076 143.625,39.1076 C139.249,39.1076 136.381,35.1096 136.381,31.0296 L147.782,31.0296 L147.782,29.9336 C147.782,25.2476 145.359,22.1366 140.466,22.1366 C134.725,22.1366 132.221,25.7316 132.221,31.1886 C132.221,37.5266 135.091,42.2616 141.916,42.2616 C143.734,42.2616 145.557,42.0616 147.295,41.4936 L147.295,38.3846 Z" id="Fill-17" fill="#90908F"></path>
          <path d="M86.2796,3.1646 C86.2796,3.1646 95.2396,6.6366 96.5236,7.1366 C95.2396,7.6276 86.2796,11.0826 86.2796,11.0826 L86.2796,14.2416 L100.2346,8.5736 L100.2346,5.6736 L86.2796,0.0006 L86.2796,3.1646 Z" id="Fill-19" fill="#90908F"></path>
          <polygon id="Fill-21" fill="#90908F" points="6.1419 57.3003 1.8779 57.3003 1.8779 52.8303 0.7109 52.8303 0.7109 63.1503 1.8779 63.1503 1.8779 58.2753 6.1419 58.2753 6.1419 63.1503 7.3079 63.1503 7.3079 52.8303 6.1419 52.8303"></polygon>
          <mask id="mask-2" fill="white">
            <use xlink:href="#path-1"></use>
          </mask>
          <g id="Clip-24"></g>
          <polygon id="Fill-23" fill="#90908F" mask="url(#mask-2)" points="8.921 54.1766 10.267 54.1766 10.267 52.8306 8.921 52.8306"></polygon>
          <polygon id="Fill-25" fill="#90908F" mask="url(#mask-2)" points="9.085 63.1496 10.103 63.1496 10.103 56.0296 9.085 56.0296"></polygon>
          <path d="M13.8157,62.2974 C12.5437,62.2974 12.3647,60.5924 12.3647,59.6514 C12.3647,58.7224 12.5437,56.7194 13.8437,56.7194 C15.1167,56.7194 15.5197,58.4704 15.5197,59.4554 C15.5197,60.4734 15.1167,62.2974 13.8157,62.2974 Z M15.5197,57.1984 L15.4907,57.1984 C15.2667,56.3604 14.4747,55.8654 13.6357,55.8654 C11.6907,55.8654 11.1977,58.0944 11.1977,59.6364 C11.1977,61.2354 11.6457,63.1504 13.6057,63.1504 C14.4877,63.1504 15.2207,62.6434 15.4907,61.7884 L15.5197,61.7884 L15.5197,63.0454 C15.5197,64.5714 15.0117,65.4104 13.3657,65.4104 C12.7377,65.4104 12.1557,65.2614 11.5867,64.9894 L11.5867,66.0224 C12.2457,66.1574 12.8287,66.2624 13.5167,66.2624 C15.5657,66.2624 16.5387,65.1844 16.5387,63.1654 L16.5387,56.0294 L15.5197,56.0294 L15.5197,57.1984 Z" id="Fill-26" fill="#90908F" mask="url(#mask-2)"></path>
          <path d="M21.3362,55.8657 C20.0952,55.8657 19.4652,56.5837 19.1072,57.6767 L19.0772,57.6767 L19.0772,52.8307 L18.0602,52.8307 L18.0602,63.1497 L19.0772,63.1497 L19.0772,60.2197 C19.0772,59.0967 19.6752,56.8837 21.0972,56.8837 C22.2632,56.8837 22.1432,58.3937 22.1432,59.2027 L22.1432,63.1497 L23.1602,63.1497 L23.1602,58.0657 C23.1602,56.9427 22.5922,55.8657 21.3362,55.8657" id="Fill-27" fill="#90908F" mask="url(#mask-2)"></path>
          <path d="M30.3011,62.4624 C28.9531,62.4624 28.6551,60.5624 28.6551,59.5594 C28.6551,58.5724 29.0431,56.7194 30.3301,56.7194 C31.6311,56.7194 31.8111,58.3494 31.8111,59.3354 C31.8111,60.3234 31.6921,62.4624 30.3011,62.4624 M30.5391,55.8654 C29.6871,55.8654 28.9241,56.4204 28.6841,57.2434 L28.6551,57.2434 L28.6551,56.0294 L27.6381,56.0294 L27.6381,66.3534 L28.6551,66.3534 L28.6551,61.9834 L28.6841,61.9834 C28.9531,62.8514 29.6431,63.3154 30.5541,63.3154 C32.4991,63.3154 32.9781,61.0714 32.9781,59.5284 C32.9781,57.8704 32.5891,55.8654 30.5391,55.8654" id="Fill-28" fill="#90908F" mask="url(#mask-2)"></path>
          <path d="M35.0403,58.0659 C35.1903,57.2879 35.6993,56.7189 36.5373,56.7189 C37.3143,56.7189 37.8973,57.2879 37.8973,58.0659 L35.0403,58.0659 Z M36.5813,55.8659 C34.4863,55.8659 33.7993,57.4969 33.7993,59.3509 C33.7993,61.6559 34.8013,63.3149 37.2703,63.3149 C37.8233,63.3149 38.3773,63.2699 38.8993,63.1059 L38.8993,62.2669 C38.4213,62.3879 37.9863,62.4619 37.4943,62.4619 C35.7443,62.4619 34.9653,60.8929 34.9653,59.3359 L34.9653,58.9159 L39.0643,58.9159 L39.0643,58.5729 C39.0643,57.0039 38.2413,55.8659 36.5813,55.8659 Z" id="Fill-29" fill="#90908F" mask="url(#mask-2)"></path>
          <path d="M41.3372,57.4068 L41.3072,57.4068 L41.3072,56.0298 L40.2892,56.0298 L40.2892,63.1498 L41.3072,63.1498 L41.3072,60.2028 C41.3072,58.6488 41.8742,56.9598 43.7142,56.9598 L43.7142,55.8658 C42.5782,55.8658 41.7852,56.3748 41.3372,57.4068" id="Fill-30" fill="#90908F" mask="url(#mask-2)"></path>
          <path d="M48.2024,53.6372 C48.5624,53.6372 48.8914,53.7122 49.2344,53.8322 L49.2344,52.9192 C48.8314,52.8302 48.4274,52.7862 48.0234,52.7862 C46.5434,52.7862 45.6904,53.5632 45.6904,55.0432 L45.6904,56.0302 L44.4944,56.0302 L44.4944,56.8832 L45.6904,56.8832 L45.6904,63.1502 L46.7074,63.1502 L46.7074,56.8832 L48.7554,56.8832 L48.7554,56.0302 L46.7074,56.0302 C46.7074,54.8042 46.5864,53.6372 48.2024,53.6372" id="Fill-31" fill="#90908F" mask="url(#mask-2)"></path>
          <path d="M51.9729,62.4624 C50.4939,62.4624 50.2379,60.7284 50.2379,59.5894 C50.2379,58.4544 50.4939,56.7194 51.9729,56.7194 C53.4529,56.7194 53.7389,58.4404 53.7389,59.5894 C53.7389,60.7424 53.4679,62.4624 51.9729,62.4624 M51.9729,55.8654 C49.7739,55.8654 49.0719,57.6904 49.0719,59.6064 C49.0719,61.5194 49.7739,63.3154 51.9729,63.3154 C54.1859,63.3154 54.9049,61.5344 54.9049,59.6064 C54.9049,57.6764 54.1859,55.8654 51.9729,55.8654" id="Fill-32" fill="#90908F" mask="url(#mask-2)"></path>
          <path d="M57.1946,57.4068 L57.1646,57.4068 L57.1646,56.0298 L56.1476,56.0298 L56.1476,63.1498 L57.1646,63.1498 L57.1646,60.2028 C57.1646,58.6488 57.7336,56.9598 59.5736,56.9598 L59.5736,55.8658 C58.4366,55.8658 57.6446,56.3748 57.1946,57.4068" id="Fill-33" fill="#90908F" mask="url(#mask-2)"></path>
          <path d="M67.3235,55.8657 C66.3205,55.8657 65.6035,56.5837 65.3035,57.4967 L65.2745,57.4967 C65.1995,56.4347 64.5415,55.8657 63.4795,55.8657 C62.3125,55.8657 61.7745,56.6597 61.4905,57.6767 L61.4605,57.6767 L61.4605,56.0297 L60.4425,56.0297 L60.4425,63.1497 L61.4605,63.1497 L61.4605,60.2197 C61.4605,59.2317 61.9375,56.8837 63.2405,56.8837 C64.4065,56.8837 64.2875,58.3937 64.2875,59.2027 L64.2875,63.1497 L65.3035,63.1497 L65.3035,60.2197 C65.3035,59.2317 65.7675,56.8837 67.0845,56.8837 C68.2515,56.8837 68.1325,58.3937 68.1325,59.2027 L68.1325,63.1497 L69.1475,63.1497 L69.1475,58.0657 C69.1475,56.9427 68.5805,55.8657 67.3235,55.8657" id="Fill-34" fill="#90908F" mask="url(#mask-2)"></path>
          <path d="M74.177,61.356 C73.879,61.998 73.236,62.462 72.517,62.462 C71.917,62.462 71.515,62.028 71.515,61.431 C71.515,60.294 72.937,59.92 73.849,59.92 L74.447,59.92 C74.447,60.517 74.416,60.816 74.177,61.356 M73.071,55.866 C71.798,55.866 70.542,56.42 70.512,57.855 L71.65,57.855 C71.752,57.003 72.263,56.719 73.101,56.719 C74.521,56.719 74.447,57.855 74.447,58.916 L74.447,59.067 C74.207,59.112 73.983,59.112 73.743,59.112 C72.427,59.112 70.348,59.695 70.348,61.326 C70.348,62.539 71.036,63.315 72.263,63.315 C73.055,63.315 74.058,62.955 74.447,62.208 L74.476,62.208 L74.476,63.15 L75.462,63.15 L75.462,58.155 C75.462,56.569 74.686,55.866 73.071,55.866" id="Fill-35" fill="#90908F" mask="url(#mask-2)"></path>
          <path d="M80.3382,55.8657 C79.0972,55.8657 78.4682,56.5837 78.1092,57.6767 L78.0792,57.6767 L78.0792,56.0297 L77.0622,56.0297 L77.0622,63.1497 L78.0792,63.1497 L78.0792,60.2197 C78.0792,59.0967 78.6792,56.8837 80.1002,56.8837 C81.2652,56.8837 81.1472,58.3937 81.1472,59.2027 L81.1472,63.1497 L82.1632,63.1497 L82.1632,58.0657 C82.1632,56.9427 81.5932,55.8657 80.3382,55.8657" id="Fill-36" fill="#90908F" mask="url(#mask-2)"></path>
          <path d="M86.2581,56.7193 C87.1701,56.7193 87.5301,57.3763 87.5301,58.1993 L88.7411,58.1993 C88.7411,56.6593 87.8161,55.8653 86.3041,55.8653 C84.1201,55.8653 83.4011,57.4813 83.4011,59.4273 C83.4011,61.8043 84.6141,63.3153 87.0661,63.3153 C87.5911,63.3153 88.0541,63.2703 88.5471,63.1193 L88.5471,62.3133 C88.1751,62.4323 87.7851,62.4623 87.3961,62.4623 C85.3771,62.4623 84.5691,61.0413 84.5691,59.2023 C84.5691,58.1393 84.9571,56.7193 86.2581,56.7193" id="Fill-37" fill="#90908F" mask="url(#mask-2)"></path>
          <path d="M90.4173,58.0659 C90.5673,57.2879 91.0763,56.7189 91.9153,56.7189 C92.6923,56.7189 93.2753,57.2879 93.2753,58.0659 L90.4173,58.0659 Z M91.9593,55.8659 C89.8633,55.8659 89.1773,57.4969 89.1773,59.3509 C89.1773,61.6559 90.1783,63.3149 92.6463,63.3149 C93.2003,63.3149 93.7553,63.2699 94.2773,63.1059 L94.2773,62.2669 C93.7983,62.3879 93.3653,62.4619 92.8723,62.4619 C91.1213,62.4619 90.3433,60.8929 90.3433,59.3359 L90.3433,58.9159 L94.4413,58.9159 L94.4413,58.5729 C94.4413,57.0039 93.6193,55.8659 91.9593,55.8659 Z" id="Fill-38" fill="#90908F" mask="url(#mask-2)"></path>
          <polygon id="Fill-39" fill="#90908F" mask="url(#mask-2)" points="95.257 63.1496 96.751 63.1496 96.751 61.6556 95.257 61.6556"></polygon>
          <path d="M104.555,61.895 C104.016,62.134 103.389,62.177 102.805,62.177 L102.011,62.177 L102.011,53.802 L102.67,53.802 C103.238,53.802 103.838,53.832 104.361,54.026 C105.975,54.594 106.127,56.524 106.127,57.974 C106.127,59.335 105.991,61.236 104.555,61.895 M103.163,52.831 L100.845,52.831 L100.845,63.15 L102.789,63.15 C103.508,63.15 104.256,63.106 104.944,62.867 C107.038,62.149 107.397,59.92 107.397,57.959 C107.397,54.983 106.485,52.831 103.163,52.831" id="Fill-40" fill="#90908F" mask="url(#mask-2)"></path>
          <path d="M109.5638,58.0659 C109.7148,57.2879 110.2238,56.7189 111.0608,56.7189 C111.8388,56.7189 112.4218,57.2879 112.4218,58.0659 L109.5638,58.0659 Z M111.1058,55.8659 C109.0118,55.8659 108.3248,57.4969 108.3248,59.3509 C108.3248,61.6559 109.3268,63.3149 111.7938,63.3149 C112.3478,63.3149 112.9008,63.2699 113.4238,63.1059 L113.4238,62.2669 C112.9468,62.3879 112.5128,62.4619 112.0198,62.4619 C110.2688,62.4619 109.4898,60.8929 109.4898,59.3359 L109.4898,58.9159 L113.5898,58.9159 L113.5898,58.5729 C113.5898,57.0039 112.7658,55.8659 111.1058,55.8659 Z" id="Fill-41" fill="#90908F" mask="url(#mask-2)"></path>
          <polygon id="Fill-42" fill="#90908F" mask="url(#mask-2)" points="114.911 63.1496 115.929 63.1496 115.929 52.8306 114.911 52.8306"></polygon>
          <polygon id="Fill-43" fill="#90908F" mask="url(#mask-2)" points="117.576 54.1766 118.921 54.1766 118.921 52.8306 117.576 52.8306"></polygon>
          <polygon id="Fill-44" fill="#90908F" mask="url(#mask-2)" points="117.74 63.1496 118.759 63.1496 118.759 56.0296 117.74 56.0296"></polygon>
          <polygon id="Fill-45" fill="#90908F" mask="url(#mask-2)" points="122.7786 61.6558 122.7506 61.6558 120.6556 56.0298 119.5626 56.0298 122.2566 63.1498 123.2876 63.1498 125.6976 56.0298 124.6056 56.0298"></polygon>
          <path d="M127.1595,58.0659 C127.3085,57.2879 127.8175,56.7189 128.6565,56.7189 C129.4325,56.7189 130.0155,57.2879 130.0155,58.0659 L127.1595,58.0659 Z M128.7005,55.8659 C126.6065,55.8659 125.9195,57.4969 125.9195,59.3509 C125.9195,61.6559 126.9205,63.3149 129.3895,63.3149 C129.9415,63.3149 130.4945,63.2699 131.0185,63.1059 L131.0185,62.2669 C130.5405,62.3879 130.1065,62.4619 129.6145,62.4619 C127.8625,62.4619 127.0855,60.8929 127.0855,59.3359 L127.0855,58.9159 L131.1835,58.9159 L131.1835,58.5729 C131.1835,57.0039 130.3605,55.8659 128.7005,55.8659 Z" id="Fill-46" fill="#90908F" mask="url(#mask-2)"></path>
          <path d="M133.5364,57.4068 L133.5064,57.4068 L133.5064,56.0298 L132.4904,56.0298 L132.4904,63.1498 L133.5064,63.1498 L133.5064,60.2028 C133.5064,58.6488 134.0754,56.9598 135.9164,56.9598 L135.9164,55.8658 C134.7784,55.8658 133.9864,56.3748 133.5364,57.4068" id="Fill-47" fill="#90908F" mask="url(#mask-2)"></path>
          <path d="M137.553,58.0659 C137.704,57.2879 138.213,56.7189 139.051,56.7189 C139.827,56.7189 140.412,57.2879 140.412,58.0659 L137.553,58.0659 Z M139.095,55.8659 C137,55.8659 136.312,57.4969 136.312,59.3509 C136.312,61.6559 137.314,63.3149 139.784,63.3149 C140.337,63.3149 140.891,63.2699 141.414,63.1059 L141.414,62.2669 C140.936,62.3879 140.5,62.4619 140.009,62.4619 C138.259,62.4619 137.479,60.8929 137.479,59.3359 L137.479,58.9159 L141.577,58.9159 L141.577,58.5729 C141.577,57.0039 140.755,55.8659 139.095,55.8659 Z" id="Fill-48" fill="#90908F" mask="url(#mask-2)"></path>
          <path d="M145.0804,62.4624 C143.7654,62.4624 143.6014,60.8324 143.6014,59.8454 C143.6014,58.8584 143.7194,56.7194 145.1104,56.7194 C146.4564,56.7194 146.7564,58.6184 146.7564,59.6204 C146.7564,60.6084 146.3514,62.4624 145.0804,62.4624 Z M146.7674,57.1984 L146.7374,57.1984 C146.4384,56.3294 145.7944,55.8654 144.8664,55.8654 C142.9234,55.8654 142.4434,58.1094 142.4434,59.6504 C142.4434,61.3114 142.8344,63.3154 144.8814,63.3154 C145.7334,63.3154 146.4984,62.7624 146.7374,61.9394 L146.7674,61.9394 L146.7674,63.1494 L147.7844,63.1494 L147.7844,52.8304 L146.7674,52.8304 L146.7674,57.1984 Z" id="Fill-49" fill="#90908F" mask="url(#mask-2)"></path>
          <polygon id="Fill-50" fill="#90908F" mask="url(#mask-2)" points="149.103 63.1496 150.599 63.1496 150.599 61.6556 149.103 61.6556"></polygon>
        </g>
      </g>
    </g>
  </g>
</svg>
