<?xml version="1.0" encoding="UTF-8"?>
<!-- Generator: Adobe Illustrator 22.1.0, SVG Export Plug-In . SVG Version: 6.00 Build 0)  -->
<svg xmlns="http://www.w3.org/2000/svg" xmlns:xlink="http://www.w3.org/1999/xlink" id="Layer_1" x="0px" y="0px" viewBox="0 0 166 56" style="enable-background:new 0 0 166 56;" xml:space="preserve">
<style type="text/css">
	.st0{fill:#808285;}
</style>
<title>allied</title>
<desc>Created with Sketch.</desc>
<g>
	<g id="GtecYz_1_">
		<g>
			<g>
				<path class="st0" d="M58.1,2.6c0.3,2.6,0.6,5.3,0.9,7.9c0.2,1.7,0.3,3.3,0.5,5c0,0.4,0.3,0.8,0.4,1.2c3.5,1.2,7,2.4,10.5,3.5      c0.5,0.2,1,0.3,1.4,0.5c0.2,0.1,0.2,0.6,0.3,1c-5.2,0.3-9.5-2.5-14.3-3.6c-0.4-3.9-0.8-7.8-1.2-12c-3.5,2.3-6.8,4.4-10.1,6.5      c-3.3-2.1-6.6-4.2-10-6.4c-0.2,1.7-0.4,3.1-0.6,4.5c-0.2,1.9-0.4,3.9-0.5,5.8c-0.1,1.1-0.5,1.6-1.5,1.9      c-2.9,0.9-5.8,1.9-8.7,2.9c-0.3,0.1-0.6,0.2-1.2,0.5c0.4,0.5,0.7,0.8,1,1.1c2,2,4.1,4,6.1,6c0.4,0.4,0.9,0.6,1.4,0.8l-0.1-0.1      c-1.2,3.4-2.4,6.8-3.6,10.2c-0.1,0.3-0.2,0.7-0.4,1c2,0.5,3.9-0.2,5.8-0.3c1.9-0.2,3.7-0.5,5.8-0.8c2.4,3.1,4.1,6.7,6.4,10.1      c2.1-3.5,4.2-6.8,6.2-10c4,0.1,7.7,1.3,11.8,1.1c-1.2-3.4-2.4-6.7-3.7-10c0.8,0,1.4,0,2.2,0c1.5,4.1,3,8.3,4.7,12.8      c-4.8-0.6-9.2-1.2-13.8-1.8c-2.5,3.7-4.7,7.8-7.4,11.8c-2.7-3.9-4.9-8.1-7.4-11.8c-4.6,0.6-9,1.2-13.8,1.8      c0.8-2.3,1.5-4.4,2.3-6.6c0.8-2.2,1.6-4.3,2.5-6.4c-3.2-3.3-6.4-6.5-9.6-9.8c0.5-0.6,1.2-0.7,1.9-1c3.4-1.1,6.7-2.2,10.1-3.4      c0.3-0.1,0.5-0.2,0.9-0.4c0.4-4.6,0.9-9.3,1.3-13.9c0.1,0,0.3,0,0.4,0c0.2,0.2,0.3,0.5,0.5,0.6c1.7,1.1,3.4,2.2,5.1,3.3      c1.9,1.2,3.8,2.5,5.7,3.7c0.6-0.3,1-0.5,1.4-0.8c3-2,6.1-3.9,9.1-5.9c0.3-0.2,0.5-0.6,0.8-0.9C57.8,2.6,58,2.6,58.1,2.6z       M57.6,3.9c-3.8,2.5-7.5,4.8-11.1,7.1c-4-2.2-7.4-5-11.3-7.1c-0.4,4-0.7,7.7-1,11.4c-0.1,1.3-0.7,2-1.9,2.4c-3.1,1-6.2,2-9.3,3      c-0.5,0.2-0.9,0.4-1.6,0.7c1.7,1.7,3.2,3.3,4.8,4.7c1.6,1.4,3.2,2.8,4.6,4.5c-1.4,4.3-3.2,8.3-4.5,12.4      c4.5-0.4,8.8-1.3,13.2-1.6c2.3,3.8,4.5,7.4,6.9,11.3c2.4-3.9,4.6-7.6,6.9-11.3c4.4,0.5,8.7,1.1,13.2,1.6      c-1.3-3.6-2.6-7.1-3.9-10.6c-0.1-0.3-0.3-0.5-0.5-0.8c0.7,3.5,2.1,6.8,3.3,10.3c-1.2,0-2.1,0-2.9,0c-0.8-0.1-1.5-0.3-2.3-0.3      c-1.7-0.2-3.3-0.3-5-0.5c-2.3-0.3-2.2-0.4-3.4,1.5c-0.2,0.3-0.3,0.6-0.5,0.9c-1.6,2.5-3.1,5.1-4.8,7.8      c-2.5-3.5-4.4-7.1-6.7-10.6c-2.1,0.3-4.1,0.8-6.2,0.8c-2,0-4,1-6.2,0.3c1.4-3.9,2.8-7.6,4.2-11.4c-3-2.9-5.9-5.8-8.9-8.9      c4.1-1.4,8-2.7,11.9-4c0.2-2.1,0.3-4.1,0.5-6.1c0.2-2.1,0.5-4.1,0.8-6.4c3.6,2.3,7,4.5,10.6,6.7c3.4-2.2,6.8-4.4,10.6-6.8      c0.3,2.3,0.6,4.3,0.7,6.3c0.1,2.1,0.4,4.1,0.6,6.2c3.3,1.1,6.5,2.2,9.7,3.2c0.6,0.2,1.3,0.2,2,0.3c0-0.1,0-0.1,0-0.2      c-3.7-1.3-7.4-2.5-11.1-3.7C58.5,12.7,58.1,8.4,57.6,3.9z"></path>
			</g>
		</g>
	</g>
	<g>
		<path class="st0" d="M75.7,33.8v0.5h0c0.2-0.2,0.4-0.4,0.7-0.4c0.3-0.1,0.6-0.1,0.9-0.1c0.4,0,0.7,0.1,1,0.2    c0.3,0.1,0.5,0.3,0.7,0.4c0.2,0.2,0.3,0.4,0.4,0.6c0.1,0.2,0.1,0.5,0.1,0.8c0,0.3,0,0.5-0.1,0.7c-0.1,0.2-0.2,0.4-0.4,0.6    c-0.2,0.2-0.4,0.3-0.7,0.4c-0.3,0.1-0.6,0.2-1,0.2c-0.3,0-0.6,0-0.9-0.1c-0.3-0.1-0.5-0.2-0.7-0.4h0v1.8h-1.4v-5.1H75.7z     M77.5,36.8c0.2-0.1,0.3-0.2,0.4-0.3c0.1-0.1,0.2-0.2,0.2-0.4c0-0.1,0.1-0.3,0.1-0.4c0-0.2,0-0.3-0.1-0.4c0-0.1-0.1-0.3-0.2-0.4    c-0.1-0.1-0.2-0.2-0.4-0.3c-0.2-0.1-0.3-0.1-0.6-0.1c-0.2,0-0.4,0-0.6,0.1c-0.2,0.1-0.3,0.2-0.4,0.3c-0.1,0.1-0.2,0.2-0.2,0.4    c0,0.1-0.1,0.3-0.1,0.5c0,0.1,0,0.3,0.1,0.4c0,0.1,0.1,0.3,0.2,0.4c0.1,0.1,0.2,0.2,0.4,0.3c0.2,0.1,0.3,0.1,0.6,0.1    C77.2,36.9,77.4,36.8,77.5,36.8z"></path>
		<path class="st0" d="M80.3,34.9c0.1-0.2,0.3-0.5,0.5-0.6c0.2-0.2,0.5-0.3,0.8-0.4c0.3-0.1,0.7-0.1,1.1-0.1c0.4,0,0.8,0,1.1,0.1    c0.3,0.1,0.6,0.2,0.8,0.4c0.2,0.2,0.4,0.4,0.5,0.6c0.1,0.2,0.2,0.5,0.2,0.8c0,0.3-0.1,0.6-0.2,0.8c-0.1,0.2-0.3,0.4-0.5,0.6    c-0.2,0.2-0.5,0.3-0.8,0.4c-0.3,0.1-0.7,0.1-1.1,0.1c-0.4,0-0.8,0-1.1-0.1c-0.3-0.1-0.6-0.2-0.8-0.4c-0.2-0.2-0.4-0.4-0.5-0.6    c-0.1-0.2-0.2-0.5-0.2-0.8C80.2,35.4,80.2,35.1,80.3,34.9z M81.6,36.1c0,0.1,0.1,0.3,0.2,0.4c0.1,0.1,0.2,0.2,0.4,0.3    c0.2,0.1,0.4,0.1,0.6,0.1s0.4,0,0.6-0.1c0.2-0.1,0.3-0.2,0.4-0.3c0.1-0.1,0.2-0.2,0.2-0.4c0-0.1,0.1-0.3,0.1-0.4    c0-0.1,0-0.3-0.1-0.4c0-0.1-0.1-0.3-0.2-0.4c-0.1-0.1-0.2-0.2-0.4-0.3c-0.2-0.1-0.4-0.1-0.6-0.1s-0.4,0-0.6,0.1    c-0.2,0.1-0.3,0.2-0.4,0.3c-0.1,0.1-0.2,0.2-0.2,0.4c0,0.1-0.1,0.3-0.1,0.4C81.6,35.8,81.6,36,81.6,36.1z"></path>
		<path class="st0" d="M87.7,32.4v5.2h-1.4v-5.2H87.7z"></path>
		<path class="st0" d="M88.8,33.2v-0.8h1.4v0.8H88.8z M90.2,33.8v3.8h-1.4v-3.8H90.2z"></path>
		<path class="st0" d="M93.6,34.5c-0.2,0-0.4,0-0.6,0.1c-0.2,0.1-0.3,0.2-0.4,0.3c-0.1,0.1-0.2,0.2-0.2,0.4c0,0.1-0.1,0.3-0.1,0.4    c0,0.1,0,0.3,0.1,0.4c0,0.1,0.1,0.3,0.2,0.4c0.1,0.1,0.2,0.2,0.4,0.3c0.2,0.1,0.3,0.1,0.6,0.1c0.3,0,0.6-0.1,0.8-0.2    c0.2-0.1,0.3-0.3,0.3-0.6H96c-0.1,0.5-0.4,0.9-0.8,1.1c-0.4,0.3-1,0.4-1.7,0.4c-0.4,0-0.7,0-1-0.1c-0.3-0.1-0.6-0.2-0.8-0.4    c-0.2-0.2-0.4-0.4-0.5-0.6C91.1,36.3,91,36,91,35.7c0-0.3,0.1-0.6,0.2-0.8c0.1-0.2,0.3-0.5,0.5-0.6c0.2-0.2,0.5-0.3,0.8-0.4    c0.3-0.1,0.7-0.2,1.1-0.2c0.3,0,0.6,0,0.9,0.1c0.3,0.1,0.5,0.1,0.7,0.3c0.2,0.1,0.4,0.3,0.5,0.4c0.1,0.2,0.2,0.4,0.2,0.6h-1.4    C94.6,34.7,94.2,34.5,93.6,34.5z"></path>
		<path class="st0" d="M98.2,36.6c0.2,0.1,0.5,0.2,0.9,0.2c0.3,0,0.5-0.1,0.7-0.2c0.2-0.1,0.3-0.2,0.4-0.3h1.2    c-0.2,0.5-0.5,0.8-0.9,1c-0.4,0.2-0.9,0.3-1.5,0.3c-0.4,0-0.8,0-1.1-0.1c-0.3-0.1-0.6-0.2-0.8-0.4c-0.2-0.2-0.4-0.4-0.5-0.6    s-0.2-0.5-0.2-0.8c0-0.3,0.1-0.5,0.2-0.8s0.3-0.5,0.5-0.6c0.2-0.2,0.5-0.3,0.8-0.4s0.7-0.2,1.1-0.2c0.4,0,0.8,0.1,1.1,0.2    c0.3,0.1,0.6,0.3,0.8,0.5c0.2,0.2,0.4,0.4,0.4,0.7c0.1,0.3,0.1,0.5,0.1,0.8h-3.7C97.9,36.2,98,36.5,98.2,36.6z M99.8,34.7    c-0.2-0.1-0.4-0.2-0.8-0.2c-0.2,0-0.4,0-0.6,0.1c-0.1,0.1-0.3,0.1-0.4,0.2C98.1,34.8,98,34.9,98,35c0,0.1-0.1,0.2-0.1,0.2h2.3    C100.1,35,100,34.8,99.8,34.7z"></path>
		<path class="st0" d="M106.3,33.8v0.5h0c0.2-0.2,0.4-0.4,0.7-0.4c0.3-0.1,0.6-0.1,0.9-0.1c0.4,0,0.7,0.1,1,0.2    c0.3,0.1,0.5,0.3,0.7,0.4s0.3,0.4,0.4,0.6c0.1,0.2,0.1,0.5,0.1,0.8c0,0.3,0,0.5-0.1,0.7c-0.1,0.2-0.2,0.4-0.4,0.6    c-0.2,0.2-0.4,0.3-0.7,0.4c-0.3,0.1-0.6,0.2-1,0.2c-0.3,0-0.6,0-0.9-0.1c-0.3-0.1-0.5-0.2-0.7-0.4h0v1.8H105v-5.1H106.3z     M108.1,36.8c0.2-0.1,0.3-0.2,0.4-0.3c0.1-0.1,0.2-0.2,0.2-0.4s0.1-0.3,0.1-0.4c0-0.2,0-0.3-0.1-0.4c0-0.1-0.1-0.3-0.2-0.4    c-0.1-0.1-0.2-0.2-0.4-0.3c-0.2-0.1-0.3-0.1-0.6-0.1c-0.2,0-0.4,0-0.6,0.1c-0.2,0.1-0.3,0.2-0.4,0.3c-0.1,0.1-0.2,0.2-0.2,0.4    c0,0.1-0.1,0.3-0.1,0.5c0,0.1,0,0.3,0.1,0.4c0,0.1,0.1,0.3,0.2,0.4c0.1,0.1,0.2,0.2,0.4,0.3c0.2,0.1,0.3,0.1,0.6,0.1    C107.8,36.9,108,36.8,108.1,36.8z"></path>
		<path class="st0" d="M112.3,33.8v0.7h0c0.1-0.1,0.2-0.2,0.3-0.3c0.1-0.1,0.2-0.2,0.4-0.3c0.1-0.1,0.3-0.1,0.5-0.2    c0.2,0,0.3-0.1,0.5-0.1c0.1,0,0.2,0,0.3,0v1c-0.1,0-0.1,0-0.2,0c-0.1,0-0.2,0-0.3,0c-0.3,0-0.5,0-0.7,0.1    c-0.2,0.1-0.3,0.1-0.4,0.3c-0.1,0.1-0.2,0.2-0.2,0.4c0,0.1-0.1,0.3-0.1,0.5v1.7h-1.4v-3.8H112.3z"></path>
		<path class="st0" d="M114.5,34.9c0.1-0.2,0.3-0.5,0.5-0.6c0.2-0.2,0.5-0.3,0.8-0.4c0.3-0.1,0.7-0.1,1.1-0.1c0.4,0,0.8,0,1.1,0.1    c0.3,0.1,0.6,0.2,0.8,0.4c0.2,0.2,0.4,0.4,0.5,0.6c0.1,0.2,0.2,0.5,0.2,0.8c0,0.3-0.1,0.6-0.2,0.8c-0.1,0.2-0.3,0.4-0.5,0.6    c-0.2,0.2-0.5,0.3-0.8,0.4c-0.3,0.1-0.7,0.1-1.1,0.1c-0.4,0-0.8,0-1.1-0.1c-0.3-0.1-0.6-0.2-0.8-0.4c-0.2-0.2-0.4-0.4-0.5-0.6    c-0.1-0.2-0.2-0.5-0.2-0.8C114.3,35.4,114.4,35.1,114.5,34.9z M115.8,36.1c0,0.1,0.1,0.3,0.2,0.4c0.1,0.1,0.2,0.2,0.4,0.3    c0.2,0.1,0.4,0.1,0.6,0.1c0.2,0,0.4,0,0.6-0.1c0.2-0.1,0.3-0.2,0.4-0.3c0.1-0.1,0.2-0.2,0.2-0.4c0-0.1,0.1-0.3,0.1-0.4    c0-0.1,0-0.3-0.1-0.4c0-0.1-0.1-0.3-0.2-0.4c-0.1-0.1-0.2-0.2-0.4-0.3c-0.2-0.1-0.4-0.1-0.6-0.1c-0.2,0-0.4,0-0.6,0.1    c-0.2,0.1-0.3,0.2-0.4,0.3c-0.1,0.1-0.2,0.2-0.2,0.4c0,0.1-0.1,0.3-0.1,0.4C115.7,35.8,115.8,36,115.8,36.1z"></path>
		<path class="st0" d="M124.1,37.1c-0.2,0.2-0.4,0.3-0.6,0.4c-0.3,0.1-0.6,0.1-0.9,0.1c-0.4,0-0.7-0.1-1-0.2    c-0.3-0.1-0.5-0.3-0.7-0.4c-0.2-0.2-0.3-0.4-0.4-0.6c-0.1-0.2-0.1-0.5-0.1-0.8c0-0.3,0-0.5,0.1-0.7c0.1-0.2,0.2-0.4,0.4-0.6    c0.2-0.2,0.4-0.3,0.7-0.4c0.3-0.1,0.6-0.2,1-0.2c0.3,0,0.6,0,0.9,0.1c0.3,0.1,0.5,0.2,0.6,0.4h0v-1.9h1.4v5.2h-1.3L124.1,37.1    L124.1,37.1z M124,35.2c0-0.1-0.1-0.3-0.2-0.4c-0.1-0.1-0.2-0.2-0.4-0.3c-0.2-0.1-0.3-0.1-0.6-0.1s-0.4,0-0.6,0.1    c-0.2,0.1-0.3,0.2-0.4,0.3c-0.1,0.1-0.2,0.2-0.2,0.4c0,0.1-0.1,0.3-0.1,0.4c0,0.1,0,0.3,0.1,0.4c0,0.1,0.1,0.3,0.2,0.4    c0.1,0.1,0.2,0.2,0.4,0.3c0.2,0.1,0.3,0.1,0.6,0.1c0.2,0,0.4,0,0.6-0.1c0.2-0.1,0.3-0.2,0.4-0.3c0.1-0.1,0.2-0.2,0.2-0.4    c0-0.1,0.1-0.3,0.1-0.5C124.1,35.5,124,35.3,124,35.2z"></path>
		<path class="st0" d="M129.8,37.5V37h0c-0.2,0.2-0.4,0.4-0.7,0.5c-0.3,0.1-0.6,0.1-0.9,0.1c-0.4,0-0.7,0-0.9-0.1    c-0.2-0.1-0.4-0.2-0.6-0.3c-0.1-0.1-0.2-0.3-0.3-0.5c-0.1-0.2-0.1-0.4-0.1-0.6v-2.3h1.4v2.1c0,0.3,0.1,0.5,0.2,0.7    c0.1,0.2,0.4,0.2,0.7,0.2c0.4,0,0.7-0.1,0.8-0.3c0.2-0.2,0.3-0.4,0.3-0.8v-2h1.4v3.8H129.8z"></path>
		<path class="st0" d="M134.6,34.5c-0.2,0-0.4,0-0.6,0.1c-0.2,0.1-0.3,0.2-0.4,0.3c-0.1,0.1-0.2,0.2-0.2,0.4c0,0.1-0.1,0.3-0.1,0.4    c0,0.1,0,0.3,0.1,0.4c0,0.1,0.1,0.3,0.2,0.4c0.1,0.1,0.2,0.2,0.4,0.3c0.2,0.1,0.3,0.1,0.6,0.1c0.3,0,0.6-0.1,0.8-0.2    s0.3-0.3,0.3-0.6h1.3c-0.1,0.5-0.4,0.9-0.8,1.1c-0.4,0.3-1,0.4-1.7,0.4c-0.4,0-0.7,0-1-0.1c-0.3-0.1-0.6-0.2-0.8-0.4    c-0.2-0.2-0.4-0.4-0.5-0.6c-0.1-0.2-0.2-0.5-0.2-0.8c0-0.3,0.1-0.6,0.2-0.8c0.1-0.2,0.3-0.5,0.5-0.6c0.2-0.2,0.5-0.3,0.8-0.4    c0.3-0.1,0.7-0.2,1.1-0.2c0.3,0,0.6,0,0.9,0.1c0.3,0.1,0.5,0.1,0.7,0.3c0.2,0.1,0.4,0.3,0.5,0.4c0.1,0.2,0.2,0.4,0.2,0.6h-1.4    C135.5,34.7,135.2,34.5,134.6,34.5z"></path>
		<path class="st0" d="M140.5,33.8v0.7h-1v1.9c0,0.2,0,0.3,0.1,0.3c0.1,0.1,0.2,0.1,0.5,0.1c0.1,0,0.2,0,0.2,0c0.1,0,0.1,0,0.2,0    v0.8c-0.1,0-0.2,0-0.4,0c-0.1,0-0.3,0-0.4,0c-0.2,0-0.4,0-0.6,0c-0.2,0-0.4-0.1-0.5-0.1c-0.1-0.1-0.3-0.2-0.3-0.3    c-0.1-0.1-0.1-0.3-0.1-0.5v-2.2h-0.8v-0.7h0.8v-1.1h1.4v1.1H140.5z"></path>
		<path class="st0" d="M142.3,36.6c0.1,0.1,0.1,0.1,0.2,0.2c0.1,0.1,0.2,0.1,0.3,0.1c0.1,0,0.3,0,0.4,0c0.1,0,0.2,0,0.3,0    c0.1,0,0.2,0,0.3-0.1c0.1,0,0.2-0.1,0.2-0.1c0.1-0.1,0.1-0.1,0.1-0.2c0-0.2-0.1-0.3-0.4-0.3c-0.3-0.1-0.7-0.2-1.2-0.2    c-0.2,0-0.4-0.1-0.6-0.1c-0.2,0-0.4-0.1-0.5-0.2c-0.2-0.1-0.3-0.2-0.4-0.3c-0.1-0.1-0.1-0.3-0.1-0.4c0-0.2,0.1-0.4,0.2-0.6    s0.3-0.3,0.5-0.4c0.2-0.1,0.4-0.2,0.7-0.2c0.3,0,0.5-0.1,0.8-0.1c0.3,0,0.5,0,0.8,0.1c0.3,0,0.5,0.1,0.7,0.2    c0.2,0.1,0.4,0.2,0.5,0.4c0.1,0.2,0.2,0.3,0.2,0.6h-1.3c0-0.2-0.1-0.3-0.3-0.4c-0.2-0.1-0.4-0.1-0.7-0.1c-0.1,0-0.2,0-0.3,0    c-0.1,0-0.2,0-0.3,0c-0.1,0-0.1,0.1-0.2,0.1c-0.1,0-0.1,0.1-0.1,0.2c0,0.1,0,0.2,0.1,0.2c0.1,0.1,0.2,0.1,0.4,0.1    c0.1,0,0.3,0.1,0.5,0.1s0.4,0.1,0.6,0.1c0.2,0,0.4,0.1,0.6,0.1c0.2,0,0.4,0.1,0.5,0.2c0.2,0.1,0.3,0.2,0.4,0.3    c0.1,0.1,0.1,0.3,0.1,0.4c0,0.2-0.1,0.5-0.2,0.6c-0.1,0.2-0.3,0.3-0.5,0.4c-0.2,0.1-0.5,0.2-0.7,0.2c-0.3,0-0.6,0.1-0.9,0.1    c-0.3,0-0.6,0-0.9-0.1c-0.3,0-0.5-0.1-0.8-0.2c-0.2-0.1-0.4-0.2-0.5-0.4c-0.1-0.2-0.2-0.4-0.2-0.6h1.3    C142.2,36.4,142.2,36.5,142.3,36.6z"></path>
	</g>
	<g>
		<path class="st0" d="M32.7,24.8c0.1-0.5,0.3-0.9,0.7-1.2c0.4-0.3,0.9-0.6,1.5-0.8c0.6-0.2,1.3-0.3,2-0.4c0.7-0.1,1.5-0.1,2.3-0.1    c0.7,0,1.4,0,2.1,0.1c0.7,0.1,1.3,0.2,1.9,0.3c0.6,0.2,1.1,0.4,1.4,0.6c0.4,0.3,0.6,0.6,0.6,1.1v3.9c0,0.3,0,0.7,0.1,1    c0.1,0.3,0.2,0.5,0.4,0.7h-3.8c-0.1-0.1-0.1-0.2-0.2-0.4c0-0.1-0.1-0.2-0.1-0.4c-0.6,0.3-1.3,0.6-2.1,0.7    c-0.8,0.1-1.6,0.2-2.5,0.2c-0.7,0-1.3,0-1.8-0.1c-0.6-0.1-1.1-0.2-1.5-0.4c-0.4-0.2-0.8-0.4-1-0.7c-0.2-0.3-0.4-0.6-0.4-1    c0-0.4,0.1-0.8,0.4-1c0.3-0.3,0.6-0.5,1.1-0.7c0.4-0.2,0.9-0.3,1.5-0.4c0.6-0.1,1.1-0.1,1.7-0.2c0.6,0,1.1-0.1,1.7-0.1    c0.5,0,1-0.1,1.5-0.1c0.4-0.1,0.8-0.1,1-0.3c0.2-0.1,0.4-0.3,0.3-0.5c0-0.2-0.1-0.4-0.2-0.5c-0.1-0.1-0.3-0.2-0.5-0.3    c-0.2-0.1-0.5-0.1-0.8-0.1c-0.3,0-0.6,0-0.9,0c-0.7,0-1.3,0.1-1.7,0.3c-0.4,0.2-0.7,0.5-0.7,0.9H32.7z M41.4,26.3    c-0.2,0.1-0.4,0.1-0.6,0.2c-0.2,0-0.5,0.1-0.8,0.1c-0.3,0-0.6,0.1-0.9,0.1c-0.3,0-0.6,0-0.9,0.1c-0.3,0-0.6,0.1-0.8,0.1    c-0.3,0-0.5,0.1-0.7,0.2c-0.2,0.1-0.4,0.2-0.5,0.3c-0.1,0.1-0.2,0.3-0.2,0.5c0,0.2,0.1,0.3,0.2,0.5c0.1,0.1,0.3,0.2,0.5,0.3    c0.2,0.1,0.5,0.1,0.7,0.2c0.3,0,0.6,0,0.9,0c0.7,0,1.3-0.1,1.7-0.2c0.4-0.1,0.7-0.3,0.9-0.5c0.2-0.2,0.3-0.4,0.4-0.6    c0-0.2,0.1-0.3,0.1-0.5V26.3z"></path>
		<path class="st0" d="M57.5,29c-0.4,0.4-1,0.7-1.7,0.9c-0.7,0.2-1.5,0.3-2.4,0.3c-1,0-1.9-0.1-2.7-0.3c-0.8-0.2-1.4-0.5-1.9-0.9    c-0.5-0.4-0.9-0.8-1.1-1.3c-0.3-0.5-0.4-1-0.4-1.5c0-0.5,0.1-1,0.4-1.4c0.3-0.5,0.6-0.9,1.1-1.2c0.5-0.4,1.1-0.6,1.9-0.9    c0.8-0.2,1.6-0.3,2.6-0.3c0.8,0,1.6,0.1,2.3,0.3c0.7,0.2,1.3,0.5,1.7,0.8h0.1v-3.7h3.7v10.3h-3.6L57.5,29L57.5,29z M57.3,25.3    c-0.1-0.3-0.3-0.5-0.5-0.7c-0.3-0.2-0.6-0.4-1-0.5c-0.4-0.1-0.9-0.2-1.5-0.2c-0.6,0-1.1,0.1-1.6,0.2c-0.4,0.1-0.8,0.3-1,0.5    c-0.3,0.2-0.4,0.5-0.6,0.8C51,25.6,51,25.9,51,26.2c0,0.3,0.1,0.6,0.2,0.9c0.1,0.3,0.3,0.5,0.6,0.8c0.3,0.2,0.6,0.4,1,0.5    c0.4,0.1,0.9,0.2,1.5,0.2c0.6,0,1.1-0.1,1.5-0.2c0.4-0.1,0.7-0.3,1-0.5c0.2-0.2,0.4-0.5,0.5-0.8c0.1-0.3,0.2-0.6,0.2-0.9    C57.5,25.9,57.5,25.6,57.3,25.3z"></path>
		<path class="st0" d="M63.6,24.8c0.1-0.5,0.3-0.9,0.7-1.2c0.4-0.3,0.9-0.6,1.5-0.8c0.6-0.2,1.3-0.3,2-0.4c0.7-0.1,1.5-0.1,2.3-0.1    c0.7,0,1.4,0,2.1,0.1c0.7,0.1,1.3,0.2,1.9,0.3c0.6,0.2,1.1,0.4,1.4,0.6c0.4,0.3,0.6,0.6,0.6,1.1v3.9c0,0.3,0,0.7,0.1,1    c0.1,0.3,0.2,0.5,0.4,0.7h-3.8c-0.1-0.1-0.1-0.2-0.2-0.4c0-0.1-0.1-0.2-0.1-0.4c-0.6,0.3-1.3,0.6-2.1,0.7    c-0.8,0.1-1.6,0.2-2.5,0.2c-0.7,0-1.3,0-1.8-0.1c-0.6-0.1-1.1-0.2-1.5-0.4c-0.4-0.2-0.8-0.4-1-0.7c-0.2-0.3-0.4-0.6-0.4-1    c0-0.4,0.1-0.8,0.4-1c0.3-0.3,0.6-0.5,1.1-0.7c0.4-0.2,0.9-0.3,1.5-0.4c0.6-0.1,1.1-0.1,1.7-0.2c0.6,0,1.1-0.1,1.7-0.1    c0.5,0,1-0.1,1.5-0.1c0.4-0.1,0.8-0.1,1-0.3c0.2-0.1,0.4-0.3,0.3-0.5c0-0.2-0.1-0.4-0.2-0.5c-0.1-0.1-0.3-0.2-0.5-0.3    c-0.2-0.1-0.5-0.1-0.8-0.1c-0.3,0-0.6,0-0.9,0c-0.7,0-1.3,0.1-1.7,0.3c-0.4,0.2-0.7,0.5-0.7,0.9H63.6z M72.2,26.3    c-0.2,0.1-0.4,0.1-0.6,0.2c-0.2,0-0.5,0.1-0.8,0.1c-0.3,0-0.6,0.1-0.9,0.1c-0.3,0-0.6,0-0.9,0.1c-0.3,0-0.6,0.1-0.8,0.1    c-0.3,0-0.5,0.1-0.7,0.2c-0.2,0.1-0.4,0.2-0.5,0.3c-0.1,0.1-0.2,0.3-0.2,0.5c0,0.2,0.1,0.3,0.2,0.5c0.1,0.1,0.3,0.2,0.5,0.3    c0.2,0.1,0.5,0.1,0.7,0.2c0.3,0,0.6,0,0.9,0c0.7,0,1.3-0.1,1.7-0.2c0.4-0.1,0.7-0.3,0.9-0.5c0.2-0.2,0.3-0.4,0.4-0.6    c0-0.2,0.1-0.3,0.1-0.5V26.3z"></path>
		<path class="st0" d="M82.3,22.5v1h0.1c0.5-0.4,1.1-0.7,1.8-0.9c0.7-0.2,1.5-0.3,2.4-0.3c0.9,0,1.6,0.1,2.4,0.3    c0.7,0.2,1.3,0.5,1.6,1c0.4-0.3,1-0.6,1.6-0.9c0.7-0.2,1.5-0.4,2.5-0.4c0.7,0,1.4,0,2,0.1c0.6,0.1,1.1,0.2,1.6,0.5    c0.4,0.2,0.8,0.5,1,0.8c0.2,0.3,0.4,0.8,0.4,1.2v5h-3.7v-4.2c0-0.2,0-0.5-0.1-0.7c0-0.2-0.1-0.4-0.3-0.6c-0.2-0.2-0.4-0.3-0.7-0.4    c-0.3-0.1-0.7-0.1-1.3-0.1s-1,0.1-1.3,0.2c-0.3,0.1-0.6,0.3-0.8,0.4c-0.2,0.2-0.3,0.4-0.4,0.6c-0.1,0.2-0.1,0.5-0.1,0.7v4.1h-3.7    v-4.2c0-0.2,0-0.4,0-0.7c0-0.2-0.1-0.4-0.2-0.6c-0.1-0.2-0.4-0.3-0.7-0.4c-0.3-0.1-0.8-0.2-1.4-0.2c-0.2,0-0.4,0-0.7,0.1    c-0.3,0-0.6,0.1-0.8,0.2c-0.3,0.1-0.5,0.3-0.7,0.5c-0.2,0.2-0.3,0.5-0.3,0.9v4.3h-3.7v-7.4H82.3z"></path>
		<path class="st0" d="M105.5,28.1c0.2,0.2,0.4,0.3,0.6,0.4c0.3,0.1,0.6,0.2,0.9,0.2c0.3,0,0.7,0.1,1.1,0.1c0.3,0,0.5,0,0.8-0.1    c0.3,0,0.6-0.1,0.8-0.2c0.2-0.1,0.4-0.2,0.6-0.3c0.2-0.1,0.2-0.3,0.2-0.5c0-0.3-0.4-0.5-1.1-0.7c-0.7-0.2-1.8-0.3-3.1-0.5    c-0.5-0.1-1.1-0.1-1.6-0.2c-0.5-0.1-1-0.2-1.4-0.4c-0.4-0.1-0.7-0.3-1-0.6c-0.2-0.2-0.4-0.5-0.4-0.8c0-0.5,0.2-0.9,0.5-1.2    c0.3-0.3,0.8-0.5,1.4-0.7c0.6-0.2,1.2-0.3,1.9-0.4c0.7-0.1,1.4-0.1,2.2-0.1c0.7,0,1.5,0,2.1,0.1c0.7,0.1,1.3,0.2,1.9,0.4    c0.5,0.2,1,0.4,1.4,0.7c0.4,0.3,0.6,0.7,0.6,1.1h-3.6c-0.1-0.4-0.3-0.7-0.8-0.8c-0.5-0.1-1.1-0.2-1.7-0.2c-0.2,0-0.4,0-0.7,0    c-0.2,0-0.5,0-0.7,0.1c-0.2,0-0.4,0.1-0.5,0.2c-0.1,0.1-0.2,0.2-0.2,0.4c0,0.2,0.1,0.3,0.4,0.4c0.2,0.1,0.6,0.2,1,0.3    c0.4,0.1,0.8,0.1,1.4,0.2c0.5,0.1,1,0.1,1.6,0.2c0.5,0.1,1.1,0.1,1.6,0.2c0.5,0.1,1,0.2,1.4,0.4c0.4,0.2,0.7,0.4,1,0.6    c0.2,0.2,0.4,0.5,0.4,0.9c0,0.5-0.2,0.9-0.5,1.2c-0.4,0.3-0.8,0.6-1.4,0.8c-0.6,0.2-1.2,0.3-2,0.4c-0.7,0.1-1.5,0.1-2.3,0.1    c-0.8,0-1.6,0-2.3-0.1c-0.8-0.1-1.4-0.2-2-0.4c-0.6-0.2-1.1-0.5-1.5-0.8c-0.4-0.3-0.6-0.7-0.6-1.2h3.6    C105.2,27.7,105.3,27.9,105.5,28.1z"></path>
		<path class="st0" d="M116.4,24.6c0.3-0.5,0.8-0.9,1.4-1.2c0.6-0.3,1.4-0.6,2.2-0.8c0.9-0.2,1.8-0.3,2.9-0.3c1.1,0,2,0.1,2.9,0.3    c0.9,0.2,1.6,0.5,2.2,0.8c0.6,0.3,1.1,0.8,1.4,1.2c0.3,0.5,0.5,1,0.5,1.6s-0.2,1.1-0.5,1.6c-0.3,0.5-0.8,0.9-1.4,1.2    c-0.6,0.3-1.4,0.6-2.2,0.8c-0.9,0.2-1.8,0.3-2.9,0.3c-1.1,0-2-0.1-2.9-0.3c-0.9-0.2-1.6-0.4-2.2-0.8c-0.6-0.3-1.1-0.7-1.4-1.2    c-0.3-0.5-0.5-1-0.5-1.6S116,25.1,116.4,24.6z M119.8,27.1c0.1,0.3,0.3,0.5,0.5,0.8c0.3,0.2,0.6,0.4,1,0.5    c0.4,0.1,0.9,0.2,1.6,0.2s1.2-0.1,1.6-0.2c0.4-0.1,0.8-0.3,1-0.5c0.3-0.2,0.4-0.5,0.5-0.8c0.1-0.3,0.2-0.6,0.2-0.9    c0-0.3-0.1-0.6-0.2-0.9c-0.1-0.3-0.3-0.5-0.5-0.8c-0.3-0.2-0.6-0.4-1-0.5c-0.4-0.1-1-0.2-1.6-0.2s-1.2,0.1-1.6,0.2s-0.8,0.3-1,0.5    c-0.3,0.2-0.4,0.5-0.5,0.8c-0.1,0.3-0.2,0.6-0.2,0.9C119.6,26.5,119.7,26.8,119.8,27.1z"></path>
		<path class="st0" d="M135.8,22.5v1h0.1c0.5-0.4,1.1-0.7,1.8-0.9c0.8-0.2,1.5-0.3,2.3-0.3c1,0,1.8,0.1,2.5,0.2    c0.6,0.1,1.1,0.4,1.5,0.6c0.4,0.3,0.6,0.6,0.8,1c0.1,0.4,0.2,0.8,0.2,1.3v4.6h-3.7v-4.2c0-0.6-0.2-1.1-0.5-1.4    c-0.4-0.3-1-0.5-1.9-0.5c-1,0-1.8,0.2-2.2,0.5c-0.5,0.3-0.7,0.9-0.7,1.6v3.9h-3.7v-7.4H135.8z"></path>
	</g>
	<g>
		<path class="st0" d="M39.3,33.7v0.5h-1.8v0.5h1.7v0.4h-1.7v0.6h1.9v0.5h-2.6v-2.6H39.3z"></path>
		<path class="st0" d="M40.3,35.8c0,0,0.1,0.1,0.1,0.1c0,0,0.1,0,0.2,0.1c0.1,0,0.1,0,0.2,0c0,0,0.1,0,0.2,0c0.1,0,0.1,0,0.1,0    c0,0,0.1,0,0.1-0.1c0,0,0-0.1,0-0.1c0-0.1-0.1-0.1-0.2-0.2c-0.1,0-0.3-0.1-0.6-0.1c-0.1,0-0.2,0-0.3-0.1c-0.1,0-0.2-0.1-0.3-0.1    c-0.1,0-0.1-0.1-0.2-0.1c0-0.1-0.1-0.1-0.1-0.2c0-0.1,0-0.2,0.1-0.3c0.1-0.1,0.1-0.1,0.3-0.2c0.1,0,0.2-0.1,0.4-0.1    c0.1,0,0.3,0,0.4,0c0.1,0,0.3,0,0.4,0c0.1,0,0.2,0.1,0.3,0.1c0.1,0,0.2,0.1,0.3,0.2c0.1,0.1,0.1,0.2,0.1,0.3h-0.7    c0-0.1-0.1-0.2-0.2-0.2c-0.1,0-0.2-0.1-0.3-0.1c0,0-0.1,0-0.1,0c0,0-0.1,0-0.1,0s-0.1,0-0.1,0.1c0,0,0,0.1,0,0.1    c0,0,0,0.1,0.1,0.1c0,0,0.1,0.1,0.2,0.1c0.1,0,0.2,0,0.3,0c0.1,0,0.2,0,0.3,0c0.1,0,0.2,0,0.3,0.1c0.1,0,0.2,0.1,0.3,0.1    c0.1,0,0.1,0.1,0.2,0.1c0,0.1,0.1,0.1,0.1,0.2c0,0.1,0,0.2-0.1,0.3c-0.1,0.1-0.2,0.1-0.3,0.2c-0.1,0-0.2,0.1-0.4,0.1    c-0.1,0-0.3,0-0.4,0c-0.1,0-0.3,0-0.4,0c-0.1,0-0.3-0.1-0.4-0.1c-0.1-0.1-0.2-0.1-0.3-0.2c-0.1-0.1-0.1-0.2-0.1-0.3h0.7    C40.3,35.7,40.3,35.7,40.3,35.8z"></path>
		<path class="st0" d="M43.7,34.4v0.3h-0.5v0.9c0,0.1,0,0.1,0.1,0.2c0,0,0.1,0,0.2,0c0,0,0.1,0,0.1,0c0,0,0.1,0,0.1,0v0.4    c-0.1,0-0.1,0-0.2,0c-0.1,0-0.1,0-0.2,0c-0.1,0-0.2,0-0.3,0c-0.1,0-0.2,0-0.3-0.1c-0.1,0-0.1-0.1-0.2-0.1c0-0.1-0.1-0.1-0.1-0.2    v-1.1h-0.4v-0.3h0.4v-0.6h0.7v0.6H43.7z"></path>
		<path class="st0" d="M44.8,35.7v0.6H44v-0.6H44.8z"></path>
		<path class="st0" d="M47.6,36.2v-1.6h-0.9v-0.4c0.1,0,0.2,0,0.3,0c0.1,0,0.2,0,0.3-0.1c0.1,0,0.2-0.1,0.2-0.2    c0.1-0.1,0.1-0.1,0.1-0.2h0.6v2.5H47.6z"></path>
		<path class="st0" d="M50,35.8c0.1,0.1,0.2,0.1,0.3,0.1c0.1,0,0.2,0,0.3-0.1c0.1-0.1,0.1-0.1,0.2-0.2c0-0.1,0.1-0.2,0.1-0.2    c0-0.1,0-0.2,0-0.2l0,0c-0.1,0.1-0.2,0.2-0.3,0.2c-0.1,0-0.3,0.1-0.4,0.1c-0.1,0-0.3,0-0.4-0.1c-0.1,0-0.3-0.1-0.4-0.2    c-0.1-0.1-0.2-0.2-0.2-0.3s-0.1-0.2-0.1-0.3c0-0.1,0-0.2,0.1-0.4c0.1-0.1,0.1-0.2,0.2-0.3c0.1-0.1,0.2-0.1,0.4-0.2    c0.1,0,0.3-0.1,0.5-0.1c0.3,0,0.5,0,0.6,0.1c0.2,0.1,0.3,0.2,0.4,0.3c0.1,0.1,0.2,0.3,0.2,0.4c0,0.2,0.1,0.3,0.1,0.5    c0,0.2,0,0.3-0.1,0.5c0,0.2-0.1,0.3-0.2,0.4c-0.1,0.1-0.2,0.2-0.4,0.3c-0.2,0.1-0.4,0.1-0.6,0.1c-0.1,0-0.3,0-0.4,0    c-0.1,0-0.2-0.1-0.3-0.1c-0.1-0.1-0.2-0.1-0.2-0.2c-0.1-0.1-0.1-0.2-0.1-0.3h0.7C49.9,35.7,49.9,35.7,50,35.8z M50.6,35    c0.1,0,0.1-0.1,0.2-0.1c0,0,0.1-0.1,0.1-0.1c0-0.1,0-0.1,0-0.2c0-0.1,0-0.1,0-0.2c0-0.1-0.1-0.1-0.1-0.2c0,0-0.1-0.1-0.2-0.1    s-0.1,0-0.2,0c-0.1,0-0.2,0-0.2,0c-0.1,0-0.1,0.1-0.2,0.1c0,0-0.1,0.1-0.1,0.1c0,0.1,0,0.1,0,0.2c0,0.1,0,0.1,0,0.2    c0,0.1,0.1,0.1,0.1,0.2c0,0,0.1,0.1,0.2,0.1c0.1,0,0.1,0,0.2,0C50.5,35,50.5,35,50.6,35z"></path>
		<path class="st0" d="M52,34c0.1-0.1,0.2-0.2,0.3-0.2c0.1-0.1,0.2-0.1,0.4-0.1c0.1,0,0.3,0,0.4,0c0.2,0,0.4,0,0.5,0.1    c0.1,0,0.3,0.1,0.4,0.2c0.1,0.1,0.2,0.1,0.2,0.2s0.1,0.1,0.1,0.2c0,0.1,0,0.2-0.1,0.3c-0.1,0.1-0.2,0.2-0.4,0.2v0    c0.2,0,0.4,0.1,0.5,0.2c0.1,0.1,0.2,0.2,0.2,0.4c0,0.1,0,0.3-0.1,0.3c-0.1,0.1-0.2,0.2-0.3,0.2s-0.3,0.1-0.4,0.1    c-0.2,0-0.3,0-0.5,0c-0.2,0-0.3,0-0.5,0c-0.2,0-0.3-0.1-0.4-0.1c-0.1-0.1-0.2-0.1-0.3-0.2c-0.1-0.1-0.1-0.2-0.1-0.4    c0-0.2,0.1-0.3,0.2-0.4c0.1-0.1,0.3-0.2,0.5-0.2v0c-0.2,0-0.3-0.1-0.4-0.2c-0.1-0.1-0.1-0.2-0.1-0.3C51.9,34.2,52,34.1,52,34z     M52.5,35.6c0,0.1,0.1,0.1,0.1,0.1c0.1,0,0.1,0.1,0.2,0.1c0.1,0,0.2,0,0.2,0c0.1,0,0.2,0,0.2,0c0.1,0,0.1,0,0.2-0.1    c0.1,0,0.1-0.1,0.1-0.1c0-0.1,0-0.1,0-0.2c0-0.1,0-0.1,0-0.2c0,0-0.1-0.1-0.1-0.1c-0.1,0-0.1-0.1-0.2-0.1c-0.1,0-0.1,0-0.2,0    c-0.2,0-0.3,0-0.4,0.1c-0.1,0.1-0.2,0.2-0.2,0.3C52.5,35.5,52.5,35.6,52.5,35.6z M52.7,34.6c0.1,0.1,0.2,0.1,0.4,0.1    c0.1,0,0.3,0,0.4-0.1c0.1-0.1,0.1-0.1,0.1-0.2c0,0,0-0.1,0-0.1c0,0,0-0.1-0.1-0.1c0,0-0.1-0.1-0.2-0.1c-0.1,0-0.2,0-0.3,0    c-0.1,0-0.1,0-0.2,0c-0.1,0-0.1,0-0.2,0.1c0,0-0.1,0.1-0.1,0.1c0,0,0,0.1,0,0.2C52.6,34.5,52.6,34.6,52.7,34.6z"></path>
		<path class="st0" d="M54.6,34.3c0.1-0.2,0.2-0.3,0.3-0.4c0.1-0.1,0.2-0.2,0.4-0.2c0.2,0,0.3-0.1,0.5-0.1c0.2,0,0.3,0,0.5,0.1    c0.2,0,0.3,0.1,0.4,0.2c0.1,0.1,0.2,0.2,0.3,0.4C57,34.5,57,34.7,57,35c0,0.3,0,0.5-0.1,0.6c-0.1,0.2-0.2,0.3-0.3,0.4    c-0.1,0.1-0.2,0.2-0.4,0.2c-0.2,0-0.3,0.1-0.5,0.1c-0.2,0-0.3,0-0.5-0.1c-0.2,0-0.3-0.1-0.4-0.2c-0.1-0.1-0.2-0.2-0.3-0.4    c-0.1-0.2-0.1-0.4-0.1-0.6C54.5,34.7,54.5,34.5,54.6,34.3z M55.2,35.2c0,0.1,0,0.2,0.1,0.3c0,0.1,0.1,0.2,0.2,0.2    c0.1,0.1,0.2,0.1,0.3,0.1c0.1,0,0.3,0,0.3-0.1c0.1-0.1,0.1-0.1,0.2-0.2c0-0.1,0.1-0.2,0.1-0.3c0-0.1,0-0.2,0-0.3c0,0,0-0.1,0-0.2    c0-0.1,0-0.1,0-0.2c0-0.1,0-0.1,0-0.2c0-0.1-0.1-0.1-0.1-0.2c0-0.1-0.1-0.1-0.2-0.1c-0.1,0-0.1,0-0.2,0c-0.1,0-0.2,0-0.2,0    c-0.1,0-0.1,0.1-0.2,0.1c0,0.1-0.1,0.1-0.1,0.2c0,0.1,0,0.1,0,0.2s0,0.1,0,0.2c0,0.1,0,0.1,0,0.2C55.2,35,55.2,35.1,55.2,35.2z"></path>
	</g>
</g>
</svg>
