<?xml version="1.0" encoding="UTF-8"?>
<svg xmlns="http://www.w3.org/2000/svg" xmlns:xlink="http://www.w3.org/1999/xlink" width="165px" height="42px" viewBox="0 0 165 42">
  <!-- Generator: Sketch 49 (51002) - http://www.bohemiancoding.com/sketch -->
  <title>aramark</title>
  <desc>Created with Sketch.</desc>
  <defs>
    <polygon id="path-1" points="0.5956 0.997 10.7706 0.997 10.7706 11.1719 0.5956 11.1719"></polygon>
  </defs>
  <g id="Visual-Design" stroke="none" stroke-width="1" fill="none" fill-rule="evenodd">
    <g id="customers" transform="translate(-728.000000, -1819.000000)">
      <g id="select-clients" transform="translate(142.000000, 1720.000000)">
        <g id="aramark" transform="translate(586.000000, 98.000000)">
          <path d="M36.9961,16.3255 C39.8171,16.3255 42.1051,18.6135 42.1051,21.4345 C42.1051,24.2565 39.8171,26.5435 36.9961,26.5435 C34.1751,26.5435 31.8871,24.2565 31.8871,21.4345 C31.8871,18.6135 34.1751,16.3255 36.9961,16.3255 Z M42.4521,13.0795 L45.9591,13.0795 L45.9591,29.9655 L42.4521,29.9655 L42.4521,27.8205 C40.9841,29.0755 39.0791,29.8345 36.9961,29.8345 C32.3571,29.8345 28.5971,26.0735 28.5971,21.4345 C28.5971,16.7955 32.3571,13.0355 36.9961,13.0355 C39.0791,13.0355 40.9841,13.7935 42.4521,15.0485 L42.4521,13.0795 Z" id="Fill-1" fill="#90908F"></path>
          <path d="M81.5537,16.3255 C84.3747,16.3255 86.6617,18.6135 86.6617,21.4345 C86.6617,24.2565 84.3747,26.5435 81.5537,26.5435 C78.7317,26.5435 76.4447,24.2565 76.4447,21.4345 C76.4447,18.6135 78.7317,16.3255 81.5537,16.3255 Z M87.0087,13.0795 L90.5157,13.0795 L90.5157,29.9655 L87.0087,29.9655 L87.0087,27.8205 C85.5407,29.0755 83.6357,29.8345 81.5537,29.8345 C76.9137,29.8345 73.1537,26.0735 73.1537,21.4345 C73.1537,16.7955 76.9137,13.0355 81.5537,13.0355 C83.6357,13.0355 85.5407,13.7935 87.0087,15.0485 L87.0087,13.0795 Z" id="Fill-3" fill="#90908F"></path>
          <path d="M8.3994,16.3255 C11.2204,16.3255 13.5084,18.6135 13.5084,21.4345 C13.5084,24.2565 11.2204,26.5435 8.3994,26.5435 C5.5784,26.5435 3.2914,24.2565 3.2914,21.4345 C3.2914,18.6135 5.5784,16.3255 8.3994,16.3255 Z M17.3624,13.0805 L17.3624,29.9655 L17.3624,30.1185 L13.8564,30.1185 L13.8564,29.9655 L13.8554,29.9655 L13.8554,27.8205 C12.3874,29.0755 10.4824,29.8345 8.3994,29.8345 C3.7604,29.8345 0.0004,26.0735 0.0004,21.4345 C0.0004,16.7955 3.7604,13.0355 8.3994,13.0355 C10.4824,13.0355 12.3874,13.7935 13.8554,15.0485 L13.8554,13.0795 L17.3624,13.0795 L17.3624,13.0805 Z" id="Fill-5" fill="#90908F"></path>
          <path d="M19.8418,13.0804 L23.3478,13.0804 L23.3478,14.3344 C23.9158,13.9334 25.5088,13.0324 28.5218,12.9154 L28.5218,16.7044 C28.5218,16.7044 24.9958,16.7044 23.3478,18.9954 L23.3478,30.1184 L19.8418,30.1184 L19.8418,13.0804 Z" id="Fill-7" fill="#90908F"></path>
          <path d="M92.9951,13.0804 L96.5011,13.0804 L96.5011,14.3344 C97.0691,13.9334 98.6631,13.0324 101.6751,12.9154 L101.6751,16.7044 C101.6751,16.7044 98.1491,16.7044 96.5011,18.9954 L96.5011,30.1184 L92.9951,30.1184 L92.9951,13.0804 Z" id="Fill-9" fill="#90908F"></path>
          <path d="M60.4092,15.8528 L60.4352,15.8528 C63.8362,11.0788 71.5232,13.4358 72.0602,18.2978 L72.0602,18.6218 L72.0602,30.1238 L68.5552,30.1238 L68.5552,18.7948 C67.8532,16.4348 63.4592,15.5198 62.1502,18.6868 L62.0852,30.1238 L58.5792,30.1238 L58.5792,18.6578 C58.2532,16.6468 53.3682,15.2248 52.1092,18.7448 L52.1092,30.1238 L48.6032,30.1238 L48.6032,13.0858 L52.1092,13.0858 L52.1092,14.7038 C53.0022,13.3088 58.2402,11.8438 60.4092,15.8528" id="Fill-11" fill="#90908F"></path>
          <polygon id="Fill-13" fill="#90908F" points="117.6631 30.0784 117.6431 30.0964 113.0091 30.0964 107.4991 23.8294 107.4991 30.0964 107.1961 30.0964 107.1421 30.0974 103.9931 30.0974 103.9931 7.9794 107.4991 7.9794 107.4991 20.2414 113.7131 13.0804 118.3981 13.0834 110.5891 22.0334"></polygon>
          <path d="M121.916,12.263 C126.271,8.287 144.177,12.895 149.149,13.392 C151.23,13.601 157.49,13.915 164.953,11.311 C164.953,11.311 162.442,18.065 147.374,25.425 C147.374,25.425 149.452,30.101 139.841,43.003 C139.841,43.003 139.754,31.487 130.835,34.604 C130.835,34.604 110.14,44.042 105.896,42.743 C105.896,42.743 131.984,28.715 129.941,17.825 C129.14,13.536 125.559,13.103 121.916,12.263" id="Fill-15" fill="#90908F"></path>
          <g id="Group-19" transform="translate(141.000000, 0.003400)">
            <mask id="mask-2" fill="white">
              <use xlink:href="#path-1"></use>
            </mask>
            <g id="Clip-18"></g>
            <path d="M5.6826,0.9969 C8.4936,0.9969 10.7706,3.2739 10.7706,6.0839 C10.7706,8.8939 8.4936,11.1719 5.6826,11.1719 C2.8726,11.1719 0.5956,8.8939 0.5956,6.0839 C0.5956,3.2739 2.8726,0.9969 5.6826,0.9969" id="Fill-17" fill="#90908F" mask="url(#mask-2)"></path>
          </g>
          <polygon id="Fill-20" fill="#90908F" points="144.6787 40.6644 144.6787 39.2754 144.0897 39.2754 144.0897 38.9924 145.6677 38.9924 145.6677 39.2754 145.0797 39.2754 145.0797 40.6644"></polygon>
          <polygon id="Fill-22" fill="#90908F" points="145.9209 40.6644 145.9209 38.9924 146.5209 38.9924 146.8809 40.1334 147.2359 38.9924 147.8379 38.9924 147.8379 40.6644 147.4659 40.6644 147.4659 39.3494 147.0709 40.6644 146.6859 40.6644 146.2929 39.3494 146.2929 40.6644"></polygon>
        </g>
      </g>
    </g>
  </g>
</svg>
