<?xml version="1.0" encoding="UTF-8"?>
<!-- Generator: Adobe Illustrator 22.1.0, SVG Export Plug-In . SVG Version: 6.00 Build 0)  -->
<svg xmlns="http://www.w3.org/2000/svg" xmlns:xlink="http://www.w3.org/1999/xlink" id="Layer_1" x="0px" y="0px" viewBox="0 0 151 67" style="enable-background:new 0 0 151 67;" xml:space="preserve">
<style type="text/css">
	.st0{fill:#808285;}
</style>
<title>accenture</title>
<desc>Created with Sketch.</desc>
<g id="BPliZt_2_">
	<g>
		<g>
			<path class="st0" d="M46,23.7c0-0.2,0-0.4-0.1-0.5c-0.2-0.5-0.6-0.6-1.2-0.3c-0.5,0.3-1,0.6-1.6,0.9c-0.6,0.3-1.3,0.4-2.1,0.3     c0.2-0.1,0.3-0.2,0.4-0.3c0.6-0.5,1.3-0.9,1.9-1.4c0.4-0.3,0.5-0.7,0.3-1c-0.2-0.3-0.5-0.4-1-0.3c-1.1,0.4-2.3,0.6-3.4,0.3     c-0.6-0.1-1.2-0.4-1.7-0.8c0-0.2,0-0.5,0.1-0.7c0.5-0.1,1-0.2,1.4-0.3c0.7-0.3,1.5-0.6,2.2-0.9c0.4-0.2,0.5-0.6,0.4-0.9     c-0.1-0.4-0.5-0.5-0.8-0.5c-0.8,0.1-1.6-0.1-2.4-0.3c0.3-0.3,0.7-0.5,0.9-0.8c0.3-0.4,0-0.7-0.3-1.1c1.6-1.3,3.2-2.4,4.9-3.4     C49.4,8.3,55.3,6,61.4,4.4c4.4-1.2,9-2,13.5-2.5c4.5-0.5,9.1-0.7,13.6-0.6c9.2,0.3,18.1,1.6,26.8,4.6c5.4,1.8,10.5,4.2,15.2,7.5     c3.5,2.5,6.6,5.3,9,8.9c1.8,2.7,3,5.7,3.4,9c0.4,3.7-0.3,7.2-1.9,10.5c-1.7,3.5-4.1,6.3-7,8.9c-4.2,3.6-8.9,6.3-13.9,8.4     c-5.6,2.3-11.3,3.9-17.3,4.9c-4.4,0.8-8.9,1.2-13.4,1.4c-7.7,0.2-15.3-0.3-22.8-1.8c-6.2-1.3-12.2-3.1-17.9-5.9     c-0.2-0.1-0.4-0.2-0.6-0.3c0,0-0.1-0.1-0.1-0.1c0.6-0.4,1.2-0.7,1.7-1.1c0.5-0.4,1.3-0.7,1.1-1.6c2.2-0.8,3.9-2.4,5.4-4.1     c0.4-0.4,0.7-0.5,1.3-0.5c24.3,0,48.5,0,72.8,0c0.3,0,0.6,0,1,0c0-3.1,0-6.2,0-9.3c-27,0-54,0-80.9,0c0.3-0.4,0.6-0.8,0.9-1.1     c0.3-0.4,0.6-0.7,0.9-1.1c0.2-0.3,0.2-0.7-0.1-1c-0.3-0.2-0.6-0.3-0.9-0.1c-0.2,0.1-0.3,0.2-0.5,0.3c-0.6,0.4-1.2,0.6-2.1,0.7     c0.3-0.3,0.5-0.5,0.7-0.8c0.3-0.4,0.3-0.7,0-1c-0.3-0.3-0.6-0.3-1-0.1c-0.8,0.4-0.8,0.4-1.4,0.4c0.6-1.8,1.2-3.5,1.9-5.3     c2.3,0,4.6,0,6.9,0c0.6,2.1,1.3,4.2,2,6.3c2,0,4.1,0,6.1,0c-2.5-7.4-5-14.7-7.5-22.2c-2.3,0-4.6,0-7,0c-0.6,1.5-1.2,2.9-1.7,4.4     c-0.4,1.1-0.9,2.2-1.3,3.2C46.2,23.4,46,23.5,46,23.7C45.9,23.6,46,23.7,46,23.7z M112.1,15.6c0.1,7.5,0,14.8-0.3,22.2     c1.8,0,3.6,0,5.4,0c0-4.6,0-9.2,0-13.9c2.4,4.7,4.8,9.3,7.2,13.9c2.3,0,4.5,0,6.8,0c0.1-7.4,0.3-14.8,0.4-22.2     c-1.8,0-3.5,0-5.3,0c0,4.7,0,9.4,0,14.1c0,0-0.1,0-0.1,0c-2.3-4.7-4.6-9.5-6.9-14.1C116.7,15.6,114.4,15.6,112.1,15.6z      M110.7,15.6c-5.1,0-10.1,0-15.2,0c0.3,7.4,0.2,14.8-0.3,22.2c5.1,0,10.2,0,15.3,0c0-1.7,0.1-3.3,0.1-5c-3.2,0.2-6.2,0.3-9.3,0.3     c0-1.4,0-2.7,0-4c2.6,0,5.2,0,7.8,0c0-1.7,0.1-3.3,0.1-4.8c-2.7,0-5.2,0-7.8,0c0-1.3,0-2.5,0-3.9c3.1,0.1,6.2,0.1,9.2,0.2     C110.7,18.8,110.7,17.2,110.7,15.6z M84,37.7c-0.2-5.8-0.2-11.6-0.1-17.5c1,0,1.9-0.1,2.8,0c0.9,0.1,1.4,0.6,1.5,1.5     c0,0.3,0,0.7,0,1c-0.1,1.1-0.7,1.9-1.7,2.1c-0.5,0.1-1,0.1-1.5,0.1c-0.2,0-0.3,0-0.6-0.1c0.4,1.5,0.7,2.9,1,4.3     c0.2,0.1,0.3,0.1,0.5,0.1c0.4,0,0.8,0.1,1.2,0.1c2.7,0.1,5-1.2,6.2-3.7c1.1-2.5,1-5-0.1-7.4c-0.8-1.8-2.3-2.8-4.4-2.9     c-3.3,0-6.6,0-9.9,0c-0.1,0-0.3,0-0.3,0.1c0,7.4-0.1,14.8-0.1,22.2C80.3,37.7,82.1,37.7,84,37.7z M64.9,37.5     c1.1,0.2,2.1,0.4,3.1,0.5c1.6,0.2,3.2,0.3,4.8-0.1c4.1-0.9,5.3-4.6,4.6-7.6c-0.3-1.2-1-2.3-1.9-3.2c-1-1.1-2.2-2-3.2-3.1     c-0.5-0.5-0.9-1-1.3-1.6c-0.6-1-0.2-2,0.9-2.4c0.6-0.2,1.2-0.2,1.8-0.2c1.1,0,2,0.4,3,0.8c0.2,0.1,0.3,0.1,0.5,0.2     c-0.1-0.9-0.2-1.8-0.2-2.6c-0.1-0.9-0.2-1.7-0.3-2.5c-2.1-0.6-4.9-0.8-6.9-0.5c-4.1,0.7-5.3,3.9-5,6.6c0.2,1.4,0.7,2.6,1.6,3.6     c1,1.2,2.2,2.3,3.3,3.4c0.6,0.6,1.2,1.2,1.7,2c0.7,1,0.2,2.1-0.9,2.4c-0.5,0.1-1.1,0.2-1.7,0.2c-1.3,0-2.5-0.5-3.6-1     c-0.3-0.1-0.6-0.2-0.9-0.4C64.5,33.8,64.7,35.6,64.9,37.5z"></path>
			<path class="st0" d="M15.2,49.3c-0.7-0.4-1.4-0.8-2.1-1.3c3.6,0,6.1-2,8.2-4.7c-1.1,0.4-2.2,0.9-3.5,0.7     c-1.2-0.2-2.3-0.7-3.3-1.5c1.1,0.2,2.1,0.1,3-0.5c-2.9-0.2-5.4-1.2-7.2-3.5c1.5,0.8,3.1,0.9,4.9,0.5c-0.8-0.5-1.6-0.8-2.2-1.6     c1.7,0.6,3.1,0,4.6-0.7c-0.7-0.5-1.4-0.9-2.1-1.4c0.7-0.1,1.4-0.2,2-0.3c1-0.2,1.8-0.6,2.6-1.3c1-0.9,1.7-2,2.6-3.1     c-0.2-0.1-0.4-0.1-0.5-0.1c0.6-0.6,1.3-1.1,2-1.7c0-0.1-0.1-0.1-0.1-0.2c-2.2,0.9-4.5,1.2-6.8,0.7c0.9-0.5,1.8-0.9,2.7-1.4     c0.3-0.2,0.6-0.4,0.9-0.6c0,0,0.1-0.1,0.1-0.2c-1.6-0.3-3.2-0.8-4.4-1.9c1.7,0.6,3.3,0.1,4.8-0.8c1.5-0.8,2.7-1.9,4-3.1     c-0.4,0-0.7,0-1.1,0c0.3-0.4,0.6-0.7,0.8-0.9c0,0,0-0.1-0.1-0.1c-1.4,0.2-2.7,0.3-4.1,0.1c1.7-0.7,3.4-1.6,4.8-2.9     c-1.5-0.3-2.8-0.6-4.1-0.9c1.3-0.4,2.7-0.3,3.9-1.1c-0.4-0.7-1.1-0.6-1.7-0.8c0.5-0.2,1.1-0.4,1.6-0.7c0.5-0.3,1-0.6,1.6-1     c-0.8-0.5-1.5-1-2.2-1.5c1.2-0.2,2.2-0.5,3.1-1.2c-0.6-0.1-1.1-0.2-1.6-0.4c-0.2,0-0.3-0.2-0.6-0.4c1.1,0.1,1.7-0.4,2.3-1.1     c1.2-1.5,1.9-3.3,2.2-5.2c0.1-0.4,0.1-0.8,0.2-1.4c0.3,1.3,0.6,2.5,1,3.7c0.2,0.7,0.5,1.3,0.8,1.9c0.4,0.7,0.9,1.3,1.9,1.2     C34,8.8,33.6,9,33.1,9.3c1,0.9,2.2,1.3,3.5,1.3c0,0,0,0.1,0,0.1c-0.8,0.5-1.6,1-2.4,1.5c0.8,1,2.2,1.5,4.4,1.7     c-0.7,0.4-1.4,0.8-2.3,1.2c0.7,0.3,1.3,0.5,2,0.8c-0.6,0.3-1.2,0.6-1.9,0.9c1.3,0.9,2.6,1.2,4.1,1.2c-1.4,0.7-3,1.2-4.8,0.8     c0.3,0.4,0.5,0.7,0.7,1c-0.2,0-0.4,0.1-0.6,0.1c0.8,1.8,3.5,2.6,6.5,2c-0.5,0.7-2.1,1.6-3.9,2c1.2,1.1,4,1.4,6.3-0.2     c-0.9,1.4-2.2,2.1-5,2.8c1.1,0.3,2.2,0.2,3.3-0.2c-1.1,1.1-2.4,1.7-3.9,1.9c0,0,0,0.1,0,0.1c0.4,0.1,0.9,0.1,1.4,0.2     c-0.8,0.6-1.8,0.6-2.7,0.8c1.1,1.6,2.3,3.2,3.9,4.3c-0.6,1.4-1.2,2.7-1.8,4.2c0.2,0,0.4,0.1,0.6,0.1c1.8,0,3.6,0,5.4,0     c0.7,0,1.4-0.3,2.1-0.5c0.1,0,0.2,0,0.4-0.1C47.8,38,47,38.4,46,38.9c1.9,0.4,3.5,0.3,5.1-0.6c-0.6,0.8-1.3,1.5-2.2,2     c-0.2,0.1-0.5,0.1-0.8,0.1c-2.5,0-5,0-7.6,0c-0.2,0-0.3,0-0.5,0c-0.5,0-0.6,0.1-0.6,0.6c0,0,0,0,0,0.1c0,2.7,0,5.4,0,8.1     c0,0.2,0,0.4,0,0.6c1.3,0.2,2.6,0.1,3.9,0.1c1.3,0,2.6,0,3.9,0c1.3,0,2.6,0,3.9,0c1.3,0,2.6,0,4.1,0c-2.4,2.9-5.3,4.4-8.8,4.8     c1,0.6,2,0.4,3.2,0.3c-1.3,1.2-2.8,1.8-4.5,1.9c-1.7,0.1-3.2-0.5-4.7-1.4c0.4,1,1.1,1.9,1.8,2.6c-2.5-0.5-4.4-1.9-5.7-4     c0.3,1.6,1.1,2.9,2.1,4.1c-0.9-0.2-1.9-0.7-2.9-1.6c-0.8-0.7-1.5-1.6-2.3-2.4c0,1.4,0.5,2.7,0.9,4.1c-0.5-0.5-1.1-1-1.8-1.7     c0,0.4-0.1,0.6-0.1,0.8c0,2.3,0,4.7,0,7c0,0.3,0,0.5,0,0.9c-1.2,0-2.3,0-3.5,0c0-2.6,0-5.2,0-7.8c0,0-0.1,0-0.1-0.1     c-0.5,0.7-1.1,1.4-1.6,2c0.5-1.7,0.8-3.5,0.7-5.3c-0.6,1.2-1.2,2.3-2.1,3.2c-0.9,0.9-2,1.6-3.3,2.1c1.2-1.8,2-3.6,2.5-5.6     c-1.3,2.3-3.2,3.8-6,4.4c0.8-0.9,1.5-1.7,1.9-2.8c-1.4,0.9-2.9,1.6-4.6,1.5c-1.7-0.1-3.1-0.8-4.5-1.7c1,0.2,2,0.2,3-0.3     c-3-0.4-5.7-1.4-7.8-3.7c1.7,0.8,3.4,0.9,5.4,0.5c-0.8-0.5-1.5-0.9-2.2-1.4c0-0.1,0-0.1,0-0.2c1.7,0.5,3.3,0,4.8-0.7     C15.2,49.4,15.2,49.3,15.2,49.3z"></path>
			<path class="st0" d="M45.9,23.6c0,0.2,0,0.3-0.1,0.5c-1.2,2.8-2.3,5.6-3.5,8.4c0,0.1-0.1,0.2-0.2,0.3c-1.2-0.7-2-1.8-2.9-2.9     c0.5-0.2,1-0.4,1.5-0.6c0.5-0.2,1.1-0.4,1.1-1.1c0-0.1,0.3-0.2,0.4-0.3c0.6-0.4,1.2-0.9,1.8-1.3c0.3-0.2,0.5-0.6,0.4-1     c0-0.2,0.1-0.4,0.2-0.5C45.1,24.5,45.6,24.1,45.9,23.6L45.9,23.6z"></path>
			<path class="st0" d="M54.5,26.6c-1.4,0-2.7,0-4.1,0c0.7-2.1,1.5-4,2.3-6.1C53.3,22.6,53.9,24.6,54.5,26.6z"></path>
			<path class="st0" d="M108.4,43.1c0.5-0.2,0.7,0,0.9,0.4c0.5,0.8,1,1.6,1.5,2.3c0.1,0.2,0.2,0.3,0.5,0.5c0-1,0-2.1,0-3.1     c0.2,0,0.4-0.1,0.6-0.1c0,1.5,0,2.9,0,4.4c-0.4,0.2-0.7,0.1-0.9-0.3c-0.6-1-1.2-1.9-1.9-2.8c-0.2,0.5-0.1,1-0.1,1.5     c0,0.5,0,1.1,0,1.7c-0.2,0-0.4,0-0.6,0C108.4,46,108.4,44.5,108.4,43.1z"></path>
			<path class="st0" d="M93.4,43c0.7,0,1.4,0,2.1,0c0.5,0,1,0.1,1.3,0.7c0.2,0.5,0,1.1-0.5,1.6c0.7,0.6,0.4,1.4,0.6,2.2     c-0.2,0-0.4,0-0.7,0c-0.1-0.4-0.1-0.8-0.2-1.2c-0.1-0.5-0.2-0.6-0.7-0.6c-0.4,0-0.8,0-1.3,0c0,0.6,0,1.2,0,1.8     c-0.2,0-0.4,0-0.6,0C93.4,46,93.4,44.6,93.4,43z M94,45.1c0.5,0,1,0,1.4,0c0.5,0,0.7-0.3,0.7-0.8c0-0.4-0.3-0.7-0.7-0.7     c-0.5,0-1,0-1.5,0C94,44.1,94,44.5,94,45.1z"></path>
			<path class="st0" d="M68.3,45.2c0.1,0.4,0.3,0.8,0.4,1.1c0.1,0.4,0.1,0.7,0.1,1.1c-0.2,0-0.4,0-0.6,0c-0.1-0.5-0.1-0.9-0.2-1.3     c-0.1-0.4-0.3-0.6-0.7-0.6c-0.4,0-0.9,0-1.4,0c0,0.6,0,1.2,0,1.8c-0.2,0-0.4,0-0.6,0c0-1.5,0-2.9,0-4.4c0.8,0,1.6,0,2.3,0     c0.5,0,0.9,0.2,1,0.7c0.2,0.5,0.1,1-0.2,1.4C68.4,45.2,68.4,45.2,68.3,45.2z M66,43.6c0,0.5,0,1,0,1.5c0.5,0,1,0,1.4,0     c0.5,0,0.8-0.3,0.8-0.7c0-0.4-0.3-0.7-0.8-0.8C66.9,43.5,66.5,43.6,66,43.6z"></path>
			<path class="st0" d="M81.3,45.7c-0.5,0-0.9,0-1.3,0c-0.1-0.3-0.1-0.5,0.2-0.5c0.5,0,1.1,0,1.7,0c0,0.7,0,1.3,0,2     c0,0.1-0.1,0.3-0.2,0.4c-0.1-0.1-0.2-0.2-0.3-0.3c0,0-0.1-0.1-0.1-0.1c-1.4,1.1-2.9,0.3-3.3-0.8c-0.3-0.8-0.2-1.6,0.2-2.3     c0.4-0.8,1.1-1.1,2-1c0.7,0,1.3,0.3,1.6,1c0,0.1,0.1,0.2,0.1,0.4c-0.3,0.1-0.5,0.2-0.7-0.2c-0.3-0.6-0.8-0.7-1.4-0.7     c-0.6,0.1-1,0.4-1.2,1c-0.2,0.6-0.2,1.2,0,1.8c0.3,0.6,0.9,0.9,1.6,0.8C80.9,46.9,81.2,46.5,81.3,45.7z"></path>
			<path class="st0" d="M46.4,45.3c0.7,0.6,0.3,1.4,0.7,2.2c-0.3,0-0.5,0-0.7,0c-0.1-0.5-0.1-0.9-0.2-1.3c-0.1-0.4-0.3-0.6-0.7-0.6     c-0.4,0-0.9,0-1.4,0c0,0.6,0,1.2,0,1.8c-0.2,0-0.4,0-0.6,0c0-1.5,0-2.9,0-4.4c0.1,0,0.3-0.1,0.4-0.1c0.5,0,1,0,1.5,0     c0.6,0,1.1,0.1,1.3,0.7C47.1,44.3,47,44.8,46.4,45.3z M44.2,45.1c0.5,0,1,0,1.4,0c0.5,0,0.7-0.3,0.7-0.8c0-0.4-0.2-0.7-0.7-0.7     c-0.5,0-1,0-1.5,0C44.2,44.1,44.2,44.5,44.2,45.1z"></path>
			<path class="st0" d="M54.1,44.9c0,0.2,0,0.4,0,0.6c-0.7,0-1.5,0-2.2,0c0,0.5,0,0.9,0,1.4c0.8,0,1.6,0,2.4,0     c0.1,0.4,0.1,0.6-0.2,0.6c-0.9,0-1.8,0-2.8,0c0-1.5,0-2.9,0-4.4c0.3,0,0.6,0,0.9,0c0.6,0,1.1,0,1.7,0c0.3,0,0.5,0.1,0.3,0.5     c-0.8,0-1.5,0-2.3,0c0,0.5,0,0.9,0,1.4C52.6,44.9,53.3,44.9,54.1,44.9z"></path>
			<path class="st0" d="M89.2,47.5c-1,0-2,0-3,0c0-1.5,0-2.9,0-4.4c0.9,0,1.8,0,2.7,0c0.1,0,0.2,0.2,0.3,0.3c0,0.1-0.1,0.1-0.1,0.2     c-0.8,0-1.6,0-2.4,0c0,0.5,0,0.9,0,1.4c0.7,0,1.5,0,2.2,0c0,0.2,0,0.4,0,0.6c-0.8,0-1.5,0-2.3,0c0,0.5,0,0.9,0,1.5     c0.7,0,1.4,0,2,0C89.2,47,89.2,47,89.2,47.5z"></path>
			<path class="st0" d="M123,46.1c0.3,0,0.5-0.1,0.6,0.2c0.3,0.7,1.2,1,1.9,0.6c0.2-0.1,0.4-0.4,0.4-0.6c0-0.2-0.2-0.5-0.4-0.6     c-0.4-0.2-1-0.2-1.4-0.4c-0.3-0.1-0.7-0.3-0.9-0.6c-0.2-0.3-0.2-0.8,0.1-1.1c0.3-0.5,1.2-0.8,2-0.6c0.6,0.2,0.9,0.6,1,1.3     c-0.3,0.1-0.5,0.1-0.7-0.2c-0.3-0.6-1-0.8-1.5-0.5c-0.2,0.1-0.4,0.4-0.4,0.6c0,0.2,0.2,0.4,0.4,0.5c0.2,0.1,0.5,0.2,0.8,0.2     c0.3,0.1,0.6,0.2,0.9,0.3c0.4,0.2,0.7,0.5,0.7,1c0,0.5-0.1,0.9-0.5,1.1c-0.8,0.4-1.6,0.4-2.3,0C123.2,47.1,123,46.7,123,46.1z"></path>
			<path class="st0" d="M102.9,43.1c0.6,1.4,1.1,2.9,1.7,4.4c-0.3,0-0.5,0-0.7,0c-0.2-0.4-0.3-0.8-0.5-1.3c-0.6,0-1.2,0-1.7,0     c-0.5,0.4-0.1,1.4-1.2,1.3c0.1-0.2,0.1-0.3,0.1-0.5c0.4-1.1,0.9-2.3,1.3-3.4C102.2,43,102.2,43,102.9,43.1z M102.5,43.6     c-0.3,0.7-0.5,1.3-0.7,2c0.5,0,0.9,0,1.4,0C103,45,102.8,44.4,102.5,43.6z"></path>
			<path class="st0" d="M59,47.5c-0.3,0-0.4,0-0.6,0c0-1.5,0-2.9,0-4.4c1,0,1.9,0,2.9,0c0,0.2,0,0.3,0,0.5c-0.8,0-1.5,0-2.3,0     c0,0.5,0,0.9,0,1.4c0.6,0,1.3,0,2,0c0,0.2,0,0.4,0,0.6c-0.6,0-1.3,0-2,0C59,46.1,59,46.8,59,47.5z"></path>
			<path class="st0" d="M117.3,43.6c-0.5,0-1,0-1.4-0.1c-0.1-0.3-0.1-0.5,0.2-0.5c1.1,0,2.2,0,3.3,0c0,0.2,0,0.3,0,0.5     c-0.5,0-0.9,0-1.5,0c0,1.3,0,2.6,0,3.9c-0.2,0-0.4,0-0.6,0C117.3,46.2,117.3,44.9,117.3,43.6z"></path>
			<path class="st0" d="M140.4,15.9c0,1-0.9,1.9-1.9,1.8c-1,0-1.9-0.9-1.9-1.9c0-1,0.9-1.8,1.9-1.8C139.6,14.2,140.4,15,140.4,15.9z      M138.5,14.5c-0.8,0-1.5,0.7-1.5,1.4c0,0.8,0.7,1.5,1.5,1.5c0.8,0,1.4-0.7,1.4-1.5C139.9,15.1,139.3,14.5,138.5,14.5z"></path>
			<path class="st0" d="M73.6,47.5c-0.2,0-0.4,0-0.5,0c0-1.5,0-2.9,0-4.3c0.1,0,0.3-0.1,0.5-0.1C73.6,44.5,73.6,46,73.6,47.5z"></path>
			<path class="st0" d="M139.3,16.8c-0.6,0.2-0.3-0.8-0.9-0.6c-0.3,0.1,0.2,0.7-0.5,0.7c0-0.6,0-1.1,0-1.8c0.2,0,0.5-0.1,0.7,0     c0.6,0,0.7,0.3,0.5,0.8c0,0.1,0,0.2,0,0.4c0,0.1,0.1,0.3,0.1,0.4C139.3,16.7,139.3,16.7,139.3,16.8z"></path>
		</g>
	</g>
</g>
</svg>
