<?xml version="1.0" encoding="UTF-8"?>
<!-- Generator: Adobe Illustrator 22.1.0, SVG Export Plug-In . SVG Version: 6.00 Build 0)  -->
<svg xmlns="http://www.w3.org/2000/svg" xmlns:xlink="http://www.w3.org/1999/xlink" id="Layer_1" x="0px" y="0px" viewBox="0 0 151 67" style="enable-background:new 0 0 151 67;" xml:space="preserve">
<style type="text/css">
	.st0{fill:#808285;}
</style>
<title>accenture</title>
<desc>Created with Sketch.</desc>
<g id="W0WRQ4_1_">
	<g>
		<g>
			<path class="st0" d="M31,29.4c0.1,0,0.2,0,0.3,0c2.6,0,5.1,0,7.7,0c0.7,0,1.4,0.1,2,0.3c0.9,0.3,1.5,1,1.8,2     c0.1,0.4,0.2,0.8,0.2,1.2c0,1,0,2,0,3c0,0.4-0.1,0.8-0.3,1.1c-0.3,0.7-0.9,1.1-1.6,1.3c-0.4,0.1-0.8,0.2-1.2,0.3     c0.7,0.1,1.4,0.3,1.9,0.7c0.8,0.6,1.3,1.4,1.5,2.4c0.1,0.4,0.1,0.8,0.1,1.2c0,1.1,0,2.1,0,3.2c0,0.7-0.2,1.3-0.4,1.9     c-0.4,0.9-1.1,1.4-1.9,1.7c-0.7,0.3-1.3,0.3-2,0.4c-2.6,0.1-5.2,0-7.8,0.1C31,43.1,31,36.3,31,29.4z M36.2,40.5     C36.2,40.6,36.2,40.6,36.2,40.5c-0.1,0.1-0.1,0.1-0.1,0.1c0,0.1,0,0.1,0,0.2c0,1.8,0,3.7,0,5.5c0,0,0,0,0,0c0,0,0,0,0,0     c0.2,0,0.4,0,0.6,0c0.7-0.1,1-0.4,1.1-1.1c0-0.1,0-0.1,0-0.2c0-1.1,0-2.3,0-3.4c0-0.1,0-0.1,0-0.2c0-0.5-0.3-0.9-0.8-1     C36.8,40.6,36.5,40.6,36.2,40.5z M36.2,37.4c0.2,0,0.4,0,0.5,0c0.8-0.1,1.2-0.5,1.2-1.1c0-0.8,0-1.7,0-2.5c0-0.5-0.2-0.9-0.7-1     c-0.3-0.1-0.6-0.1-1-0.1C36.2,34.2,36.2,35.8,36.2,37.4z"></path>
			<path class="st0" d="M119,46.4c0,0.1-0.1,0.2-0.1,0.4c-0.4,1.3-1.2,2.3-2.4,2.9c-0.7,0.3-1.4,0.5-2.1,0.6c-0.4,0-0.9,0.1-1.3,0.1     c-1.2-0.1-2.4-0.3-3.5-1c-1.1-0.7-1.7-1.8-2-3.1c-0.1-0.6-0.2-1.1-0.2-1.7c0-1.8,0-3.6,0-5.4c0-0.6,0-1.2,0.1-1.8     c0.1-1.3,0.6-2.4,1.6-3.3c0.7-0.6,1.5-1,2.4-1.2c0.8-0.2,1.7-0.3,2.5-0.2c1.4,0.1,2.8,0.6,3.8,1.7c0.5,0.5,0.9,1.1,1.1,1.8     c0,0.1,0.1,0.2,0.1,0.4c0,1.8,0,3.6,0,5.4c-0.1,0-0.3,0-0.4,0c-1.9,0-3.8,0-5.6,0c-0.1,0-0.3,0-0.4,0c0,0.3,0,0.6,0,1     c0,1.2,0,2.4,0,3.7c0,0.6,0.3,0.8,0.8,0.8c0.3,0,0.6-0.2,0.6-0.5c0.1-0.2,0.1-0.5,0.1-0.8c0-0.9,0-1.7,0-2.6c0-0.1,0-0.2,0-0.4     c0.2,0,0.3,0,0.4,0c0.8,0,1.5,0,2.3,0c0.7,0,1.4,0,2.1,0C119,44.2,119,45.3,119,46.4z M114.2,39c0-0.8,0-1.6,0-2.3     c0-0.2-0.1-0.3-0.1-0.5c-0.2-0.3-0.5-0.4-0.9-0.4c-0.3,0-0.5,0.2-0.5,0.6c0,0.3-0.1,0.6-0.1,0.9c0,0.4,0,0.8,0,1.1     c0,0.2,0,0.4,0,0.6C113.1,39,113.6,39,114.2,39z"></path>
			<path class="st0" d="M31.6,2.2c0.4,0.2,0.7,0.4,1.1,0.6c0.7,0.4,1.5,0.6,2.3,0.8C35.6,3.8,36.3,4,37,4c1,0.1,2.1,0.2,3.1,0.1     c0.6,0,1.2-0.1,1.8-0.2c1.6-0.2,3.1-0.6,4.6-1c0.7-0.2,1.4-0.3,2.1-0.4c0.8-0.1,1.7-0.1,2.5,0c1.1,0.1,2.2,0.3,3.2,0.8     c0.8,0.4,1.5,0.9,1.9,1.6c0.1,0.2,0.2,0.5,0.3,0.7c0.3,1.1,0.5,2.3,0.8,3.4c0,0,0,0.1,0,0.1c-0.1-0.1-0.1-0.1-0.2-0.2     c-1-1-2.2-1.6-3.5-2c-1-0.3-2-0.4-3.1-0.3c-0.6,0-1.2,0.2-1.7,0.3c-1.2,0.3-2.5,0.6-3.7,0.9c-0.8,0.2-1.6,0.3-2.3,0.4     c-1.1,0.2-2.3,0.2-3.4,0.1c-0.6,0-1.2-0.1-1.8-0.2c-0.9-0.1-1.8-0.3-2.7-0.7c-0.5-0.2-0.9-0.4-1.3-0.6c-0.2-0.1-0.3-0.2-0.4-0.4     c-0.6-1.5-1.2-2.9-1.7-4.4c0-0.1,0-0.1,0-0.2C31.5,2.2,31.5,2.2,31.6,2.2z"></path>
			<path class="st0" d="M104,63.8c-0.2-0.1-0.4-0.3-0.5-0.4c-0.3-0.2-0.4-0.5-0.4-0.9c-0.1-0.6-0.1-1.3-0.1-1.9     c0-0.7,0.4-1.2,1.1-1.5c0.6-0.2,1.1-0.5,1.7-0.7c0.4-0.2,0.6-0.5,0.6-0.9c0-0.3,0-0.6,0-0.8c0-0.2-0.1-0.4-0.2-0.5     c-0.2-0.2-0.5-0.2-0.6,0.1c-0.1,0.1-0.1,0.2-0.1,0.4c0,0.4,0,0.9,0,1.3c0,0.1,0,0.2,0,0.4c-0.1,0-0.1,0-0.2,0c-0.7,0-1.3,0-2,0     c-0.3,0-0.3,0-0.3-0.3c0-0.6,0-1.1,0.1-1.7c0.2-0.7,0.6-1.2,1.3-1.4c0.4-0.1,0.8-0.2,1.2-0.2c0.4,0,0.7,0,1.1,0     c0.6,0.1,1.2,0.2,1.7,0.7c0.3,0.3,0.5,0.7,0.6,1.2c0.1,0.3,0.1,0.7,0.1,1.1c0,1.9,0,3.7,0,5.6c0,0.1,0,0.2,0,0.3     c0,0.1-0.1,0.2-0.2,0.2c-0.8,0-1.5,0-2.3,0c0,0,0,0,0,0c0-0.1,0-0.2-0.1-0.4c-0.3,0.2-0.7,0.4-1,0.6     C104.9,63.8,104.4,63.8,104,63.8z M106.3,59.5c-0.5,0.3-0.8,0.6-0.8,1.2c0,0.4,0,0.7,0,1.1c0,0.2,0.1,0.4,0.3,0.4     c0.2,0,0.4-0.1,0.5-0.3c0-0.1,0.1-0.3,0.1-0.4c0-0.6,0-1.1,0-1.7C106.3,59.7,106.3,59.6,106.3,59.5z"></path>
			<path class="st0" d="M87,63.8c-0.2-0.1-0.4-0.1-0.6-0.2c-1.1-0.3-1.7-1.3-1.7-2.3c0-1.4,0-2.7,0-4.1c0-0.7,0.2-1.2,0.7-1.7     c0.4-0.4,0.8-0.6,1.3-0.7c0.6-0.1,1.3-0.2,2,0c1.1,0.3,1.9,1,2.1,2.2c0,0.2,0.1,0.4,0.1,0.6c0,0.6,0,1.2,0,1.8     c-1.1,0-2.3,0-3.4,0c0,0.1,0,0.1,0,0.1c0,0.8,0,1.5,0,2.3c0,0.3,0.2,0.5,0.6,0.4c0.2,0,0.3-0.2,0.3-0.5c0-0.4,0-0.8,0-1.2     c0-0.1,0-0.3,0-0.4c0.3-0.1,2.1-0.1,2.5,0c0,0.4,0,0.9,0,1.3c0,0.2-0.1,0.4-0.1,0.6c-0.3,0.9-0.9,1.4-1.8,1.7     c-0.1,0-0.1,0.1-0.2,0.1C88.2,63.8,87.6,63.8,87,63.8z M88.3,57.9c0-0.4,0-0.8,0-1.2c0-0.3-0.2-0.4-0.4-0.4     c-0.2,0-0.4,0.2-0.4,0.4c0,0.4,0,0.8,0,1.2C87.7,57.9,88,57.9,88.3,57.9z"></path>
			<path class="st0" d="M62.7,50c-0.1,0-0.2,0-0.3,0c-1.5,0-3,0-4.5,0c-0.3,0-0.3,0-0.3-0.4c0-0.3,0-0.5,0-0.8     c-0.2,0.2-0.3,0.4-0.4,0.5c-0.6,0.7-1.4,1-2.3,1.1c-0.7,0.1-1.4,0-2-0.3c-0.6-0.3-1.1-0.8-1.3-1.4c-0.2-0.5-0.4-1.1-0.4-1.7     c0-0.3-0.1-0.7-0.1-1c0-4.1,0-8.3,0-12.4c0-0.1,0-0.2,0-0.4c0.3-0.1,4.7-0.1,5.1,0c0,0.1,0,0.3,0,0.4c0,4,0,8,0,12     c0,0.2,0,0.5,0.1,0.7c0,0.1,0.1,0.2,0.1,0.3c0.1,0.3,0.4,0.3,0.7,0.3c0.3,0,0.4-0.2,0.5-0.4c0-0.1,0.1-0.2,0.1-0.4     c0-0.2,0-0.4,0-0.6c0-4,0-7.9,0-11.9c0-0.1,0-0.3,0-0.4c0.3-0.1,4.7-0.1,5.1,0c0,0,0,0,0,0c0,0,0,0,0,0c0,0.1,0,0.2,0,0.3     c0,5.5,0,10.9,0,16.4C62.7,49.9,62.7,49.9,62.7,50z"></path>
			<path class="st0" d="M100.9,49.9c0-0.2,0-0.3,0-0.5c0-4,0-8.1,0-12.1c0-0.3,0-0.6-0.1-0.9c-0.1-0.3-0.4-0.4-0.7-0.4     c-0.3,0-0.5,0.2-0.6,0.5c0,0.2-0.1,0.5-0.1,0.7c0,4,0,8.1,0,12.1c0,0.1,0,0.3,0,0.4c-0.3,0.1-4.7,0.1-5.1,0     c-0.1-0.3-0.1-16.4,0-16.8c1.7,0,3.4,0,5.1,0c0.1,0.4,0,0.8,0,1.2c0.6-1,1.5-1.5,2.6-1.6c0.9-0.1,1.7,0,2.5,0.5     c0.6,0.4,1,1,1.2,1.6c0.2,0.6,0.3,1.2,0.3,1.9c0.1,1.5,0,3,0,4.5c0,2.8,0,5.5,0,8.3c0,0.5,0,0.5-0.5,0.5c-1.4,0-2.9,0-4.3,0     C101.2,50,101.1,49.9,100.9,49.9z"></path>
			<path class="st0" d="M76,41.8c-2.2,0-4.4,0-6.6,0c0,0.1,0,0.2,0,0.3c0,1.4,0,2.7,0,4.1c0,0.2,0,0.4,0.1,0.6     c0.1,0.2,0.3,0.4,0.5,0.5c0.7,0,1-0.4,1-0.9c0-0.9,0-1.9,0-2.8c0-0.1,0-0.3,0-0.4c0,0,0-0.1,0.1-0.1c0,0,0,0,0,0c0,0,0.1,0,0.1,0     c1.5,0,3.1,0,4.6,0c0,0,0.1,0,0.1,0c0,0.1,0,0.2,0,0.2c0,0.7,0,1.4,0,2.1c-0.1,1-0.3,2-0.9,2.8c-0.5,0.8-1.2,1.3-2,1.7     c-0.6,0.3-1.2,0.4-1.9,0.5c-0.4,0-0.9,0.1-1.3,0.1c-1.2-0.1-2.3-0.3-3.3-0.9c-0.9-0.5-1.5-1.3-1.9-2.2c-0.2-0.6-0.3-1.2-0.4-1.8     c-0.1-0.9,0-1.7,0-2.6c0-1.3,0-2.5,0-3.8c0-0.8,0.1-1.6,0.2-2.4c0.4-1.6,1.3-2.8,2.8-3.5c1.2-0.5,2.4-0.7,3.7-0.6     c1.2,0.1,2.3,0.5,3.2,1.2c0.9,0.7,1.4,1.6,1.7,2.7c0.1,0.6,0.2,1.2,0.2,1.8c0,1,0,2.1,0,3.1C76,41.5,76,41.6,76,41.8z M71,39     c0-0.6,0-1.2,0-1.8c0-0.3,0-0.5-0.1-0.8c-0.1-0.4-0.4-0.6-0.9-0.6c-0.4,0-0.6,0.3-0.6,0.7c0,0,0,0.1,0,0.1c0,0.7,0,1.4,0,2.1     c0,0.1,0,0.2,0,0.2C69.9,39,70.4,39,71,39z"></path>
			<path class="st0" d="M77.5,29.4c1.8,0,3.5,0,5.3,0c0,0,0,0,0,0c0,0,0,0,0,0c0,0,0,0,0,0.1c0,0,0,0,0,0c0,0,0,0.1,0,0.1     c0,5.4,0,10.7,0,16.1c0,0,0,0,0,0c0,0,0,0,0,0c0,0,0,0,0,0C83,46,83.1,46,83.2,46c0.9,0,1.8,0,2.7,0c0.1,0,0.2,0,0.4,0     c0,0.1,0,0.2,0,0.3c0,1.1,0,2.2,0,3.3c0,0.1,0,0.1,0,0.2c0,0.1-0.1,0.2-0.2,0.2c-0.1,0-0.1,0-0.2,0c-2.7,0-5.4,0-8.1,0     c-0.1,0-0.3,0-0.4,0C77.5,43.1,77.5,36.3,77.5,29.4z"></path>
			<path class="st0" d="M60,20.3c-0.3-1.2-0.5-2.3-0.8-3.4c0.2,0.2,0.4,0.3,0.6,0.5c1,0.8,2.1,1.2,3.3,1.4c0.9,0.2,1.8,0.3,2.6,0.2     c0.4,0,0.8-0.1,1.2-0.1c0.8-0.1,1.6-0.2,2.4-0.2c0.7,0.1,1.3,0.3,1.9,0.6c0.9,0.5,1.6,1.3,2.1,2.2c0,0.1,0.1,0.1,0.1,0.2     c0.1,0.7,0.2,1.4,0.2,2c0,0.2,0.1,0.4,0,0.6c-0.3-0.4-0.6-0.7-1-1.1c-0.8-0.8-1.7-1.3-2.7-1.4c-0.4-0.1-0.9,0-1.3,0     c-0.7,0.1-1.4,0.2-2.1,0.3c-0.7,0.1-1.3,0.1-2,0.1c-1.5-0.1-2.8-0.5-4-1.4c-0.2-0.1-0.3-0.3-0.6-0.4c0.2,1,0.5,2,0.7,3.1     c-0.1-0.1-0.2-0.1-0.2-0.1c-0.9-0.7-2-1.2-3.2-1.3c-1.1-0.2-2.2-0.1-3.2,0.3c-0.9,0.3-1.7,0.7-2.6,1c-1.3,0.5-2.6,1-4,1.3     c-0.3,0.1-0.7,0-1.1,0.1c-0.6,0.1-1.1,0.1-1.7,0.1c-1.4-0.1-2.8-0.2-4.1-0.7c-0.3-0.1-0.5-0.2-0.6-0.5c-0.5-1.2-1-2.4-1.4-3.6     c0,0,0-0.1,0-0.1c0.1,0,0.1,0,0.1,0c0.7,0.4,1.5,0.6,2.4,0.8c1.1,0.2,2.2,0.3,3.3,0.2c1.3-0.1,2.7-0.3,3.9-0.7     c0.8-0.3,1.5-0.6,2.3-0.9c1-0.4,2.1-0.7,3.1-0.9c0.6-0.1,1.2-0.1,1.8-0.1c1.5,0.1,2.8,0.6,4,1.5c0.1,0.1,0.2,0.1,0.2,0.2     C59.8,20.1,59.9,20.2,60,20.3z"></path>
			<path class="st0" d="M44.4,29.4c1.7,0,3.4,0,5.1,0c0.1,0.3,0.1,20,0,20.5c0,0,0,0,0,0c0,0,0,0,0,0c-1.6,0-3.1,0-4.7,0     c-0.1,0-0.1,0-0.2,0c0,0,0,0-0.1,0c0,0,0,0-0.1-0.1C44.4,43.1,44.4,36.3,44.4,29.4z"></path>
			<path class="st0" d="M58.3,13c0.1,0.5,0.2,1,0.3,1.5c0.2,0.7,0.4,1.4,0.5,2.2c0,0.1,0,0.1,0,0.2c-0.2-0.2-0.4-0.3-0.6-0.4     c-1.1-0.8-2.3-1.4-3.7-1.6c-0.5-0.1-1.1-0.2-1.6-0.1c-0.8,0.1-1.7,0.2-2.5,0.4c-1.2,0.4-2.3,0.8-3.5,1.2     c-0.9,0.3-1.9,0.5-2.9,0.7c-0.9,0.1-1.8,0.1-2.7,0.1c-1.3-0.1-2.6-0.3-3.8-0.9c0,0,0,0,0,0c-0.6-0.2-1.2-0.6-1.3-1.3     c-0.5-1.1-0.9-2.3-1.4-3.4c0-0.1,0-0.1-0.1-0.2c0.1,0.1,0.2,0.1,0.3,0.1c0.9,0.5,1.9,0.9,3,1.1c0.7,0.2,1.5,0.3,2.3,0.3     c0.5,0,0.9,0.1,1.4,0.1c1,0,1.9-0.1,2.8-0.3c1.1-0.2,2.1-0.6,3.2-0.9c0.8-0.2,1.6-0.5,2.4-0.7c0.8-0.2,1.7-0.3,2.6-0.2     c1,0,1.9,0.2,2.9,0.5c0.8,0.3,1.5,0.8,2.2,1.3c0.1,0.1,0.2,0.2,0.2,0.3C58.2,12.9,58.3,12.9,58.3,13z"></path>
			<path class="st0" d="M92.8,50c-0.1,0-0.2,0-0.3,0c-1.5,0-3,0-4.5,0c-0.1,0-0.1,0-0.2,0c-0.1-0.3-0.1-16.2,0-16.9c0,0,0,0,0,0     c0,0,0,0,0,0c1.6,0,3.2,0,4.8,0c0.1,0,0.1,0,0.2,0c0,0,0,0,0,0c0,0,0,0,0,0c0,0.1,0,0.1,0,0.2c0,5.5,0,11,0,16.5     C92.8,49.9,92.8,49.9,92.8,50z"></path>
			<path class="st0" d="M77.5,53c0.1,0,0.2,0,0.3,0c1.2,0,2.5,0,3.7,0c0.4,0,0.8,0.1,1.2,0.2c0.6,0.3,0.9,0.8,1,1.4     c0,0.6,0,1.2,0,1.8c0,0.7-0.6,1.3-1.2,1.4c-0.1,0-0.1,0-0.2,0.1c0.1,0,0.1,0.1,0.1,0.1c0.7,0,1.4,0.6,1.4,1.3     c0,0.2,0.1,0.4,0.1,0.6c0,1.1,0,2.2,0,3.3c0,0.1,0,0.3,0,0.4c-0.9,0-1.7,0-2.5,0c0-0.1,0-0.3,0-0.4c0-1.2,0-2.5,0-3.7     c0-0.2,0-0.4-0.1-0.6c-0.2-0.3-0.5-0.3-0.9-0.2c-0.1,0.4,0,0.8,0,1.2c0,0.4,0,0.8,0,1.2c0,0.4,0,0.8,0,1.2c0,0.4,0,0.8,0,1.2     c-0.3,0.1-1.9,0.1-2.6,0c0,0,0,0,0,0c0,0,0,0,0,0c0,0,0-0.1,0-0.1c0-3.4,0-6.9,0-10.3C77.5,53.1,77.5,53,77.5,53z M80.2,57     c0.1,0,0.2,0,0.3,0c0.5,0,0.7-0.3,0.8-0.7c0-0.3,0-0.6,0-0.9c0-0.2-0.1-0.4-0.2-0.5c-0.2-0.2-0.5-0.2-0.8-0.1     C80.2,55.4,80.2,56.2,80.2,57z"></path>
			<path class="st0" d="M94.4,63.6c-0.9,0-1.8,0-2.7,0c-0.1-0.3-0.1-8,0-8.6c0.2-0.1,2.3-0.1,2.7,0c0,0.2,0,0.3,0,0.5     c0.2-0.1,0.3-0.3,0.5-0.4c0.7-0.4,1.3-0.5,2-0.1c0.2,0.1,0.3,0.2,0.4,0.4c0.3,0.4,0.4,0.8,0.4,1.2c0,2.3,0,4.6,0,6.9     c0,0.1,0,0.1,0,0.2c-0.3,0.1-2,0.1-2.6,0c0-0.1,0-0.3,0-0.4c0-2,0-4.1,0-6.1c0-0.2,0-0.3-0.1-0.5c0-0.2-0.2-0.3-0.4-0.3     c-0.2,0-0.3,0.1-0.3,0.4c0,0.1,0,0.2,0,0.4c0,2,0,4,0,6C94.4,63.3,94.4,63.4,94.4,63.6z"></path>
			<path class="st0" d="M58.3,13c0-0.1-0.1-0.1-0.1-0.2c-0.1-0.4-0.2-0.8-0.3-1.2c-0.2-0.7-0.4-1.5-0.5-2.2c1,1.1,2.2,1.9,3.6,2.4     c0.6,0.2,1.3,0.4,1.9,0.5c0.5,0.1,1,0.1,1.5,0.1c0.7,0,1.5,0,2.2-0.1c1.4-0.2,2.7,0.2,3.8,1.1c0.8,0.6,1.4,1.3,1.9,2.1     c0.1,0.2,0.2,0.5,0.2,0.8c0,0.5,0.1,1,0.2,1.5c0,0.3,0.1,0.6,0.1,0.9c-0.4-0.6-0.7-1-1.2-1.4c-0.9-0.8-1.9-1.4-3-1.6     c-0.5-0.1-1-0.1-1.5,0c-0.4,0.1-0.9,0.1-1.3,0.1c-0.2,0-0.4,0.1-0.7,0.1c-0.6,0-1.1-0.1-1.7-0.1c-0.8-0.1-1.5-0.3-2.2-0.5     c-0.9-0.3-1.6-0.8-2.3-1.4C58.8,13.5,58.6,13.2,58.3,13z"></path>
			<path class="st0" d="M74.3,29.7c-0.3-0.3-0.5-0.5-0.7-0.8c-0.5-0.5-1.2-0.8-1.9-1c-0.8-0.2-1.6-0.1-2.5,0.1     c-0.8,0.2-1.5,0.3-2.3,0.4c-0.4,0-0.8,0.1-1.1,0.1c-0.9,0-1.8-0.2-2.7-0.5c-0.6-0.3-1.1-0.6-1.4-1.1c-0.1-0.2-0.2-0.4-0.3-0.6     c-0.2-0.8-0.4-1.7-0.6-2.5c0,0,0,0,0-0.1c0.1,0.1,0.2,0.2,0.3,0.2c0.8,0.7,1.6,1,2.6,1.3c0.4,0.1,0.8,0.1,1.2,0.2     c0.4,0,0.7,0.1,1.1,0.1c0.6,0,1.1-0.1,1.7-0.2c0.6-0.1,1.2-0.3,1.8-0.4c0.7-0.1,1.5,0,2.1,0.3c0.9,0.4,1.6,0.9,2.3,1.6     c0.2,0.3,0.2,0.6,0.3,0.8c0.1,0.5,0.1,1.1,0.2,1.6C74.3,29.3,74.3,29.5,74.3,29.7z"></path>
			<path class="st0" d="M98.8,56.3c-0.2,0-0.4,0-0.6,0c0-0.5,0-0.9,0-1.4c0.2,0,0.4,0,0.6,0c0.1-0.4,0-0.9,0-1.3     c0.2-0.1,2.2-0.1,2.7,0c0.1,0.4,0,0.9,0,1.3c0.2,0,0.4,0,0.6,0c0.1,0.2,0.1,0.9,0,1.4c-0.1,0-0.3,0-0.5,0c-0.2,0-0.2,0.1-0.2,0.2     c0,0.1,0,0.1,0,0.2c0,1.6,0,3.3,0,4.9c0,0.1,0,0.1,0,0.2c0,0.3,0.1,0.4,0.4,0.4c0.3,0,0.3,0,0.3,0.3c0,0.3,0,0.6,0,0.9     c0,0.2,0,0.2-0.2,0.2c-0.7,0-1.4,0.1-2-0.1c-0.2,0-0.4-0.1-0.6-0.2c-0.3-0.1-0.4-0.3-0.5-0.6c-0.1-0.3-0.2-0.6-0.2-0.9     c0-1.7,0-3.4,0-5.2C98.8,56.6,98.8,56.5,98.8,56.3z"></path>
			<path class="st0" d="M109.9,53c0.9,0,1.8,0,2.6,0c0,0,0,0,0,0c0,0,0,0,0,0c0,0,0,0.1,0,0.1c0,3.4,0,6.9,0,10.3c0,0,0,0.1,0,0.1     c-0.3,0.1-2.1,0.1-2.6,0c0,0,0,0,0,0c0,0,0,0,0,0c0-3.5,0-7,0-10.4C109.8,53.1,109.8,53,109.9,53z"></path>
			<path class="st0" d="M92.8,32c-1.7,0-3.4,0-5.1,0c0-0.9,0-1.7,0-2.5c0,0,0,0,0.1,0c0,0,0,0,0,0c1.6,0,3.2,0,4.8,0     c0.1,0,0.1,0,0.2,0C92.8,29.7,92.9,31.6,92.8,32z"></path>
			<path class="st0" d="M117.4,53c0,0.7,0,1.3,0,2c-0.1,0-0.2,0-0.3,0c0-0.5,0-0.9,0-1.4c0,0,0,0-0.1,0c-0.2,0.5-0.3,0.9-0.5,1.4     c-0.3,0-0.3,0-0.4-0.2c-0.1-0.3-0.2-0.6-0.3-0.9c0-0.1-0.1-0.2-0.2-0.2c0,0.4,0,0.9,0,1.3c-0.1,0-0.2,0-0.3,0     c-0.1-0.3-0.1-1.6,0-2c0.1,0,0.3,0,0.5,0c0.2,0.5,0.4,1,0.6,1.6c0.1-0.3,0.2-0.6,0.3-0.8c0-0.1,0.1-0.3,0.1-0.4     C116.9,52.9,116.9,52.9,117.4,53z"></path>
			<path class="st0" d="M113.7,53.3c-0.2,0-0.4,0-0.6,0c0-0.1,0-0.2,0-0.3c0.6,0,1.1,0,1.6,0c0,0.1,0,0.2,0,0.3c-0.2,0-0.4,0-0.6,0     c0,0.6,0,1.1,0,1.7c-0.1,0-0.2,0-0.4,0C113.7,54.4,113.7,53.9,113.7,53.3z"></path>
		</g>
	</g>
</g>
</svg>
