<?xml version="1.0" encoding="UTF-8"?>
<svg xmlns="http://www.w3.org/2000/svg" xmlns:xlink="http://www.w3.org/1999/xlink" width="204px" height="41px" viewBox="0 0 204 41">
  <!-- Generator: Sketch 49 (51002) - http://www.bohemiancoding.com/sketch -->
  <title>century link</title>
  <desc>Created with Sketch.</desc>
  <defs>
    <polygon id="path-1" points="0 41 203.317 41 203.317 0.717 0 0.717"></polygon>
  </defs>
  <g id="Visual-Design" stroke="none" stroke-width="1" fill="none" fill-rule="evenodd">
    <g id="customers" transform="translate(-349.000000, -1822.000000)">
      <g id="select-clients" transform="translate(142.000000, 1720.000000)">
        <g id="century-link" transform="translate(207.000000, 101.000000)">
          <polygon id="Fill-1" fill="#90908F" points="197.0718 17.7829 195.8168 17.7829 195.8168 17.3399 198.8448 17.3399 198.8448 17.7829 197.5898 17.7829 197.5898 21.0749 197.0718 21.0749"></polygon>
          <polygon id="Fill-2" fill="#90908F" points="202.4523 17.3397 201.3993 20.4187 201.3883 20.4187 200.3093 17.3397 199.3863 17.3397 199.3863 21.0757 199.9013 21.0757 199.9013 17.7097 199.9143 17.7097 201.1083 21.0757 201.5933 21.0757 202.7913 17.7097 202.8033 17.7097 202.8033 21.0757 203.3163 21.0757 203.3163 17.3397"></polygon>
          <g id="Group-37" transform="translate(0.000000, 0.283300)">
            <path d="M63.482,16.3589 C63.353,14.5829 61.45,13.4029 59.547,13.4029 C54.97,13.4029 54.123,17.5939 54.123,20.8599 C54.123,24.6909 55.281,28.3159 59.319,28.3159 C61.295,28.3159 63.093,27.3379 63.404,25.3569 L66.101,25.3569 C65.846,28.4679 62.71,30.5259 59.086,30.5259 C53.609,30.5259 51.425,26.0529 51.425,20.8599 C51.425,16.3089 53.43,11.0119 59.652,11.1919 C63.222,11.2959 65.9,13.0439 66.179,16.3589 L63.482,16.3589 Z" id="Fill-3" fill="#90908F"></path>
            <path d="M77.1548,22.4546 C77.2068,20.2916 76.2278,18.6226 73.8618,18.6226 C71.8308,18.6226 70.6238,20.3456 70.6238,22.4546 L77.1548,22.4546 Z M70.6238,24.1476 C70.4468,26.4126 71.3708,28.7506 73.8618,28.7506 C75.7668,28.7506 76.7158,28.0076 77.0018,26.1296 L79.5718,26.1296 C79.1858,29.0596 76.9238,30.5256 73.8388,30.5256 C69.6998,30.5256 68.0548,27.5976 68.0548,23.7876 C68.0548,20.0106 69.9548,16.8466 74.0448,16.8466 C77.9008,16.9246 79.7238,19.3666 79.7238,22.9406 L79.7238,24.1476 L70.6238,24.1476 Z" id="Fill-5" fill="#90908F"></path>
            <path d="M84.6187,19.1353 L84.6707,19.1353 C85.4937,17.5163 87.2937,16.8463 88.5757,16.8463 C89.4767,16.8463 93.4637,17.0793 93.4637,21.2183 L93.4637,30.1393 L91.0197,30.1393 L91.0197,22.0163 C91.0197,19.8803 90.1197,18.7253 88.0607,18.7253 C88.0607,18.7253 86.7267,18.6463 85.6987,19.6763 C85.3377,20.0353 84.6707,20.6003 84.6707,23.1223 L84.6707,30.1393 L82.2277,30.1393 L82.2277,17.2333 L84.6187,17.2333 L84.6187,19.1353 Z" id="Fill-7" fill="#90908F"></path>
            <path d="M97.3277,17.23 L97.3277,14.482 L99.7687,13.711 L99.7687,17.23 L102.7517,17.23 L102.7517,19.004 L99.7687,19.004 L99.7687,27.286 C99.7687,28.211 100.4877,28.649 101.3617,28.649 C101.7487,28.649 102.2637,28.598 102.6457,28.494 L102.6457,30.369 C102.0847,30.398 101.5397,30.525 100.9787,30.525 C100.3877,30.525 99.9227,30.501 99.3337,30.398 C98.9487,30.32 98.3037,30.115 97.8917,29.547 C97.4547,28.93 97.3277,28.88 97.3277,27.156 L97.3277,19.004 L95.1167,19.004 L95.1167,17.23 L97.3277,17.23 Z" id="Fill-9" fill="#90908F"></path>
            <path d="M113.4869,17.233 L115.9249,17.233 L115.9249,30.139 L113.5379,30.139 L113.5379,28.238 L113.4869,28.238 C112.5079,29.855 110.8639,30.526 109.0649,30.526 C106.3629,30.526 104.8189,28.468 104.8189,25.87 L104.8189,17.233 L107.2659,17.233 L107.2659,24.869 C107.2659,27.106 107.7779,28.751 110.1159,28.751 C111.1199,28.751 112.4809,28.238 112.9989,26.9 C113.4589,25.693 113.4869,24.176 113.4869,23.867 L113.4869,17.233 Z" id="Fill-11" fill="#90908F"></path>
            <path d="M121.6314,30.1392 L119.1884,30.1392 L119.1884,17.2332 L121.6314,17.2332 L121.6314,19.7262 L121.6844,19.7262 C122.0434,17.9532 123.6874,17.0522 125.4624,17.0522 C125.7704,17.0522 126.0294,17.0792 126.3094,17.0792 L126.3094,19.3932 C125.9744,19.2652 125.5904,19.2652 125.2554,19.2652 C122.1704,19.3662 121.6314,21.0142 121.6314,23.7392 L121.6314,30.1392 Z" id="Fill-13" fill="#90908F"></path>
            <polygon id="Fill-15" fill="#90908F" points="133.5308 35.0738 131.0348 35.0738 132.9938 30.0868 127.6198 17.2328 130.3428 17.2328 134.3798 27.4138 138.4968 17.2328 141.1148 17.2328"></polygon>
            <polygon id="Fill-17" fill="#90908F" points="142.9468 30.1392 142.9468 11.5772 146.9308 11.5772 146.9308 27.0532 154.9788 27.0532 154.9788 30.1392"></polygon>
            <mask id="mask-2" fill="white">
              <use xlink:href="#path-1"></use>
            </mask>
            <g id="Clip-20"></g>
            <path d="M157.393,30.138 L161.249,30.138 L161.249,17.233 L157.393,17.233 L157.393,30.138 Z M157.262,14.893 L161.377,14.893 L161.377,11.578 L157.262,11.578 L157.262,14.893 Z" id="Fill-19" fill="#90908F" mask="url(#mask-2)"></path>
            <path d="M168.773,18.7251 L168.827,18.8011 C169.625,17.6181 170.831,16.8461 172.785,16.8461 C174.068,16.8461 176.565,17.7981 177.026,19.6751 C177.233,20.4721 177.285,21.2971 177.285,21.7351 L177.285,30.1391 L173.428,30.1391 L173.428,22.3761 C173.404,20.9871 173.016,19.4191 171.113,19.4191 C169.906,19.4191 168.851,20.4991 168.8,22.3761 L168.8,30.1391 L164.943,30.1391 L164.943,17.2331 L168.773,17.2331 L168.773,18.7251 Z" id="Fill-21" fill="#90908F" mask="url(#mask-2)"></path>
            <polygon id="Fill-22" fill="#90908F" mask="url(#mask-2)" points="184.8697 22.4546 184.9197 22.5036 188.7267 17.0796 193.0187 17.0796 188.5717 22.7346 193.2997 30.1396 188.8037 30.1396 184.9197 23.0686 184.8697 23.1216 184.8697 30.1396 181.0157 30.1396 181.0157 11.5776 184.8697 11.5776"></polygon>
            <path d="M3.608,32.5054 C4.945,34.4004 6.601,36.0534 8.495,37.3914 L15.169,25.8294 L3.608,32.5054 Z" id="Fill-23" fill="#90908F" mask="url(#mask-2)"></path>
            <path d="M8.4947,4.3238 C6.6007,5.6608 4.9447,7.3158 3.6087,9.2098 L15.1687,15.8858 L8.4947,4.3238 Z" id="Fill-24" fill="#90908F" mask="url(#mask-2)"></path>
            <path d="M28.6373,2.5025 C26.5753,1.5455 24.3283,0.9275 21.9623,0.7165 L21.9623,14.0655 L28.6373,2.5025 Z" id="Fill-25" fill="#90908F" mask="url(#mask-2)"></path>
            <path d="M11.646,39.2124 C13.709,40.1694 15.956,40.7874 18.322,40.9994 L18.322,27.6504 L11.646,39.2124 Z" id="Fill-26" fill="#90908F" mask="url(#mask-2)"></path>
            <path d="M36.6753,9.2095 C35.3393,7.3155 33.6843,5.6595 31.7883,4.3235 L25.1143,15.8845 L36.6753,9.2095 Z" id="Fill-27" fill="#90908F" mask="url(#mask-2)"></path>
            <path d="M31.7886,37.3912 C33.6846,36.0532 35.3396,34.3992 36.6766,32.5042 L25.1146,25.8302 L31.7886,37.3912 Z" id="Fill-28" fill="#90908F" mask="url(#mask-2)"></path>
            <path d="M40.2828,19.0367 C40.0718,16.6727 39.4528,14.4217 38.4988,12.3607 L26.9348,19.0367 L40.2828,19.0367 Z" id="Fill-29" fill="#90908F" mask="url(#mask-2)"></path>
            <path d="M-0.0004,22.6783 C0.2126,25.0453 0.8296,27.2923 1.7856,29.3533 L13.3486,22.6783 L-0.0004,22.6783 Z" id="Fill-30" fill="#90908F" mask="url(#mask-2)"></path>
            <path d="M1.7847,12.3609 C0.8297,14.4219 0.2127,16.6719 -0.0003,19.0369 L13.3487,19.0369 L1.7847,12.3609 Z" id="Fill-31" fill="#90908F" mask="url(#mask-2)"></path>
            <path d="M26.9361,22.6783 L38.4991,29.3533 C39.4531,27.2923 40.0711,25.0453 40.2831,22.6783 L26.9361,22.6783 Z" id="Fill-32" fill="#90908F" mask="url(#mask-2)"></path>
            <path d="M18.3218,0.7164 C15.9558,0.9264 13.7098,1.5444 11.6448,2.5024 L18.3218,14.0644 L18.3218,0.7164 Z" id="Fill-33" fill="#90908F" mask="url(#mask-2)"></path>
            <path d="M21.9615,40.9996 C24.3275,40.7886 26.5745,40.1706 28.6375,39.2126 L21.9615,27.6506 L21.9615,40.9996 Z" id="Fill-34" fill="#90908F" mask="url(#mask-2)"></path>
            <polygon id="Fill-35" fill="#90908F" mask="url(#mask-2)" points="35.5123 1.1607 34.2593 1.1607 34.2593 0.7167 37.2813 0.7167 37.2813 1.1607 36.0303 1.1607 36.0303 4.4537 35.5123 4.4537"></polygon>
            <polygon id="Fill-36" fill="#90908F" mask="url(#mask-2)" points="41.2408 1.0884 41.2308 1.0884 40.0358 4.4534 39.5488 4.4534 38.3528 1.0884 38.3428 1.0884 38.3428 4.4534 37.8258 4.4534 37.8258 0.7164 38.7528 0.7164 39.8278 3.7954 39.8388 3.7954 40.8928 0.7164 41.7578 0.7164 41.7578 4.4534 41.2408 4.4534"></polygon>
          </g>
        </g>
      </g>
    </g>
  </g>
</svg>
