<?xml version="1.0" encoding="UTF-8"?>
<svg xmlns="http://www.w3.org/2000/svg" xmlns:xlink="http://www.w3.org/1999/xlink" width="139px" height="54px" viewBox="0 0 139 54">
  <!-- Generator: Sketch 49 (51002) - http://www.bohemiancoding.com/sketch -->
  <title>ford</title>
  <desc>Created with Sketch.</desc>
  <defs>
    <polygon id="path-1" points="1.62310811e-05 0.752 138.641 0.752 138.641 53.9998819 1.62310811e-05 53.9998819"></polygon>
  </defs>
  <g id="Visual-Design" stroke="none" stroke-width="1" fill="none" fill-rule="evenodd">
    <g id="customers" transform="translate(-947.000000, -1813.000000)">
      <g id="select-clients" transform="translate(142.000000, 1720.000000)">
        <g id="ford" transform="translate(805.000000, 92.000000)">
          <g id="Group-3" transform="translate(0.000000, 0.248200)">
            <mask id="mask-2" fill="white">
              <use xlink:href="#path-1"></use>
            </mask>
            <g id="Clip-2"></g>
            <path d="M114.9924,45.1417 C102.4374,50.2507 87.2294,52.8237 69.4404,52.8787 C51.6274,52.9037 36.3784,50.4587 23.7574,45.5657 C11.1364,40.6537 4.7974,34.7457 4.7694,27.9247 C4.7214,21.0897 10.9974,15.0607 23.5524,9.8267 C36.1214,4.5607 51.3524,1.9257 69.2354,1.8767 C87.0954,1.8187 102.3464,4.3417 114.9684,9.3957 C127.5864,14.3977 133.9034,20.3857 133.8684,27.2167 C133.8684,34.0377 127.5614,40.0147 114.9924,45.1417 M118.3394,8.6007 C104.7974,3.3217 88.4104,0.6977 69.2324,0.7527 C50.0154,0.8047 33.6634,3.5607 20.1784,9.0557 C6.6854,14.5297 -0.0586,20.8157 0.0004,27.9627 C0.0314,35.0757 6.8354,41.2407 20.3874,46.3707 C33.9344,51.4727 50.3184,54.0247 69.4404,53.9997 C88.5594,53.9477 104.8844,51.2537 118.3704,45.9227 C131.8654,40.5667 138.6414,34.3317 138.6414,27.2167 C138.6694,20.0767 131.8964,13.8457 118.3394,8.6007" id="Fill-1" fill="#90908F" mask="url(#mask-2)"></path>
          </g>
          <path d="M104.4953,37.6389 C103.4203,38.9029 102.1803,40.0309 100.8193,41.0019 C99.9243,41.5959 98.9343,41.9019 97.9213,41.8389 C97.1433,41.8389 96.4043,41.5649 95.7523,41.0399 C95.4153,40.7589 95.1613,40.3909 94.9223,39.9019 L93.2183,41.1479 C92.5063,41.4189 91.7663,41.5649 91.0583,41.5649 C89.9483,41.6589 88.9823,41.3109 88.1183,40.6649 C87.3093,40.2109 86.8203,39.4989 86.5813,38.4989 C86.3273,37.4579 86.2263,36.3999 86.3273,35.2259 C85.3693,35.6429 84.4713,35.9759 83.5753,36.2539 C82.8703,36.4729 82.0933,36.4729 81.3183,36.2539 C80.5763,36.1699 79.8953,35.8819 79.2463,35.4759 L78.6873,35.0599 L78.1743,34.2989 L77.9483,33.3659 L77.3923,34.4079 C76.0593,36.9479 74.7033,39.5269 73.2443,42.1169 L69.5793,42.1439 C71.3673,38.8019 73.0293,35.4759 74.6783,32.0919 C75.0433,31.4109 75.2823,30.6519 75.3873,29.8669 L75.3873,29.0339 L74.7373,28.8319 C74.2373,29.1759 73.7683,29.5579 73.2863,29.9599 C72.3773,30.8529 71.5513,31.7929 70.7693,32.8179 C69.6393,34.2269 68.4933,35.6429 67.3443,36.9759 C66.3233,38.3259 65.2543,39.5659 64.0953,40.6939 C63.4843,41.2519 62.8073,41.6589 62.1513,41.9739 C61.4393,42.2549 60.7943,42.4109 60.1173,42.4559 C59.4303,42.4559 58.7493,42.3459 58.0833,42.0749 L57.0273,41.4849 L56.3083,40.7589 L55.6533,39.7669 L55.2263,38.7709 L54.6743,39.1839 L54.1463,39.7669 L53.5043,40.2109 L52.9323,40.4189 L52.3203,40.5959 L51.4353,40.1199 C51.2413,39.6269 51.3073,39.2149 51.6793,38.8019 C52.3203,38.1109 52.9323,37.4309 53.5573,36.6699 C54.1463,35.8439 54.6743,34.9489 55.0773,34.0189 C55.4443,33.3339 55.7713,32.6509 56.0943,32.0359 C56.5043,31.2029 56.9963,30.4889 57.5453,29.9059 C58.2013,29.1409 58.9403,28.4989 59.7763,27.9409 C60.6723,27.3539 61.5993,26.7909 62.5853,26.3159 L63.5083,26.0029 L63.8173,26.0029 C64.1853,26.1499 64.4733,26.3849 64.5743,26.7909 L64.6013,27.3259 L64.4073,27.8019 L64.1193,28.2489 L63.6823,28.5579 L63.5083,28.6519 C62.3623,29.7249 61.2833,30.9019 60.2693,32.1679 C59.5863,32.9979 59.1553,33.9519 58.9403,35.0179 C58.7493,35.7079 58.7843,36.3679 59.0273,37.0449 C59.1933,37.5729 59.4303,38.0169 59.7763,38.3579 C60.3523,38.5999 60.8843,38.6729 61.4393,38.5279 C62.1853,38.1909 62.7793,37.8739 63.1433,37.5279 L63.8173,36.8819 C64.0673,36.4729 64.3803,36.0219 64.6013,35.5669 C64.9003,35.0909 65.1223,34.5739 65.2543,34.0569 C65.4593,33.4699 65.6153,32.8179 65.6843,32.1259 C65.7673,31.4429 65.8923,30.7969 65.9903,30.1339 C66.0173,29.2359 66.0733,28.3919 66.2053,27.5309 L66.4863,26.9959 L66.9443,26.5619 L67.3063,26.5619 L67.6453,26.5619 L68.1323,26.7909 L68.4933,27.1769 L68.6483,27.7709 L68.7393,28.5959 L68.7603,29.6239 L68.7603,30.4889 L68.7603,31.4429 C70.3223,29.8669 71.9463,28.3919 73.6273,26.9689 C74.2373,26.4859 74.8513,26.1499 75.5393,26.0029 C76.1533,25.9409 76.7163,26.0759 77.2713,26.3159 C77.6323,26.5969 77.8903,26.8989 78.0763,27.3259 C78.3193,27.7709 78.5313,28.2489 78.6603,28.7319 C79.1213,28.1729 79.6493,27.6869 80.1833,27.2149 L80.9783,26.5969 C81.4163,26.3849 81.7803,26.2949 82.1513,26.3159 C82.8363,26.2949 83.4573,26.3849 84.0713,26.5619 C84.5603,26.7669 84.9353,27.1109 85.2793,27.5929 C85.5183,28.0059 85.6193,28.4509 85.6193,29.0019 C85.6193,29.6239 85.4603,30.1339 85.1583,30.6169 L84.2863,31.6199 C84.0093,31.6789 83.6303,31.6789 83.2343,31.5779 L82.2663,31.0399 L81.9093,30.0339 L81.9093,29.5239 L81.3813,29.4119 L81.0103,29.4119 C80.7013,29.8259 80.4893,30.2389 80.3063,30.6519 C80.1143,31.0989 80.0563,31.5779 80.1143,32.0359 C80.3063,32.7959 80.6663,33.2999 81.1973,33.5419 C81.9093,34.0189 82.7143,34.1049 83.5753,33.8239 C84.4983,33.6219 85.3693,33.2309 86.1723,32.6169 C86.7333,32.2689 87.2133,31.8559 87.7163,31.4109 C88.1813,30.9979 88.6493,30.5509 89.0693,30.0959 C89.9783,29.2669 90.9203,28.4989 91.9813,27.7709 L92.7183,27.2429 C92.9123,27.1109 93.2763,26.9689 93.7633,26.7909 C94.2693,26.5619 94.8843,26.4859 95.5363,26.5619 C96.2213,26.5619 96.7683,26.6949 97.1433,26.8679 C97.5463,27.1459 97.8833,27.4579 98.1403,27.8019 C98.5043,28.1379 98.7783,28.4989 99.0213,28.9019 L105.2343,18.6789 L109.3793,18.6619 L98.6263,36.9759 L98.4413,37.8739 L98.4413,38.4989 L98.5593,38.9029 L98.9003,39.4989 C99.3073,39.5929 99.6463,39.5929 99.9973,39.4989 C100.6113,39.0829 101.1563,38.6349 101.7193,38.1559 C102.1183,37.8739 102.5143,37.5279 102.8983,37.1179 L103.7873,36.1119 L104.4953,35.1329 C104.7873,34.7089 105.0933,34.3339 105.4323,34.0189 L105.9223,33.5149 L106.2943,33.6219 L106.6063,33.8659 L106.8773,34.2989 C106.2073,35.5069 105.3973,36.5939 104.4953,37.6389 M46.1423,37.9129 C45.0593,39.0829 43.8543,40.0309 42.5843,40.7969 C41.3803,41.4849 40.2663,41.9739 39.1853,42.2759 C38.0713,42.6199 36.8943,42.5199 35.6553,42.0749 C34.3993,41.5959 33.4663,41.1029 32.9733,40.6199 C32.4413,40.1199 31.9483,39.4639 31.4593,38.5999 C30.9663,37.7359 30.7173,36.5739 30.7783,35.0909 C30.8693,33.6219 31.2203,32.0919 31.8583,30.6519 C32.2263,29.8669 32.7023,29.1069 33.3163,28.4189 C34.0283,27.6869 34.7393,26.9409 35.4723,26.1839 L36.0693,25.8399 L36.8943,25.9029 L37.3913,26.1839 L37.7043,26.6319 C37.8253,26.8679 37.7633,27.2149 37.5413,27.6869 C36.8943,28.4189 36.2533,29.1409 35.6003,29.8259 C35.2883,30.1689 35.0143,30.5059 34.7643,30.9289 C34.5243,31.2699 34.3063,31.6439 34.1493,32.0609 L33.9653,33.1329 L34.0873,34.1599 C34.2543,34.8829 34.4583,35.4759 34.7643,35.9519 C35.0763,36.3999 35.3853,36.7399 35.7283,36.9759 C36.7423,37.4579 37.8253,37.5279 38.9773,37.1499 C40.1093,36.8089 41.2683,36.1919 42.3963,35.3659 C43.5493,34.5039 44.6873,33.3339 45.8683,31.8559 C46.7323,30.7519 47.5863,29.6239 48.3703,28.4189 C49.1933,27.2149 49.9913,26.0029 50.7793,24.7989 C50.4043,24.9829 50.0373,25.1569 49.5993,25.2919 L48.5823,25.7009 L47.5303,26.0029 L46.5383,26.3159 L45.9933,26.3159 L45.7013,26.0029 L46.1773,25.0219 C47.1863,24.5219 48.1823,24.0559 49.1653,23.6049 C49.6933,23.3619 50.1863,23.1779 50.6893,23.0569 C51.2723,22.9099 51.8553,22.7759 52.4253,22.6429 C53.8653,20.8489 55.2853,19.1929 56.7463,17.5819 C58.3533,15.8199 59.9953,14.1119 61.6893,12.3829 C59.9953,12.0149 58.2913,11.6219 56.5903,11.3239 C55.0773,11.0809 53.5573,10.9879 52.0673,11.0809 C50.6893,11.1509 49.3283,11.3899 47.9923,11.8829 C46.7323,12.4169 45.5243,13.1429 44.3793,14.0349 C43.6673,14.6279 43.1113,15.4159 42.6783,16.3809 C42.4943,16.7529 42.4663,17.2359 42.5253,17.7559 C42.5843,18.2069 42.7473,18.6139 43.0533,18.8599 C43.4793,19.2729 43.9833,19.4739 44.5073,19.4739 C45.0903,19.4739 45.6493,19.2969 46.1423,18.9639 C47.4093,18.0689 48.6483,17.1349 49.8523,16.1349 L50.5603,16.1349 C50.7523,16.4439 50.6893,16.8259 50.4673,17.3079 C49.8813,18.4469 49.1653,19.5469 48.3943,20.5469 C47.7313,21.4319 46.9403,22.1579 46.0793,22.7759 C45.2153,23.3619 44.3163,23.6049 43.3613,23.6329 C42.3963,23.7049 41.4673,23.4389 40.6303,22.8139 C39.9563,22.2649 39.4643,21.5389 39.1473,20.6099 C38.9323,19.5819 38.9323,18.5779 39.1473,17.5819 C39.4113,16.3809 39.8733,15.2399 40.5783,14.2499 C41.5323,12.9999 42.6603,11.9799 43.9103,11.1159 C45.1183,10.4389 46.3953,9.8839 47.7313,9.4669 C49.2243,9.1169 50.7523,8.9089 52.3203,8.8489 C54.1463,8.7519 55.9413,8.8039 57.8023,9.0889 C59.6513,9.3669 61.5263,9.6679 63.4183,10.0849 C65.7163,10.4669 68.0043,10.7479 70.3223,10.9359 C74.1793,11.1889 78.0113,11.2229 81.8143,11.0809 C83.8493,10.9879 85.9003,10.8689 87.9663,10.7059 L88.8903,10.9139 L89.2643,11.3239 C89.3573,11.5329 89.2643,11.8829 88.8903,12.3169 C88.0593,13.2079 87.0953,13.8679 86.0773,14.3509 C84.6963,15.0969 83.2343,15.5549 81.7453,15.6909 C79.8373,15.9099 77.8583,15.9099 75.8453,15.6569 C73.4293,15.3089 70.9993,14.8709 68.4933,14.2849 C67.1293,13.8679 65.7293,13.4549 64.3103,12.9999 L63.4563,13.6919 C62.3073,14.8289 61.1583,16.0349 60.0863,17.2359 C58.8083,18.8599 57.5833,20.5079 56.4063,22.1959 C57.1873,22.1189 57.9893,22.0499 58.7493,21.9839 C59.1553,21.9839 59.5513,21.9839 59.9303,22.0499 C60.3523,22.0499 60.7273,22.0839 61.1063,22.1579 C61.1583,21.3669 61.2563,20.5469 61.3883,19.6899 L61.6613,18.8599 C61.8733,18.4119 62.1203,18.0689 62.3623,17.7559 L63.1433,17.2359 L63.4183,17.2069 L64.0673,17.2359 L64.7783,17.5089 L65.4593,18.1309 L65.6843,18.7179 L65.6153,19.5469 C65.3133,20.4709 64.9003,21.2579 64.3803,21.9839 C64.1613,22.4009 63.8173,22.7089 63.3933,22.9459 L63.4843,23.3929 L63.7303,23.6049 L63.8873,24.0219 L63.7303,24.2879 L63.4843,24.6009 L62.9913,24.6249 L62.6613,24.4999 L62.3073,24.1849 L62.0263,23.6739 L61.7593,23.2609 C61.2313,23.2609 60.6723,23.2609 60.1443,23.2829 C59.5863,23.3619 59.0033,23.4389 58.4123,23.4389 C57.8913,23.4929 57.4023,23.5709 56.8753,23.6329 C56.3083,23.7049 55.7543,23.7369 55.2263,23.7369 C53.2863,27.3259 51.2413,30.8249 49.0103,34.2829 C48.1523,35.6429 47.2183,36.8469 46.1423,37.9129 M131.9763,24.7679 C131.5813,23.0839 130.8003,21.5749 129.7303,20.2239 C128.3593,18.6139 126.8433,17.2069 125.1413,16.0349 C122.9623,14.5589 120.6673,13.2819 118.2553,12.2159 C115.5413,11.0419 112.7193,9.9699 109.8133,9.0429 C106.4773,8.0159 103.0903,7.0859 99.6463,6.3389 C97.4453,5.8539 95.2593,5.4059 93.0303,5.0239 C89.4553,4.6489 85.9003,4.3399 82.2983,4.0969 C78.1043,3.8609 73.8353,3.6839 69.5453,3.6209 C67.5003,3.6209 65.4313,3.6499 63.3933,3.7219 C61.1933,3.8609 59.0273,4.0629 56.8373,4.2739 C52.9113,4.7149 48.9503,5.1939 45.0003,5.8539 C41.4143,6.4719 37.8603,7.2249 34.3063,8.1169 C31.1533,8.9889 28.0573,9.9359 24.9723,11.1159 C22.3093,12.1399 19.7403,13.3889 17.3043,14.7949 C15.2283,15.9719 13.3193,17.3539 11.4933,18.9639 C10.1333,20.1899 8.8963,21.5749 7.8133,23.1599 C7.3243,23.9099 6.9803,24.6669 6.7303,25.4929 C6.5503,26.2949 6.4873,27.1109 6.4873,27.8949 C6.4873,28.6869 6.5813,29.4469 6.7553,30.2069 C6.9803,31.0609 7.3553,31.8559 7.8453,32.5049 C8.9563,34.1259 10.2293,35.5419 11.6183,36.7399 C13.4473,38.3579 15.3883,39.6939 17.4563,40.8459 C19.9033,42.2549 22.4963,43.3829 25.1553,44.3099 C28.2523,45.4839 31.3693,46.4759 34.4963,47.2679 C38.0713,48.1629 41.6573,48.8749 45.2153,49.4339 C49.1933,50.0789 53.1643,50.5689 57.0903,50.9509 C59.2773,51.1139 61.4393,51.2589 63.6013,51.3319 C69.9743,51.5019 76.2853,51.2809 82.5513,50.7009 C86.1123,50.4059 89.6943,50.0169 93.2533,49.5069 C95.4713,49.1529 97.7023,48.7149 99.8613,48.1629 C103.2983,47.4039 106.6683,46.4759 109.9973,45.3759 C112.8753,44.4769 115.6803,43.3829 118.4083,42.0749 C120.8133,40.9469 123.1073,39.5659 125.2773,38.0169 C126.9403,36.8469 128.4503,35.4279 129.7863,33.7509 C130.8693,32.4739 131.6123,30.9599 132.0463,29.2669 C132.4073,27.8019 132.3793,26.2949 131.9763,24.7679" id="Fill-4" fill="#90908F"></path>
          <path d="M95.3596,30.0335 C95.0956,29.8975 94.7556,29.8665 94.2906,29.9195 C93.8596,29.8975 93.4296,30.0955 92.9676,30.5155 L92.3676,31.0475 L92.2456,31.1615 L91.9616,31.5295 C91.2186,32.4735 90.6496,33.4945 90.2056,34.5635 C89.9266,35.2615 89.7256,35.9895 89.6076,36.7125 L89.8086,37.5135 C90.0656,37.9135 90.4166,38.1775 90.8086,38.2985 C91.2186,38.3915 91.6256,38.3915 91.9966,38.2985 L92.9126,37.8435 C93.6246,37.0135 94.2906,36.1115 94.8946,35.1715 C95.4116,34.3865 95.7796,33.5595 95.9736,32.7485 C96.2166,31.9185 96.1816,31.2205 95.9736,30.6515 L95.3596,30.0335 Z" id="Fill-6" fill="#90908F"></path>
          <path d="M64.5364,19.7454 C64.8344,18.3364 61.7104,17.2664 62.6274,21.6614 C62.6274,21.6614 64.2334,21.1504 64.5364,19.7454" id="Fill-8" fill="#90908F"></path>
        </g>
      </g>
    </g>
  </g>
</svg>
