<?xml version="1.0" encoding="UTF-8"?>
<!-- Generator: Adobe Illustrator 22.1.0, SVG Export Plug-In . SVG Version: 6.00 Build 0)  -->
<svg xmlns="http://www.w3.org/2000/svg" xmlns:xlink="http://www.w3.org/1999/xlink" id="Layer_1" x="0px" y="0px" viewBox="0 0 166 56" style="enable-background:new 0 0 166 56;" xml:space="preserve">
<style type="text/css">
	.st0{display:none;}
	.st1{display:inline;}
	.st2{filter:url(#Adobe_OpacityMaskFilter);}
	.st3{fill:#FFFFFF;}
	.st4{mask:url(#mask-2_1_);fill:#90908F;}
	.st5{fill:#90908F;}
	.st6{fill:#808285;}
</style>
<title>allied</title>
<desc>Created with Sketch.</desc>
<g id="Visual-Design" class="st0">
	<g id="why_bidsync" transform="translate(-692.000000, -4370.000000)" class="st1">
		<g id="logo-soup" transform="translate(168.000000, 4228.000000)">
			<g id="row-2" transform="translate(11.000000, 128.000000)">
				<g id="allied" transform="translate(513.000000, 13.000000)">
					<g id="Group-3" transform="translate(30.000000, 0.105700)">
						<g id="Clip-2">
						</g>
						<defs>
							<filter id="Adobe_OpacityMaskFilter" filterUnits="userSpaceOnUse" x="0.7" y="0.9" width="10.4" height="14.8">
								<feColorMatrix type="matrix" values="1 0 0 0 0  0 1 0 0 0  0 0 1 0 0  0 0 0 1 0"></feColorMatrix>
							</filter>
						</defs>
						<mask maskUnits="userSpaceOnUse" x="0.7" y="0.9" width="10.4" height="14.8" id="mask-2_1_">
							<g class="st2">
								<polygon id="path-1_1_" class="st3" points="0.7,0.9 11.1,0.9 11.1,15.7 0.7,15.7         "></polygon>
							</g>
						</mask>
						<path id="Fill-1" class="st4" d="M5.2,14.7c0.1-0.6,0.1-1.2,0.2-1.8c0.2-1.5,0.4-3,0.5-4.5c0,0,0.1,0,0.1,0        c0.3,2.2,0.5,4.3,0.8,6.6c1.5-0.1,2.9-0.2,4.3-0.3c0-0.3,0-0.5-0.1-0.7c-0.5-3.1-1-6.2-1.5-9.2C9.3,3.5,9.1,2.2,8.9,0.9H2.9        c-0.1,0.5-0.1,1-0.2,1.5c-0.7,4.1-1.3,8.2-2,12.3c0,0.3,0,0.6-0.1,1c1.4-0.2,2.7-0.3,4.1-0.5C4.9,15.2,5.1,14.9,5.2,14.7"></path>
					</g>
					<path id="Fill-4" class="st5" d="M164.8,35.2c-0.1,0.6-0.3,1.2-0.4,1.8c-0.2-0.3-0.2-0.6-0.3-0.9c-0.1-0.4-0.2-0.9-0.3-1.3       c-0.1-0.1-0.3-0.3-0.5-0.3c-0.1,0-0.3,0.3-0.3,0.4c0,1.1,0,2.1,0,3.2c0,0.1,0.2,0.2,0.3,0.4c0.1,0,0.1-0.1,0.2-0.1v-2.7       c0.4,0.9,0.4,1.9,1,2.9c0.5-1.1,0.5-2.1,0.9-3.1c0,0.9,0,1.6,0,2.4c0,0.2-0.1,0.6,0.4,0.5v-4C165.2,34.5,164.9,34.7,164.8,35.2       "></path>
					<path id="Fill-6" class="st5" d="M55.3,34.6v10.3c-0.2-0.1-0.2-0.2-0.3-0.4c-0.7-2-1.5-4.1-2.2-6.1c-0.4-1.1-0.8-2.2-1.2-3.3       c-0.1-0.3-0.2-0.6-0.7-0.6c-1.1,0-2.1,0-3.4,0v1.2v18.7c0,0.1,0,0.3,0,0.4c0,0.8,0.1,0.9,0.8,0.9c0.8,0,1.5,0,2.3,0       c0.2,0,0.4-0.1,0.7-0.1V44.5c0.2,0.2,0.3,0.3,0.3,0.5c1.1,3.1,2.2,6.1,3.2,9.2c0.6,1.8,0.3,1.5,2.1,1.5c0.6,0,1.3,0.1,1.9-0.1       c0.2-1.1,0.1-20.4-0.1-21.1C57.7,34.5,56.6,34.5,55.3,34.6"></path>
					<path id="Fill-8" class="st5" d="M113.3,42.6c-0.2,0.6-0.6,1.1-1.3,1.1c-0.6,0.1-1.1,0-1.8,0v-5.9c0.8,0.1,1.5,0.2,2.1,0.3       c0.5,0.1,0.8,0.4,0.9,0.9C113.6,40.2,113.6,41.4,113.3,42.6 M115.4,47c-0.1-0.4-0.3-0.7,0.2-1c1-0.7,1.6-1.8,1.8-3       c0.2-1.1,0.2-2.3,0.1-3.4c-0.2-2.7-1.6-4.4-4.3-4.9c-0.5-0.1-0.9-0.1-1.4-0.1c-1.6,0-3.2,0-4.9,0c-0.3,0-0.6,0-1,0.1v1.2v18.7       c0,0.1,0,0.2,0,0.3c0,0.9,0.1,0.9,0.9,1c0.8,0,1.5,0,2.3,0c0.9,0,1,0,1-1c0-2.2,0-4.3,0-6.5c0-0.3,0-0.6,0.1-1h1.3       c0.2,0.6,0.4,1.2,0.6,1.8c0.6,2,1.2,4,1.8,6c0.1,0.3,0.2,0.6,0.6,0.6c1.2,0,2.4,0,3.8,0c-0.2-0.6-0.3-1-0.4-1.3       C117,51.9,116.2,49.5,115.4,47"></path>
					<path id="Fill-10" class="st5" d="M105.1,23.6c-0.1,0-0.2,0-0.5-0.1V9.4c0.7-0.2,1.3-0.1,1.9,0c0.5,0.1,0.9,0.5,1,1       c0.1,0.4,0.2,0.9,0.2,1.4c0,3.1,0,6.2,0,9.3C107.8,23.2,107.2,23.7,105.1,23.6 M111.6,22.8c0.1-0.7,0.2-1.4,0.2-2.2       c0-2.8,0-5.5,0-8.3c0-0.9-0.2-1.8-0.4-2.7c-0.2-0.8-0.5-1.5-1.1-2.1c-1.1-1.2-2.5-1.6-4.1-1.7c-1.7,0-3.4,0-5,0       c-0.3,0-0.5,0-0.8,0.1v21c0.2,0,0.3,0.1,0.4,0.1c1.9,0,3.9,0.1,5.8,0C109.4,26.9,111.1,25.4,111.6,22.8"></path>
					<path id="Fill-12" class="st5" d="M141.6,47.5c0.3-2.2,0.7-4.4,1-6.6c0,0,0.1,0,0.1,0c0.3,2.2,0.7,4.3,1,6.6H141.6z        M140.6,34.6c-0.4,0-0.5,0.4-0.5,0.7c-1.2,6.3-2.3,12.5-3.5,18.8c-0.1,0.5-0.2,1.1-0.2,1.6c0.2,0.1,0.2,0.2,0.3,0.2       c1,0,2.1,0,3.1,0c0.4,0,0.5-0.3,0.6-0.6c0.1-0.6,0.1-1.1,0.2-1.7c0.1-0.7,0.2-1.5,0.3-2.3c1.2,0,2.3-0.1,3.4,0       c0.2,1.4,0.4,2.6,0.6,3.9c0.1,0.7,0.1,0.7,0.8,0.7c0.8,0,1.5,0,2.3,0c0.3,0,0.6,0,1-0.1c-1.3-7.1-2.6-14-3.9-21.2       C143.6,34.6,142.1,34.5,140.6,34.6z"></path>
					<path id="Fill-14" class="st5" d="M85.8,27H96v-3.6h-6.2v-5.6h4.5c0-1,0-2,0-2.9c0-0.7-0.1-0.7-0.8-0.7c-0.9,0-1.9,0-2.8,0       c-0.3,0-0.6,0-1-0.1c0-1.6,0-3.1,0-4.6c2-0.1,3.9,0.1,5.8-0.1V5.9c-0.3,0-0.6-0.1-0.8-0.1c-2.7,0-5.4,0-8.2,0c-0.9,0-1,0-1,1       c0,6.4,0,12.8,0,19.2C85.7,26.4,85.7,26.7,85.8,27"></path>
					<path id="Fill-16" class="st5" d="M79.8,47.3c-0.1,0-0.1,0-0.2,0c-0.8-4.2-1.5-8.4-2.3-12.6h-4c0.1,0.4,0.1,0.7,0.2,1       c0.3,1.5,0.6,3,0.9,4.5c1,5,2.1,9.9,3.1,14.9c0.2,0.8,0.2,0.8,1,0.8c0.6,0,1.3,0,1.9,0c1.2,0,1.2,0,1.5-1.2       c1.3-6.1,2.5-12.1,3.8-18.2c0.1-0.6,0.2-1.2,0.3-1.8h-4C81.4,38.8,80.6,43.1,79.8,47.3"></path>
					<path id="Fill-18" class="st5" d="M128.8,43.6c-0.8-0.7-1.6-1.5-2.4-2.3c-0.6-0.6-0.7-1.4-0.6-2.2c0.1-0.8,0.7-1.3,1.5-1.2       c0.7,0,1.2,0.5,1.4,1.2c0.1,0.3,0.2,0.7,0.3,1.1c1.3-0.1,2.5-0.3,3.8-0.4c-0.2-2.1-0.8-3.8-2.6-4.8c-2.1-1.2-4.2-0.9-6.2,0.2       c-0.8,0.4-1.4,1.2-1.7,2c-0.7,1.8-0.6,3.6,0.2,5.3c0.7,1.5,1.8,2.5,3,3.6c0.8,0.7,1.7,1.4,2.5,2.2c0.6,0.6,1,1.3,1.1,2.1       c0.2,0.9-0.2,1.6-1,1.9c-0.9,0.3-1.7,0.1-2.1-0.8c-0.2-0.4-0.3-0.9-0.4-1.3c-0.1-0.2-0.1-0.5-0.1-0.9c-1.3,0.2-2.5,0.4-3.9,0.5       c0.1,1.9,0.6,3.6,2,4.9c1.6,1.4,3.4,1.6,5.4,1.1c2.2-0.5,3.7-2.1,4-4.3c0.2-1.6-0.1-3.2-1-4.6       C131.1,45.6,129.9,44.6,128.8,43.6"></path>
					<path id="Fill-20" class="st5" d="M94.6,52.1c-0.2-1.4-0.1-4.9,0.1-5.5c1.4-0.1,2.9,0.1,4.4-0.1c0-1.2,0-2.4,0-3.6h-4.5       c-0.1-1.7-0.1-3.2,0-4.8h5.9v-3.4c-1.2-0.2-9.2-0.1-9.9,0c-0.2,1-0.1,20.4,0.1,21c0.2,0,0.5,0.1,0.7,0.1c2.9,0,5.7,0,8.6,0       c0.2,0,0.4,0,0.5,0c0.2-0.1,0.4-0.2,0.4-0.4c0-1.1,0-2.1,0-3.3H94.6z"></path>
					<path id="Fill-22" class="st5" d="M157.5,52.1V51c0-5.1,0-10.2,0-15.3c0-0.4,0-0.7-0.1-1.1c-1.2-0.2-3.4-0.1-4,0.1v20.9       c0.9,0.3,8.9,0.2,9.6,0c0-1.1,0.1-2.3,0-3.5H157.5z"></path>
					<path id="Fill-24" class="st5" d="M64.8,55.7c1.3,0.1,2.6,0.1,3.9,0V34.6h-3.9V55.7z"></path>
					<path id="Fill-26" class="st5" d="M70.4,23.4c-1.3,0-2.5,0-3.8,0c-0.3,0-0.6,0-1,0v-5.5h-4v9c0.1,0.1,0.2,0.1,0.3,0.1       c2.9,0,5.8,0,8.8,0c0.4,0,0.6-0.2,0.6-0.6c0-0.8,0-1.5,0-2.3C71.2,23.5,71.1,23.5,70.4,23.4"></path>
					<path id="Fill-28" class="st5" d="M56.4,27.1c0.2,0,0.4-0.1,0.7-0.1v-3.5h-5.5v-5.1c-1.4,0.1-2.7,0.1-4,0.4       c0,0.2-0.1,0.3-0.1,0.4c0,2.4,0,4.8,0,7.2c0,0.6,0.1,0.7,0.8,0.7C51,27.1,53.7,27.1,56.4,27.1"></path>
					<path id="Fill-30" class="st5" d="M75.6,16.3c1.4,0.2,2.6,0.5,4,0.7c0-0.4,0-0.7,0-1.1c0-3,0-6,0-8.9c0-0.2,0-0.3,0-0.5       c0-0.4-0.2-0.6-0.6-0.6c-0.8,0-1.6,0-2.4,0c-1,0-1,0-1,1.1c0,2.8,0,5.6,0,8.4C75.6,15.6,75.6,15.9,75.6,16.3"></path>
					<path id="Fill-32" class="st5" d="M62.2,14.9c1,0.1,1.9,0.1,2.9,0.2c0.1,0,0.2,0,0.4-0.1v-9h-3.9c0,0.2-0.1,0.3-0.1,0.5       c0,2.6,0,5.2,0,7.7C61.5,14.7,61.6,14.8,62.2,14.9"></path>
					<path id="Fill-34" class="st5" d="M48.2,14.6c0.8,0,1.7,0,2.5,0c0.8,0,0.9-0.1,0.9-0.9c0-2.3,0-4.6,0-7c0-0.2,0-0.4-0.1-0.8       c-1.2,0-2.4,0-3.5,0c-0.5,0-0.6,0.3-0.6,0.7c0,2.4,0,4.9,0,7.3C47.4,14.5,47.5,14.6,48.2,14.6"></path>
					<path id="Fill-36" class="st5" d="M79.2,18.6c-1.1-0.1-2.3-0.2-3.4-0.3c-0.1,0.2-0.1,0.2-0.1,0.3c0,2.6,0,5.3,0,7.9       c0,0.5,0.3,0.6,0.7,0.6c0.8,0,1.7,0,2.5,0c0.9,0,0.9,0,0.9-0.9c0-2.2,0-4.4,0-6.6c0-0.1,0-0.3,0-0.4       C79.7,18.8,79.5,18.6,79.2,18.6"></path>
					<path id="Fill-38" class="st5" d="M38.1,27.1h5c-0.4-2.6-0.8-5.1-1.3-7.7c-1.6,0.3-3,0.5-4.6,0.8       C37.6,22.5,37.9,24.7,38.1,27.1"></path>
					<path id="Fill-40" class="st5" d="M30.1,21.8c-0.4,0.1-0.6,0.3-0.6,0.7c-0.1,0.7-0.2,1.4-0.3,2.1c-0.1,0.8-0.2,1.5-0.4,2.4       c1.7,0,3.3,0,5,0c0.2-2.1,0.5-4.1,0.7-6.2c-0.2,0-0.3-0.1-0.4,0C32.7,21.2,31.4,21.5,30.1,21.8"></path>
					<path id="Fill-42" class="st5" d="M82.8,18.5c0.3,0,0.7,0.1,1,0.1c-5.8-1.7-16.2-3-18.4-2.8h0c0,0-7.4-0.9-25.9-0.3       c-2,0.2-4,0.3-5.9,0.5c-2.7,0.3-5.4,0.7-8.2,1.2c-4.9,0.8-9.6,2-14.3,3.8c-2.3,0.9-4.5,1.9-6.6,3.3c-1.5,1-2.8,2.1-3.8,3.7       c-1.2,2-1.2,4,0.1,6c1,1.6,2.5,2.8,4.1,3.8c2.4,1.5,5,2.7,7.7,3.6C17.4,43,22.1,44,27,44.8c0.6,0.1,1.3,0.2,2,0.4       c0,1,0,2,0,2.9c0,0.8,0.1,1.7,0.2,2.5c0.3,2.6,2.1,4.5,4.5,5.2c1.6,0.4,3.2,0.4,4.8,0c2-0.6,3.5-1.8,4.1-3.9       c0.3-0.9,0.5-1.8,0.5-2.7c0-6.2,0-12.5,0-18.7c0-0.3,0-0.6-0.1-0.9h-5v1.1c0,6.1,0,12.3,0,18.4c0,0.5,0,0.9-0.2,1.4       c-0.3,0.8-0.9,1.2-1.9,1.1c-0.9,0-1.5-0.4-1.7-1.2c-0.1-0.5-0.2-1-0.2-1.5c0-6.1,0-12.1,0-18.2c0-0.3,0-0.7-0.1-1h-5v7.5v7.6       c-0.4-0.1-0.7-0.1-1-0.2c-1.4-0.5-2.9-0.9-4.3-1.5c-2.5-1-5-2.1-7.2-3.7c-1.3-1-2.5-2.1-3.3-3.5c-0.4-0.7-0.6-1.5-0.7-2.3       c-0.1-1.8,0.7-3.2,1.9-4.5c1.7-1.9,3.9-3.2,6.2-4.3c4.8-2.3,9.9-3.7,15-4.8c1.3-0.3,2.6-0.5,3.9-0.7c0,0,11.9-2,26-2       c0.1,0.1,0.4,0.1,0.8,0.1c2.1,0.1,4.1,0.1,6.2,0.2c0.1,0,0.2,0,0.3,0c1.9,0.2,3.7,0.3,5.6,0.5C79.9,18.2,81.4,18.4,82.8,18.5"></path>
					<path id="Fill-44" class="st5" d="M161.4,36.8c0.2,0.2,0.4,0.3,0.5,0.5c0.2,0.3,0.2,0.6-0.1,0.8c-0.3,0.2-0.5,0.1-0.7-0.2       c-0.1-0.1-0.2-0.3-0.4-0.5c-0.1,0.3-0.1,0.5-0.1,0.6c0.1,0.6,0.7,0.9,1.3,0.7c0.5-0.2,0.9-0.7,0.7-1.3c-0.1-0.4-0.5-0.7-0.8-1       c-0.2-0.2-0.5-0.4-0.7-0.7c-0.1-0.1,0-0.4,0.1-0.6c0.1-0.1,0.4,0,0.5,0.1c0.2,0.1,0.3,0.3,0.5,0.5c0.1-0.1,0.1-0.1,0.2-0.2       c0-0.5-0.2-0.8-0.6-1c-0.4-0.1-0.9,0-1.2,0.4c-0.3,0.4-0.2,0.8,0,1.2C160.8,36.4,161.1,36.6,161.4,36.8"></path>
				</g>
			</g>
		</g>
	</g>
</g>
<g class="st0">
	<g class="st1">
		<path class="st6" d="M34.8,14.1c0.1,0.3,0.2,0.6,0.2,0.9c0,8.5,0,17,0,25.4c0,0.2,0,0.4-0.1,0.7c-1.6,0-3.2,0-4.7,0    c-0.3,0-0.7-0.4-0.9-0.7C23.5,33.9,17.8,27.5,12.1,21c-0.3-0.3-0.5-0.6-1-1.1c0,7.2,0,14.1,0,21.1c-1.5,0-2.8,0-4.2,0    c0-0.4-0.1-0.7-0.1-1.1c0-8.3,0-16.6,0-24.8c0-0.4,0.1-0.7,0.1-1.1c1.6,0,3.2,0,4.8,0c6.2,7,12.5,14.1,18.7,21.1    c0.2-0.5,0.2-0.9,0.2-1.3c0-6.6,0-13.2,0-19.8C32.1,14.1,33.5,14.1,34.8,14.1z"></path>
		<path class="st6" d="M116,14.1c0,1.4,0,2.7,0,4.3c-0.4,0-0.7,0-1.1,0c-5.6,0-11.2,0-16.9,0c-1.5,0-1.6,0.1-1.6,1.7    c0,5.1,0,10.3,0,15.4c0,1.3,0.2,1.5,1.5,1.5c5.6,0,11.2,0,16.9,0c0.4,0,0.8,0,1.3,0c0,1.4,0,2.7,0,4.2c-0.3,0-0.7,0.1-1,0.1    c-5.8,0-11.6,0-17.5,0c-3.4,0-5.4-2.1-5.4-5.4c0-5.1,0.1-10.3,0-15.4c-0.1-3.2,1.1-5.3,4.1-6.3C102.8,14.1,109.4,14.1,116,14.1z"></path>
		<path class="st6" d="M160,41.3c-2.9,0-5.7,0.2-8.6,0c-2.4-0.2-4.1-2.5-4.1-5.2c0-6.9,0-13.8,0-20.7c0-0.3,0-0.7,0-1    c1.4,0,2.7,0,4.2,0c0,0.4,0,0.8,0,1.2c0,6.6,0,13.2,0,19.8c0,1.7,0.1,1.8,1.8,1.8c2.2,0,4.4,0.1,6.5,0.1C160,38.6,160,40,160,41.3    z"></path>
		<path class="st6" d="M143.2,41.4c-0.4,0-0.7,0-1.1,0c-5.4,0-10.8,0-16.3,0c-3.6,0-5.6-2-5.6-5.6c0-2.7,0-5.3,0-8    c0-0.4,0-0.7,0-1.2c6.3,0,12.5,0,18.8,0c0-1.2,0-2.2,0-3.3c0-0.8-0.6-0.8-1.3-0.8c-3.8,0-7.5,0-11.3,0c-2,0-4,0-6.1,0    c0-1.4,0-2.8,0-4.2c0.4,0,0.7,0,1,0c5.6,0,11.2,0,16.9,0c2.2,0,4.2,1.3,4.9,3.4c0.1,0.2,0.1,0.5,0.1,0.8c0,6.1,0,12.2,0,18.4    C143.3,41,143.2,41.2,143.2,41.4z M124.5,30.9c0,1.6,0,3.1,0,4.6c0,1.5,0.2,1.7,1.7,1.7c3.9,0,7.9,0,11.8,0c0.3,0,0.6,0,1-0.1    c0-2.1,0-4.2,0-6.2C134.1,30.9,129.4,30.9,124.5,30.9z"></path>
		<path class="st6" d="M50.6,18.3c2.2,0,4.3,0,6.5,0c2.9,0,5,2.2,5,5c0,4.2,0,8.4,0,12.6c0,2.8-2.1,5.1-4.9,5.1    c-4.4,0.1-8.8,0.1-13.2,0C41.1,41,39,38.8,39,36c0-4.2,0-8.4,0-12.6c0-2.9,2.2-5,5.1-5C46.2,18.3,48.4,18.3,50.6,18.3z M50.6,22.6    c-2,0-4,0-6,0c-1.1,0-1.3,0.2-1.3,1.4c0,3.9,0,7.7,0,11.6c0,0.9,0.4,1.3,1.2,1.3c4,0,8.1,0,12.1,0c0.8,0,1.2-0.4,1.2-1.2    c0-3.9,0-7.9,0-11.8c0-0.9-0.4-1.3-1.3-1.3C54.6,22.6,52.6,22.6,50.6,22.6z"></path>
		<path class="st6" d="M70.5,41.1c-1.5,0-2.8,0-4.2,0c0-0.4-0.1-0.7-0.1-1.1c0-5.5,0-11,0-16.4c0-3.1,2.1-5.2,5.2-5.2    c3.8,0,7.7,0,11.5,0c0.3,0,0.6,0,1,0c0,1.4,0,2.8,0,4.2c-3,0-5.9,0-8.8,0c-1.1,0-2.2,0-3.2,0c-1.1,0-1.3,0.2-1.3,1.4    c0,5.3,0,10.6,0,15.8C70.5,40.2,70.5,40.6,70.5,41.1z"></path>
		<path class="st6" d="M81.4,31.6c-1.7,0-3.4,0-5,0c-1.1,0-1.4-0.4-1.5-1.5c0-0.4,0-0.8,0-1.2c0.1-0.9,0.5-1.4,1.4-1.4    c3.4,0,6.9,0,10.3,0c0.9,0,1.4,0.5,1.4,1.4c0,0.2,0,0.5,0,0.7c0,1.8-0.2,2-2,2C84.5,31.6,83,31.6,81.4,31.6    C81.4,31.6,81.4,31.6,81.4,31.6z"></path>
	</g>
</g>
<g class="st0">
	<g id="ZIdql3_1_" class="st1">
		<g>
			<g>
				<path class="st6" d="M142.5,19c-0.1,0.3-0.1,0.7-0.2,1c-0.4,2.6-1.7,4.5-4,5.9c-1.3,0.7-2.6,1.2-4.1,1.3      c-0.7,0.1-1.4,0.1-2.1,0.1c-0.3,0-0.4,0.1-0.4,0.4c0,3.1,0,6.3,0,9.4c0,0.1,0,0.2,0,0.4c0.2-0.2,0.3-0.3,0.4-0.4      c1.4-1.7,2.8-3.3,4.1-5c0.1-0.1,0.3-0.2,0.4-0.2c1.3,0,2.5,0,3.8,0c0,0,0.1,0,0.2,0c-0.3,0.4-0.7,0.8-1,1.2      c-2.2,2.7-4.5,5.4-6.7,8.1c-0.2,0.3-0.5,0.4-0.8,0.4c-1.1,0-2.1,0-3.2,0c-0.3,0-0.4-0.1-0.4-0.4c0-5.8,0-11.6,0-17.5      c0-0.1,0-0.2,0-0.4c0.6,0.1,1.1,0.3,1.6,0.3c1.8,0.3,3.7,0.4,5.4-0.2c1.7-0.6,2.9-1.7,3.2-3.5c0.5-2.4-0.5-4.6-2.9-5.5      c-0.1,0-0.2-0.1-0.3-0.1c0.1-0.1,0.2-0.2,0.2-0.3c1.4-1.6,1.4-4.3-0.1-5.7c-0.7-0.7-1.6-1-2.6-1.2c-1.6-0.2-3,0.2-4.4,1.1      c-0.1,0-0.1,0.1-0.2,0.1c0-0.1,0-0.2,0-0.2c0-1.1,0-2.3,0-3.4c0-0.2,0.1-0.3,0.3-0.4c0.9-0.4,1.8-0.6,2.8-0.7      c0.1,0,0.3-0.1,0.4-0.1c0.2,0,0.4,0,0.5,0c0.1,0,0.3,0.1,0.4,0.1c0.5,0.1,1,0.1,1.5,0.2c4.4,1,6.4,4.9,5.7,8.8      c-0.1,0.3,0,0.5,0.2,0.7c1.1,1.2,1.7,2.6,2,4.2c0,0.4,0.1,0.7,0.2,1.1C142.5,18.7,142.5,18.9,142.5,19z"></path>
				<path class="st6" d="M31.5,34.4c0.1,0.1,0.2,0.1,0.3,0.1c1.6,0.6,2.1,2.3,1.9,3.6c-0.2,2.1-1.8,3.1-3.4,3.3      c-1.2,0.1-2.4,0.1-3.7,0.1c-0.5,0-1,0-1.4-0.1c-0.5-0.1-0.7-0.3-0.8-0.8c0-0.3-0.1-0.5-0.1-0.8c0-3.2,0-6.3,0-9.5      c0-0.3-0.1-0.5-0.4-0.4c-0.3,0-0.5,0-0.8,0c-0.2,0-0.3-0.1-0.3-0.3c0-0.5,0-1,0-1.4c0-0.3,0.1-0.3,0.3-0.3c1,0,2.1,0,3.1,0      c1.1,0,2.2,0,3.4,0c1.4,0.1,2.6,0.6,3.2,2c0.7,1.5,0.2,3.3-1.2,4.2C31.6,34.3,31.6,34.3,31.5,34.4z M26.8,37.4      c0,0.5,0,1.1,0,1.6c0,0.4,0.1,0.5,0.5,0.5c0.7,0,1.4,0,2.1,0c0.3,0,0.7-0.1,1-0.3c0.7-0.4,0.8-1.1,0.8-1.9      c0-0.9-0.6-1.7-1.5-1.8c-0.9-0.1-1.8-0.1-2.7-0.1c-0.1,0-0.2,0.2-0.2,0.3C26.7,36.3,26.8,36.8,26.8,37.4z M26.8,31.7      c0,0.5,0,1,0,1.5c0,0.2,0.1,0.3,0.2,0.3c0.8,0,1.5,0,2.3-0.1c0.8-0.1,1.3-0.8,1.3-1.7c0-0.9-0.4-1.6-1.2-1.7      C28.6,30,27.8,30,26.9,30c-0.1,0-0.2,0.2-0.2,0.3C26.8,30.7,26.8,31.2,26.8,31.7z"></path>
				<path class="st6" d="M49.8,44.7c0.2-0.6,0.5-1.2,0.7-1.8c0.5,0.2,1,0.3,1.5,0.5c0.8,0.2,1.7,0.2,2.5-0.1c0.9-0.3,1.4-1,1.5-1.9      c0-0.4,0-0.9,0-1.4c-0.1,0.1-0.2,0.1-0.2,0.2c-0.8,1-1.9,1.2-3,1.1c-2.5-0.2-3.7-2.3-3.9-4.2c-0.1-1.4,0-2.7,0.9-3.9      c1-1.4,2.4-1.8,4-1.7c0.9,0.1,1.7,0.5,2.3,1.2c0,0,0.1,0,0.1,0.1c0-0.1,0-0.2,0-0.3c0-0.5,0.3-0.8,0.8-0.8c0.7,0,1.5,0,2.2,0      c0.2,0,0.3,0.1,0.3,0.3c0,0.5,0,1,0,1.5c0,0.2-0.1,0.2-0.3,0.3c-0.9,0.1-0.9,0.1-0.9,1c0,2.1,0,4.1,0,6.2c0,2.5-1.5,4.1-3.9,4.5      c-1.5,0.2-2.9,0-4.3-0.5c-0.1,0-0.2-0.1-0.3-0.1C49.9,44.8,49.9,44.8,49.8,44.7z M51.3,36.4c0,0.6,0.1,1.3,0.5,1.8      c0.5,1,1.4,1.3,2.5,1.2c0.8-0.1,1.5-0.7,1.8-1.6c0.2-0.8,0.2-1.6,0.1-2.4c-0.2-1-0.8-1.6-1.8-1.7c-1.4-0.2-2.5,0.2-2.8,1.8      C51.3,35.7,51.3,36,51.3,36.4z"></path>
				<path class="st6" d="M116.7,34.9c0,0.1-0.1,0.3-0.1,0.4c-0.6,2-1.2,4-1.8,6c0,0.1-0.2,0.2-0.3,0.2c-0.7,0-1.5,0-2.2,0      c-0.3,0-0.3-0.2-0.4-0.3c-0.7-2.2-1.4-4.5-2.1-6.7c-0.1-0.4-0.3-0.7-0.8-0.7c-0.1,0-0.2-0.1-0.2-0.2c0-0.5,0-1,0-1.5      c0-0.2,0.1-0.3,0.3-0.3c0.6,0,1.1,0,1.7,0c0.5,0,0.8,0.3,1,0.8c0.3,1.2,0.7,2.4,1,3.6c0.2,0.9,0.5,1.9,0.7,2.8      c0,0,0.1,0.1,0.1,0.2c0.2-0.7,0.4-1.5,0.6-2.2c0.5-1.6,0.9-3.3,1.4-4.9c0.1-0.2,0.2-0.3,0.4-0.3c0.5,0,1,0,1.5,0      c0.2,0,0.3,0.1,0.4,0.3c0.6,2.2,1.2,4.3,1.8,6.5c0.1,0.2,0.1,0.4,0.1,0.6c0,0,0.1,0,0.1,0c0-0.2,0.1-0.3,0.1-0.5      c0.4-1.7,0.9-3.5,1.3-5.2c0.1-0.3,0.2-0.7,0.3-1c0.1-0.5,0.5-0.7,1-0.7c0.6,0,1.1,0,1.7,0c0.2,0,0.3,0.1,0.3,0.3      c0,0.5,0,1,0,1.5c0,0.1-0.1,0.2-0.2,0.2c-0.4,0-0.6,0.3-0.7,0.6c-0.7,2.1-1.3,4.2-2,6.3c-0.3,0.9-0.3,0.9-1.2,0.9      c-0.5,0-1,0-1.5,0c-0.1,0-0.3-0.1-0.3-0.2c-0.6-2-1.2-3.9-1.8-5.9C116.8,35.2,116.8,35.1,116.7,34.9      C116.7,34.9,116.7,34.9,116.7,34.9z"></path>
				<path class="st6" d="M64,33.5c0.1-0.1,0.2-0.3,0.3-0.4c0.9-1.2,2.2-1.6,3.6-1.5c0.2,0,0.5,0.1,0.7,0.1c1.2,0.3,1.9,1.3,2,2.6      c0.1,1.3,0.1,2.7,0.1,4c0,0.1,0,0.3,0,0.4c0,0.8,0,0.8,0.8,0.8c0.3,0,0.4,0.1,0.4,0.4c0,0.5,0,0.9,0,1.4c0,0.1-0.1,0.2-0.2,0.2      c-0.8,0-1.6,0-2.4,0c-0.7-0.1-1-0.4-1-1.2c0-1.6,0-3.1,0-4.7c0-0.2,0-0.4-0.1-0.6c-0.1-1.1-0.9-1.5-1.9-1.3      c-1.4,0.2-2.5,1.4-2.5,2.9c0,1.5,0,3,0,4.6c0,0.3-0.1,0.4-0.4,0.4c-0.5,0-1.1,0-1.6,0c-0.3,0-0.4-0.1-0.4-0.4c0-3.5,0-7,0-10.5      c0-0.7-0.1-0.7-0.7-0.7c-0.5,0-0.5,0-0.5-0.5c0-0.4,0-0.8,0-1.2c0-0.2,0.1-0.3,0.3-0.3c0.8,0,1.5,0,2.3,0c0.6,0,1,0.3,1,0.9      c0,1.3,0,2.6,0,3.9c0,0.2,0,0.4,0,0.6C64,33.4,64,33.5,64,33.5z"></path>
				<path class="st6" d="M85.6,38.6c0.1-0.3,0.1-0.6,0.2-1c0.6-1.9,1.3-3.8,1.9-5.8c0.3-0.9,0.6-1.9,1-2.8c0.1-0.2,0.2-0.4,0.3-0.6      c0.2-0.3,0.5-0.5,0.9-0.5c0.6,0,1.2,0,1.7,0c0.2,0,0.3,0.1,0.3,0.3c0,0.5,0,1,0,1.5c0,0.2,0,0.3-0.3,0.3c-0.4,0-0.6,0.2-0.7,0.6      c-1.3,3.5-2.6,7-3.9,10.5c-0.1,0.4-0.3,0.5-0.7,0.5c-0.6,0-1.2,0-1.7,0c-0.3,0-0.4-0.1-0.5-0.4c-1-2.8-2-5.5-3-8.2      c-0.3-0.8-0.6-1.6-0.9-2.4C80,30.2,79.8,30,79.4,30c-0.1,0-0.2-0.1-0.2-0.2c0-0.5,0-1,0-1.6c0-0.1,0.1-0.2,0.2-0.2      c0.6,0,1.2,0,1.8,0c0.6,0,0.8,0.4,1,0.9c0.2,0.6,0.4,1.2,0.6,1.8c0.7,2.1,1.5,4.3,2.2,6.4C85.3,37.6,85.4,38.1,85.6,38.6      C85.5,38.6,85.6,38.6,85.6,38.6z"></path>
				<path class="st6" d="M106.8,38.8c0.3,0.5,0.6,1,0.9,1.5c0,0.1-0.1,0.2-0.2,0.3c-0.7,0.6-1.6,1-2.5,1.1c-1.4,0.2-2.7,0.1-3.9-0.6      c-1.5-0.8-2.3-2.1-2.5-3.8c-0.2-1.4,0.1-2.8,1-3.9c0.8-1,1.8-1.6,3.1-1.8c0.8-0.1,1.6-0.1,2.3,0.2c1.6,0.6,2.4,1.8,2.7,3.4      c0.1,0.5,0,1,0.1,1.5c0,0.3-0.1,0.4-0.4,0.4c-2,0-4,0-6,0c-0.4,0-0.4,0-0.4,0.4c0.2,1.3,1.3,2.2,2.6,2.3c1,0.1,2-0.2,2.8-0.8      c0.1-0.1,0.2-0.1,0.2-0.2C106.7,38.8,106.7,38.8,106.8,38.8z M105.4,35.4c0.1-1.1-0.8-2-1.9-2c-1.5,0-2.4,1.2-2.4,2      C102.5,35.4,104,35.4,105.4,35.4z"></path>
				<path class="st6" d="M73.9,36.2c0-0.7,0-1.5,0-2.2c0-0.3-0.1-0.4-0.4-0.4c-0.9,0-0.9,0-0.9-0.9c0-0.9,0-0.9,0.9-0.9      c0.3,0,0.4-0.1,0.4-0.4c0-0.6,0-1.3,0-1.9c0-0.3,0.1-0.4,0.4-0.4c0.6,0,1.1,0,1.7,0c0.2,0,0.3,0.1,0.3,0.3c0,0.7,0,1.4,0,2.1      c0,0.2,0.1,0.3,0.3,0.3c0.5,0,1,0,1.5,0c0.3,0,0.4,0.1,0.4,0.4c0,0.4,0,0.7,0,1.1c0,0.2-0.1,0.3-0.3,0.3c-0.5,0-1,0-1.6,0      c-0.3,0-0.4,0.1-0.4,0.4c0,1.3,0,2.5,0,3.8c0,1.1,0.7,1.8,1.8,1.8c0.6,0,0.6,0,0.6,0.6c0,0.4,0,0.8,0,1.2c0,0.1-0.1,0.3-0.2,0.3      c-1,0.1-2.1,0-3-0.5c-1-0.6-1.5-1.5-1.5-2.6C73.9,37.7,73.9,37,73.9,36.2C73.9,36.2,73.9,36.2,73.9,36.2z"></path>
				<path class="st6" d="M38.4,34.2c0.3-0.5,0.5-0.9,0.8-1.3c0.6-0.8,1.4-1.2,2.4-1.2c0.3,0,0.4,0.1,0.4,0.4c0,0.6,0,1.1,0,1.7      c0,0.2-0.1,0.3-0.3,0.3c-1.8-0.1-3.1,1.2-3.2,3.2c-0.1,1.3,0,2.7,0,4c0,0.3-0.1,0.4-0.4,0.4c-0.5,0-1,0-1.5,0      c-0.3,0-0.4-0.1-0.4-0.4c0-2.1,0-4.3,0-6.4c0-0.1,0-0.2,0-0.3c0-0.4-0.2-0.6-0.6-0.6c-0.6,0-0.6,0.1-0.6-0.6c0-0.3,0-0.7,0-1      c0-0.2,0.1-0.3,0.3-0.3c0.7,0,1.4,0,2.1,0c0.7,0,1,0.4,1,1.1C38.4,33.3,38.4,33.7,38.4,34.2z"></path>
				<path class="st6" d="M46.5,35.9c0,1,0,2,0,3c0,0.5,0.1,0.6,0.6,0.6c0.6,0,0.5-0.1,0.6,0.6c0,0.4,0,0.8,0,1.2      c0,0.1-0.1,0.2-0.2,0.2c-0.8,0-1.6,0-2.4,0c-0.8-0.1-1-0.4-1-1.3c0-1.9,0-3.8,0-5.7c0-0.6-0.1-0.7-0.7-0.7c-0.5,0-0.5,0-0.5-0.5      c0-0.4,0-0.8,0-1.2c0-0.2,0.1-0.3,0.3-0.3c0.8,0,1.5,0,2.3,0c0.7,0,1,0.4,1,1.1C46.5,33.9,46.5,34.9,46.5,35.9      C46.5,35.9,46.5,35.9,46.5,35.9z"></path>
				<path class="st6" d="M96.2,35.9c0,1,0,2,0,3c0,0.5,0.1,0.6,0.6,0.6c0.6,0,0.5-0.1,0.5,0.6c0,0.4,0,0.8,0,1.2      c0,0.1-0.1,0.2-0.2,0.2c-0.8,0-1.6,0-2.4,0c-0.7-0.1-1-0.4-1-1.3c0-1.5,0-3,0-4.6c0-0.4,0-0.9,0-1.3c0-0.4-0.1-0.5-0.5-0.6      c-0.7,0-0.7,0-0.7-0.7c0-0.3,0-0.6,0-1c0-0.2,0.1-0.3,0.3-0.3c0.8,0,1.5,0,2.3,0c0.6,0,1,0.4,1,1C96.2,33.9,96.2,34.9,96.2,35.9      C96.2,35.9,96.2,35.9,96.2,35.9z"></path>
				<path class="st6" d="M96.1,29.1c0,0.7-0.6,1.3-1.3,1.3c-0.7,0-1.3-0.6-1.3-1.3c0-0.7,0.6-1.3,1.3-1.3      C95.6,27.8,96.1,28.4,96.1,29.1z"></path>
				<path class="st6" d="M45.2,27.8c0.7,0,1.3,0.6,1.3,1.3c0,0.7-0.6,1.3-1.3,1.3c-0.7,0-1.3-0.6-1.3-1.3      C43.8,28.3,44.4,27.8,45.2,27.8z"></path>
				<path class="st6" d="M138.4,40.3c0-0.7,0.5-1.2,1.2-1.2c0.7,0,1.2,0.6,1.2,1.2c0,0.7-0.6,1.2-1.2,1.2      C138.9,41.5,138.4,41,138.4,40.3z M139.6,39.2c-0.6,0-1,0.4-1,1.1c0,0.6,0.5,1.1,1,1.1c0.6,0,1.1-0.5,1.1-1.1      C140.6,39.7,140.2,39.2,139.6,39.2z"></path>
				<path class="st6" d="M139.2,40.8c0-0.4,0-0.7,0-1.1c0-0.1,0.4-0.1,0.6-0.1c0.1,0,0.2,0.4,0.2,0.4c-0.2,0.3-0.1,0.5,0,0.7      c0,0,0,0-0.1,0.1c-0.1-0.1-0.1-0.2-0.2-0.3c-0.1-0.1-0.2-0.2-0.3-0.2c-0.1,0.1-0.1,0.2-0.2,0.3      C139.3,40.7,139.3,40.8,139.2,40.8C139.3,40.8,139.2,40.8,139.2,40.8z M139.5,40.3c0,0,0.1,0,0.1,0c0.1-0.1,0.2-0.2,0.2-0.3      c0-0.1-0.2-0.2-0.3-0.3c-0.1,0.1-0.2,0.2-0.2,0.3C139.3,40.1,139.4,40.2,139.5,40.3z"></path>
			</g>
		</g>
	</g>
	<g class="st1">
		<path class="st6" d="M75.4,52.5c-0.6,0.3-1.2,0.5-1.9,0.5c-0.4,0-0.7-0.1-1-0.2c-0.3-0.1-0.6-0.3-0.8-0.5    c-0.2-0.2-0.4-0.5-0.5-0.8c-0.1-0.3-0.2-0.6-0.2-1c0-0.4,0.1-0.7,0.2-1c0.1-0.3,0.3-0.6,0.5-0.8c0.2-0.2,0.5-0.4,0.8-0.5    c0.3-0.1,0.6-0.2,1-0.2c0.4,0,0.7,0,1,0.1c0.3,0.1,0.6,0.2,0.8,0.5l-0.6,0.6c-0.1-0.1-0.3-0.3-0.5-0.3c-0.2-0.1-0.4-0.1-0.7-0.1    c-0.2,0-0.5,0-0.7,0.1c-0.2,0.1-0.4,0.2-0.5,0.4c-0.1,0.2-0.2,0.3-0.3,0.5c-0.1,0.2-0.1,0.4-0.1,0.6c0,0.2,0,0.5,0.1,0.7    c0.1,0.2,0.2,0.4,0.3,0.5c0.1,0.2,0.3,0.3,0.5,0.4c0.2,0.1,0.4,0.1,0.7,0.1c0.2,0,0.4,0,0.6-0.1c0.2,0,0.4-0.1,0.5-0.2v-1.1h-0.9    v-0.7h1.8V52.5z"></path>
		<path class="st6" d="M76.1,51.3c0-0.2,0-0.5,0.1-0.7c0.1-0.2,0.2-0.4,0.4-0.5c0.2-0.1,0.3-0.3,0.5-0.3c0.2-0.1,0.4-0.1,0.7-0.1    c0.2,0,0.5,0,0.7,0.1c0.2,0.1,0.4,0.2,0.5,0.3c0.2,0.1,0.3,0.3,0.4,0.5c0.1,0.2,0.1,0.4,0.1,0.7c0,0.2,0,0.5-0.1,0.7    c-0.1,0.2-0.2,0.4-0.4,0.5c-0.2,0.1-0.3,0.3-0.5,0.3c-0.2,0.1-0.4,0.1-0.7,0.1c-0.2,0-0.5,0-0.7-0.1c-0.2-0.1-0.4-0.2-0.5-0.3    c-0.2-0.1-0.3-0.3-0.4-0.5C76.2,51.8,76.1,51.6,76.1,51.3z M76.9,51.3c0,0.1,0,0.2,0.1,0.4c0,0.1,0.1,0.2,0.2,0.3    c0.1,0.1,0.2,0.2,0.3,0.2c0.1,0.1,0.2,0.1,0.4,0.1c0.1,0,0.3,0,0.4-0.1c0.1-0.1,0.2-0.1,0.3-0.2c0.1-0.1,0.1-0.2,0.2-0.3    c0-0.1,0.1-0.2,0.1-0.4c0-0.1,0-0.2-0.1-0.4c0-0.1-0.1-0.2-0.2-0.3c-0.1-0.1-0.2-0.2-0.3-0.2c-0.1-0.1-0.2-0.1-0.4-0.1    c-0.1,0-0.3,0-0.4,0.1c-0.1,0.1-0.2,0.1-0.3,0.2C77.1,50.7,77,50.8,77,51C76.9,51.1,76.9,51.2,76.9,51.3z"></path>
		<path class="st6" d="M80.3,47.9h0.8v4.9h-0.8V47.9z"></path>
		<path class="st6" d="M82.3,50.4h-0.6v-0.7h0.6v-0.4c0-0.2,0-0.4,0-0.6c0-0.2,0.1-0.3,0.2-0.5c0.1-0.1,0.2-0.2,0.4-0.3    c0.2-0.1,0.4-0.1,0.6-0.1c0.2,0,0.3,0,0.5,0l-0.1,0.7c-0.1,0-0.1,0-0.2,0c-0.1,0-0.1,0-0.2,0c-0.1,0-0.2,0-0.3,0.1    c-0.1,0-0.1,0.1-0.2,0.1c0,0.1-0.1,0.1-0.1,0.2c0,0.1,0,0.2,0,0.2v0.6h0.7v0.7H83v2.5h-0.8V50.4z"></path>
		<path class="st6" d="M86.3,48.2h1.3l1.2,3.2l1.2-3.2h1.2v4.6h-0.8V49h0l-1.4,3.8h-0.6L87.1,49h0v3.8h-0.8V48.2z"></path>
		<path class="st6" d="M94.2,52.5L94.2,52.5c-0.1,0.2-0.3,0.3-0.5,0.4S93.4,53,93.2,53c-0.1,0-0.3,0-0.4-0.1c-0.1,0-0.3-0.1-0.4-0.2    c-0.1-0.1-0.2-0.2-0.3-0.3c-0.1-0.1-0.1-0.3-0.1-0.4c0-0.2,0-0.3,0.1-0.4c0.1-0.1,0.1-0.2,0.2-0.3c0.1-0.1,0.2-0.1,0.4-0.2    c0.1,0,0.3-0.1,0.4-0.1c0.1,0,0.3,0,0.4,0c0.1,0,0.3,0,0.4,0h0.2v-0.1c0-0.2-0.1-0.3-0.2-0.4c-0.1-0.1-0.3-0.1-0.5-0.1    c-0.2,0-0.3,0-0.5,0.1c-0.1,0.1-0.3,0.1-0.4,0.2l-0.4-0.4c0.2-0.2,0.4-0.3,0.6-0.4c0.2-0.1,0.5-0.1,0.7-0.1c0.2,0,0.4,0,0.6,0.1    c0.2,0.1,0.3,0.1,0.4,0.2c0.1,0.1,0.2,0.2,0.2,0.3c0.1,0.1,0.1,0.2,0.1,0.3c0,0.1,0,0.2,0,0.3c0,0.1,0,0.2,0,0.3v1.8h-0.7V52.5z     M94.2,51.5H94c-0.1,0-0.2,0-0.4,0c-0.1,0-0.3,0-0.4,0.1c-0.1,0-0.2,0.1-0.3,0.1c-0.1,0.1-0.1,0.2-0.1,0.3c0,0.1,0,0.1,0,0.2    s0.1,0.1,0.1,0.1c0.1,0,0.1,0.1,0.2,0.1c0.1,0,0.1,0,0.2,0c0.3,0,0.5-0.1,0.6-0.2c0.1-0.1,0.2-0.3,0.2-0.5V51.5z"></path>
		<path class="st6" d="M95.7,48.7c0-0.1,0-0.2,0.1-0.3c0.1-0.1,0.2-0.1,0.4-0.1c0.1,0,0.3,0,0.4,0.1c0.1,0.1,0.1,0.2,0.1,0.3    c0,0.1,0,0.2-0.1,0.3c-0.1,0.1-0.2,0.1-0.4,0.1c-0.1,0-0.3,0-0.4-0.1C95.7,48.9,95.7,48.8,95.7,48.7z M95.8,49.7h0.8v3.1h-0.8    V49.7z"></path>
		<path class="st6" d="M97.5,49.7h0.7v0.5h0c0.1-0.2,0.2-0.3,0.3-0.4c0.2-0.1,0.4-0.2,0.6-0.2c0.2,0,0.4,0,0.5,0.1    c0.1,0.1,0.3,0.2,0.4,0.3c0.1,0.1,0.2,0.2,0.2,0.4c0,0.1,0.1,0.3,0.1,0.5v2h-0.8v-1.6c0-0.1,0-0.2,0-0.3c0-0.1,0-0.2-0.1-0.3    c0-0.1-0.1-0.2-0.2-0.2c-0.1-0.1-0.2-0.1-0.3-0.1c-0.1,0-0.2,0-0.3,0.1c-0.1,0-0.2,0.1-0.2,0.2s-0.1,0.2-0.1,0.3    c0,0.1,0,0.2,0,0.3v1.7h-0.8V49.7z"></path>
		<path class="st6" d="M100.9,50.4v-0.7h0.6v-0.9h0.8v0.9h0.9v0.7h-0.9v1.4c0,0.2,0,0.3,0.1,0.4c0.1,0.1,0.2,0.1,0.4,0.1    c0.1,0,0.1,0,0.2,0c0.1,0,0.1,0,0.2-0.1v0.7c-0.1,0-0.2,0.1-0.3,0.1c-0.1,0-0.2,0-0.3,0c-0.2,0-0.4,0-0.5-0.1    c-0.1,0-0.2-0.1-0.3-0.2c-0.1-0.1-0.1-0.2-0.2-0.4c0-0.1,0-0.3,0-0.5v-1.4H100.9z"></path>
		<path class="st6" d="M104.4,51.6c0,0.2,0.1,0.4,0.3,0.5c0.2,0.1,0.3,0.2,0.6,0.2c0.2,0,0.4,0,0.5-0.1s0.2-0.2,0.4-0.3l0.6,0.4    c-0.2,0.2-0.4,0.4-0.6,0.5c-0.2,0.1-0.5,0.1-0.7,0.1c-0.2,0-0.5,0-0.7-0.1s-0.4-0.2-0.5-0.3c-0.2-0.1-0.3-0.3-0.4-0.5    c-0.1-0.2-0.1-0.4-0.1-0.7c0-0.2,0-0.5,0.1-0.7c0.1-0.2,0.2-0.4,0.4-0.5c0.2-0.1,0.3-0.3,0.5-0.3c0.2-0.1,0.4-0.1,0.7-0.1    c0.2,0,0.4,0,0.6,0.1c0.2,0.1,0.3,0.2,0.5,0.3c0.1,0.1,0.2,0.3,0.3,0.5c0.1,0.2,0.1,0.5,0.1,0.7v0.2H104.4z M106,51    c0-0.2-0.1-0.4-0.2-0.5c-0.1-0.1-0.3-0.2-0.6-0.2c-0.2,0-0.4,0.1-0.6,0.2c-0.1,0.1-0.2,0.3-0.3,0.5H106z"></path>
		<path class="st6" d="M107.6,49.7h0.7v0.5h0c0.1-0.2,0.2-0.3,0.3-0.4c0.2-0.1,0.4-0.2,0.6-0.2c0.2,0,0.4,0,0.5,0.1    c0.1,0.1,0.3,0.2,0.4,0.3c0.1,0.1,0.2,0.2,0.2,0.4c0,0.1,0.1,0.3,0.1,0.5v2h-0.8v-1.6c0-0.1,0-0.2,0-0.3c0-0.1,0-0.2-0.1-0.3    c0-0.1-0.1-0.2-0.2-0.2c-0.1-0.1-0.2-0.1-0.3-0.1c-0.1,0-0.2,0-0.3,0.1c-0.1,0-0.2,0.1-0.2,0.2c-0.1,0.1-0.1,0.2-0.1,0.3    c0,0.1,0,0.2,0,0.3v1.7h-0.8V49.7z"></path>
		<path class="st6" d="M113.3,52.5L113.3,52.5c-0.1,0.2-0.3,0.3-0.5,0.4s-0.4,0.1-0.6,0.1c-0.1,0-0.3,0-0.4-0.1    c-0.1,0-0.3-0.1-0.4-0.2c-0.1-0.1-0.2-0.2-0.3-0.3c-0.1-0.1-0.1-0.3-0.1-0.4c0-0.2,0-0.3,0.1-0.4c0.1-0.1,0.1-0.2,0.2-0.3    c0.1-0.1,0.2-0.1,0.4-0.2c0.1,0,0.3-0.1,0.4-0.1c0.1,0,0.3,0,0.4,0c0.1,0,0.3,0,0.4,0h0.2v-0.1c0-0.2-0.1-0.3-0.2-0.4    c-0.1-0.1-0.3-0.1-0.5-0.1c-0.2,0-0.3,0-0.5,0.1c-0.1,0.1-0.3,0.1-0.4,0.2l-0.4-0.4c0.2-0.2,0.4-0.3,0.6-0.4    c0.2-0.1,0.5-0.1,0.7-0.1c0.2,0,0.4,0,0.6,0.1c0.2,0.1,0.3,0.1,0.4,0.2c0.1,0.1,0.2,0.2,0.2,0.3c0.1,0.1,0.1,0.2,0.1,0.3    c0,0.1,0,0.2,0,0.3c0,0.1,0,0.2,0,0.3v1.8h-0.7V52.5z M113.2,51.5h-0.2c-0.1,0-0.2,0-0.4,0c-0.1,0-0.3,0-0.4,0.1    c-0.1,0-0.2,0.1-0.3,0.1c-0.1,0.1-0.1,0.2-0.1,0.3c0,0.1,0,0.1,0,0.2s0.1,0.1,0.1,0.1c0.1,0,0.1,0.1,0.2,0.1c0.1,0,0.1,0,0.2,0    c0.3,0,0.5-0.1,0.6-0.2c0.1-0.1,0.2-0.3,0.2-0.5V51.5z"></path>
		<path class="st6" d="M114.8,49.7h0.7v0.5h0c0.1-0.2,0.2-0.3,0.3-0.4c0.2-0.1,0.4-0.2,0.6-0.2c0.2,0,0.4,0,0.5,0.1    c0.1,0.1,0.3,0.2,0.4,0.3c0.1,0.1,0.2,0.2,0.2,0.4c0,0.1,0.1,0.3,0.1,0.5v2h-0.8v-1.6c0-0.1,0-0.2,0-0.3c0-0.1,0-0.2-0.1-0.3    c0-0.1-0.1-0.2-0.2-0.2c-0.1-0.1-0.2-0.1-0.3-0.1c-0.1,0-0.2,0-0.3,0.1c-0.1,0-0.2,0.1-0.2,0.2c-0.1,0.1-0.1,0.2-0.1,0.3    c0,0.1,0,0.2,0,0.3v1.7h-0.8V49.7z"></path>
		<path class="st6" d="M120.7,50.7c-0.1-0.1-0.2-0.2-0.3-0.2c-0.1-0.1-0.2-0.1-0.3-0.1c-0.1,0-0.3,0-0.4,0.1    c-0.1,0.1-0.2,0.1-0.3,0.2c-0.1,0.1-0.1,0.2-0.2,0.3c0,0.1-0.1,0.2-0.1,0.4c0,0.1,0,0.2,0.1,0.4c0,0.1,0.1,0.2,0.2,0.3    c0.1,0.1,0.2,0.2,0.3,0.2c0.1,0.1,0.2,0.1,0.4,0.1c0.1,0,0.2,0,0.3-0.1s0.2-0.1,0.3-0.2l0.5,0.6c-0.1,0.1-0.2,0.1-0.3,0.2    c-0.1,0.1-0.2,0.1-0.3,0.1c-0.1,0-0.2,0.1-0.3,0.1c-0.1,0-0.2,0-0.2,0c-0.2,0-0.5,0-0.7-0.1c-0.2-0.1-0.4-0.2-0.5-0.3    c-0.2-0.1-0.3-0.3-0.4-0.5c-0.1-0.2-0.1-0.4-0.1-0.7c0-0.2,0-0.5,0.1-0.7c0.1-0.2,0.2-0.4,0.4-0.5c0.2-0.1,0.3-0.3,0.5-0.3    c0.2-0.1,0.4-0.1,0.7-0.1c0.2,0,0.4,0,0.6,0.1c0.2,0.1,0.4,0.2,0.5,0.4L120.7,50.7z"></path>
		<path class="st6" d="M122.4,51.6c0,0.2,0.1,0.4,0.3,0.5c0.2,0.1,0.3,0.2,0.6,0.2c0.2,0,0.4,0,0.5-0.1s0.2-0.2,0.4-0.3l0.6,0.4    c-0.2,0.2-0.4,0.4-0.6,0.5c-0.2,0.1-0.5,0.1-0.7,0.1c-0.2,0-0.5,0-0.7-0.1c-0.2-0.1-0.4-0.2-0.5-0.3c-0.2-0.1-0.3-0.3-0.4-0.5    c-0.1-0.2-0.1-0.4-0.1-0.7c0-0.2,0-0.5,0.1-0.7c0.1-0.2,0.2-0.4,0.4-0.5c0.2-0.1,0.3-0.3,0.5-0.3c0.2-0.1,0.4-0.1,0.7-0.1    c0.2,0,0.4,0,0.6,0.1c0.2,0.1,0.3,0.2,0.5,0.3c0.1,0.1,0.2,0.3,0.3,0.5s0.1,0.5,0.1,0.7v0.2H122.4z M124,51c0-0.2-0.1-0.4-0.2-0.5    c-0.1-0.1-0.3-0.2-0.6-0.2c-0.2,0-0.4,0.1-0.6,0.2c-0.1,0.1-0.2,0.3-0.3,0.5H124z"></path>
	</g>
</g>
<g>
	<g>
		<path class="st6" d="M81.7,23.4c0,1.9-1.9,3.3-5.4,3.3c-2.4,0-4.5-0.7-6.1-2.1l1.1-1.2c1.4,1.2,3,1.8,5.1,1.8    c2.3,0,3.5-0.6,3.5-1.7c0-1-1.3-1.3-3.8-1.5c-2.8-0.2-5.5-0.9-5.5-2.9c0-2,2.3-3.1,5.3-3.1c2.2,0,4.1,0.7,5.3,1.7l-1.1,1.2    c-1-0.9-2.5-1.4-4.2-1.4c-1.6,0-3.5,0.4-3.5,1.5c0,1.1,1.7,1.3,3.9,1.4C79.5,20.6,81.7,21.3,81.7,23.4z"></path>
		<path class="st6" d="M94,24.9v1.5H83.9V16.2h10v1.5h-8.3v2.7h7V22h-7v2.9H94z"></path>
		<path class="st6" d="M105.3,23.3l1.6,0.8c-1,1.5-2.8,2.5-5.4,2.5c-3.8,0-6.2-2.1-6.2-5.4s2.4-5.4,6.3-5.4c2.5,0,4.4,1.1,5.3,2.5    l-1.6,0.8c-0.8-1.3-2.1-1.8-3.7-1.8c-2.7,0-4.5,1.3-4.5,3.9c0,2.5,1.8,3.9,4.5,3.9C103.2,25.1,104.5,24.6,105.3,23.3z"></path>
		<path class="st6" d="M119.8,16.2v5.4c0,3-1.9,5.1-5.5,5.1c-3.6,0-5.5-2.1-5.5-5.1v-5.4h1.7v5.3c0,2.3,1.4,3.7,3.8,3.7    c2.4,0,3.8-1.4,3.8-3.7v-5.3H119.8z"></path>
		<path class="st6" d="M131.9,26.4l-3.2-3.7h-4.3v3.7h-1.7V16.2h6.9c2.4,0,4.1,1.1,4.1,3.2c0,1.8-1.2,2.8-3,3.2l3.3,3.8H131.9z     M129.5,21.2c1.5,0,2.4-0.5,2.4-1.7s-1-1.7-2.4-1.7h-5.1v3.5H129.5z"></path>
		<path class="st6" d="M136.2,26.4V16.2h1.7v10.2H136.2z"></path>
		<path class="st6" d="M150.8,17.7h-4.6v8.7h-1.7v-8.7h-4.6v-1.5h11V17.7z"></path>
		<path class="st6" d="M153.2,16.2l3.9,5.2l3.9-5.2h2l-5,6.7v3.5h-1.7v-3.5l-5-6.7H153.2z"></path>
		<path class="st6" d="M81.7,37.5c0,1.9-1.9,3.3-5.4,3.3c-2.4,0-4.5-0.7-6.1-2.1l1.1-1.2c1.4,1.2,3,1.8,5.1,1.8    c2.3,0,3.5-0.6,3.5-1.7c0-1-1.3-1.3-3.8-1.5c-2.8-0.2-5.5-0.9-5.5-2.9c0-2,2.3-3.1,5.3-3.1c2.2,0,4.1,0.7,5.3,1.7l-1.1,1.2    c-1-0.9-2.5-1.4-4.2-1.4c-1.6,0-3.5,0.4-3.5,1.5c0,1.1,1.7,1.3,3.9,1.4C79.5,34.8,81.7,35.4,81.7,37.5z"></path>
		<path class="st6" d="M94,39v1.5H83.9V30.4h10v1.5h-8.3v2.7h7v1.5h-7V39H94z"></path>
		<path class="st6" d="M105.5,40.5l-3.2-3.7H98v3.7h-1.7V30.4h6.9c2.4,0,4.1,1.1,4.1,3.2c0,1.8-1.2,2.8-3,3.2l3.3,3.8H105.5z     M103.1,35.3c1.5,0,2.4-0.5,2.4-1.7c0-1.3-1-1.7-2.4-1.7H98v3.5H103.1z"></path>
		<path class="st6" d="M109.9,30.4l4.3,8.4l4.3-8.4h1.9l-5.3,10.2h-1.9L108,30.4H109.9z"></path>
		<path class="st6" d="M122.1,40.5V30.4h1.7v10.2H122.1z"></path>
		<path class="st6" d="M136.2,37.5l1.6,0.8c-1,1.5-2.8,2.5-5.4,2.5c-3.8,0-6.2-2.1-6.2-5.4c0-3.3,2.4-5.4,6.3-5.4    c2.5,0,4.4,1.1,5.3,2.5l-1.6,0.8c-0.8-1.3-2.1-1.8-3.7-1.8c-2.7,0-4.5,1.3-4.5,3.9c0,2.5,1.8,3.9,4.5,3.9    C134.1,39.3,135.4,38.8,136.2,37.5z"></path>
		<path class="st6" d="M150,39v1.5h-10.1V30.4h10v1.5h-8.3v2.7h7v1.5h-7V39H150z"></path>
		<path class="st6" d="M162.7,37.5c0,1.9-1.9,3.3-5.4,3.3c-2.4,0-4.5-0.7-6.1-2.1l1.1-1.2c1.4,1.2,3,1.8,5.1,1.8    c2.3,0,3.5-0.6,3.5-1.7c0-1-1.3-1.3-3.8-1.5c-2.8-0.2-5.5-0.9-5.5-2.9c0-2,2.3-3.1,5.3-3.1c2.2,0,4.1,0.7,5.3,1.7l-1.1,1.2    c-1-0.9-2.5-1.4-4.2-1.4c-1.6,0-3.5,0.4-3.5,1.5c0,1.1,1.7,1.3,3.9,1.4C160.5,34.8,162.7,35.4,162.7,37.5z"></path>
	</g>
	<g>
		<path class="st6" d="M49.4,15.3c-1.3-0.4-2.7-0.7-4.1-0.7c-6.7,0-13.4,0-20,0v0H4.1v0.7c0,0-0.1,0-0.1,0c0.1,2.2-0.2,4.2,0.1,6.3    V22h0.1c0,0,0,0,0,0c1.6,0,3,0,4.4,0c11.6,0,23.1,0,34.7,0.1c0.5,0,1-0.1,1.5-0.1c1,0.1,0.9,1.6-0.1,1.5c-0.3,0-0.5,0-0.8,0    c-3.7,0-7.4,0-11.1,0c-0.8,0-1.4,0-1.9,0.1h-1.6v8.8c0,1.3-0.1,2.5,0,3.8V42h8.6v-1.4c0-0.1,0-0.2,0.1-0.4c0.1-2.3,0-4.6,0-6.9    c0-0.9,0.1-1.7,0.1-2.4c0.3-0.2,0.3-0.4,0.4-0.4c2.4-0.1,4.8-0.1,7.1-0.1c2.6,0,4.9-0.9,6.8-2.5c0.7-0.6,1.5-1.4,1.8-2.2    C55.4,22,54.3,16.9,49.4,15.3z"></path>
		<polygon class="st6" points="4.1,23.5 4,23.5 4,42 12.1,42 12.1,30.5 25.2,30.5 25.2,23.5 4.1,23.5   "></polygon>
		<rect x="55.2" y="23.5" class="st6" width="7.8" height="18.5"></rect>
		<rect x="55.2" y="14.5" class="st6" width="7.8" height="7.6"></rect>
	</g>
</g>
</svg>
