<?xml version="1.0" encoding="UTF-8"?>
<svg xmlns="http://www.w3.org/2000/svg" xmlns:xlink="http://www.w3.org/1999/xlink" width="77px" height="77px" viewBox="0 0 77 77">
  <!-- Generator: Sketch 49 (51002) - http://www.bohemiancoding.com/sketch -->
  <title>GE</title>
  <desc>Created with Sketch.</desc>
  <defs>
    <polygon id="path-1" points="0 0.000427777778 76.1718222 0.000427777778 76.1718222 76.1716083 0 76.1716083"></polygon>
  </defs>
  <g id="Visual-Design" stroke="none" stroke-width="1" fill="none" fill-rule="evenodd">
    <g id="customers" transform="translate(-480.000000, -1915.000000)">
      <g id="select-clients" transform="translate(142.000000, 1720.000000)">
        <g id="GE" transform="translate(338.000000, 195.000000)">
          <mask id="mask-2" fill="white">
            <use xlink:href="#path-1"></use>
          </mask>
          <g id="Clip-2"></g>
          <path d="M46.6305583,28.1663861 C46.6305583,23.837275 49.5608361,19.6343583 51.160725,20.4321639 C52.9819889,21.3433306 49.7982528,25.4221917 46.6305583,28.1663861 M26.6918361,29.7480944 C26.6918361,26.262775 30.1279611,19.6450528 32.2294194,20.3466083 C34.7062528,21.1743583 30.1728778,27.8476917 26.6918361,29.7480944 M23.2107944,54.6511778 C21.631225,54.7228306 20.5746139,53.7111361 20.5746139,52.0267611 C20.5746139,47.4891083 26.8640167,43.1599972 31.6102111,40.8393028 C30.7685583,47.168275 28.6296694,54.4019972 23.2107944,54.6511778 M52.2226833,39.8832194 C48.6346972,39.8832194 45.8926417,42.5215389 45.8926417,45.686025 C45.8926417,48.3222056 47.4764889,50.4322194 49.5854333,50.4322194 C50.32335,50.4322194 51.0634056,50.0108583 51.0634056,49.0622611 C51.0634056,47.6901639 49.2432111,47.3554278 49.3854472,45.3020944 C49.4752806,43.953525 50.7489889,43.0455667 52.0130722,43.0455667 C54.5412389,43.0455667 55.7283222,45.4999417 55.7283222,48.0302472 C55.6213778,51.9347889 52.74885,54.6511778 49.3758222,54.6511778 C44.9440444,54.6511778 42.0961139,50.4322194 42.0961139,45.8945667 C42.0961139,39.1431639 46.5246833,36.5048444 48.8475167,35.8706639 C48.8721139,35.8706639 54.914475,36.9508028 54.7273222,34.2836083 C54.6406972,33.1125667 52.9007111,32.6623306 51.6387667,32.6120667 C50.2356556,32.5553861 48.8271972,33.0601639 48.8271972,33.0601639 C48.0892806,32.6901361 47.5823639,31.9650528 47.2658083,31.1201917 C51.5906417,27.8476917 54.6503222,24.6810667 54.6503222,21.0973583 C54.6503222,19.1948167 53.3830306,17.5093722 50.9575306,17.5093722 C46.6305583,17.5093722 43.3623361,22.9966917 43.3623361,27.9524972 C43.3623361,28.7984278 43.3623361,29.6422194 43.5740861,30.3812056 C40.8309611,32.3853444 38.7893917,33.6301778 35.0987389,35.849275 C35.0987389,35.3862056 35.1949889,34.1948444 35.5040583,32.6484278 C36.7702806,31.2741917 38.5091972,29.2187194 38.5091972,27.6359417 C38.5091972,26.9012333 38.0889056,26.262775 37.2397667,26.262775 C35.1329611,26.262775 33.5512528,29.4315389 33.1277528,31.6484972 C32.1780861,32.8099139 30.2798222,34.2889556 28.6949056,34.2889556 C27.4297528,34.2889556 27.0094611,33.1264694 26.9025167,32.7040389 C30.9129333,31.3308722 35.8708778,25.8424833 35.8708778,20.8834694 C35.8708778,19.8322056 35.4484472,17.5093722 32.2839611,17.5093722 C27.5366972,17.5093722 23.5284194,24.5773306 23.5284194,30.06465 C21.8386972,30.06465 21.207725,28.2722611 21.207725,26.9012333 C21.207725,25.5280667 21.7338917,24.1549 21.7338917,23.7335389 C21.7338917,23.3121778 21.5210722,22.7849417 20.8901,22.7849417 C19.3062528,22.7849417 18.3576556,24.8928167 18.3576556,27.3193861 C18.4646,30.6966917 20.6772806,32.8099139 23.633225,33.0205944 C24.0545861,35.0258028 25.8480444,36.9262056 28.0628639,36.9262056 C29.4349611,36.9262056 31.1225444,36.5048444 32.2839611,35.4493028 C32.1780861,36.18615 32.07435,36.8214 31.9663361,37.4555806 C27.3249472,39.8832194 23.95085,41.5718722 20.8901,44.3128583 C18.4646,46.5308861 17.0925028,49.4825528 17.0925028,51.8011083 C17.0925028,54.9688028 19.0966417,57.9194 23.2107944,57.9194 C28.0628639,57.9194 31.7556556,54.0191361 33.5512528,48.6376917 C34.3950444,46.1052472 34.7329889,42.42315 34.9447389,39.0437056 C39.7957389,36.2984417 42.0961139,34.7103167 44.6274889,32.9147194 C44.9440444,33.443025 45.2627389,33.8643861 45.6830306,34.1820111 C43.4682111,35.3434278 38.1915722,38.6148583 38.1915722,46.3180667 C38.1915722,51.8011083 41.8854333,57.9194 49.1640722,57.9194 C55.1775583,57.9194 59.2949194,52.9635944 59.2949194,48.2163306 C59.2949194,43.8914972 56.8672806,39.8832194 52.2226833,39.8832194 M70.3604611,48.9446222 C70.3476278,48.977775 70.2834611,49.0259 70.1658222,48.9831222 C70.0770583,48.9510389 70.0492528,48.9071917 70.0524611,48.8494417 C70.0578083,48.7874139 71.3315167,45.0336639 71.3208222,40.7280806 C71.30585,36.080275 69.4204194,33.2291361 66.9959889,33.2291361 C65.5158778,33.2291361 64.462475,34.2889556 64.462475,35.8706639 C64.462475,38.7218028 67.9445861,38.9324833 67.9445861,45.1587889 C67.9445861,47.6901639 67.4162806,50.1145944 66.5714194,52.7529139 C62.6700861,65.9380944 50.217475,72.0574556 38.0889056,72.0574556 C32.4957111,72.0574556 28.5216556,70.9067333 27.3367111,70.37415 C27.2885861,70.3495528 27.2490167,70.25865 27.2864472,70.1645389 C27.3142528,70.095025 27.3955306,70.0415528 27.4425861,70.0586639 C27.9206278,70.249025 31.3342944,71.3216778 35.5543222,71.3216778 C40.1967806,71.3216778 42.9377667,69.4191361 42.9377667,67.0995111 C42.9377667,65.6226083 41.7827667,64.4644 40.3026556,64.4644 C37.4536556,64.4644 37.2397667,68.0502472 31.1225444,68.0502472 C28.484225,68.0502472 26.1646,67.5187333 23.421475,66.6760111 C10.3378917,62.6688028 4.1041,50.325275 4.11479444,38.0865528 C4.11907222,32.1222611 5.788475,27.3771361 5.81628056,27.3300806 C5.83446111,27.2969278 5.91466944,27.263775 6.00557222,27.2969278 C6.09968333,27.3300806 6.12321111,27.4102889 6.11679444,27.4338167 C5.96279444,27.9289694 4.85271111,31.3319417 4.85271111,35.5519694 C4.85271111,40.199775 6.75204444,42.9407611 9.17754444,42.9407611 C10.5507111,42.9407611 11.7131972,41.8873583 11.7131972,40.4104556 C11.7131972,37.5582472 8.22787778,37.2427611 8.22787778,31.1201917 C8.22787778,28.4818722 8.75618333,26.1579694 9.60104444,23.4169833 C13.6103917,10.3355389 25.9549889,4.202275 38.0889056,4.11351111 C43.7270167,4.06859444 48.6592944,5.75724722 48.8475167,5.9059 C48.8806694,5.93370556 48.9181,6.00642778 48.8806694,6.09305278 C48.8400306,6.19358056 48.7758639,6.20534444 48.7405722,6.19892778 C48.6828222,6.19358056 45.4734194,4.85142778 40.6170722,4.85142778 C36.0815583,4.84928889 33.2357667,6.75076111 33.2357667,9.1784 C33.2357667,10.5462194 34.2881,11.7065667 35.8708778,11.7065667 C38.7198778,11.7065667 38.9326972,8.22659444 45.04885,8.22659444 C47.6850306,8.22659444 50.0067944,8.75276111 52.74885,9.59762222 C65.9393778,13.6080389 71.9421694,26.0563722 72.0555306,38.0865528 C72.11435,44.2508306 70.3797111,48.9104 70.3604611,48.9446222 M38.0889056,1.79174722 C18.0421694,1.79174722 1.79303056,18.0376778 1.79303056,38.0865528 C1.79303056,58.1332889 18.0421694,74.3760111 38.0889056,74.3760111 C58.1324333,74.3760111 74.3794333,58.1332889 74.3794333,38.0865528 C74.3794333,18.1446222 58.1324333,1.79174722 38.0889056,1.79174722 M38.0889056,76.1716083 C17.0925028,76.1716083 -0.000427777778,59.1877611 -0.000427777778,38.0865528 C-0.000427777778,17.0869417 17.0925028,0.000427777778 38.0889056,0.000427777778 C59.0810306,0.000427777778 76.1718222,17.0869417 76.1718222,38.0865528 C76.1718222,59.1877611 59.0810306,76.1716083 38.0889056,76.1716083" id="Fill-1" fill="#90908F" mask="url(#mask-2)"></path>
        </g>
      </g>
    </g>
  </g>
</svg>
