<?xml version="1.0" encoding="UTF-8"?>
<svg xmlns="http://www.w3.org/2000/svg" xmlns:xlink="http://www.w3.org/1999/xlink" width="72px" height="72px" viewBox="0 0 72 72">
  <!-- Generator: Sketch 49 (51002) - http://www.bohemiancoding.com/sketch -->
  <title>hp</title>
  <desc>Created with Sketch.</desc>
  <defs>
    <polygon id="path-1" points="0 0.704 71.2717 0.704 71.2717 72 0 72"></polygon>
  </defs>
  <g id="Visual-Design" stroke="none" stroke-width="1" fill="none" fill-rule="evenodd">
    <g id="customers" transform="translate(-606.000000, -1804.000000)">
      <g id="select-clients" transform="translate(142.000000, 1720.000000)">
        <g id="hp" transform="translate(464.000000, 83.000000)">
          <g id="Group-3" transform="translate(0.000000, 0.296200)">
            <mask id="mask-2" fill="white">
              <use xlink:href="#path-1"></use>
            </mask>
            <g id="Clip-2"></g>
            <path d="M35.5367,0.8211 C36.5947,0.8151 37.6487,0.5751 38.6987,0.7991 C43.3487,1.2111 47.9327,2.4891 52.0677,4.6661 C57.4177,7.4061 62.0197,11.5721 65.3587,16.5641 C68.7657,21.6421 70.7817,27.6221 71.2367,33.7151 C71.1617,35.3281 71.1147,36.9511 71.2717,38.5591 C70.9377,43.1921 69.7787,47.7871 67.7117,51.9591 C65.3527,56.8061 61.8607,61.0961 57.6107,64.4121 C52.3127,68.5651 45.8137,71.1631 39.1067,71.7781 C38.0857,71.8511 37.0647,72.0411 36.0387,71.9611 C35.3567,71.9161 34.6607,72.1341 34.0077,71.8551 C36.5117,64.8091 39.0137,57.7611 41.5407,50.7211 C44.2907,50.6711 47.0427,50.7401 49.7927,50.6891 C51.5477,50.6281 53.2817,49.5591 53.8587,47.8531 C56.1847,41.3051 58.5687,34.7751 60.8217,28.1991 C61.1917,27.2051 61.3967,26.0981 61.1017,25.0581 C60.7037,23.7401 59.4977,22.8081 58.2017,22.4591 C57.0767,22.1091 55.8887,22.2371 54.7297,22.2171 C51.2007,22.2071 47.6707,22.2351 44.1417,22.2011 C44.0857,22.3181 43.9697,22.5521 43.9127,22.6681 C38.1967,38.7211 32.4917,54.7801 26.7537,70.8261 C20.8597,69.2961 15.3677,66.2331 10.9877,62.0001 C5.7137,56.9531 2.0517,50.2401 0.6967,43.0641 C0.2717,40.9101 0.1177,38.7161 -0.0003,36.5281 C0.0957,31.9721 0.8437,27.3961 2.5587,23.1601 C6.7457,12.4581 16.4317,4.0301 27.6917,1.6211 C21.9287,17.6041 16.2977,33.6351 10.5357,49.6211 C10.9027,49.7321 11.2887,49.6901 11.6667,49.6941 C13.7667,49.6831 15.8687,49.6981 17.9697,49.6891 C18.2557,49.6871 18.2247,49.2901 18.3457,49.1061 C20.8757,41.9621 23.4367,34.8261 25.9757,27.6841 C26.1287,27.2421 26.2697,26.7951 26.4737,26.3751 C27.7897,26.3961 29.1057,26.3681 30.4227,26.3881 C27.6617,34.1301 24.9257,41.8821 22.1247,49.6081 C22.4177,49.7261 22.7357,49.6891 23.0427,49.6961 C25.2487,49.6751 27.4547,49.7101 29.6607,49.6791 C32.1527,42.6451 34.6757,35.6241 37.1737,28.5941 C37.7077,27.1561 37.7547,25.4571 36.9057,24.1301 C36.1647,22.9561 34.7567,22.3951 33.4137,22.3411 C31.5777,22.2861 29.7397,22.3441 27.9017,22.3121 C30.4287,15.1421 33.0297,7.9991 35.5367,0.8211" id="Fill-1" fill="#90908F" mask="url(#mask-2)"></path>
          </g>
          <path d="M50.1705,26.7618 C50.3905,26.5148 50.7795,26.6648 51.0725,26.6218 C52.0925,26.6408 53.1115,26.6148 54.1315,26.6358 C51.7565,33.4138 49.2715,40.1538 46.9355,46.9458 C45.6145,47.0388 44.2845,46.9818 42.9625,46.9738 C45.3725,40.2408 47.7595,33.4968 50.1705,26.7618" id="Fill-4" fill="#90908F"></path>
        </g>
      </g>
    </g>
  </g>
</svg>
