<?xml version="1.0" encoding="UTF-8"?>
<svg xmlns="http://www.w3.org/2000/svg" xmlns:xlink="http://www.w3.org/1999/xlink" width="126px" height="51px" viewBox="0 0 126 51">
  <!-- Generator: Sketch 49 (51002) - http://www.bohemiancoding.com/sketch -->
  <title>IBM</title>
  <desc>Created with Sketch.</desc>
  <defs>
    <polygon id="path-1" points="0 0 20.7309001 0 20.7309001 3.6277392 0 3.6277392"></polygon>
    <polygon id="path-3" points="0 50.8872632 125.881149 50.8872632 125.881149 0 0 0"></polygon>
  </defs>
  <g id="Visual-Design" stroke="none" stroke-width="1" fill="none" fill-rule="evenodd">
    <g id="customers" transform="translate(-1137.000000, -1814.000000)">
      <g id="select-clients" transform="translate(142.000000, 1720.000000)">
        <g id="IBM" transform="translate(995.000000, 94.000000)">
          <polygon id="Fill-1" fill="#90908F" points="106.294981 0 105 4 126 4 126 0"></polygon>
          <g id="Group-42">
            <g id="Group-4" transform="translate(69.702128, 0.000000)">
              <mask id="mask-2" fill="white">
                <use xlink:href="#path-1"></use>
              </mask>
              <g id="Clip-3"></g>
              <path d="M0.00166321123,0.00268421053 L19.4565994,0 L20.7308973,3.62636842 C20.7398334,3.621 0.0088121474,3.63173684 0.0088121474,3.62636842 C0.0088121474,3.621 -0.00459210792,0.00268421053 0.00166321123,0.00268421053" id="Fill-2" fill="#90908F" mask="url(#mask-2)"></path>
            </g>
            <path d="M54.5982128,0.00178947368 C57.8045106,0.311368421 60.5917021,1.45484211 62.9660426,3.62547368 C62.9660426,3.62547368 27.7021277,3.62815789 27.7021277,3.62547368 L27.7021277,0 L54.5982128,0.00178947368 Z" id="Fill-5" fill="#90908F"></path>
            <mask id="mask-4" fill="white">
              <use xlink:href="#path-3"></use>
            </mask>
            <g id="Clip-8"></g>
            <polygon id="Fill-7" fill="#90908F" mask="url(#mask-4)" points="0 3.61652632 24.497617 3.61652632 24.497617 0 0 0"></polygon>
            <path d="M126.121532,10.7565263 L102.765957,10.7565263 C102.765957,10.7565263 104.039362,7.15878947 104.033106,7.15789474 L126.121532,7.15789474 L126.121532,10.7565263 Z" id="Fill-9" fill="#90908F" mask="url(#mask-4)"></path>
            <polygon id="Fill-10" fill="#90908F" mask="url(#mask-4)" points="92.838766 10.7627895 69.7021277 10.7627895 69.7021277 7.15789474 91.5725106 7.15789474"></polygon>
            <path d="M65.7049787,7.15789474 C66.1705532,8.347 66.7201277,9.36252632 66.7201277,10.7574211 L27.7021277,10.7574211 L27.7021277,7.15789474 L65.7049787,7.15789474 Z" id="Fill-11" fill="#90908F" mask="url(#mask-4)"></path>
            <polygon id="Fill-12" fill="#90908F" mask="url(#mask-4)" points="0 10.7574211 24.497617 10.7574211 24.497617 7.15789474 0 7.15789474"></polygon>
            <polygon id="Fill-13" fill="#90908F" mask="url(#mask-4)" points="100.085106 17.0375789 101.36834 13.4210526 118.903787 13.4264211 118.903787 17.0286316"></polygon>
            <polygon id="Fill-14" fill="#90908F" mask="url(#mask-4)" points="94.2149362 13.4210526 95.4928085 17.0393684 76.8510638 17.0393684 76.8510638 13.4210526"></polygon>
            <path d="M66.6030638,13.4210526 C66.6030638,14.6629474 66.4475745,15.9540526 66.0874468,17.0402632 L55.4042553,17.0402632 L55.4042553,13.4210526 L66.6030638,13.4210526 Z" id="Fill-15" fill="#90908F" mask="url(#mask-4)"></path>
            <polygon id="Fill-16" fill="#90908F" mask="url(#mask-4)" points="7.14893617 17.0205789 17.6784255 17.0205789 17.6784255 13.4210526 7.14893617 13.4210526"></polygon>
            <polygon id="Fill-17" fill="#90908F" mask="url(#mask-4)" points="34.8510638 17.0393684 45.3626809 17.0393684 45.3626809 13.4210526 34.8510638 13.4210526"></polygon>
            <path d="M87.2045106,21.435225 C87.2045106,21.435225 87.2089787,24.1740144 87.2062979,24.1793828 L76.8510638,24.1793828 L76.8510638,20.5789474 L96.5839149,20.5789618 L97.8090638,23.9351197 C97.8144255,23.9369092 98.9904255,20.5709092 98.9931064,20.5789618 L118.87966,20.5789474 L118.87966,24.1793828 L108.576255,24.1793828 C108.576255,24.1740144 108.569106,21.4361197 108.569106,21.4361197 L107.617404,24.1793828 L88.1571064,24.1740144 L87.2045106,21.435225 Z" id="Fill-18" fill="#90908F" mask="url(#mask-4)"></path>
            <path d="M34.8519574,20.5816316 L65.0267234,20.5816316 L65.0267234,20.5789474 C64.367234,21.7850526 63.1688936,23.2515263 62.034,24.1820526 C62.034,24.1820526 34.8510638,24.1865263 34.8510638,24.1820526 C34.8510638,24.1766842 34.8519574,20.587 34.8519574,20.5816316" id="Fill-19" fill="#90908F" mask="url(#mask-4)"></path>
            <polygon id="Fill-20" fill="#90908F" mask="url(#mask-4)" points="7.14893617 24.1793684 17.6784255 24.1793684 17.6784255 20.5789474 7.14893617 20.5789474"></polygon>
            <polygon id="Fill-21" fill="#90908F" mask="url(#mask-4)" points="109.021277 30.4407368 119.324681 30.4407368 119.324681 26.8421053 109.021277 26.8421053"></polygon>
            <path d="M87.2045127,26.8421053 L76.8510638,26.8421053 L76.8510659,30.4407368 C76.8457042,30.4398421 87.2089808,30.4434211 87.2089808,30.4407368 C87.2089808,30.4398421 87.2197042,26.8421053 87.2045127,26.8421053" id="Fill-22" fill="#90908F" mask="url(#mask-4)"></path>
            <path d="M106.58617,26.8420946 C106.538809,26.8349474 105.378894,30.4398527 105.331532,30.4407475 L90.6538723,30.4470106 C90.6413617,30.4416422 89.3634894,26.8349474 89.3617021,26.8420946 L106.58617,26.8420946 Z" id="Fill-23" fill="#90908F" mask="url(#mask-4)"></path>
            <path d="M34.8510638,26.8421053 L61.9830638,26.8421053 C63.221617,27.8764211 64.3413191,29.1505263 65.2170638,30.4425263 C65.2671064,30.4416316 34.8528511,30.4452105 34.8528511,30.4425263 C34.8528511,30.4416316 34.8510638,26.8447895 34.8510638,26.8421053" id="Fill-24" fill="#90908F" mask="url(#mask-4)"></path>
            <path d="M17.6596601,30.4425263 L17.6596601,26.8421053 L7.14893617,26.8421053 C7.14893617,26.8421053 7.15161753,30.4416316 7.14893668,30.4416316 C7.14625583,30.4416316 17.6542984,30.4425263 17.6596601,30.4425263" id="Fill-25" fill="#90908F" mask="url(#mask-4)"></path>
            <polygon id="Fill-26" fill="#90908F" mask="url(#mask-4)" points="109.021277 37.5995263 119.323787 37.5995263 119.323787 34 109.021277 34"></polygon>
            <polygon id="Fill-27" fill="#90908F" mask="url(#mask-4)" points="76.8510638 37.5986316 87.2045106 37.5986316 87.2045106 34 76.8510638 34"></polygon>
            <path d="M103.230029,37.6174252 C103.23271,37.5995305 104.500753,33.9955263 104.519518,33.9999958 L92.0428376,34 C92.0204972,33.9973158 93.3216036,37.5995305 93.3216036,37.5995305 C93.3216036,37.5995305 103.227348,37.631741 103.230029,37.6174252" id="Fill-28" fill="#90908F" mask="url(#mask-4)"></path>
            <path d="M34.8518582,37.6004211 C34.8518582,37.6147368 34.8500709,34.0017895 34.8518582,34 L45.5198582,34 C45.5198582,34 45.5287943,37.6013158 45.5198582,37.6013158 C45.5100284,37.6013158 34.8518582,37.5959474 34.8518582,37.6004211" id="Fill-29" fill="#90908F" mask="url(#mask-4)"></path>
            <path d="M66.9301277,34 C67.4457447,35.0853158 67.4984681,36.3764211 67.6003404,37.6174211 L56.2978723,37.6174211 L56.2978723,34 L66.9301277,34 Z" id="Fill-30" fill="#90908F" mask="url(#mask-4)"></path>
            <polygon id="Fill-31" fill="#90908F" mask="url(#mask-4)" points="7.14893617 37.5986316 17.6596596 37.5986316 17.6596596 34 7.14893617 34"></polygon>
            <polygon id="Fill-32" fill="#90908F" mask="url(#mask-4)" points="109.021277 43.8644737 126.255574 43.8644737 126.255574 40.2631579 109.021277 40.2631579"></polygon>
            <polygon id="Fill-33" fill="#90908F" mask="url(#mask-4)" points="69.7021277 43.8644737 86.9542979 43.8644737 86.9542979 40.2631579 69.7021277 40.2631579"></polygon>
            <polygon id="Fill-34" fill="#90908F" mask="url(#mask-4)" points="100.355872 43.8644737 95.0924681 43.8644737 93.8297872 40.2631579 101.572085 40.2631579"></polygon>
            <path d="M-2.34164558e-05,40.2631579 L-2.34164558e-05,43.8626902 L24.4815554,43.8626842 C24.4913852,43.8680526 24.4699383,40.2658421 24.4815554,40.2658421 C24.4913852,40.2658421 -0.0277021144,40.2631579 -2.34164558e-05,40.2631579" id="Fill-35" fill="#90908F" mask="url(#mask-4)"></path>
            <path d="M66.875617,40.2631579 C66.6182553,41.4513684 66.3814468,42.8981579 65.5155319,43.8644737 L65.1911489,43.8626842 L27.7021277,43.8626842 L27.7021277,40.2631579 L66.875617,40.2631579 Z" id="Fill-36" fill="#90908F" mask="url(#mask-4)"></path>
            <polygon id="Fill-37" fill="#90908F" mask="url(#mask-4)" points="98.2245957 51.0295263 97.7411489 51.0295263 96.5106383 47.4210526 99.4872766 47.4210526"></polygon>
            <polygon id="Fill-38" fill="#90908F" mask="url(#mask-4)" points="109.021277 51.0375789 126.255574 51.0375789 126.255574 47.4210526 109.021277 47.4210526"></polygon>
            <path d="M27.7021277,51.0241579 L27.7021277,47.4210526 C27.7021277,47.4210526 63.0705957,47.4255263 63.1724681,47.4255263 C60.7981277,49.6999474 57.5408936,50.9821053 54.0316596,51.0322105 L27.7074894,51.0241579" id="Fill-39" fill="#90908F" mask="url(#mask-4)"></path>
            <polygon id="Fill-40" fill="#90908F" mask="url(#mask-4)" points="69.7021277 51.0375789 86.9542979 51.0375789 86.9542979 47.4210526 69.7021277 47.4210526"></polygon>
            <path d="M24.4829103,47.4317895 C24.4829103,47.4317895 24.4712933,51.0250526 24.4829103,51.0250526 C24.4936337,51.0250526 0.0085273533,51.0384737 0.00137841713,51.0304211 C-0.003983285,51.0250526 0.0085273533,47.4210526 0.00137841713,47.4210526 C-0.003983285,47.4210526 24.4712933,47.4425263 24.4829103,47.4317895" id="Fill-41" fill="#90908F" mask="url(#mask-4)"></path>
          </g>
        </g>
      </g>
    </g>
  </g>
</svg>
