<?xml version="1.0" encoding="UTF-8"?>
<svg xmlns="http://www.w3.org/2000/svg" xmlns:xlink="http://www.w3.org/1999/xlink" width="164px" height="38px" viewBox="0 0 164 38">
  <!-- Generator: Sketch 49 (51002) - http://www.bohemiancoding.com/sketch -->
  <title>kiewit</title>
  <desc>Created with Sketch.</desc>
  <defs>
    <polygon id="path-1" points="0 1.01178947 38.3797273 1.01178947 38.3797273 38.9473684 0 38.9473684"></polygon>
    <polygon id="path-3" points="0 38.9885263 163.410026 38.9885263 163.410026 1.05273684 0 1.05273684"></polygon>
  </defs>
  <g id="Visual-Design" stroke="none" stroke-width="1" fill="none" fill-rule="evenodd">
    <g id="customers" transform="translate(-259.000000, -1934.000000)">
      <g id="select-clients" transform="translate(142.000000, 1720.000000)">
        <g id="kiewit" transform="translate(117.000000, 213.000000)">
          <path d="M0.0831714286,20.0206316 C0.0831714286,9.59010526 8.63672987,1.13536842 19.1891714,1.13536842 C29.7426779,1.13536842 38.2962364,9.59010526 38.2962364,20.0206316 C38.2962364,30.4511579 29.7426779,38.9058947 19.1891714,38.9058947 C8.63672987,38.9058947 0.0831714286,30.4511579 0.0831714286,20.0206316" id="Fill-1" fill="#90908F"></path>
          <g id="Group-5" transform="translate(0.000000, 0.041158)">
            <mask id="mask-2" fill="white">
              <use xlink:href="#path-1"></use>
            </mask>
            <g id="Clip-4"></g>
            <path d="M19.1895974,1.176 C8.69998701,1.176 0.166662338,9.61178947 0.166662338,19.9791579 C0.166662338,30.3475789 8.69998701,38.7833684 19.1895974,38.7833684 C29.6792078,38.7833684 38.2125325,30.3475789 38.2125325,19.9791579 C38.2125325,9.61178947 29.6792078,1.176 19.1895974,1.176 M19.1895974,38.9475789 C8.6084026,38.9475789 -0.000532467532,30.4381053 -0.000532467532,19.9791579 C-0.000532467532,9.52126316 8.6084026,1.01178947 19.1895974,1.01178947 C29.7707922,1.01178947 38.3797273,9.52126316 38.3797273,19.9791579 C38.3797273,30.4381053 29.7707922,38.9475789 19.1895974,38.9475789" id="Fill-3" fill="#90908F" mask="url(#mask-2)"></path>
          </g>
          <polygon id="Fill-6" fill="#90908F" points="44.001413 8.79526316 51.7434909 8.79526316 51.7434909 18.1542105 59.8614909 8.79526316 70.1487636 8.79526316 61.0222701 18.1373684 70.5587636 33.5594737 61.0222701 33.5594737 55.7412571 23.3742105 51.7434909 27.5121053 51.7434909 33.5594737 44.001413 33.5594737"></polygon>
          <mask id="mask-4" fill="white">
            <use xlink:href="#path-3"></use>
          </mask>
          <g id="Clip-9"></g>
          <path d="M72.9171688,33.5601053 L79.8722597,33.5601053 L79.8722597,15.6201053 L72.9171688,15.6201053 L72.9171688,33.5601053 Z M72.9171688,13.4737895 L79.8722597,13.4737895 L79.8722597,8.79484211 L72.9171688,8.79484211 L72.9171688,13.4737895 Z" id="Fill-8" fill="#90908F" mask="url(#mask-4)"></path>
          <path d="M97.3895896,23.0016842 C97.2532779,21.6732632 96.8880052,20.7216842 96.2959013,20.1469474 C95.7155117,19.5732632 94.9455636,19.2858947 93.9892519,19.2858947 C92.8838494,19.2858947 91.9999532,19.7195789 91.3396935,20.5869474 C90.9179792,21.1269474 90.6506805,21.9322105 90.5367325,23.0016842 L97.3895896,23.0016842 Z M104.465018,26.2964211 L90.5196935,26.2964211 C90.6442909,27.3995789 90.9456675,28.2216842 91.4248883,28.7627368 C92.0968623,29.5395789 92.9743688,29.928 94.0574078,29.928 C94.7410961,29.928 95.3896416,29.7585263 96.005174,29.4216842 C96.382161,29.208 96.7857714,28.8301053 97.2192,28.2890526 L104.070992,28.9143158 C103.023096,30.7164211 101.759018,32.0122105 100.277694,32.7995789 C98.7963688,33.5764211 96.6718234,33.9648421 93.9040571,33.9648421 C91.4994338,33.9648421 89.6081091,33.6332632 88.2290182,32.9690526 C86.8509922,32.2922105 85.7051221,31.228 84.7946026,29.7764211 C83.8936675,28.3122105 83.4442649,26.5943158 83.4442649,24.6237895 C83.4442649,21.8195789 84.3505247,19.5511579 86.1619792,17.8164211 C87.9840831,16.0827368 90.4962649,15.2153684 93.6985247,15.2153684 C96.2959013,15.2153684 98.3459013,15.6037895 99.8517195,16.3806316 C101.355408,17.1574737 102.500213,18.2837895 103.28507,19.7585263 C104.070992,21.2343158 104.465018,23.1543158 104.465018,25.5195789 L104.465018,26.2964211 Z" id="Fill-10" fill="#90908F" mask="url(#mask-4)"></path>
          <polygon id="Fill-11" fill="#90908F" mask="url(#mask-4)" points="104.194099 15.6198947 110.927683 15.6198947 113.849865 26.9209474 117.54093 15.6198947 123.813397 15.6198947 127.641839 26.9209474 130.564021 15.6198947 137.245423 15.6198947 130.564021 33.5598947 124.377813 33.5598947 120.702722 22.7651579 117.147969 33.5598947 110.927683 33.5598947"></polygon>
          <path d="M139.535247,33.5601053 L146.491403,33.5601053 L146.491403,15.6201053 L139.535247,15.6201053 L139.535247,33.5601053 Z M139.535247,13.4737895 L146.491403,13.4737895 L146.491403,8.79484211 L139.535247,8.79484211 L139.535247,13.4737895 Z" id="Fill-12" fill="#90908F" mask="url(#mask-4)"></path>
          <path d="M159.326319,8.79526316 L159.326319,15.6194737 L163.153696,15.6194737 L163.153696,20.6373684 L159.326319,20.6373684 L159.326319,27.0057895 C159.326319,27.7710526 159.398735,28.2784211 159.547826,28.5257895 C159.775722,28.9089474 160.175073,29.0994737 160.743748,29.0994737 C161.257047,29.0994737 161.974813,28.9531579 162.898112,28.6605263 L163.410345,33.4078947 C161.68941,33.7784211 160.083488,33.9647368 158.591514,33.9647368 C156.85993,33.9647368 155.583073,33.7457895 154.763073,33.3057895 C153.942008,32.8668421 153.332865,32.2026316 152.934579,31.3131579 C152.546943,30.4121053 152.353125,28.9594737 152.353125,26.9552632 L152.353125,20.6373684 L149.789826,20.6373684 L149.789826,15.6194737 L152.353125,15.6194737 L152.353125,12.3257895 L159.326319,8.79526316 Z" id="Fill-13" fill="#90908F" mask="url(#mask-4)"></path>
          <path d="M5.74383377,20.0206316 C5.74383377,12.6795789 11.7628468,6.73010526 19.1897039,6.73010526 C26.6154961,6.73010526 32.6345091,12.6795789 32.6345091,20.0206316 C32.6345091,27.3606316 26.6154961,33.3101053 19.1897039,33.3101053 C11.7628468,33.3101053 5.74383377,27.3606316 5.74383377,20.0206316" id="Fill-14" fill="#FFFFFF" mask="url(#mask-4)"></path>
          <path d="M19.1895974,6.81231579 C11.8213117,6.81231579 5.82679221,12.7375789 5.82679221,20.0207368 C5.82679221,27.3028421 11.8213117,33.2281053 19.1895974,33.2281053 C26.5568182,33.2281053 32.5513377,27.3028421 32.5513377,20.0207368 C32.5513377,12.7375789 26.5568182,6.81231579 19.1895974,6.81231579 M19.1895974,33.3923158 C11.7297273,33.3923158 5.66066234,27.3944211 5.66066234,20.0207368 C5.66066234,12.6470526 11.7297273,6.64810526 19.1895974,6.64810526 C26.6494675,6.64810526 32.7174675,12.6470526 32.7174675,20.0207368 C32.7174675,27.3944211 26.6494675,33.3923158 19.1895974,33.3923158" id="Fill-15" fill="#FFFFFF" mask="url(#mask-4)"></path>
          <path d="M9.37121558,26.2715789 L9.37121558,13.7684211 C9.37121558,13.7684211 11.0516831,10.8842105 12.643761,10.8842105 C14.235839,10.8842105 14.5893974,11.9326316 14.5893974,14.7305263 C14.5893974,17.5284211 14.677787,21.2010526 14.4126182,21.5505263 C14.1474494,21.9010526 13.5276571,22.6873684 12.643761,22.6873684 L11.3168519,22.6873684 L11.3168519,28.9821053 C11.3168519,28.9821053 9.37121558,27.0589474 9.37121558,26.2715789 M11.3125922,13.9873684 L11.3551896,20.5894737 C11.3551896,20.5894737 12.0750857,20.6326316 12.4137351,20.5452632 C12.7523844,20.4578947 12.7523844,20.1515789 12.7523844,20.1515789 L12.7523844,13.6378947 C12.7523844,12.8947368 12.7108519,12.8073684 12.4989299,12.72 C12.2870078,12.6326316 11.3125922,13.9873684 11.3125922,13.9873684" id="Fill-16" fill="#90908F" mask="url(#mask-4)"></path>
          <path d="M15.916839,9.04715789 L15.916839,30.9061053 C15.916839,30.9061053 16.5355662,31.344 16.9775143,31.4313684 C17.4205273,31.5187368 18.0392545,31.344 18.0392545,31.344 L18.0392545,23.0366316 L18.835826,21.5503158 L21.4001896,31.5187368 C21.4001896,31.5187368 22.196761,31.2566316 22.6387091,31.0818947 C23.0817221,30.9061053 23.4363455,30.644 23.4363455,30.644 L20.1616701,18.1408421 L23.8782935,9.48505263 L21.9315922,8.69768421 L18.1276442,17.2671579 L18.1276442,8.52294737 C18.1276442,8.52294737 17.4205273,8.52294737 16.9775143,8.69768421 C16.5355662,8.87242105 15.916839,9.04715789 15.916839,9.04715789" id="Fill-17" fill="#90908F" mask="url(#mask-4)"></path>
          <path d="M28.4329143,15.6928421 C28.8312,15.8233684 29.0079792,15.1675789 29.0079792,14.5117895 C29.0079792,13.856 28.9195896,13.376 28.8759273,13.2444211 C28.8312,13.1128421 26.7524468,10.7086316 26.2657714,10.6654737 C25.780161,10.6212632 25.0719792,10.7528421 24.7184208,11.0149474 C24.3648623,11.2770526 23.9665766,11.8896842 23.9665766,12.1517895 L23.9665766,19.1023158 C23.9665766,19.4517895 24.1880831,19.8886316 24.6300312,20.1949474 C25.0719792,20.5012632 25.3818753,20.676 26.0006026,20.676 C26.6203948,20.676 27.0176156,20.5012632 27.1060052,21.0686316 C27.1943948,21.6370526 27.1943948,22.2938947 27.1943948,22.9496842 C27.1943948,23.6054737 27.1507325,25.3538947 27.1507325,25.7917895 C27.1507325,26.2286316 26.4425506,27.1023158 25.8238234,27.496 C25.2050961,27.8896842 24.010239,28.5454737 24.010239,28.5454737 L24.010239,30.3812632 C24.010239,30.3812632 26.354161,29.5938947 27.3275117,28.5454737 C28.3008623,27.496 29.0079792,27.0591579 29.0079792,25.616 L29.0079792,20.4570526 C29.0079792,20.1949474 28.6096935,19.1896842 27.6810701,18.8833684 C26.7524468,18.5770526 25.780161,19.2328421 25.780161,18.0096842 C25.780161,16.7854737 25.6907065,13.376 25.780161,13.1570526 C25.8685506,12.9381053 26.4425506,12.7633684 26.6640571,13.1128421 C27.126239,13.8444211 28.0356935,15.5612632 28.4329143,15.6928421" id="Fill-18" fill="#90908F" mask="url(#mask-4)"></path>
          <path d="M35.6420987,23.6050526 C35.3769299,23.6924211 35.4216571,23.1671579 35.4216571,22.3808421 C35.4216571,21.5934737 35.5100468,19.2334737 35.4653195,19.0145263 C35.4216571,18.7966316 34.8465922,18.3155789 34.7134753,17.7471579 C34.5814234,17.1787368 34.6453195,16.5376842 34.8018649,16.4345263 C34.9349818,16.3471579 35.6420987,16.9597895 35.686826,17.2661053 C35.7304883,17.5724211 35.8188779,18.3155789 35.7752156,18.6208421 C35.7304883,18.9271579 35.7304883,21.5061053 35.686826,21.9871579 C35.6420987,22.4682105 35.9083325,23.5176842 35.6420987,23.6050526" id="Fill-19" fill="#FFFFFF" mask="url(#mask-4)"></path>
          <path d="M34.8371143,16.5090526 L34.8349844,16.5090526 C34.7497896,16.568 34.6582052,17.1427368 34.7945169,17.728 C34.8711922,18.0585263 35.1065429,18.3585263 35.2961013,18.5995789 C35.4292182,18.7701053 35.5250623,18.8943158 35.546361,18.9974737 C35.5740494,19.1322105 35.5580753,19.8764211 35.530387,20.9985263 C35.5176078,21.5543158 35.5048286,22.0806316 35.5048286,22.3806316 C35.5048286,22.4858947 35.5037636,22.5848421 35.5026987,22.6806316 C35.4995039,23.0690526 35.4963091,23.4711579 35.5761792,23.5290526 C35.5825688,23.5332632 35.5953481,23.5353684 35.6155818,23.5269474 C35.7210104,23.4932632 35.6677636,22.9648421 35.6390104,22.6806316 C35.6134519,22.4269474 35.5868286,22.1648421 35.6038675,21.9795789 C35.6251662,21.748 35.6358156,21.0058947 35.6464649,20.2901053 C35.6581792,19.5090526 35.6688286,18.7701053 35.6933221,18.6090526 C35.7327247,18.3290526 35.6571143,17.6395789 35.6049325,17.2764211 C35.5665948,17.0122105 34.9617117,16.5090526 34.8371143,16.5090526 M35.5889584,23.6964211 C35.5399714,23.6964211 35.5037636,23.6795789 35.4792701,23.6616842 C35.3301792,23.5543158 35.3323091,23.2258947 35.3376338,22.6785263 C35.3376338,22.5848421 35.3386987,22.4858947 35.3386987,22.3806316 C35.3386987,22.0785263 35.350413,21.5522105 35.3642571,20.9943158 C35.3855558,20.1753684 35.4089844,19.1574737 35.3844909,19.0311579 C35.3706468,18.9637895 35.2705429,18.8364211 35.1640494,18.7006316 C34.9755558,18.4606316 34.7178416,18.1301053 34.6326468,17.7648421 C34.5091143,17.2364211 34.5368026,16.5111579 34.7561792,16.3669474 C34.8285948,16.3185263 34.9255039,16.3606316 34.956387,16.3753684 C35.2258156,16.4932632 35.7284649,16.9722105 35.7689325,17.2543158 C35.7838416,17.3564211 35.9105688,18.2637895 35.8573221,18.6322105 C35.8349584,18.7837895 35.8243091,19.5511579 35.8125948,20.2922105 C35.8019455,21.0122105 35.7912961,21.7564211 35.7699974,21.9943158 C35.7529584,22.1637895 35.7795818,22.4185263 35.8040753,22.6648421 C35.8551922,23.1701053 35.8999195,23.6069474 35.6677636,23.6827368 C35.6390104,23.6922105 35.6134519,23.6964211 35.5889584,23.6964211" id="Fill-20" fill="#FFFFFF" mask="url(#mask-4)"></path>
          <path d="M37.2790104,18.2277895 C37.1458935,18.0962105 35.9968286,18.4025263 35.7305948,19.6698947 C35.465426,20.9372632 36.7486727,19.7141053 36.8370623,19.5393684 C36.9254519,19.3646316 37.4110623,18.3583158 37.2790104,18.2277895" id="Fill-21" fill="#FFFFFF" mask="url(#mask-4)"></path>
          <path d="M37.6325688,20.5355789 C37.5271403,20.3818947 36.3397377,20.4650526 35.8349584,21.6587368 C35.3291143,22.8534737 36.8242831,21.8934737 36.9446208,21.7397895 C37.0660234,21.584 37.7379974,20.6892632 37.6325688,20.5355789" id="Fill-22" fill="#FFFFFF" mask="url(#mask-4)"></path>
          <path d="M33.726387,18.6667368 C33.8371403,18.5162105 35.0202831,18.6414737 35.4824649,19.852 C35.9457117,21.0625263 34.4856857,20.052 34.3696078,19.8930526 C34.2556597,19.7351579 33.6156338,18.8172632 33.726387,18.6667368" id="Fill-23" fill="#FFFFFF" mask="url(#mask-4)"></path>
          <path d="M33.5631325,20.5355789 C33.668561,20.3818947 34.8559636,20.4650526 35.3607429,21.6587368 C35.866587,22.8534737 34.3714182,21.8934737 34.2510805,21.7397895 C34.1296779,21.584 33.4577039,20.6892632 33.5631325,20.5355789" id="Fill-24" fill="#FFFFFF" mask="url(#mask-4)"></path>
          <path d="M2.82452727,23.6050526 C3.09076104,23.6924211 3.04603377,23.1671579 3.04603377,22.3808421 C3.04603377,21.5934737 2.95764416,19.2334737 3.00237143,19.0145263 C3.04603377,18.7966316 3.6210987,18.3155789 3.75315065,17.7471579 C3.88626753,17.1787368 3.82237143,16.5376842 3.66476104,16.4345263 C3.53270909,16.3471579 2.82452727,16.9597895 2.78086494,17.2661053 C2.73613766,17.5724211 2.64774805,18.3155789 2.69247532,18.6208421 C2.73613766,18.9271579 2.73613766,21.5061053 2.78086494,21.9871579 C2.82452727,22.4682105 2.55935844,23.5176842 2.82452727,23.6050526" id="Fill-25" fill="#FFFFFF" mask="url(#mask-4)"></path>
          <path d="M2.85061818,23.5269474 C2.86872208,23.5343158 2.8815013,23.5332632 2.89002078,23.5290526 C2.97095584,23.4711579 2.96776104,23.068 2.96456623,22.6795789 C2.9635013,22.5848421 2.96243636,22.4858947 2.96243636,22.3806316 C2.96243636,22.0806316 2.95072208,21.5543158 2.93687792,20.9985263 C2.91025455,19.8764211 2.89321558,19.1322105 2.9209039,18.9974737 C2.9422026,18.8953684 3.03804675,18.7711579 3.17222857,18.5995789 C3.36072208,18.3585263 3.59500779,18.0585263 3.67168312,17.728 C3.80905974,17.1427368 3.71641039,16.568 3.6195013,16.5037895 L3.61843636,16.5037895 C3.51087792,16.5037895 2.90173506,17.0111579 2.8633974,17.2774737 C2.81441039,17.6122105 2.73347532,18.3227368 2.77500779,18.6090526 C2.79737143,18.768 2.80802078,19.4932632 2.81973506,20.2595789 C2.83038442,20.9901053 2.8420987,21.7448421 2.86446234,21.9795789 C2.88043636,22.1637895 2.85381299,22.4258947 2.82825455,22.6795789 C2.7995013,22.9637895 2.74625455,23.4932632 2.85061818,23.5269474 M2.87724156,23.6964211 C2.85487792,23.6964211 2.82825455,23.6922105 2.79843636,23.6827368 C2.56734545,23.6069474 2.61100779,23.1690526 2.66318961,22.6637895 C2.68768312,22.4174737 2.71324156,22.1627368 2.69726753,21.9943158 C2.67596883,21.7532632 2.66425455,20.9953684 2.65360519,20.2616842 C2.64295584,19.5343158 2.63124156,18.7816842 2.60994286,18.6322105 C2.55456623,18.2501053 2.69300779,17.2943158 2.69833247,17.2543158 C2.7388,16.9732632 3.24144935,16.4932632 3.50981299,16.3753684 C3.5406961,16.3606316 3.63760519,16.3185263 3.71108571,16.3669474 C3.93152727,16.5111579 3.95815065,17.2364211 3.83461818,17.7648421 C3.74942338,18.1301053 3.49170909,18.4606316 3.30321558,18.7006316 C3.19672208,18.8364211 3.09661818,18.9637895 3.08383896,19.0311579 C3.05828052,19.1574737 3.08277403,20.1753684 3.10300779,20.9943158 C3.11685195,21.5522105 3.12963117,22.0785263 3.12963117,22.3806316 C3.12963117,22.4848421 3.1306961,22.5837895 3.1306961,22.6774737 C3.13602078,23.2248421 3.13815065,23.5543158 2.98799481,23.6616842 C2.9635013,23.6795789 2.92729351,23.6964211 2.87724156,23.6964211" id="Fill-26" fill="#FFFFFF" mask="url(#mask-4)"></path>
          <path d="M1.18868052,18.2277895 C1.32073247,18.0962105 2.47086234,18.4025263 2.73603117,19.6698947 C3.00226494,20.9372632 1.71901818,19.7141053 1.63062857,19.5393684 C1.54223896,19.3646316 1.05556364,18.3583158 1.18868052,18.2277895" id="Fill-27" fill="#FFFFFF" mask="url(#mask-4)"></path>
          <path d="M0.834057143,20.5355789 C0.939485714,20.3818947 2.12795325,20.4650526 2.63166753,21.6587368 C3.13751169,22.8534737 1.64234286,21.8934737 1.52200519,21.7397895 C1.4006026,21.584 0.729693506,20.6892632 0.834057143,20.5355789" id="Fill-28" fill="#FFFFFF" mask="url(#mask-4)"></path>
          <path d="M4.7411974,18.6667368 C4.63044416,18.5162105 3.44623636,18.6414737 2.98405455,19.852 C2.52080779,21.0625263 3.9818987,20.052 4.09797662,19.8930526 C4.21192468,19.7351579 4.85195065,18.8172632 4.7411974,18.6667368" id="Fill-29" fill="#FFFFFF" mask="url(#mask-4)"></path>
          <path d="M4.90349351,20.5355789 C4.79806494,20.3818947 3.61066234,20.4650526 3.10588312,21.6587368 C2.6011039,22.8534737 4.09520779,21.8934737 4.21554545,21.7397895 C4.33694805,21.584 5.00892208,20.6892632 4.90349351,20.5355789" id="Fill-30" fill="#FFFFFF" mask="url(#mask-4)"></path>
          <path d="M12.5358831,7.61315789 L11.1706364,8.59421053 C10.7361429,8.42894737 10.3580909,8.30157895 10.0386104,8.21 C9.71912987,8.11947368 9.31551948,8.00789474 8.82458442,7.87526316 L8.69785714,7.96684211 L9.48484416,9.03842105 C9.52744156,9.09526316 9.5742987,9.13631579 9.62435065,9.16157895 C9.6744026,9.18578947 9.74149351,9.19 9.82455844,9.17105263 C9.8628961,9.16368421 9.91614286,9.14578947 9.98216883,9.11736842 C10.0492597,9.08789474 10.1142208,9.05631579 10.1749221,9.02263158 L10.3133636,9.21 L8.48061039,10.5257895 L8.34323377,10.3373684 C8.38583117,10.3036842 8.44333766,10.2542105 8.51788312,10.19 C8.59455844,10.1268421 8.64354545,10.0763158 8.66590909,10.0405263 C8.70850649,9.97526316 8.72554545,9.91526316 8.71915584,9.85947368 C8.71276623,9.80263158 8.68720779,9.74368421 8.64248052,9.68368421 L6.86616883,7.26789474 C6.8257013,7.21105263 6.78097403,7.17105263 6.73305195,7.14684211 C6.68512987,7.12157895 6.61697403,7.11736842 6.53071429,7.13421053 C6.46468831,7.14789474 6.39014286,7.17315789 6.30707792,7.21 C6.22614286,7.24578947 6.16224675,7.27842105 6.11432468,7.30473684 L5.97694805,7.11736842 L7.86933766,5.75842105 L8.00671429,5.94578947 C7.95985714,5.98684211 7.90448052,6.03736842 7.84058442,6.09842105 C7.77668831,6.15631579 7.72557143,6.21105263 7.68723377,6.26368421 C7.63931169,6.32894737 7.62120779,6.39315789 7.63292208,6.45210526 C7.64463636,6.51210526 7.67125974,6.57 7.71172727,6.62473684 L8.55515584,7.77105263 L8.65632468,7.69842105 C8.69892208,7.49421053 8.74577922,7.25105263 8.7968961,6.97105263 C8.84801299,6.69 8.88102597,6.46473684 8.89912987,6.29526316 C8.92362338,6.05947368 8.93533766,5.87947368 8.93427273,5.75315789 C8.93427273,5.62578947 8.91297403,5.53105263 8.86824675,5.47105263 C8.84801299,5.44263158 8.80328571,5.44368421 8.73512987,5.47105263 C8.66484416,5.49842105 8.56793506,5.55210526 8.4444026,5.63105263 L8.30596104,5.44368421 L9.80538961,4.36789474 L9.94276623,4.55526316 C9.77557143,4.70473684 9.64777922,4.84684211 9.55832468,4.98157895 C9.46887013,5.11526316 9.40284416,5.27842105 9.36024675,5.47315789 C9.29954545,5.75105263 9.25375325,5.98789474 9.225,6.18368421 C9.19518182,6.37526316 9.15684416,6.62368421 9.10998701,6.92578947 C9.40284416,7.00157895 9.7595974,7.09736842 10.1770519,7.21210526 C10.5955714,7.32578947 11.0066364,7.43315789 11.4134416,7.53526316 C11.5167403,7.56157895 11.6264286,7.57947368 11.7425065,7.58894737 C11.8564545,7.59631579 11.9714675,7.58894737 12.0832857,7.56368421 C12.1375974,7.55210526 12.194039,7.53315789 12.2515455,7.50473684 C12.3111818,7.47736842 12.3601688,7.45105263 12.3985065,7.42578947 L12.5358831,7.61315789 Z" id="Fill-31" fill="#FFFFFF" mask="url(#mask-4)"></path>
          <path d="M14.5180468,6.93157895 L12.3264104,7.80631579 L12.2380208,7.59157895 C12.2870078,7.56736842 12.3583584,7.53368421 12.4520727,7.48736842 C12.5468519,7.44105263 12.6107481,7.40315789 12.6416312,7.37368421 C12.6991377,7.31789474 12.7310857,7.26421053 12.7364104,7.21052632 C12.7438649,7.15473684 12.7332156,7.09052632 12.7055273,7.02210526 L11.5735013,4.25263158 C11.5479429,4.19052632 11.5138649,4.14105263 11.4702026,4.10210526 C11.4265403,4.06421053 11.3626442,4.04526316 11.2806442,4.04315789 C11.2284623,4.04315789 11.1549818,4.05157895 11.0602026,4.06736842 C10.9643584,4.08210526 10.8844883,4.09894737 10.8173974,4.11578947 L10.7300727,3.90105263 L12.9217091,3.02631579 L13.0090338,3.24105263 C12.955787,3.26947368 12.889761,3.30526316 12.8098909,3.34947368 C12.7300208,3.39263158 12.6661247,3.43368421 12.6160727,3.47473684 C12.5532416,3.52842105 12.5202286,3.58421053 12.5170338,3.64526316 C12.512774,3.70526316 12.5244883,3.76631579 12.5500468,3.83052632 L13.6810078,6.59684211 C13.7076312,6.66210526 13.742774,6.71473684 13.7864364,6.75263158 C13.8311636,6.78842105 13.8950597,6.80631579 13.9781247,6.80736842 C14.0239169,6.80842105 14.0952675,6.8 14.1900468,6.78 C14.2869558,6.75894737 14.366826,6.73684211 14.4296571,6.71684211 L14.5180468,6.93157895 Z" id="Fill-32" fill="#FFFFFF" mask="url(#mask-4)"></path>
          <path d="M18.0310545,3.05926316 L17.8052883,3.094 C17.7232883,2.94557895 17.5986909,2.80031579 17.432561,2.65926316 C17.2653662,2.51926316 17.1109506,2.44557895 16.9682494,2.43821053 C16.9064831,2.43294737 16.8212883,2.43821053 16.7158597,2.454 C16.6093662,2.46663158 16.5220416,2.47715789 16.4538857,2.48873684 L15.8415481,2.58452632 L16.1003273,4.19084211 L16.5326909,4.12347368 C16.6413143,4.10557895 16.7382234,4.07821053 16.8223532,4.03821053 C16.9075481,3.99926316 16.9820935,3.93715789 17.0427948,3.854 C17.0811325,3.80136842 17.1141455,3.71505263 17.1407688,3.59505263 C17.170587,3.47505263 17.1854961,3.37084211 17.1854961,3.28452632 L17.4112623,3.24978947 L17.6892104,4.98452632 L17.4645091,5.01926316 C17.4389506,4.93926316 17.3910286,4.84136842 17.3228727,4.72663158 C17.2547169,4.60873684 17.1961455,4.52978947 17.1450286,4.48978947 C17.0683532,4.42978947 16.9842234,4.394 16.8905091,4.38242105 C16.7967948,4.36873684 16.6913662,4.37189474 16.5752883,4.38978947 L16.1429247,4.45715789 L16.334613,5.65715789 C16.3548468,5.78136842 16.3793403,5.88031579 16.4091584,5.95084211 C16.4400416,6.02031579 16.4847688,6.07084211 16.5433403,6.10242105 C16.5976519,6.13084211 16.6690026,6.14557895 16.7563273,6.14347368 C16.8447169,6.14136842 16.9629247,6.12873684 17.1120156,6.10663158 C17.1801714,6.09505263 17.2632364,6.08136842 17.3601455,6.06347368 C17.4570545,6.04663158 17.5411844,6.02768421 17.6125351,6.00663158 C17.6945351,5.98347368 17.7690805,5.95715789 17.8361714,5.92663158 C17.9075221,5.89505263 17.957574,5.85821053 17.9863273,5.81505263 C18.0661974,5.70557895 18.1492623,5.54242105 18.236587,5.32873684 C18.3239117,5.11294737 18.3782234,4.95294737 18.400587,4.84873684 L18.6167688,4.81505263 L18.744561,6.12347368 L14.7968468,6.74136842 L14.760639,6.51294737 C14.8138857,6.50136842 14.8884312,6.48136842 14.9821455,6.45505263 C15.0747948,6.42768421 15.1397558,6.40347368 15.1759636,6.38136842 C15.2473143,6.33821053 15.2909766,6.29084211 15.3090805,6.24031579 C15.3271844,6.18768421 15.3303792,6.12452632 15.3176,6.04978947 L14.8479636,3.11610526 C14.8362494,3.04452632 14.8160156,2.98978947 14.7872623,2.94768421 C14.7585091,2.90452632 14.6988727,2.86978947 14.6104831,2.84663158 C14.5551065,2.83084211 14.4794961,2.82031579 14.3836519,2.81610526 C14.2867429,2.81084211 14.2153922,2.80873684 14.1664052,2.81084211 L14.1301974,2.58136842 L17.8617299,1.99715789 L18.0310545,3.05926316 Z" id="Fill-33" fill="#FFFFFF" mask="url(#mask-4)"></path>
          <path d="M25.5719662,3.09421053 C25.5091351,3.09 25.4463039,3.09421053 25.3813429,3.10684211 C25.3174468,3.11631579 25.2524857,3.13210526 25.1885896,3.15421053 C25.0895506,3.19105263 25.0150052,3.23631579 24.9660182,3.29105263 C24.919161,3.34473684 24.8723039,3.41315789 24.8265117,3.49421053 C24.6699662,3.77421053 24.4260961,4.22368421 24.0938364,4.84263158 C23.7637065,5.46263158 23.4197325,6.10473684 23.0608494,6.77210526 L22.4644857,6.67947368 L21.8478883,3.41210526 L20.3505896,6.34789474 L19.754226,6.25526316 C19.5753169,5.25315789 19.4400701,4.48263158 19.3452909,3.94368421 C19.2515766,3.40157895 19.1727714,2.94684211 19.1088753,2.58052632 C19.0875766,2.46894737 19.0577584,2.38578947 19.0172909,2.33210526 C18.9778883,2.27631579 18.9246416,2.21736842 18.8564857,2.15631579 C18.8085636,2.11315789 18.7563818,2.07842105 18.6967455,2.05421053 C18.6403039,2.02684211 18.5742779,2.00263158 18.4954727,1.97947368 L18.5327455,1.75210526 L20.7776286,2.10368421 L20.7424857,2.32578947 C20.607239,2.32052632 20.5060701,2.32157895 20.4379143,2.32684211 C20.3708234,2.32894737 20.3165117,2.33631579 20.2760442,2.34578947 C20.2387714,2.35631579 20.2142779,2.37 20.2036286,2.38578947 C20.1929792,2.40263158 20.1855247,2.41631579 20.1833948,2.43 C20.1802,2.45842105 20.1791351,2.48473684 20.1812649,2.51105263 C20.1833948,2.53842105 20.1865896,2.56894737 20.1897844,2.60263158 C20.213213,2.76263158 20.2632649,3.06789474 20.3388753,3.51526316 C20.4144857,3.96368421 20.5082,4.52052632 20.6189532,5.18473684 L22.0619403,2.30368421 L22.6913169,2.40263158 L23.3025896,5.70157895 C23.5475247,5.22473684 23.7434727,4.83421053 23.8914987,4.53105263 C24.0416545,4.22789474 24.1683818,3.96894737 24.2706156,3.75210526 C24.3334468,3.62052632 24.3834987,3.50894737 24.4218364,3.41947368 C24.461239,3.32894737 24.4857325,3.24894737 24.4963818,3.18052632 C24.5027714,3.13947368 24.4889273,3.10157895 24.4537844,3.06684211 C24.4218364,3.03 24.3739143,2.99736842 24.3121481,2.96578947 C24.2599662,2.93947368 24.1896805,2.91421053 24.1023558,2.89105263 C24.017161,2.86473684 23.9426156,2.84473684 23.8776545,2.82894737 L23.9149273,2.59315789 L25.609239,2.85842105 L25.5719662,3.09421053 Z" id="Fill-34" fill="#FFFFFF" mask="url(#mask-4)"></path>
          <path d="M26.3602312,8.24842105 L24.2367506,7.22421053 L24.3389844,7.01684211 C24.3890364,7.03684211 24.4625169,7.06526316 24.5604909,7.10315789 C24.6584649,7.14210526 24.7298156,7.16315789 24.772413,7.16631579 C24.8522831,7.17263158 24.9151143,7.15894737 24.9598416,7.12736842 C25.0066987,7.09473684 25.0471662,7.04421053 25.0801792,6.97789474 L26.4038935,4.29368421 C26.4337117,4.23368421 26.4486208,4.17473684 26.4475558,4.11684211 C26.4475558,4.06 26.4198675,4 26.3655558,3.93789474 C26.3314779,3.9 26.2761013,3.85052632 26.2004909,3.79263158 C26.1248805,3.73263158 26.0588545,3.68421053 26.0013481,3.64736842 L26.1035818,3.44 L28.2281273,4.46315789 L28.1248286,4.67157895 C28.068387,4.65052632 27.9970364,4.62631579 27.9107766,4.59789474 C27.8255818,4.56736842 27.7510364,4.54736842 27.6860753,4.53894737 C27.6040753,4.52842105 27.5391143,4.54210526 27.4911922,4.58105263 C27.4454,4.61789474 27.4049325,4.66736842 27.3751143,4.72842105 L26.0524649,7.41052632 C26.0215818,7.47473684 26.0045429,7.53473684 26.0056078,7.59263158 C26.0088026,7.64947368 26.0375558,7.70736842 26.0918675,7.76947368 C26.1216857,7.80315789 26.1759974,7.84947368 26.2548026,7.90736842 C26.3357377,7.96315789 26.4049584,8.00842105 26.4635299,8.04105263 L26.3602312,8.24842105 Z" id="Fill-35" fill="#FFFFFF" mask="url(#mask-4)"></path>
          <path d="M31.3115403,8.31421053 L31.1315662,8.17 C31.1986571,7.99105263 31.2433844,7.77947368 31.266813,7.53421053 C31.2913065,7.28894737 31.2646831,7.12473684 31.184813,7.04052632 C31.1400857,6.99421053 31.0825792,6.93947368 31.0133584,6.87631579 C30.9441377,6.81315789 30.8834364,6.76052632 30.8301896,6.71736842 L30.7205013,6.63 L28.6172545,9.19842105 C28.5725273,9.25315789 28.5416442,9.31 28.5267351,9.37 C28.5128909,9.42789474 28.5256701,9.49210526 28.5640078,9.56368421 C28.5885013,9.60684211 28.6310987,9.66473684 28.6939299,9.74052632 C28.7588909,9.81526316 28.8153325,9.87631579 28.8632545,9.92578947 L28.7152286,10.1057895 L26.8696961,8.62789474 L27.0177221,8.44789474 C27.0667091,8.47947368 27.1338,8.52368421 27.2211247,8.58052632 C27.3116442,8.63842105 27.3766052,8.67210526 27.4160078,8.68368421 C27.4969429,8.70684211 27.5640338,8.70684211 27.6183455,8.68157895 C27.6726571,8.65526316 27.723774,8.61421053 27.7695662,8.55736842 L29.8919818,5.96789474 L29.7822935,5.87947368 C29.7301117,5.83631579 29.6640857,5.78894737 29.5874104,5.73526316 C29.5107351,5.68157895 29.4447091,5.63736842 29.3893325,5.60368421 C29.2902935,5.54368421 29.1199039,5.55105263 28.8824234,5.62473684 C28.6449429,5.70052632 28.4458,5.78894737 28.2818,5.88894737 L28.1028909,5.74684211 L28.8696442,4.80894737 L32.0793584,7.37736842 L31.3115403,8.31421053 Z" id="Fill-36" fill="#FFFFFF" mask="url(#mask-4)"></path>
          <path d="M4.2212961,31.0701053 C4.07646494,30.8806316 3.96571169,30.6869474 3.88797143,30.4869474 C3.81023117,30.2901053 3.76017922,30.1101053 3.73994545,29.948 L3.47051688,29.9122105 L3.32888052,29.7269474 L4.43960779,28.8553684 L4.58230909,29.0427368 C4.50776364,29.1648421 4.43428312,29.3027368 4.36612727,29.4574737 C4.29584156,29.6111579 4.24685455,29.7669474 4.2181013,29.9227368 C4.18828312,30.0848421 4.18295844,30.2437895 4.20425714,30.3985263 C4.22662078,30.5553684 4.29371169,30.7069474 4.40552987,30.8543158 C4.55675065,31.0511579 4.72075065,31.1669474 4.89752987,31.1995789 C5.0775039,31.2322105 5.2415039,31.1932632 5.39059481,31.0827368 C5.5119974,30.9911579 5.57908831,30.8701053 5.59293247,30.7185263 C5.60997143,30.5669474 5.57589351,30.3753684 5.49389351,30.1427368 C5.44064675,29.9911579 5.39165974,29.8511579 5.34693247,29.7227368 C5.30327013,29.5953684 5.26386753,29.4732632 5.22978961,29.3574737 C5.15630909,29.0858947 5.15737403,28.8427368 5.23617922,28.6248421 C5.31498442,28.408 5.4512961,28.228 5.64404935,28.0837895 C5.76651688,27.9932632 5.90282857,27.9332632 6.05511429,27.9006316 C6.20846494,27.8690526 6.36820519,27.8701053 6.53433506,27.9037895 C6.69088052,27.9364211 6.85381558,28.0090526 7.02101039,28.1195789 C7.18820519,28.2301053 7.33942597,28.3722105 7.47360779,28.548 C7.60352987,28.7206316 7.70256883,28.8985263 7.76752987,29.0848421 C7.83568571,29.2701053 7.87721818,29.4237895 7.89319221,29.5458947 L8.12747792,29.5806316 L8.27230909,29.7701053 L7.21695844,30.5827368 L7.07425714,30.3953684 C7.15625714,30.2658947 7.23293247,30.1269474 7.30641299,29.9795789 C7.38415325,29.8311579 7.43633506,29.6943158 7.46615325,29.5701053 C7.49703636,29.4353684 7.5012961,29.3027368 7.48106234,29.1722105 C7.46189351,29.0406316 7.40332208,28.9122105 7.30854286,28.788 C7.18927013,28.6311579 7.0455039,28.5353684 6.87937403,28.5016842 C6.71430909,28.4690526 6.56521818,28.5037895 6.43316623,28.6016842 C6.3075039,28.6943158 6.23934805,28.8132632 6.22443896,28.9585263 C6.21165974,29.1058947 6.24467273,29.2932632 6.32454286,29.5206316 C6.37033506,29.6553684 6.41719221,29.7932632 6.46404935,29.9322105 C6.51303636,30.0722105 6.5535039,30.1974737 6.58758182,30.3101053 C6.66532208,30.5827368 6.67384156,30.828 6.61101039,31.0458947 C6.55137403,31.2637895 6.4139974,31.4522105 6.19781558,31.6122105 C6.06256883,31.7132632 5.90815325,31.7795789 5.73456883,31.8111579 C5.55991948,31.8427368 5.39059481,31.8374737 5.22552987,31.7932632 C5.04342597,31.7458947 4.86984156,31.6637895 4.70371169,31.5490526 C4.53758182,31.4332632 4.37677662,31.2732632 4.2212961,31.0701053" id="Fill-37" fill="#FFFFFF" mask="url(#mask-4)"></path>
          <path d="M7.37861558,34.154 L5.73648571,32.7434737 L5.87812208,32.5834737 C5.91858961,32.6118947 5.97716104,32.6550526 6.05383636,32.7118947 C6.13264156,32.7708421 6.19014805,32.8055789 6.22742078,32.8171579 C6.29664156,32.8413684 6.35627792,32.8445263 6.40313506,32.8266316 C6.45318701,32.8097895 6.50110909,32.774 6.5469013,32.7224211 L8.37113506,30.6487368 C8.4116026,30.6013684 8.43822597,30.5529474 8.45207013,30.5013684 C8.46591429,30.4497895 8.45526494,30.3908421 8.42118701,30.3224211 C8.40095325,30.2803158 8.36368052,30.2255789 8.31043377,30.1550526 C8.25825195,30.0834737 8.21032987,30.0245263 8.16773247,29.9782105 L8.30936883,29.8182105 L9.9514987,31.2287368 L9.80986234,31.3887368 C9.76407013,31.3582105 9.70762857,31.3192632 9.63734286,31.274 C9.56918701,31.2266316 9.50635584,31.1918947 9.45097922,31.1676842 C9.38175844,31.1392632 9.31999221,31.1371579 9.26781039,31.1592632 C9.21882338,31.1813684 9.17196623,31.2161053 9.12936883,31.2645263 L7.30726494,33.3361053 C7.2636026,33.3855789 7.23484935,33.4361053 7.22207013,33.4866316 C7.21142078,33.5382105 7.22313506,33.5982105 7.25614805,33.6645263 C7.27318701,33.7024211 7.31152468,33.7561053 7.3669013,33.8255789 C7.42547273,33.8950526 7.47658961,33.9518947 7.52025195,33.994 L7.37861558,34.154 Z" id="Fill-38" fill="#FFFFFF" mask="url(#mask-4)"></path>
          <path d="M13.7339351,33.7016842 C13.686013,33.6806316 13.6167922,33.6553684 13.5262727,33.6216842 C13.4357532,33.5890526 13.342039,33.5785263 13.2461948,33.5911579 C13.1631299,33.6006316 13.079,33.6511579 12.9938052,33.7427368 C12.9118052,33.8322105 12.8138312,33.9795789 12.6998831,34.1816842 L11.3420909,36.6048421 L10.9118571,36.368 L10.2441429,32.5764211 L9.35172727,34.168 C9.24097403,34.3658947 9.16962338,34.5227368 9.13767532,34.6406316 C9.10679221,34.7574737 9.10892208,34.8564211 9.14193506,34.9364211 C9.16536364,34.9953684 9.21754545,35.0648421 9.29741558,35.1437895 C9.37728571,35.2227368 9.44331169,35.2827368 9.49442857,35.3227368 L9.389,35.5101053 L7.91406494,34.7016842 L8.01949351,34.5153684 C8.08445455,34.5448421 8.16325974,34.5732632 8.25377922,34.6006316 C8.34536364,34.6258947 8.43162338,34.6343158 8.50723377,34.6269474 C8.59562338,34.6143158 8.67762338,34.5690526 8.7511039,34.4890526 C8.82884416,34.408 8.92788312,34.2574737 9.05248052,34.0374737 L9.95235065,32.4322105 C9.99707792,32.3532632 10.0268961,32.2711579 10.0396753,32.1869474 C10.0556494,32.1006316 10.0513896,32.0185263 10.0268961,31.9385263 C10.0002727,31.8532632 9.95874026,31.7753684 9.90123377,31.7048421 C9.84798701,31.6332632 9.7777013,31.5637895 9.69463636,31.4943158 L9.80219481,31.3037895 L11.0928961,32.0111579 L11.6818052,35.3322105 L12.4017013,34.0490526 C12.5156494,33.8458947 12.587,33.6858947 12.6146883,33.5722105 C12.6445065,33.4574737 12.6423766,33.3595789 12.6093636,33.2785263 C12.5827403,33.2164211 12.5305584,33.148 12.4538831,33.0711579 C12.3772078,32.9943158 12.3133117,32.9343158 12.2621948,32.8943158 L12.3665584,32.7090526 L13.8393636,33.5143158 L13.7339351,33.7016842 Z" id="Fill-39" fill="#FFFFFF" mask="url(#mask-4)"></path>
          <path d="M14.5887584,37.6182105 C14.3086805,37.5508421 14.0594857,37.4413684 13.8390442,37.2929474 C13.6186026,37.1434737 13.4386286,36.9613684 13.3012519,36.7466316 C13.1660052,36.5371579 13.0786805,36.2971579 13.038213,36.0287368 C12.9977455,35.7571579 13.0147844,35.4761053 13.0893299,35.1824211 C13.1628104,34.8908421 13.2810182,34.634 13.4460831,34.4118947 C13.612213,34.1876842 13.8124208,34.0076842 14.0435117,33.8718947 C14.2703429,33.7382105 14.5237974,33.654 14.8049403,33.6203158 C15.0860831,33.5845263 15.3714857,33.6024211 15.6632779,33.674 C15.8741351,33.7266316 16.0594338,33.7992632 16.220239,33.8929474 C16.3810442,33.9855789 16.514161,34.0782105 16.6163948,34.1718947 L16.8208623,34.0666316 L17.0530182,34.1245263 L16.7314078,35.5024211 L16.4949922,35.4455789 C16.4673039,34.9929474 16.384239,34.6455789 16.2457974,34.4024211 C16.1073558,34.1613684 15.9028883,34.0055789 15.6323948,33.9403158 C15.2969403,33.8571579 15.0040831,33.9403158 14.7548883,34.1908421 C14.5067584,34.4382105 14.3150701,34.8276842 14.1819532,35.3561053 C14.1063429,35.6550526 14.0722649,35.9171579 14.0775896,36.1445263 C14.0839792,36.3687368 14.1212519,36.5582105 14.1840831,36.7118947 C14.2554338,36.8708421 14.3512779,37.0003158 14.4780052,37.0982105 C14.6036675,37.1961053 14.7506286,37.2645263 14.9231481,37.3066316 C15.1734078,37.3687368 15.4119532,37.3561053 15.6419792,37.2697895 C15.8720052,37.1845263 16.1020312,37.0255789 16.3320571,36.7929474 L16.5269403,36.9866316 C16.4119273,37.1234737 16.2894597,37.2424211 16.1595377,37.3413684 C16.0306805,37.4392632 15.8901091,37.5161053 15.7388883,37.5729474 C15.5738234,37.6361053 15.3981091,37.6729474 15.2128104,37.6845263 C15.0285766,37.6982105 14.8209143,37.6761053 14.5887584,37.6182105" id="Fill-40" fill="#FFFFFF" mask="url(#mask-4)"></path>
          <path d="M20.4969117,35.2221053 L20.2871195,35.2147368 C20.2381325,35.0663158 20.1518727,34.9126316 20.0262104,34.7578947 C19.9005481,34.6021053 19.7738208,34.5084211 19.6460286,34.4768421 C19.5906519,34.4610526 19.5139766,34.4526316 19.4138727,34.4473684 C19.3180286,34.44 19.2360286,34.4347368 19.1721325,34.4326316 L18.6034571,34.4126316 L18.5502104,35.9094737 L18.9538208,35.9231579 C19.0549896,35.9263158 19.146574,35.9178947 19.2307039,35.8978947 C19.3148338,35.8768421 19.3915091,35.8336842 19.4617948,35.7694737 C19.5054571,35.7273684 19.5501844,35.6557895 19.5970416,35.5515789 C19.6449636,35.4484211 19.6758468,35.3568421 19.6918208,35.2789474 L19.901613,35.2863158 L19.8451714,36.9031579 L19.6353792,36.8957895 C19.6268597,36.8189474 19.6013013,36.7221053 19.5597688,36.6052632 C19.5193013,36.4873684 19.4798987,36.4063158 19.441561,36.3610526 C19.3829896,36.2936842 19.3127039,36.2463158 19.2307039,36.22 C19.1487039,36.1915789 19.0539247,36.1757895 18.9442364,36.1715789 L18.5416909,36.1578947 L18.5022883,37.2747368 C18.4980286,37.3915789 18.5033532,37.4831579 18.5171974,37.5536842 C18.5321065,37.6221053 18.5651195,37.6747368 18.6109117,37.7126316 C18.655639,37.7484211 18.7174052,37.7736842 18.7962104,37.7884211 C18.8771455,37.8010526 18.9857688,37.8105263 19.1242104,37.8157895 C19.1881065,37.8178947 19.2658468,37.82 19.3563662,37.8210526 C19.4468857,37.8221053 19.5256909,37.8189474 19.5938468,37.8126316 C19.6726519,37.8063158 19.7450675,37.7947368 19.8110935,37.7789474 C19.8803143,37.7631579 19.9324961,37.7389474 19.966574,37.7042105 C20.0581584,37.6189474 20.1625221,37.4863158 20.2786,37.3084211 C20.3957429,37.1294737 20.4734831,36.9936842 20.5118208,36.9042105 L20.7130935,36.9105263 L20.5959506,38.1147368 L16.9197948,37.9884211 L16.9272494,37.7757895 C16.9783662,37.7736842 17.0497169,37.7684211 17.1381065,37.76 C17.2264961,37.7526316 17.2893273,37.7421053 17.3266,37.7284211 C17.3979506,37.7021053 17.4469377,37.6673684 17.4714312,37.6242105 C17.4980545,37.5789474 17.5108338,37.5231579 17.5129636,37.4536842 L17.6098727,34.72 C17.6130675,34.6547368 17.6045481,34.6010526 17.5864442,34.5578947 C17.5672753,34.5136842 17.5193532,34.4736842 17.4437429,34.4357895 C17.3958208,34.4115789 17.3287299,34.3905263 17.2435351,34.3684211 C17.1572753,34.3484211 17.0933792,34.3336842 17.0497169,34.3263158 L17.0571714,34.1136842 L20.5309896,34.2336842 L20.4969117,35.2221053 Z" id="Fill-41" fill="#FFFFFF" mask="url(#mask-4)"></path>
          <path d="M25.3015792,37.1710526 L23.1163325,37.7826316 L23.0556312,37.5321053 C23.1067481,37.5121053 23.1887481,37.4773684 23.2984364,37.4278947 C23.4113195,37.3773684 23.4858649,37.3373684 23.5242026,37.3078947 C23.5721247,37.2710526 23.6040727,37.2215789 23.6221766,37.1594737 C23.6381506,37.0994737 23.6370857,37.0215789 23.6136571,36.9289474 L23.1046182,34.8268421 L22.435839,35.0152632 L22.3591636,34.6994737 L22.5050597,34.6594737 C22.6584104,34.6163158 22.7862026,34.5584211 22.8863065,34.4847368 C22.9896052,34.4121053 23.0705403,34.3352632 23.1301766,34.2542105 C23.1919429,34.17 23.2388,34.0889474 23.2696831,34.01 C23.3026961,33.93 23.3271896,33.8594737 23.3431636,33.8015789 L23.8096052,33.6710526 C23.8394234,33.8152632 23.8745662,33.9857895 23.9150338,34.1794737 C23.9565662,34.3731579 23.9949039,34.5457895 24.0332416,34.6984211 L24.5028779,36.6405263 C24.5220468,36.7205263 24.5518649,36.7868421 24.5933974,36.8394737 C24.6349299,36.8878947 24.6860468,36.9215789 24.7446182,36.9373684 C24.7957351,36.9510526 24.8798649,36.9542105 24.9927481,36.9457895 C25.1045662,36.9373684 25.1886961,36.93 25.239813,36.9194737 L25.3015792,37.1710526 Z" id="Fill-42" fill="#FFFFFF" mask="url(#mask-4)"></path>
          <path d="M27.757,35.2456842 C27.6984286,35.1330526 27.6249481,35.0498947 27.5376234,35.0014737 C27.4502987,34.9509474 27.3438052,34.9193684 27.2213377,34.9056842 C27.0999351,34.8930526 26.9508442,34.892 26.7761948,34.9025263 C26.6036753,34.9130526 26.4375455,34.9172632 26.2756753,34.9183158 C26.2543766,35.0088421 26.2554416,35.1288421 26.2799351,35.2751579 C26.3044286,35.4225263 26.3534156,35.5677895 26.4258312,35.7077895 C26.5482987,35.9467368 26.7027143,36.1035789 26.8890779,36.1804211 C27.0743766,36.2562105 27.2628701,36.2456842 27.4534935,36.1498947 C27.6441169,36.0551579 27.7655195,35.9246316 27.8166364,35.7583158 C27.8677532,35.5941053 27.8485844,35.4225263 27.757,35.2456842 M26.5972857,33.3225263 C26.5003766,33.1330526 26.378974,33.0035789 26.2341429,32.9309474 C26.0914416,32.8562105 25.9434156,32.8562105 25.7921948,32.9330526 C25.6494935,33.0046316 25.5568442,33.1151579 25.5142468,33.2604211 C25.4716494,33.4067368 25.4897532,33.5572632 25.5696234,33.7109474 C25.625,33.8183158 25.6920909,33.8983158 25.7708961,33.9509474 C25.8486364,34.0004211 25.9380909,34.0341053 26.0424545,34.0488421 C26.1372338,34.0646316 26.2618312,34.072 26.4173117,34.0688421 C26.575987,34.0646316 26.7154935,34.0625263 26.8400909,34.0614737 C26.8337013,33.9625263 26.8092078,33.8498947 26.7666104,33.7246316 C26.7261429,33.5962105 26.6697013,33.4614737 26.5972857,33.3225263 M28.4577273,34.5835789 C28.6121429,34.8814737 28.6057532,35.2014737 28.4396234,35.5404211 C28.2734935,35.8793684 27.9593377,36.1646316 27.495026,36.3993684 C27.0797013,36.6077895 26.6995195,36.6898947 26.3544805,36.6456842 C26.0073117,36.6014737 25.7655714,36.4435789 25.625,36.172 C25.5174416,35.9635789 25.4972078,35.7562105 25.5632338,35.5530526 C25.6313896,35.3477895 25.7953896,35.1362105 26.0552338,34.9183158 C25.7655714,34.9330526 25.5174416,34.8898947 25.312974,34.7898947 C25.1106364,34.6909474 24.9583506,34.5404211 24.8561169,34.3435789 C24.7176753,34.072 24.7293896,33.7783158 24.8955195,33.4646316 C25.0648442,33.1488421 25.3406623,32.8941053 25.7272338,32.6993684 C26.1020909,32.5098947 26.4471299,32.4393684 26.7612857,32.4846316 C27.0775714,32.5298947 27.298013,32.6730526 27.4226104,32.912 C27.5173896,33.0972632 27.5344286,33.2856842 27.4737273,33.4751579 C27.411961,33.6635789 27.2745844,33.8593684 27.0626623,34.0604211 C27.4343247,34.0130526 27.7335714,34.0372632 27.9561429,34.1298947 C28.1819091,34.2214737 28.3491039,34.3730526 28.4577273,34.5835789" id="Fill-43" fill="#FFFFFF" mask="url(#mask-4)"></path>
          <path d="M31.020387,32.9296842 C30.938387,32.8317895 30.8478675,32.7696842 30.7509584,32.7391579 C30.6540494,32.7107368 30.544361,32.7033684 30.4218935,32.7170526 C30.299426,32.7328421 30.1556597,32.7644211 29.9874,32.8138947 C29.8212701,32.8612632 29.6604649,32.9033684 29.5028545,32.9402105 C29.5028545,33.0338947 29.5316078,33.1486316 29.5880494,33.2865263 C29.6455558,33.4254737 29.725426,33.5549474 29.8287247,33.676 C30.003374,33.8812632 30.1886727,34.0002105 30.3867506,34.0328421 C30.5858935,34.0654737 30.7669325,34.0138947 30.9309325,33.8781053 C31.0938675,33.7412632 31.1822571,33.5886316 31.1950364,33.416 C31.2088805,33.2444211 31.1492442,33.0823158 31.020387,32.9296842 M29.4528026,31.3128421 C29.315426,31.1517895 29.1684649,31.0507368 29.0108545,31.0128421 C28.8532442,30.9728421 28.7094779,31.0054737 28.5806208,31.1128421 C28.4570883,31.2149474 28.3921273,31.3412632 28.3836078,31.4938947 C28.3761532,31.6454737 28.4272701,31.7875789 28.5401532,31.9202105 C28.6178935,32.0128421 28.7009584,32.0749474 28.790413,32.1086316 C28.8777377,32.1412632 28.9725169,32.1528421 29.0779455,32.1454737 C29.1737896,32.1391579 29.2973221,32.1181053 29.4474779,32.0802105 C29.6008286,32.0412632 29.7371403,32.0086316 29.856413,31.9802105 C29.8287247,31.8844211 29.7797377,31.7802105 29.7105169,31.6665263 C29.6402312,31.5507368 29.5550364,31.4328421 29.4528026,31.3128421 M31.5528545,32.1275789 C31.7701013,32.3844211 31.8371922,32.6970526 31.7519974,33.0644211 C31.6689325,33.4317895 31.4271922,33.7802105 31.0278416,34.1117895 C30.6710883,34.4075789 30.3185948,34.5728421 29.9724909,34.6054737 C29.6242571,34.6391579 29.3526987,34.5391579 29.1546208,34.3065263 C29.0012701,34.1265263 28.9352442,33.9296842 28.954413,33.7170526 C28.9725169,33.5012632 29.0854,33.2581053 29.2888026,32.9896842 C29.0087247,33.0675789 28.7574,33.0812632 28.5358935,33.0296842 C28.3154519,32.9770526 28.1333481,32.8644211 27.9885169,32.6949474 C27.7915039,32.4623158 27.7371922,32.1728421 27.8277117,31.8296842 C27.920361,31.4844211 28.1322831,31.1749474 28.4634779,30.8991579 C28.7850883,30.6317895 29.1045688,30.4865263 29.4219195,30.4602105 C29.7414,30.4338947 29.9884649,30.5244211 30.1631143,30.7296842 C30.298361,30.8896842 30.3579974,31.0675789 30.3409584,31.2675789 C30.3249844,31.4644211 30.2355299,31.6854737 30.0725948,31.9286316 C30.4261532,31.8002105 30.7222052,31.7570526 30.9618156,31.7981053 C31.201426,31.8370526 31.398439,31.9465263 31.5528545,32.1275789" id="Fill-44" fill="#FFFFFF" mask="url(#mask-4)"></path>
          <path d="M32.660387,29.9907368 L31.2610623,28.9096842 L31.7956597,31.0865263 L32.660387,29.9907368 Z M34.0565169,29.1612632 L33.6901792,29.6233684 L34.5155039,30.2623158 L33.9457636,30.9823158 L33.120439,30.3454737 L31.9937377,31.7696842 L31.5933221,31.4602105 L30.8350883,28.3865263 L31.3100494,27.7854737 L33.2311922,29.2686316 L33.5964649,28.8065263 L34.0565169,29.1612632 Z" id="Fill-45" fill="#FFFFFF" mask="url(#mask-4)"></path>
        </g>
      </g>
    </g>
  </g>
</svg>
