<?xml version="1.0" encoding="UTF-8"?>
<!-- Generator: Adobe Illustrator 22.1.0, SVG Export Plug-In . SVG Version: 6.00 Build 0)  -->
<svg xmlns="http://www.w3.org/2000/svg" xmlns:xlink="http://www.w3.org/1999/xlink" id="Layer_1" x="0px" y="0px" viewBox="0 0 151 67" style="enable-background:new 0 0 151 67;" xml:space="preserve">
<style type="text/css">
	.st0{fill:#808285;}
</style>
<title>accenture</title>
<desc>Created with Sketch.</desc>
<g id="Tr0tLg_2_">
	<g>
		<g>
			<path class="st0" d="M18,50.3c0,1.1,0,2.3,0,3.6c-0.4,0-0.8,0.1-1.3,0.1c0-1.3,0-2.6,0-3.9c-0.6-0.1-1.1-0.2-1.6-0.3     c-2.1-0.4-4.1-1.1-6-2.1c-5-2.7-7.6-6.9-8-12.5c-0.4-5.2,1.6-9.5,5.1-13.2c2.2-2.4,4.6-4.6,6.9-6.9c1.4-1.3,2.7-2.6,4.1-4     c0.2,0.2,0.4,0.3,0.6,0.5c3.3,3.2,6.6,6.4,9.9,9.6c2,2,3.6,4.2,4.7,6.9c3.2,7.9-0.3,16.7-8.1,20.1C22.4,49,20.3,49.5,18,50.3z      M16.6,46.6c0-0.7,0-1.2,0-1.8c0-0.5-0.2-0.9-0.5-1.3c-3.8-3.8-7.6-7.5-11.4-11.3c-0.1-0.1-0.4-0.2-0.6-0.3     C2.8,39.4,8.8,46.5,16.6,46.6z M18.1,46.6c7.1,0.2,14.1-8,12.2-14.4c-0.3,0.3-0.6,0.6-0.9,0.9c-3.4,3.4-6.9,6.9-10.4,10.2     C17.9,44.3,17.8,45.3,18.1,46.6z M5.6,27.6c-0.4,0.9-0.7,1.6-1.1,2.4c4,4,8,7.9,11.9,11.8c0.1,0,0.2-0.1,0.3-0.1     c0-0.6,0-1.2,0-1.9c0.1-0.9-0.3-1.5-0.9-2.1c-1.9-1.8-3.8-3.7-5.7-5.6C8.6,30.7,7.2,29.2,5.6,27.6z M18,42.4     c4.1-4.2,8-8.2,12-12.3c-0.2-0.5-0.6-1.3-0.9-2.1c-3.7,3.6-7.2,7.1-10.7,10.6c-0.2,0.2-0.4,0.7-0.4,1C17.9,40.4,18,41.2,18,42.4z      M26.6,24.7c-0.3,0.3-0.6,0.5-0.8,0.7c-2.2,2.2-4.4,4.6-6.8,6.6c-1.6,1.4-1,3-0.8,4.7c3.3-3.4,6.6-6.7,10-10.1     C27.7,26,27.2,25.4,26.6,24.7z M6.6,26.1c3.4,3.5,6.6,6.8,10,10.3c0-1.1,0-2,0-2.9c0-0.6-0.2-1-0.6-1.3c-1.1-1.1-2.2-2.2-3.3-3.3     c-1.5-1.5-3.1-3-4.7-4.6C7.5,25.1,6.9,25.7,6.6,26.1z M9.1,23.5c2.4,2.3,4.8,4.8,7.5,7.3c0-1.4,0-2.4,0-3.4     c0-0.3-0.1-0.6-0.3-0.8c-1.7-1.7-3.4-3.4-5.2-5.2C10.4,22.2,9.8,22.8,9.1,23.5z M18,31.2c2.6-2.7,5-5.1,7.5-7.7     c-0.6-0.5-1.2-1.1-1.9-1.8c-1.8,1.7-3.5,3.5-5.2,5.2c-0.2,0.2-0.3,0.6-0.3,0.9C17.9,28.9,18,29.9,18,31.2z M22.4,20.6     c-0.7-0.7-1.4-1.4-2.1-2.2c-0.7-0.7-1.4-1.4-2.3-2.2c0,3.1,0,6,0,9C19.6,23.6,21,22.2,22.4,20.6z M16.6,16.2     c-1.6,1.6-3,3-4.4,4.5c1.4,1.4,2.8,2.8,4.4,4.3C16.6,21.9,16.6,19.1,16.6,16.2z"></path>
			<path class="st0" d="M53.8,28.9c-2.6,2.8-5.1,5.4-7.6,8c1.3,1.7,2.7,3.6,4,5.4c1.4,1.8,2.7,3.6,4.2,5.7c-1.8,0-3.4,0-4.9,0     c-0.4,0-0.8-0.4-1-0.8c-1.6-2.1-3.1-4.2-4.6-6.4c-0.2-0.3-0.5-0.7-0.9-1.2c-0.4,0.6-0.7,1-1.1,1.4c-0.4,0.4-0.6,0.9-0.6,1.5     c0,1.8,0,3.5,0,5.4c-1.4,0-2.7,0-4.1,0c0-6.3,0-12.6,0-18.9c1.4,0,2.6,0,4,0c0,2.5,0,4.9,0,7.5c0.4-0.4,0.6-0.5,0.9-0.8     c1.9-2,3.9-4,5.8-6c0.5-0.6,1.1-0.8,1.9-0.8C51.1,28.9,52.4,28.9,53.8,28.9z"></path>
			<path class="st0" d="M130.2,46.5c-1.1,1-2.3,1.7-3.8,1.8c-0.8,0-1.7,0-2.5-0.3c-1.6-0.5-2.5-1.7-2.7-3.3     c-0.2-1.7,0.3-3.3,1.8-4.2c0.9-0.5,2-0.7,3.1-1c0.9-0.2,1.9-0.3,2.9-0.5c0.6-0.1,1.1-0.3,1.1-1c0-0.6-0.3-1.1-1-1.3     c-1.7-0.7-3-0.1-3.9,1.7c-1.1,0-2.3,0-3.5,0c0-2.4,1.2-4.1,3.4-4.6c1.8-0.5,3.7-0.5,5.5,0c2.3,0.6,3.3,1.9,3.3,4.3     c0,1.9,0,3.8,0,5.7c0,1.4-0.3,2.8,1,4.1c-1.6,0.2-3,0.1-4.4,0.1C130.5,47.5,130.3,47,130.2,46.5z M130.1,41.4     c-0.7,0.2-1.2,0.3-1.8,0.5c-0.6,0.1-1.2,0.2-1.7,0.4c-1.1,0.4-1.6,1.1-1.4,2.2c0.2,0.9,1.1,1.3,2.2,1.2     C129.5,45.2,130.3,43.9,130.1,41.4z"></path>
			<path class="st0" d="M92.7,33.9c1.4,0,2.6,0,3.9,0c0,0.5,0.1,0.9,0.1,1.4c0,2.4,0,4.7,0,7.1c0,1.9,0.7,2.7,2.2,2.7     c1.7,0,2.9-1,2.9-2.7c0.1-2.4,0-4.7,0-7.1c0-0.5,0-0.9,0-1.4c1.4,0,2.6,0,3.9,0c0,4.7,0,9.3,0,14c-1.2,0-2.4,0-3.6,0     c-0.1-0.5-0.1-0.9-0.2-1.5c-0.9,1.1-2,1.7-3.3,2c-3.3,0.5-5.6-1.2-5.9-4.5c0-0.4,0-0.8,0-1.3C92.7,39.7,92.7,36.9,92.7,33.9z"></path>
			<path class="st0" d="M86.1,47.9c0-0.5,0-1,0-1.4c0-2.4,0-4.7,0-7.1c0-1.8-0.7-2.6-2.2-2.6c-1.7-0.1-3,0.9-3,2.5     c-0.1,2.4-0.1,4.7-0.1,7.1c0,0.5,0,1,0,1.6c-1.4,0-2.6,0-3.9,0c0-4.6,0-9.3,0-14c1.2,0,2.3,0,3.6,0c0,0.5,0.1,1,0.2,1.7     c1.7-2.2,3.8-2.6,6.2-1.9c1.8,0.6,3,1.9,3.1,3.8c0.1,3.4,0,6.8,0,10.4C88.7,47.9,87.5,47.9,86.1,47.9z"></path>
			<path class="st0" d="M65.1,47.9c-1.3,0-2.5,0-3.7,0c-0.3-0.9-0.4-11-0.1-14c1.2,0,2.4,0,3.6,0c0.1,0.5,0.1,0.9,0.2,1.5     c0.2-0.1,0.3-0.2,0.4-0.3c1.6-2,4.6-2,6.5-1c1.2,0.6,1.9,1.6,2.2,2.9c0.1,0.5,0.2,0.9,0.2,1.4c0,2.9,0,5.7,0,8.6     c0,0.3-0.1,0.6-0.1,0.9c-1.3,0-2.5,0-3.8,0c0-0.5-0.1-0.9-0.1-1.4c0-2.4,0-4.8,0-7.2c0-1.7-0.5-2.4-1.8-2.6     c-1.7-0.2-2.8,0.5-3.2,1.9c-0.2,0.6-0.2,1.2-0.2,1.7C65.1,42.9,65.1,45.3,65.1,47.9z"></path>
			<path class="st0" d="M149.5,47.9c-1.3,0-2.5,0-3.8,0c0-0.5-0.1-0.9-0.1-1.3c0-2.1,0-4.2,0-6.3c0-0.4,0-0.8,0-1.1     c-0.1-1.6-0.7-2.3-2.1-2.4c-1.7-0.1-2.8,0.7-3.1,2.1c-0.1,0.6-0.2,1.3-0.2,1.9c0,1.9,0,3.9,0,5.8c0,0.4,0,0.8-0.1,1.3     c-1.3,0-2.5,0-3.8,0c0-4.7,0-9.2,0-14c1.2-0.3,2.4-0.1,3.6-0.1c0.1,0.6,0.1,1.1,0.2,1.7c1.2-1.5,2.6-2.2,4.4-2.1     c3,0.1,4.9,1.9,4.9,5c0,2.8,0,5.6,0,8.4C149.6,47.1,149.5,47.4,149.5,47.9z"></path>
			<path class="st0" d="M120.5,38.9c-1.3,0-2.6,0-3.8,0c-0.1-0.2-0.2-0.4-0.3-0.7c-0.4-1-1-1.5-2.1-1.5c-1.1,0-2,0.3-2.5,1.4     c-0.9,1.9-0.8,3.9,0,5.8c0.4,0.9,1.3,1.3,2.3,1.3c1,0,1.7-0.4,2.2-1.3c0.2-0.3,0.3-0.7,0.5-1.1c1.2,0,2.4,0,3.8,0     c-0.2,1.8-0.9,3.2-2.3,4.2c-2.4,1.7-5,1.8-7.6,0.6c-2.4-1.1-3.3-3.2-3.4-5.7c-0.1-1,0-2,0.2-3c0.8-4.2,4-6.3,8.2-5.4     c2.3,0.5,4,1.6,4.7,4C120.4,38,120.4,38.4,120.5,38.9z"></path>
			<path class="st0" d="M59.2,47.9c-1.3,0-2.4,0-3.6,0c-0.3-0.9-0.4-12.5-0.1-14.1c1.2,0,2.4,0,3.7,0C59.2,38.5,59.2,43.2,59.2,47.9     z"></path>
			<path class="st0" d="M59.2,28.7c0,1.2,0,2.3,0,3.4c-1.3,0-2.5,0-3.7,0c0-1.1,0-2.2,0-3.4C56.7,28.7,57.9,28.7,59.2,28.7z"></path>
		</g>
	</g>
</g>
</svg>
