<?xml version="1.0" encoding="UTF-8"?>
<svg xmlns="http://www.w3.org/2000/svg" xmlns:xlink="http://www.w3.org/1999/xlink" width="129px" height="69px" viewBox="0 0 129 69">
  <!-- Generator: Sketch 49 (51002) - http://www.bohemiancoding.com/sketch -->
  <title>l3</title>
  <desc>Created with Sketch.</desc>
  <defs>
    <polygon id="path-1" points="0 68.0693492 128.907248 68.0693492 128.907248 0.000318461538 0 0.000318461538"></polygon>
  </defs>
  <g id="Visual-Design" stroke="none" stroke-width="1" fill="none" fill-rule="evenodd">
    <g id="customers" transform="translate(-826.000000, -1916.000000)">
      <g id="select-clients" transform="translate(142.000000, 1720.000000)">
        <g id="l3" transform="translate(684.000000, 196.000000)">
          <path d="M8.03659339,64.6698785 C7.95450248,65.5721862 7.24446942,68.0689246 4.04612231,68.0689246 C0.763552066,68.0689246 0.00021322314,65.5721862 0.00021322314,63.7420938 C0.00021322314,60.9322015 1.24543636,58.9174015 4.1943124,58.9174015 C5.57386612,58.9174015 7.83722975,59.5426477 8.04725455,62.2485092 L5.72312231,62.2485092 C5.62610579,61.6848323 5.2604281,60.7782785 4.1943124,60.8504631 C2.74972562,60.8504631 2.36699008,62.2856631 2.36699008,63.3620631 C2.36699008,64.3089554 2.40110579,66.1953092 4.14740331,66.1953092 C5.30733719,66.1953092 5.70286612,65.0817554 5.70286612,64.6698785 L8.03659339,64.6698785 Z" id="Fill-1" fill="#90908F"></path>
          <path d="M18.0563752,63.5015492 C18.0563752,60.36258 15.9433339,58.9178262 13.5904165,58.9178262 C11.2470942,58.9178262 9.12659008,60.36258 9.12659008,63.5015492 C9.12659008,66.6341492 11.2470942,68.0693492 13.5904165,68.0693492 C15.9433339,68.0693492 18.0563752,66.6341492 18.0563752,63.5015492 M15.6970612,63.5015492 C15.6970612,64.6076723 15.3697636,66.1352262 13.5904165,66.1352262 C11.8206645,66.1352262 11.4933669,64.6076723 11.4933669,63.5015492 C11.4933669,62.3890569 11.8206645,60.8508877 13.5904165,60.8508877 C15.3697636,60.8508877 15.6970612,62.3890569 15.6970612,63.5015492" id="Fill-3" fill="#90908F"></path>
          <path d="M32.1470132,67.8399508 L29.8537983,67.8399508 L29.8537983,62.56092 C29.8537983,61.2722123 29.2802281,60.8507815 28.6117736,60.8507815 C27.4603686,60.8507815 27.0488479,61.5991662 27.0488479,62.6362892 L27.0488479,67.8399508 L24.7545669,67.8399508 L24.7545669,62.6193046 C24.7545669,61.8783508 24.7545669,60.8507815 23.3718149,60.8507815 C22.2929058,60.8507815 21.9517488,61.5991662 21.9517488,62.54712 L21.9517488,67.8399508 L19.6457405,67.8399508 L19.6457405,59.1470123 L21.8515339,59.1470123 L21.8515339,60.4282892 L21.8856496,60.4282892 C22.1724347,59.8571815 22.8131702,58.91772 24.3547736,58.91772 C25.621319,58.91772 26.1970215,59.37312 26.7833851,60.3072738 C27.0829636,59.8815969 27.7183686,58.91772 29.1149802,58.91772 C30.8218314,58.91772 32.1470132,59.9198123 32.1470132,61.8263354 L32.1470132,67.8399508 Z" id="Fill-5" fill="#90908F"></path>
          <path d="M46.7373397,67.8399508 L44.4398603,67.8399508 L44.4398603,62.56092 C44.4398603,61.2722123 43.8705545,60.8507815 43.2021,60.8507815 C42.0496289,60.8507815 41.6317116,61.5991662 41.6317116,62.6362892 L41.6317116,67.8399508 L39.3352983,67.8399508 L39.3352983,62.6193046 C39.3352983,61.8783508 39.3352983,60.8507815 37.958943,60.8507815 C36.8789678,60.8507815 36.531414,61.5991662 36.531414,62.54712 L36.531414,67.8399508 L34.2328686,67.8399508 L34.2328686,59.1470123 L36.4311992,59.1470123 L36.4311992,60.4282892 L36.4685132,60.4282892 C36.7680917,59.8571815 37.4024306,58.91772 38.9440339,58.91772 C40.2148438,58.91772 40.7873479,59.37312 41.3737116,60.3072738 C41.6668934,59.8815969 42.3150917,58.91772 43.708505,58.91772 C45.413224,58.91772 46.7373397,59.9198123 46.7373397,61.8263354 L46.7373397,67.8399508 Z" id="Fill-7" fill="#90908F"></path>
          <path d="M56.3917636,67.8399508 L54.1944992,67.8399508 L54.1944992,66.6170585 L54.1518545,66.6170585 C53.6347884,67.5480277 52.7147306,68.0692431 51.5036231,68.0692431 C49.779714,68.0692431 48.5376893,67.0936892 48.5376893,64.86552 L48.5376893,59.1470123 L50.8309041,59.1470123 L50.8309041,64.5428123 C50.8309041,65.8771662 51.6144992,66.1361815 52.3255983,66.1361815 C53.0804083,66.1361815 54.091086,65.7168738 54.091086,64.1638431 L54.091086,59.1470123 L56.3917636,59.1470123 L56.3917636,67.8399508 Z" id="Fill-9" fill="#90908F"></path>
          <path d="M66.4313752,67.8399508 L64.134962,67.8399508 L64.134962,62.56092 C64.134962,61.9282431 64.0997802,60.8507815 62.6445322,60.8507815 C61.6231934,60.8507815 60.8438628,61.5301662 60.8438628,62.8528431 L60.8438628,67.8399508 L58.5410529,67.8399508 L58.5410529,59.1470123 L60.7404496,59.1470123 L60.7404496,60.4282892 L60.7756314,60.4282892 C61.0826727,59.9060123 61.7383339,58.91772 63.3961438,58.91772 C65.1083256,58.91772 66.4313752,59.9198123 66.4313752,61.8263354 L66.4313752,67.8399508 Z" id="Fill-11" fill="#90908F"></path>
          <mask id="mask-2" fill="white">
            <use xlink:href="#path-1"></use>
          </mask>
          <g id="Clip-14"></g>
          <path d="M68.6354628,58.1312262 L70.9254793,58.1312262 L70.9254793,55.9975338 L68.6354628,55.9975338 L68.6354628,58.1312262 Z M68.6354628,67.8389954 L70.9254793,67.8389954 L70.9254793,59.1460569 L68.6354628,59.1460569 L68.6354628,67.8389954 Z" id="Fill-13" fill="#90908F" mask="url(#mask-2)"></path>
          <path d="M80.6428041,64.6698785 C80.5628455,65.5721862 79.8528124,68.0689246 76.6565975,68.0689246 C73.371895,68.0689246 72.616019,65.5721862 72.616019,63.7420938 C72.616019,60.9322015 73.8441843,58.9174015 76.8026554,58.9174015 C78.1768785,58.9174015 80.4466388,59.5426477 80.659862,62.2485092 L78.3314653,62.2485092 C78.2280521,61.6848323 77.8687711,60.7782785 76.8026554,60.8504631 C75.3516719,60.8504631 74.9827959,62.2856631 74.9827959,63.3620631 C74.9827959,64.3089554 75.0105149,66.1953092 76.7557463,66.1953092 C77.9210107,66.1953092 78.3112091,65.0817554 78.3112091,64.6698785 L80.6428041,64.6698785 Z" id="Fill-15" fill="#90908F" mask="url(#mask-2)"></path>
          <path d="M89.3216256,61.4333538 C89.3216256,59.2975385 87.0785182,58.9175077 85.8471545,58.9175077 C84.0582124,58.9175077 82.2053033,59.2975385 81.9398405,61.9662462 L84.1541628,61.9662462 C84.2223942,61.4556462 84.4196256,60.7497231 85.5678322,60.7497231 C86.164857,60.7497231 87.0785182,60.7985538 87.0785182,61.7677385 C87.0785182,62.2486154 86.6307496,62.3951077 86.2746669,62.4471231 L84.2085347,62.7570923 C82.7404934,62.9725846 81.6509231,63.8345538 81.6509231,65.5383231 C81.6509231,67.3376308 83.0048901,68.0690308 84.313014,68.0690308 C85.8748736,68.0690308 86.6275512,67.3450615 87.1371545,66.8121692 C87.1893942,67.2994154 87.2309727,67.4374154 87.3546421,67.8397385 L89.8344273,67.8397385 L89.8344273,67.4958 C89.5519066,67.3960154 89.3216256,67.1699077 89.3216256,66.1359692 L89.3216256,61.4333538 Z M87.0785182,64.722 C87.0785182,65.7792923 86.044386,66.4353231 85.0230471,66.4353231 C84.5859397,66.4353231 83.9537331,66.1943538 83.9537331,65.3939538 C83.9537331,64.4428154 84.6648322,64.2305077 85.5134603,64.0818923 C86.4676339,63.9375231 86.8450388,63.7942154 87.0785182,63.6084462 L87.0785182,64.722 Z" id="Fill-16" fill="#90908F" mask="url(#mask-2)"></path>
          <path d="M93.9567769,59.1465877 L95.3779091,59.1465877 L95.3779091,60.7781723 L93.9567769,60.7781723 L93.9567769,65.5105108 C93.9567769,66.0126185 93.9706364,66.2143108 94.9013554,66.2143108 C95.0495455,66.2143108 95.2190579,66.1952031 95.3779091,66.1803415 L95.3779091,67.9053415 C95.0250248,67.9148954 94.6572149,67.9424954 94.2979339,67.9424954 L93.9983554,67.9424954 C92.0185785,67.9424954 91.6560992,67.1898646 91.6560992,66.0572031 L91.6560992,60.7781723 L90.4727107,60.7781723 L90.4727107,59.1465877 L91.6560992,59.1465877 L91.6560992,56.7974031 L93.9567769,56.7974031 L93.9567769,59.1465877 Z" id="Fill-17" fill="#90908F" mask="url(#mask-2)"></path>
          <path d="M96.9056529,58.1312262 L99.1988678,58.1312262 L99.1988678,55.9975338 L96.9056529,55.9975338 L96.9056529,58.1312262 Z M96.9056529,67.8389954 L99.1988678,67.8389954 L99.1988678,59.1460569 L96.9056529,59.1460569 L96.9056529,67.8389954 Z" id="Fill-18" fill="#90908F" mask="url(#mask-2)"></path>
          <path d="M109.819406,63.5015492 C109.819406,60.36258 107.706364,58.9178262 105.353447,58.9178262 C103.006926,58.9178262 100.897083,60.36258 100.897083,63.5015492 C100.897083,66.6341492 103.006926,68.0693492 105.353447,68.0693492 C107.706364,68.0693492 109.819406,66.6341492 109.819406,63.5015492 M107.456893,63.5015492 C107.456893,64.6076723 107.129596,66.1352262 105.353447,66.1352262 C103.583695,66.1352262 103.256398,64.6076723 103.256398,63.5015492 C103.256398,62.3890569 103.583695,60.8508877 105.353447,60.8508877 C107.129596,60.8508877 107.456893,62.3890569 107.456893,63.5015492" id="Fill-19" fill="#90908F" mask="url(#mask-2)"></path>
          <path d="M119.321802,67.8399508 L117.018992,67.8399508 L117.018992,62.56092 C117.018992,61.9282431 116.993405,60.8507815 115.528562,60.8507815 C114.51362,60.8507815 113.727893,61.5301662 113.727893,62.8528431 L113.727893,67.8399508 L111.427215,67.8399508 L111.427215,59.1470123 L113.627678,59.1470123 L113.627678,60.4282892 L113.655397,60.4282892 C113.968835,59.9060123 114.62876,58.91772 116.28657,58.91772 C117.990223,58.91772 119.321802,59.9198123 119.321802,61.8263354 L119.321802,67.8399508 Z" id="Fill-20" fill="#90908F" mask="url(#mask-2)"></path>
          <path d="M126.399317,61.7983108 C126.300169,61.2420646 126.104003,60.6550338 124.85878,60.6550338 C123.606094,60.6550338 123.430185,61.1210492 123.430185,61.5074492 C123.430185,62.8768338 128.907888,61.8779262 128.907888,65.0816492 C128.907888,67.6134185 126.44516,68.0688185 125.082664,68.0688185 C123.098623,68.0688185 120.947202,67.3904954 120.876838,65.0678492 L123.243615,65.0678492 C123.243615,65.8024338 123.706309,66.3374492 125.144499,66.3374492 C126.332152,66.3374492 126.621069,65.7716492 126.621069,65.4393877 C126.621069,63.9882646 121.191342,65.0816492 121.191342,61.8259108 C121.191342,60.5510031 121.998392,58.9172954 124.720185,58.9172954 C126.430235,58.9172954 128.468648,59.3461569 128.647755,61.7983108 L126.399317,61.7983108 Z" id="Fill-21" fill="#90908F" mask="url(#mask-2)"></path>
          <path d="M63.7859157,0 C57.7122545,0 52.1268744,2.12944615 47.7547339,5.66649231 L54.5970645,5.66649231 L54.5970645,35.8311692 L71.6197339,35.8311692 C67.8627421,35.1432923 65.2390314,32.6433692 65.3147256,28.2475385 L71.2092793,28.2475385 C71.1751636,29.2092923 71.4480893,29.9884615 71.9534281,30.5245385 C72.4651636,31.0563692 73.2540893,31.3620923 74.2167917,31.3620923 C76.0451802,31.3620923 77.0068165,30.1328308 77.0068165,28.9099385 C77.0068165,26.4853846 74.6005934,26.5639385 73.0984364,26.5639385 L73.0984364,22.8888923 C74.5718083,23.0109692 76.8234446,22.7137385 76.8234446,20.7360923 C76.8234446,19.3592769 75.5888826,18.8518615 74.3617835,18.8518615 C72.8884116,18.8518615 71.8031058,19.6002462 71.6261306,21.0906462 L65.9778496,21.0906462 C66.1868083,16.2447231 70.1218413,14.1832154 74.5451554,14.1832154 C79.5527008,14.1832154 82.6849488,16.491 82.6849488,20.0800615 C82.6849488,21.9929538 81.9290727,23.4048 80.2147587,24.2359846 C82.1401636,24.9886154 83.2649157,26.5639385 83.2649157,28.6328769 C83.2649157,33.5435538 79.5527008,36.0286154 73.8862959,36.0286154 C73.6922628,36.0286154 73.509957,36.0233077 73.3233868,36.0233077 L73.3233868,45.0113538 L47.7270149,45.0113538 C52.1247421,48.5685692 57.7058579,50.6948308 63.7859157,50.6948308 C77.8426512,50.6948308 89.2447587,39.3469846 89.2447587,25.3484769 C89.2447587,11.3499692 77.8426512,0 63.7859157,0 Z M42.6043289,11.3096308 C39.914519,15.3264923 38.3377339,20.1533077 38.3377339,25.3484769 C38.3377339,30.5478923 39.914519,35.3672769 42.6043289,39.3915692 L42.6043289,11.3096308 Z" id="Fill-22" fill="#90908F" mask="url(#mask-2)"></path>
        </g>
      </g>
    </g>
  </g>
</svg>
