<?xml version="1.0" encoding="UTF-8"?>
<svg xmlns="http://www.w3.org/2000/svg" xmlns:xlink="http://www.w3.org/1999/xlink" width="165px" height="23px" viewBox="0 0 165 23">
  <!-- Generator: Sketch 49 (51002) - http://www.bohemiancoding.com/sketch -->
  <title>mckesson</title>
  <desc>Created with Sketch.</desc>
  <defs>
    <polygon id="path-1" points="0.0514080579 0.900758579 19.2615243 0.900758579 19.2615243 21.8620483 0.0514080579 21.8620483"></polygon>
    <polygon id="path-3" points="0 23.2325041 164.012992 23.2325041 164.012992 1.06424259 0 1.06424259"></polygon>
  </defs>
  <g id="Visual-Design" stroke="none" stroke-width="1" fill="none" fill-rule="evenodd">
    <g id="customers" transform="translate(-606.000000, -1942.000000)">
      <g id="select-clients" transform="translate(142.000000, 1720.000000)">
        <g id="mckesson" transform="translate(464.000000, 221.000000)">
          <path d="M0.000532174512,1.78193314 L0.000532174512,22.7442872 L4.57936168,22.7442872 L4.57936168,8.75980534 C4.57936168,8.12545332 4.52188683,6.64494383 4.35371968,4.28847509 C4.60703475,5.76898458 4.94549774,6.99192161 5.17220408,7.97325141 L8.58663575,22.7442872 L13.280415,22.7442872 L16.7810589,7.73164418 C17.0237305,6.68432474 17.372837,5.55717913 17.6282807,4.28847509 C17.4867223,5.79878635 17.4026387,7.25055842 17.4026387,8.66933567 L17.4026387,22.7442872 L22.3199312,22.7442872 L22.3199312,1.78193314 L14.4629067,1.78193314 L11.7807472,14.2571681 C11.6040652,15.0841672 11.3305275,16.3411634 11.1889691,18.0920176 C11.1048855,16.5519045 10.9164958,15.3098092 10.6514729,14.3774395 L7.0614236,1.78193314 L0.000532174512,1.78193314 Z" id="Fill-1" fill="#90908F"></path>
          <path d="M38.0634627,1.85260591 C36.5446366,1.32681749 35.142889,1.06498763 33.8582197,1.06498763 C28.4566484,1.06498763 25.244443,4.13137717 25.244443,9.00716005 C25.244443,13.7083897 28.5726624,16.896115 33.4495097,16.896115 C35.2897691,16.896115 36.8948075,16.6619582 38.2092785,16.1904516 L38.0922001,12.2481028 C37.1289642,12.8313661 36.1061248,13.1240621 34.9683357,13.1240621 C32.252117,13.1240621 30.5587377,11.4594202 30.5587377,8.97735828 C30.5587377,6.43782151 32.1648404,4.80191706 34.7341789,4.80191706 C35.6974148,4.80191706 36.6904524,5.06481127 37.7122275,5.61933711 L38.0634627,1.85260591 Z" id="Fill-3" fill="#90908F"></path>
          <polygon id="Fill-5" fill="#90908F" points="41.9363095 1.78193314 41.9363095 22.7432228 47.5241419 22.7432228 47.5241419 13.0182658 54.1092693 22.7432228 61.0562754 22.7432228 52.5691562 11.4174849 60.2718501 1.78193314 54.0187996 1.78193314 47.5241419 10.8438007 47.5241419 1.78193314"></polygon>
          <polygon id="Fill-7" fill="#90908F" points="63.1016349 1.78193314 63.1016349 22.7432228 77.9929421 22.7432228 77.9929421 18.6965678 68.6894672 18.6965678 68.6894672 13.9240268 77.1467846 13.9240268 77.1467846 9.93697536 68.6894672 9.93697536 68.6894672 5.70831669 77.6608652 5.70831669 77.6608652 1.78193314"></polygon>
          <path d="M97.3540894,2.02417897 C95.5425674,1.5100984 93.6395113,1.26849117 91.6151195,1.26849117 C85.9368175,1.26849117 82.8863931,3.65476168 82.8863931,7.82275246 C82.8863931,10.9338447 84.6681134,12.5952935 88.4444238,13.9544672 C91.0116336,14.8910943 92.6422163,15.1625033 92.6422163,16.7334825 C92.6422163,18.122458 91.3139087,19.0292833 89.0787758,19.0292833 C87.5077966,19.0292833 85.6345423,18.6056724 83.5814131,17.6690453 L83.0971343,22.352181 C85.2726637,22.9609886 87.3875252,23.2323976 89.4108527,23.2323976 C95.3009602,23.2323976 98.3811862,20.6907322 98.3811862,16.1289322 C98.3811862,14.1662726 97.7170325,12.746431 96.236523,11.5979984 C94.8773493,10.5709016 92.9146897,10.0280836 90.5284191,9.24259406 C89.228849,8.8200475 88.5955613,8.1558937 88.5955613,7.27887011 C88.5955613,6.04103219 89.8642654,5.25554261 92.1888036,5.25554261 C93.6693131,5.25554261 95.2402923,5.61848563 96.9326072,6.34330732 L97.3540894,2.02417897 Z" id="Fill-9" fill="#90908F"></path>
          <path d="M116.319086,2.02417897 C114.507564,1.5100984 112.604508,1.26849117 110.580116,1.26849117 C104.901814,1.26849117 101.850325,3.65476168 101.850325,7.82275246 C101.850325,10.9338447 103.63311,12.5952935 107.40942,13.9544672 C109.975566,14.8910943 111.607213,15.1625033 111.607213,16.7334825 C111.607213,18.122458 110.277841,19.0292833 108.043772,19.0292833 C106.472793,19.0292833 104.599539,18.6056724 102.54641,17.6690453 L102.062131,22.352181 C104.236596,22.9609886 106.351457,23.2323976 108.374785,23.2323976 C114.264892,23.2323976 117.346183,20.6907322 117.346183,16.1289322 C117.346183,14.1662726 116.682029,12.746431 115.20152,11.5979984 C113.842346,10.5709016 111.878622,10.0280836 109.493416,9.24259406 C108.193846,8.8200475 107.560558,8.1558937 107.560558,7.27887011 C107.560558,6.04103219 108.828198,5.25554261 111.1538,5.25554261 C112.63431,5.25554261 114.205289,5.61848563 115.89654,6.34330732 L116.319086,2.02417897 Z" id="Fill-11" fill="#90908F"></path>
          <path d="M131.120243,5.34611871 C133.898194,5.34611871 135.89172,7.91332856 135.89172,12.2015908 C135.89172,16.5217835 133.92906,19.0889933 131.120243,19.0889933 C128.310362,19.0889933 126.316836,16.5217835 126.316836,12.2015908 C126.316836,7.88352679 128.341228,5.34611871 131.120243,5.34611871 M131.120243,1.2685976 C124.625585,1.2685976 120.699202,5.34611871 120.699202,12.263323 C120.699202,19.179463 124.595783,23.2325041 131.120243,23.2325041 C137.614901,23.2325041 141.510418,19.179463 141.510418,12.263323 C141.510418,5.34611871 137.614901,1.2685976 131.120243,1.2685976" id="Fill-13" fill="#90908F"></path>
          <g id="Group-17" transform="translate(144.751467, 0.881175)">
            <mask id="mask-2" fill="white">
              <use xlink:href="#path-1"></use>
            </mask>
            <g id="Clip-16"></g>
            <path d="M0.0514080579,0.900758579 L0.0514080579,21.8620483 L5.09535808,21.8620483 L5.09535808,10.8087836 C5.09535808,9.26760626 4.91441875,7.18254652 4.52167396,4.5855349 C4.91441875,6.18631583 5.39763321,7.60615743 6.00218345,8.8450597 L12.3137732,21.8620483 L19.2618436,21.8620483 L19.2618436,0.900758579 L14.2178936,0.900758579 L14.2178936,12.7714432 C14.2178936,14.2508884 14.3977686,16.0028069 14.7309098,17.9963326 C14.066756,15.8229319 13.5228737,14.3115563 13.1003271,13.4664632 L7.02928026,0.900758579 L0.0514080579,0.900758579 Z" id="Fill-15" fill="#90908F" mask="url(#mask-2)"></path>
          </g>
          <mask id="mask-4" fill="white">
            <use xlink:href="#path-3"></use>
          </mask>
          <g id="Clip-19"></g>
          <polygon id="Fill-18" fill="#90908F" mask="url(#mask-4)" points="26.6140474 22.9249072 38.0440915 22.9249072 38.0440915 19.1773343 26.6140474 19.1773343"></polygon>
        </g>
      </g>
    </g>
  </g>
</svg>
