<?xml version="1.0" encoding="UTF-8"?>
<!-- Generator: Adobe Illustrator 22.1.0, SVG Export Plug-In . SVG Version: 6.00 Build 0)  -->
<svg xmlns="http://www.w3.org/2000/svg" xmlns:xlink="http://www.w3.org/1999/xlink" id="Layer_1" x="0px" y="0px" viewBox="0 0 151 67" style="enable-background:new 0 0 151 67;" xml:space="preserve">
<style type="text/css">
	.st0{fill:#808285;}
</style>
<title>accenture</title>
<desc>Created with Sketch.</desc>
<g id="_x35_pmVEv_2_">
	<g>
		<g>
			<path class="st0" d="M2.2,17.6c0.1,0,0.3,0,0.4,0c3.1,0,6.2,0,9.3,0c1.4,0,2.7,0.3,3.9,0.9c1.7,0.9,2.5,2.3,2.6,4.1     c0.1,1.3-0.2,2.6-1.1,3.6c-0.6,0.8-1.4,1.3-2.3,1.6c-0.2,0.1-0.3,0.1-0.5,0.2c0.1,0.1,0.1,0.1,0.1,0.1c2,0.5,2.8,1.3,3.1,3.4     c0.2,1.4,0.4,2.8,0.6,4.2c0.1,0.9,0.4,1.8,0.9,2.7c-1.7,0-3.4,0-5.1,0c-0.1-0.8-0.3-1.6-0.4-2.4c-0.2-1.3-0.3-2.6-0.5-3.9     c0-0.3-0.1-0.6-0.2-0.9c-0.2-0.7-0.7-1.2-1.7-1.2c-1.3,0-2.6,0-3.8,0c-0.2,0-0.4,0-0.6,0c0,2.8,0,5.5,0,8.4c-0.8,0-1.6,0-2.3,0     c-0.8,0-1.5,0-2.3,0C2.2,31.6,2.2,24.6,2.2,17.6z M6.8,26.5c0.1,0,0.1,0.1,0.2,0.1c1.3,0,2.6,0,3.9,0c0.8,0,1.5-0.3,2-0.9     c0.6-0.7,0.7-1.6,0.6-2.5c-0.2-0.9-0.7-1.6-1.6-1.8c-0.4-0.1-0.9-0.2-1.4-0.2c-1.1,0-2.2,0-3.3,0c-0.2,0-0.3,0-0.5,0.1     C6.8,23,6.8,24.7,6.8,26.5z"></path>
			<path class="st0" d="M144.8,14.4c0.3,0.1,0.5,0.2,0.8,0.3c0.8,0.5,1.2,1.3,1.2,2.2c0,0.8,0,1.7,0,2.5c0,0.3-0.1,0.4-0.4,0.5     c-2.3,0.3-4.5,0.9-6.6,1.9c-2.8,1.3-5.5,2.9-7.9,5c-0.1,0.1-0.1,0.1-0.2,0.2c-0.1-0.1-0.2-0.2-0.2-0.3c-1.1-2.4-2.2-4.8-2.9-7.3     c-0.4-1.5-0.8-3-1.1-4.5c0-0.2-0.1-0.3-0.1-0.5C133.2,14.4,139,14.4,144.8,14.4z M134,21.9c1.6,0,2.9-1.3,2.9-2.9     c0-1.6-1.3-2.9-2.9-2.9c-1.4,0-3,1.1-3,2.9C131.1,20.9,132.6,22,134,21.9z"></path>
			<path class="st0" d="M125,14.4c0.1,0.9,0.1,1.7,0.2,2.6c0.3,3.2,1.1,6.3,2,9.4c0.4,1.3,0.8,2.5,1.2,3.8c0.1,0.4,0.1,0.7-0.2,1     c-2,2.9-3.8,5.9-4.9,9.3c-0.4,1.1-0.6,2.3-0.9,3.5c0,0.2-0.1,0.3-0.1,0.5c-0.4-0.4-0.5-0.9-0.6-1.3c0-0.1,0-0.3,0-0.4     c0-8.5,0-17,0-25.5c0-0.9,0.3-1.7,1-2.2c0.3-0.2,0.6-0.3,0.9-0.5C124.1,14.4,124.6,14.4,125,14.4z"></path>
			<path class="st0" d="M2.2,41c1.1,0,2.1,0,3.2,0c0.1,0,0.3,0,0.4,0C5.9,41,6,41.2,6,41.2c0,0.1-0.1,0.2-0.2,0.2     c-0.3,0-0.5,0-0.8,0c-0.6,0-0.6,0-0.6,0.6c0,0.9,0,1.8,0,2.7c0,0.2,0,0.4,0,0.7c-0.2,0-0.4,0-0.6,0c0-1.3,0-2.6,0-4     c-0.6,0-1.1,0-1.6,0C2.2,41.3,2.2,41.2,2.2,41z"></path>
			<path class="st0" d="M63.7,31.9c1.6,0,3.1,0,4.6,0c0,0.2,0,0.4,0,0.6c0.1,1.7,1,2.8,2.7,3.1c1.2,0.2,2.4,0,3.6-0.5     C75.5,34.7,76,34,76,33c0-1-0.4-1.6-1.3-2.1c-0.8-0.4-1.7-0.6-2.6-0.8c-1.6-0.4-3.3-0.8-4.8-1.6c-0.8-0.4-1.5-0.9-2.1-1.6     c-0.6-0.7-0.9-1.6-1-2.6c-0.1-3.1,1.6-5.3,4.4-6.4c2.3-0.9,4.6-1.1,7-0.4c2.5,0.7,4.2,2.5,4.6,5.1c0,0.3,0,0.6,0,1     c-1.5,0-2.9,0-4.4,0c0-0.2-0.1-0.4-0.1-0.6c-0.3-1.4-1-2.2-2.4-2.4c-1-0.2-2.1-0.1-3,0.4c-0.9,0.5-1.3,1.2-1.3,2.2     c0,1,0.5,1.7,1.4,2.1c0.7,0.3,1.4,0.5,2.2,0.7c1.4,0.4,2.8,0.8,4.2,1.2c1,0.3,2,0.9,2.8,1.7c0.8,0.8,1.2,1.8,1.2,2.9     c0,1.6-0.3,3.1-1.3,4.3c-0.9,1.1-2,1.8-3.3,2.2c-1.1,0.4-2.3,0.6-3.5,0.6c-1.6,0.1-3.1,0-4.6-0.4c-1.5-0.4-2.8-1.3-3.6-2.7     C63.9,34.7,63.7,33.3,63.7,31.9z"></path>
			<path class="st0" d="M58.9,36.6c-0.8,1.3-1.9,2.1-3.3,2.3c-2.8,0.5-5.3-0.8-6.5-3.4c-1.2-2.6-1.3-5.3-0.1-8     c0.9-2,2.4-3.3,4.5-3.8c2.1-0.5,3.8,0,5.2,1.6c0,0.1,0.1,0.1,0.2,0.2c0-2.7,0-5.3,0-7.9c0.5-0.2,3.7-0.2,4.4,0c0,0.2,0,0.5,0,0.7     c0,5,0,10,0,15.1c0,1.7,0.1,3.4,0.1,5.1c-1.4,0-2.9,0-4.4,0C59,37.9,58.9,37.3,58.9,36.6z M52.6,31.2c0,0,0.1,0,0.1,0     c0,0.4,0,0.8,0,1.2c0.1,0.7,0.2,1.5,0.5,2.1c0.7,1.5,2.7,1.9,4,1c0.5-0.4,0.8-0.9,1.1-1.5c0.6-1.4,0.7-2.8,0.4-4.2     c-0.1-0.8-0.4-1.6-0.9-2.3c-0.3-0.5-0.8-0.8-1.3-0.9c-1.6-0.5-3.1,0.4-3.5,2.1C52.8,29.5,52.7,30.4,52.6,31.2z"></path>
			<path class="st0" d="M146,44.6c-4.8-4.1-8.7-8.7-12.2-13.8c1.8-3.3,9.7-9,13-9.3c0,0.2,0,0.5,0,0.7c0,4.6,0,9.1,0,13.7     c0,2.2,0,4.4,0,6.7C146.8,43.4,146.6,44,146,44.6z"></path>
			<path class="st0" d="M117.4,32.5c-3.2,0-6.3,0-9.5,0c0,1.1,0,2.1,0.7,3c0.6,0.6,1.4,0.7,2.2,0.6c1-0.1,1.7-0.6,2.1-1.6     c0-0.1,0-0.1,0.1-0.2c0,0,0-0.1,0.1-0.1c1.3,0,2.6,0,3.9,0c0,0.2,0,0.4,0,0.5c-0.4,1.9-1.5,3.2-3.4,3.8c-1.3,0.4-2.7,0.6-4,0.4     c-0.6-0.1-1.2-0.1-1.8-0.3c-1.9-0.5-3.2-1.6-3.8-3.5c-0.9-2.4-0.9-4.9,0-7.4c1-2.6,2.8-4,5.6-4.3c1-0.1,2,0,3,0.2     c2.3,0.5,3.7,2,4.4,4.2C117.4,29.4,117.4,30.9,117.4,32.5z M107.9,29.4c1.6,0,3.2,0,4.9,0c0.2-1.6-0.6-2.8-2.1-2.9     C109,26.4,107.9,27.2,107.9,29.4z"></path>
			<path class="st0" d="M42.7,29.1c0-0.6,0.1-1.1,0-1.6c-0.2-1-0.9-1.4-1.9-1.4c-0.9,0-1.6,0.6-1.8,1.5c0,0.2,0,0.3-0.1,0.5     c-0.4,0.1-3.4,0.2-4.2,0c-0.1-0.4,0-0.7,0.1-1.1c0.2-1.1,0.9-2,1.9-2.6c0.7-0.4,1.5-0.7,2.3-0.8c1.5-0.2,2.9-0.2,4.4,0.1     c2.6,0.7,3.8,2.5,3.9,5c0,1.7,0,3.4,0,5.1c0,1.6-0.1,3.1,0.2,4.7c-0.4,0.1-3.2,0.2-4,0c-0.1-0.5-0.1-1.1-0.2-1.7     c-0.1,0.2-0.3,0.3-0.4,0.4c-0.8,1-1.9,1.6-3.2,1.7c-0.9,0.1-1.7,0.1-2.6-0.2c-1.9-0.5-3.1-1.9-3.2-3.9c-0.1-2.3,1.2-4.3,3.4-5.1     c1.4-0.5,2.9-0.7,4.4-0.7C42,29.1,42.3,29.1,42.7,29.1z M42.7,31.8c-0.6,0-1.1-0.1-1.6,0c-0.6,0.1-1.2,0.2-1.8,0.5     c-0.8,0.3-1.2,1.1-1.1,2c0.1,0.8,0.7,1.5,1.5,1.7c1.2,0.3,2.2-0.2,2.7-1.3C42.7,33.7,42.8,32.8,42.7,31.8z"></path>
			<path class="st0" d="M94.3,27c0.3,1.1,0.3,2.3,0.3,3.5c0,1.5,0,3,0,4.6c0,1.2,0.1,2.4,0.1,3.6c-1.2,0-2.5,0-3.9,0     c-0.1-0.6-0.1-1.1-0.2-1.8c-0.1,0.2-0.2,0.3-0.3,0.4c-0.8,1-1.9,1.6-3.2,1.7c-0.9,0.1-1.7,0.1-2.6-0.2c-1.9-0.5-3-1.9-3.1-3.9     c-0.1-2.4,1.2-4.3,3.4-5.2c1.4-0.5,2.9-0.7,4.4-0.7c0.3,0,0.6,0,0.9,0c0-0.6,0.1-1.1,0-1.6c-0.2-0.9-0.8-1.4-1.9-1.4     c-0.9,0-1.7,0.6-1.9,1.5c0,0.2-0.1,0.3-0.1,0.6c-1.4,0-2.8,0-4.2,0c0-1,0.2-1.9,0.9-2.7c0.6-0.8,1.4-1.2,2.3-1.5     c1.8-0.5,3.7-0.6,5.5-0.1c1.7,0.4,2.9,1.4,3.5,3C94.3,26.9,94.3,26.9,94.3,27L94.3,27z M90.1,31.7c-0.7,0-1.3,0-2,0.1     c-0.5,0.1-1,0.2-1.5,0.4c-1.2,0.6-1.5,2.2-0.5,3.2c1.1,1.1,2.9,0.7,3.5-0.8C90.1,33.8,90.1,32.8,90.1,31.7z"></path>
			<path class="st0" d="M18.5,31.6c0.1-2,0.4-3.7,1.4-5.1c1.2-1.7,2.9-2.5,4.9-2.8c1.2-0.2,2.4-0.1,3.6,0.2c2.8,0.7,4.5,2.5,5.2,5.3     c0.4,1.8,0.4,3.6-0.3,5.4c-1,2.7-3.1,4.1-6,4.5c-1.1,0.1-2.3,0.1-3.4-0.2c-2.8-0.7-4.6-2.5-5.2-5.4C18.6,32.7,18.5,32,18.5,31.6z      M23.1,31.3c0,0.1,0,0.3,0,0.4c0.1,0.9,0.1,1.8,0.5,2.6c0.3,0.7,0.7,1.2,1.3,1.5c1.2,0.5,3.2,0.4,3.9-1.6     c0.1-0.2,0.2-0.4,0.2-0.6c0.3-1.5,0.3-3.1,0-4.6c-0.2-0.7-0.4-1.5-1.1-1.9c-1.6-1.2-3.9-0.5-4.5,1.5     C23.2,29.4,23.1,30.4,23.1,31.3z"></path>
			<path class="st0" d="M94.3,27c0-1,0-2,0-3c0.7,0,1.4,0,2.1,0c0-0.7,0-1.3,0-1.9c0.1-0.7,0.1-1.4,0.3-2.1c0.4-1.6,1.5-2.5,3-2.8     c1.3-0.2,2.5-0.2,3.8,0c0.1,0,0.2,0.1,0.3,0.1c0,0.9,0,1.8,0,2.7c-0.1,0-0.2,0-0.3,0c-0.4,0-0.8,0-1.2,0.1     c-0.7,0.1-1.1,0.5-1.3,1.1c-0.2,0.8-0.1,1.7-0.1,2.6c0.9,0,1.7,0,2.6,0c0,1,0,2,0,3c-0.8,0-1.7,0-2.6,0c0,3.9,0,7.7,0,11.6     c-1.5,0.1-2.9,0-4.4,0c0-3.9,0-7.7,0-11.6c-0.4,0-0.8,0-1.1,0C95,26.9,94.7,27,94.3,27L94.3,27z"></path>
			<path class="st0" d="M127.9,45.3c0.4-3.4,1.5-6.4,3-9.4c1.9,3.3,3.8,6.5,6.3,9.4C134,45.3,131,45.3,127.9,45.3z"></path>
			<path class="st0" d="M52.7,41.7c0,1.2,0,2.5,0,3.8c-0.2,0-0.4,0-0.6,0c0-1.5,0-3,0-4.5c0.3,0,0.6-0.1,0.9,0     c0.1,0,0.3,0.2,0.3,0.4c0.3,0.9,0.6,1.8,1,2.6c0.1,0.2,0.1,0.4,0.3,0.7c0.2-0.6,0.4-1.1,0.6-1.6c0.2-0.5,0.3-0.9,0.5-1.4     C55.9,41,56,41,56.7,41c0.1,0,0.2,0,0.2,0c0.1,0.4,0.2,3.3,0.1,4.5c-0.2,0-0.3,0-0.5,0c0-0.7,0-1.3,0-2c0-0.6,0-1.2,0-1.8     c0,0-0.1,0-0.1,0c-0.1,0.2-0.2,0.4-0.3,0.6c-0.3,0.9-0.7,1.9-1,2.8c-0.1,0.2-0.1,0.4-0.4,0.4c-0.3,0-0.4-0.2-0.4-0.4     c-0.4-1.1-0.8-2.1-1.2-3.2c0-0.1-0.1-0.2-0.1-0.3C52.8,41.7,52.7,41.7,52.7,41.7z"></path>
			<path class="st0" d="M10,45.5c-0.7,0.1-0.7,0.1-0.8-0.4c-0.1-0.3-0.1-0.6-0.1-0.8c-0.1-0.5-0.3-0.7-0.8-0.7c-0.3,0-0.6,0-1,0     c0,0.7,0,1.3,0,2c-0.3,0-0.4,0-0.7,0c0-1.5,0-2.9,0-4.5c0.8,0,1.5,0,2.2,0c0.4,0,0.8,0.3,0.9,0.7c0.1,0.5,0.1,0.9-0.4,1.2     c-0.1,0.1-0.2,0.1-0.3,0.2C10,43.8,9.7,44.7,10,45.5z M7.4,41.6c0,0.4,0,0.9,0,1.4c0.5,0,0.9,0,1.4-0.1c0.3-0.1,0.5-0.3,0.5-0.6     c0-0.3-0.2-0.5-0.5-0.6C8.3,41.5,7.9,41.4,7.4,41.6z"></path>
			<path class="st0" d="M34.2,42c-0.3,0.1-0.5,0.1-0.8-0.2c-0.3-0.5-1.3-0.5-1.7-0.1c-0.3,0.3-0.3,0.8,0.2,1     c0.3,0.1,0.6,0.2,0.9,0.3c0.3,0.1,0.6,0.2,0.9,0.3c1,0.3,0.8,1.6,0.3,2c-0.6,0.5-1.9,0.5-2.5,0.2c-0.4-0.2-0.6-0.6-0.6-1     c0.5-0.2,0.5-0.2,0.7,0.2c0.4,0.6,1.3,0.7,1.9,0.3c0.4-0.3,0.3-0.9-0.1-1.1c-0.2-0.1-0.5-0.2-0.7-0.2c-0.4-0.1-0.7-0.2-1.1-0.3     c-0.4-0.2-0.7-0.5-0.6-1c0-0.5,0.2-0.8,0.6-1c0.6-0.3,1.3-0.4,1.9-0.1C33.9,41.2,34.2,41.4,34.2,42z"></path>
			<path class="st0" d="M58.1,44.3c0.3-0.1,0.5-0.1,0.7,0.3c0.3,0.6,1.5,0.7,1.9,0.2c0.3-0.3,0.2-0.8-0.2-1     c-0.2-0.1-0.5-0.2-0.7-0.2c-0.4-0.1-0.7-0.2-1.1-0.3c-0.4-0.2-0.7-0.5-0.6-1c0-0.5,0.2-0.8,0.6-1c0.6-0.3,1.3-0.4,2-0.1     c0.5,0.2,0.7,0.5,0.7,1c-0.2,0-0.3,0-0.5,0c-0.4-0.6-0.9-0.8-1.5-0.6c-0.3,0.1-0.6,0.3-0.6,0.6c0,0.3,0.1,0.5,0.5,0.6     c0.4,0.1,0.9,0.2,1.3,0.4c0.7,0.2,1,0.6,0.9,1.3c0,0.4-0.3,0.7-0.6,0.9c-0.7,0.4-1.4,0.4-2.1,0.1C58.3,45.3,58.1,44.9,58.1,44.3z     "></path>
			<path class="st0" d="M39.5,44.3c0.2,0,0.4,0,0.5,0c0.5,0.8,1.1,1.1,1.8,0.7c0.3-0.2,0.5-0.4,0.5-0.7c0-0.3-0.2-0.5-0.5-0.6     c-0.3-0.1-0.7-0.2-1-0.2c-0.2-0.1-0.5-0.2-0.7-0.3c-0.4-0.2-0.6-0.5-0.6-0.9c0-0.5,0.1-0.8,0.5-1.1c0.7-0.4,1.4-0.4,2.1-0.1     c0.4,0.2,0.7,0.5,0.7,1c-0.3,0.1-0.6,0.1-0.8-0.2c-0.3-0.5-1.4-0.5-1.7-0.1c-0.3,0.3-0.2,0.7,0.1,0.9c0.3,0.1,0.6,0.2,0.8,0.3     c0.3,0.1,0.6,0.2,0.9,0.3c0.5,0.2,0.7,0.5,0.7,1c0,0.5-0.2,0.9-0.7,1.2c-0.7,0.3-1.3,0.4-2,0.1C39.9,45.3,39.6,44.9,39.5,44.3z"></path>
			<path class="st0" d="M15.1,45.5c-0.3,0-0.5,0-0.7,0c-0.1-0.3-0.3-0.6-0.4-0.9c-0.1-0.2-0.2-0.3-0.5-0.3c-0.5,0-1,0-1.5,0     c-0.3,0-0.4,0.1-0.5,0.4c-0.1,0.2-0.2,0.3-0.2,0.5c-0.1,0.3-0.4,0.4-0.7,0.2c0-0.1,0-0.2,0.1-0.3c0.5-1.2,1.1-2.5,1.6-3.7     c0.1-0.2,0.2-0.5,0.6-0.4c0.2,0,0.4,0,0.4,0.2C13.9,42.6,14.4,44,15.1,45.5z M12.9,41.8c0,0-0.1,0-0.1,0c-0.3,0.6-0.5,1.3-0.8,2     c0.6,0,1.1,0,1.7,0C13.4,43,13.1,42.4,12.9,41.8z"></path>
			<path class="st0" d="M48.6,42.9c0.7,0,1.4,0,2.1,0c0,0.2,0,0.3,0.1,0.6c-0.7,0-1.4,0-2.1,0c0,0.5,0,0.9,0,1.4     c0.7,0.1,1.5,0,2.3,0.1c0,0.2,0,0.3,0,0.5c-1,0-1.9,0-2.9,0c0-1.5,0-3,0-4.5c0.9,0,1.7,0,2.6,0c0.1,0,0.2,0.1,0.2,0.2     c-0.1,0.1-0.2,0.2-0.3,0.2c-0.4,0-0.8,0-1.1,0c-0.2,0-0.4,0-0.5,0c-0.1,0-0.3,0.2-0.3,0.3C48.6,42.2,48.6,42.5,48.6,42.9z"></path>
			<path class="st0" d="M28.3,44.4c0,0.4-0.2,0.6-0.5,0.8c-1.1,0.7-2.7,0.4-3.1-1.2c-0.2-0.8-0.1-1.5,0.3-2.3c0.6-1.1,2.3-1.1,3-0.4     c0.2,0.2,0.4,0.4,0.3,0.8c-0.3,0.1-0.5,0.1-0.7-0.2c-0.5-0.7-1.6-0.6-2,0.1c-0.4,0.8-0.4,1.6,0,2.4c0.4,0.8,1.4,0.9,1.9,0.2     C27.8,44.3,28,44.3,28.3,44.4z"></path>
			<path class="st0" d="M146.3,46.9c0.3,0,0.4,0,0.7,0c-0.3,1.2-0.5,2.4-0.8,3.6c-0.3,0.2-0.5,0.1-0.8-0.1c-0.2,0.1-0.3,0.2-0.5,0.2     c-0.6,0.2-1.1-0.1-1.2-0.7c-0.1-0.7,0.3-1.5,0.9-1.8c0.4-0.2,0.7-0.2,1.3,0.1C146.1,47.8,146.2,47.4,146.3,46.9z M144.5,49.6     c0.1,0.2,0.2,0.4,0.3,0.6c0.2,0.1,0.5,0,0.7-0.3c0.1-0.3,0.2-0.6,0.3-1c0-0.1-0.2-0.4-0.3-0.4c-0.1-0.1-0.4,0-0.5,0.1     C144.6,48.9,144.6,49.2,144.5,49.6z"></path>
			<path class="st0" d="M15.7,45.5c0-1.5,0-2.9,0-4.4c0.1,0,0.2-0.1,0.4-0.1c0.7,0,1.4,0,2.1,0c0.2,0,0.3,0,0.3,0.2     c0,0.2-0.2,0.2-0.3,0.2c-0.6,0-1.1,0-1.7,0c-0.2,0.5-0.1,0.9-0.1,1.4c0.6,0,1.3,0,1.9,0c0,0.2,0,0.4,0.1,0.6c-0.7,0-1.3,0-2,0     c0,0.7,0,1.3,0,2C16.1,45.5,15.9,45.5,15.7,45.5z"></path>
			<path class="st0" d="M37.3,45.5c-0.2,0-0.4,0-0.5,0c0-0.1-0.1-0.1-0.1-0.2c0-0.1,0-0.2,0-0.3c0.1-0.9-0.2-1.5-0.7-2.2     c-0.4-0.6-0.7-1.1-1.1-1.7c0.6-0.2,0.6-0.1,0.9,0.3c0.3,0.5,0.6,0.9,0.9,1.4c0.1,0.1,0.2,0.2,0.3,0.4c0.4-0.6,0.7-1.2,1.1-1.8     c0.3-0.4,0.3-0.4,0.9-0.3c-0.2,0.4-0.5,0.8-0.7,1.1c-0.1,0.1-0.2,0.3-0.3,0.4c-0.5,0.7-0.9,1.5-0.8,2.5     C37.3,45.2,37.3,45.3,37.3,45.5z"></path>
			<path class="st0" d="M128.7,50.6c-0.3,0-0.4,0-0.7,0c0.3-1.2,0.5-2.4,0.8-3.6c0.3,0,0.5,0,0.7,0c-0.1,0.4-0.1,0.9-0.2,1.3     c0.2-0.1,0.4-0.2,0.5-0.2c0.6-0.2,1.1,0.1,1,0.8c-0.1,0.5-0.2,1-0.3,1.5c-0.1,0.3-0.2,0.4-0.8,0.2c0-0.2,0.1-0.4,0.1-0.6     c0.1-0.3,0.2-0.7,0.2-1c0-0.1-0.1-0.3-0.2-0.4c-0.1-0.1-0.3,0-0.4,0.1c-0.2,0.2-0.3,0.4-0.4,0.7     C128.9,49.7,128.8,50.1,128.7,50.6z"></path>
			<path class="st0" d="M20,43.5c0,0.7,0,1.3,0,2c-0.2,0-0.4,0-0.6,0c0-1.5,0-3,0-4.5c0.9,0,1.7,0,2.6,0c0.1,0.2,0.1,0.4-0.2,0.4     c-0.4,0-0.8,0-1.1,0c-0.2,0-0.4,0-0.7,0c0,0.5,0,0.9,0,1.4c0.7,0,1.3,0,1.9,0c0,0.2,0,0.4,0,0.6C21.3,43.5,20.7,43.5,20,43.5z"></path>
			<path class="st0" d="M43.7,41c1.2,0,2.4,0,3.6,0c0.1,0.4,0.1,0.4-0.2,0.5c-0.4,0-0.7,0-1.2,0c0,1.4,0,2.7,0,4c-0.2,0-0.4,0-0.6,0     c0-1.4,0-2.6,0-3.9c-0.4-0.2-0.8-0.1-1.2-0.1C43.7,41.5,43.7,41.5,43.7,41z"></path>
			<path class="st0" d="M114.7,49.5c-0.1,0.3-0.2,0.6,0.1,0.7c0.1,0.1,0.4,0,0.5-0.1c0.2-0.2,0.5-0.2,0.8-0.2     c-0.3,0.8-1.5,1.1-2,0.5c-0.1-0.1-0.2-0.3-0.2-0.5c-0.2-0.7,0.4-1.7,1.1-2c0.3-0.1,0.6-0.1,0.8,0c0.5,0.1,0.8,0.8,0.6,1.3     c-0.1,0.1-0.3,0.2-0.4,0.2C115.5,49.5,115.1,49.5,114.7,49.5z M114.7,49c0.1,0,0.2,0,0.3,0c0.1,0,0.2,0,0.3,0     c0.2,0,0.4,0,0.3-0.3c0-0.2-0.2-0.4-0.5-0.3C115,48.5,114.8,48.7,114.7,49z"></path>
			<path class="st0" d="M133.7,49.5c-0.5,0-1.1,0-1.6,0c-0.1,0.3-0.1,0.5,0.1,0.6c0.2,0.1,0.4,0.1,0.6-0.1c0.2-0.2,0.5-0.3,0.8-0.2     c-0.1,0.4-0.3,0.6-0.7,0.6c-0.3,0.1-0.6,0.1-0.9,0.1c-0.3,0-0.5-0.2-0.6-0.5c-0.2-0.7,0.2-1.8,0.9-2.1c0.4-0.2,0.9-0.3,1.3,0.1     C134,48.5,133.9,49,133.7,49.5z M133,49c0.1-0.3,0.1-0.5-0.3-0.6c-0.3,0-0.4,0.1-0.5,0.6C132.5,49,132.7,49,133,49z"></path>
			<path class="st0" d="M139.3,48c0.8,0,1.2,0.5,1.1,1.3c-0.2,1-1,1.5-1.9,1.4c-0.5-0.1-0.8-0.4-0.8-0.9     C137.6,48.8,138.4,47.9,139.3,48z M139.7,49.1c-0.1-0.3,0-0.5-0.3-0.6c-0.2-0.1-0.6,0-0.7,0.3c-0.1,0.3-0.2,0.6-0.3,1     c0,0.2,0,0.4,0.3,0.5c0.3,0.1,0.5,0,0.6-0.2C139.5,49.7,139.6,49.4,139.7,49.1z"></path>
			<path class="st0" d="M118.2,49.7c0-1,0.9-1.8,1.9-1.7c0.5,0.1,0.9,0.4,0.9,1c0,1-0.8,1.8-1.7,1.8     C118.5,50.7,118.2,50.3,118.2,49.7z M120.3,48.9c-0.1-0.2-0.2-0.4-0.3-0.5c-0.2-0.1-0.4,0-0.6,0.1c-0.3,0.3-0.4,0.7-0.4,1     c0,0.3,0,0.5,0.3,0.6c0.3,0.1,0.5,0,0.6-0.2C120,49.7,120.1,49.3,120.3,48.9z"></path>
			<path class="st0" d="M143,50.6c-0.2,0-0.3,0-0.5,0c-0.2-0.1-0.4-0.1-0.6,0c-0.5,0.2-0.9,0.1-1.1-0.2c-0.1-0.3,0-0.8,0.4-1.1     c0.2-0.1,0.4-0.2,0.7-0.3c0.1,0,0.2,0,0.3,0c0.2,0,0.4,0,0.5-0.3c0-0.1-0.1-0.3-0.2-0.3c-0.2,0-0.3,0-0.5,0.1     c-0.3,0.2-0.3,0.2-0.7,0.1c0.1-0.1,0.1-0.3,0.2-0.4c0.3-0.4,1.2-0.5,1.6-0.3c0.3,0.2,0.4,0.4,0.3,0.8c0,0.2-0.1,0.4-0.1,0.5     C143.1,49.8,143.1,50.2,143,50.6z M142.4,49.5c-0.3-0.1-0.6,0-0.7,0.2c-0.1,0.1-0.2,0.3-0.1,0.5c0.1,0.2,0.3,0.2,0.5,0     C142.3,50,142.4,49.8,142.4,49.5z"></path>
			<path class="st0" d="M123,50.5c0.1-0.5,0.2-0.9,0.3-1.4c0.1-0.4,0-0.6-0.2-0.7c-0.2-0.1-0.5,0.1-0.7,0.4c-0.1,0.3-0.2,0.7-0.3,1     c-0.1,0.2-0.1,0.4-0.2,0.7c-0.2,0-0.4,0-0.7,0c0.1-0.8,0.3-1.6,0.5-2.4c0.1,0,0.2-0.1,0.2-0.1c0.4,0,0.8,0.1,1.2-0.1     c0.6-0.2,1,0.2,0.9,0.9c-0.1,0.4-0.2,0.8-0.2,1.2C123.7,50.6,123.7,50.7,123,50.5z"></path>
			<path class="st0" d="M108.4,46.9c0.3,0,0.5,0,0.8,0c-0.2,1-0.4,2-0.6,3.1c0.6,0,1,0,1.5,0c0,0.6,0,0.6-0.5,0.6c-0.6,0-1.3,0-2,0     C107.9,49.3,108.1,48.1,108.4,46.9z"></path>
			<path class="st0" d="M142.2,44.3c-0.2,0.2-0.4,0.6-0.7,0.9c-0.5-0.2-1.5-1.2-1.9-1.9c0.3-0.3,0.5-0.6,0.8-0.9     C141.1,43.1,141.6,43.7,142.2,44.3z"></path>
			<path class="st0" d="M112.8,50.6c-0.2,0-0.4,0-0.6,0c0-0.7,0.3-1.3,0.3-1.9c-0.4-0.3-0.4-0.3,0-0.6c0.1-0.1,0.2-0.4,0.3-0.6     c0.2-0.6,0.7-0.8,1.3-0.5c0,0.2-0.2,0.3-0.3,0.4c-0.4,0.2-0.5,0.4-0.1,0.8c0.2,0.2,0.1,0.3,0,0.4c-0.1,0.1-0.3,0.1-0.4,0.1     C113.1,49.3,112.9,49.9,112.8,50.6z"></path>
			<path class="st0" d="M127.5,50.3c-0.1,0.4-0.3,0.4-0.8,0.4c-0.3-0.1-0.5-0.2-0.4-0.5c0-0.3,0.1-0.7,0.2-1c0-0.2,0.1-0.3,0.1-0.5     c-0.2-0.1-0.3-0.1-0.4-0.2c0-0.1,0-0.1,0-0.1c0-0.1,0.1-0.2,0.1-0.2c0.6,0,0.6-1,1.4-0.8c0,0.2-0.1,0.4-0.1,0.6     c0.1,0,0.1,0.1,0.1,0.1c0.1,0.1,0.4,0.1,0.3,0.3c0,0.1-0.2,0.2-0.3,0.2c-0.2,0-0.3,0.2-0.4,0.4c0,0.2-0.1,0.5-0.1,0.7     C127,50.1,127,50.1,127.5,50.3z"></path>
			<path class="st0" d="M137.9,39.6c0.5,0.6,1,1.1,1.5,1.7c-0.3,0.3-0.5,0.6-0.8,0.9c-0.6-0.5-1.1-1.1-1.5-1.8     C137.3,40.2,137.6,39.9,137.9,39.6z"></path>
			<path class="st0" d="M23.1,41.1c0.1,0,0.2-0.1,0.3-0.1c0.1,0,0.2,0,0.3,0c0,1.5,0,2.9,0,4.4c-0.2,0-0.3,0-0.5,0     C23.1,44,23.1,42.6,23.1,41.1z"></path>
			<path class="st0" d="M135.5,50.5c0.2-0.8,0.3-1.6,0.5-2.4c0.1,0,0.3-0.1,0.3-0.1c0.4,0.2,0.8,0,1.2-0.1c0,0.2-0.1,0.4-0.1,0.6     c-0.7,0-1,0.4-1,1c0,0.2-0.1,0.3-0.1,0.5C136.2,50.6,136.2,50.7,135.5,50.5z"></path>
			<path class="st0" d="M135.7,37c0.4,0.6,0.8,1,1.3,1.6c-0.3,0.3-0.5,0.5-0.8,0.8c-0.4-0.6-0.8-1.1-1.2-1.7     C135.2,37.4,135.4,37.2,135.7,37z"></path>
			<path class="st0" d="M110.5,50.5c0.2-0.8,0.3-1.6,0.5-2.4c0.2,0,0.4,0,0.6,0c0,0.2,0.1,0.3,0.1,0.4c-0.1,0.6-0.2,1.2-0.4,1.8     C111.2,50.6,111.1,50.6,110.5,50.5z"></path>
			<path class="st0" d="M133.2,35c0.2-0.2,0.4-0.3,0.6-0.5c0.4,0.5,0.7,1,1.1,1.5c-0.2,0.2-0.4,0.4-0.7,0.6     C133.8,36,133.5,35.5,133.2,35z"></path>
			<path class="st0" d="M131.7,32.4c0.2-0.1,0.4-0.2,0.6-0.4c0.3,0.5,0.6,0.9,0.9,1.4c-0.2,0.2-0.4,0.3-0.6,0.4     C132.3,33.4,132,32.9,131.7,32.4z"></path>
			<path class="st0" d="M62.1,41.5c0.2,0,0.3,0,0.5,0c-0.2-0.2-0.7-0.3-0.5-0.7c0.1-0.2,0.3-0.2,0.6,0.1c-0.1,0-0.1,0-0.2,0     c-0.1,0-0.1,0-0.3,0c0.2,0.1,0.4,0.2,0.5,0.2c0-0.2,0.1-0.3,0.2-0.6c0.2,0.2,0.3,0.4,0.4,0.5c0.1-0.1,0.2-0.3,0.3-0.4     c0.1,0.1,0.2,0.1,0.2,0.1c0,0.3,0,0.5,0,0.8c-0.2,0-0.3-0.2-0.5,0.1c-0.1-0.2-0.2-0.3-0.4-0.5c0.2,0.5-0.2,0.4-0.3,0.5     C62.4,41.9,62.3,41.8,62.1,41.5z"></path>
			<path class="st0" d="M130.5,30c0.2-0.1,0.4-0.2,0.5-0.3c0.2,0.4,0.4,0.9,0.7,1.3c-0.2,0.1-0.3,0.2-0.5,0.4     C131,30.9,130.8,30.5,130.5,30z"></path>
			<path class="st0" d="M130.1,29c-0.2-0.5-0.4-0.9-0.6-1.3c0.2-0.1,0.3-0.2,0.5-0.3c0.2,0.4,0.4,0.8,0.6,1.3     C130.5,28.8,130.3,28.9,130.1,29z"></path>
			<path class="st0" d="M128.6,25.5c0.2-0.1,0.3-0.1,0.4-0.2c0.2,0.4,0.4,0.8,0.5,1.2c-0.1,0.1-0.3,0.1-0.4,0.2     C129,26.3,128.8,25.9,128.6,25.5z"></path>
			<path class="st0" d="M128.2,23.2c0.1,0.3,0.2,0.6,0.4,0.9c0.1,0.2,0,0.3-0.3,0.4c-0.1-0.4-0.3-0.7-0.4-1.1c0-0.1,0.1-0.2,0.1-0.3     C128.1,23.2,128.2,23.2,128.2,23.2z"></path>
			<path class="st0" d="M111.3,46.9c0.2,0,0.5,0,0.7,0c0,0.2-0.1,0.4-0.1,0.5c-0.3,0-0.5,0-0.8,0C111.2,47.2,111.3,47.1,111.3,46.9z     "></path>
			<path class="st0" d="M127.3,21.1c0.3,0.3,0.5,0.7,0.5,1.3C127.5,22.2,127.4,22,127.3,21.1z"></path>
		</g>
	</g>
</g>
</svg>
