<?xml version="1.0" encoding="UTF-8"?>
<!-- Generator: Adobe Illustrator 22.1.0, SVG Export Plug-In . SVG Version: 6.00 Build 0)  -->
<svg xmlns="http://www.w3.org/2000/svg" xmlns:xlink="http://www.w3.org/1999/xlink" id="Layer_1" x="0px" y="0px" viewBox="0 0 151 67" style="enable-background:new 0 0 151 67;" xml:space="preserve">
<style type="text/css">
	.st0{display:none;}
	.st1{display:inline;}
	.st2{fill:#90908F;}
	.st3{filter:url(#Adobe_OpacityMaskFilter);}
	.st4{fill:#FFFFFF;}
	.st5{mask:url(#mask-2_1_);fill:#90908F;}
	.st6{filter:url(#Adobe_OpacityMaskFilter_1_);}
	.st7{mask:url(#mask-2_2_);fill:#90908F;}
	.st8{filter:url(#Adobe_OpacityMaskFilter_2_);}
	.st9{mask:url(#mask-2_3_);fill:#90908F;}
	.st10{filter:url(#Adobe_OpacityMaskFilter_3_);}
	.st11{mask:url(#mask-2_4_);fill:#90908F;}
	.st12{filter:url(#Adobe_OpacityMaskFilter_4_);}
	.st13{mask:url(#mask-2_5_);fill:#90908F;}
	.st14{filter:url(#Adobe_OpacityMaskFilter_5_);}
	.st15{mask:url(#mask-2_6_);fill:#90908F;}
	.st16{filter:url(#Adobe_OpacityMaskFilter_6_);}
	.st17{mask:url(#mask-2_7_);fill:#90908F;}
	.st18{filter:url(#Adobe_OpacityMaskFilter_7_);}
	.st19{mask:url(#mask-2_8_);fill:#90908F;}
	.st20{filter:url(#Adobe_OpacityMaskFilter_8_);}
	.st21{mask:url(#mask-2_9_);fill:#90908F;}
	.st22{filter:url(#Adobe_OpacityMaskFilter_9_);}
	.st23{mask:url(#mask-2_10_);fill:#90908F;}
	.st24{filter:url(#Adobe_OpacityMaskFilter_10_);}
	.st25{mask:url(#mask-2_11_);fill:#90908F;}
	.st26{filter:url(#Adobe_OpacityMaskFilter_11_);}
	.st27{mask:url(#mask-2_12_);fill:#90908F;}
	.st28{filter:url(#Adobe_OpacityMaskFilter_12_);}
	.st29{mask:url(#mask-2_13_);fill:#90908F;}
	.st30{filter:url(#Adobe_OpacityMaskFilter_13_);}
	.st31{mask:url(#mask-2_14_);fill:#90908F;}
	.st32{filter:url(#Adobe_OpacityMaskFilter_14_);}
	.st33{mask:url(#mask-2_15_);fill:#90908F;}
	.st34{filter:url(#Adobe_OpacityMaskFilter_15_);}
	.st35{mask:url(#mask-2_16_);fill:#90908F;}
	.st36{filter:url(#Adobe_OpacityMaskFilter_16_);}
	.st37{mask:url(#mask-2_17_);fill:#90908F;}
	.st38{filter:url(#Adobe_OpacityMaskFilter_17_);}
	.st39{mask:url(#mask-2_18_);fill:#90908F;}
	.st40{filter:url(#Adobe_OpacityMaskFilter_18_);}
	.st41{mask:url(#mask-2_19_);fill:#90908F;}
	.st42{filter:url(#Adobe_OpacityMaskFilter_19_);}
	.st43{mask:url(#mask-2_20_);fill:#90908F;}
	.st44{filter:url(#Adobe_OpacityMaskFilter_20_);}
	.st45{mask:url(#mask-2_21_);fill:#90908F;}
	.st46{filter:url(#Adobe_OpacityMaskFilter_21_);}
	.st47{mask:url(#mask-2_22_);fill:#90908F;}
	.st48{filter:url(#Adobe_OpacityMaskFilter_22_);}
	.st49{mask:url(#mask-2_23_);fill:#90908F;}
	.st50{filter:url(#Adobe_OpacityMaskFilter_23_);}
	.st51{mask:url(#mask-2_24_);fill:#90908F;}
	.st52{filter:url(#Adobe_OpacityMaskFilter_24_);}
	.st53{mask:url(#mask-2_25_);fill:#90908F;}
	.st54{filter:url(#Adobe_OpacityMaskFilter_25_);}
	.st55{mask:url(#mask-2_26_);fill:#90908F;}
	.st56{filter:url(#Adobe_OpacityMaskFilter_26_);}
	.st57{mask:url(#mask-2_27_);fill:#90908F;}
	.st58{fill:#808285;}
	.st59{display:inline;fill:#808285;}
</style>
<title>accenture</title>
<desc>Created with Sketch.</desc>
<g id="Visual-Design" class="st0">
	<g id="customers" transform="translate(-142.000000, -1806.000000)" class="st1">
		<g id="select-clients" transform="translate(142.000000, 1720.000000)">
			<g id="accenture" transform="translate(0.000000, 86.000000)">
				<path id="Fill-1" class="st2" d="M6.7,39.1c-1.5,0-2.4-0.8-2.4-2.3c0-2.9,4.2-3.5,6.4-3.5C10.8,35.8,9.7,39.1,6.7,39.1z       M15,41.8V28.1c0-4.4-2.9-6-7-6c-4,0-7.3,1.7-7.3,6.1h4.4c0-1.9,1-3,2.9-3c2.2,0,2.7,1.6,2.7,3.5v1.9C6.4,30.8,0,31.4,0,37.2      c0,3.3,2.6,5,5.7,5c2.1,0,4-0.7,5-2.7h0.1v2.2H15z"></path>
				<path id="Fill-3" class="st2" d="M25.8,22.1c-5.8,0-8.8,3.6-8.8,9.2c0,6.7,3.4,10.9,10.3,10.9c1.9,0,3.8-0.3,5.6-0.9v-2.7      c-1.1,0.4-2.1,0.5-3.2,0.5c-5.1,0-7.9-3.7-7.9-8.6c0-2.3,0.8-5.3,3.7-5.3c2.3,0,2.9,1.9,2.9,3.9h4.8      C33.1,24.4,30.5,22.1,25.8,22.1"></path>
				<path id="Fill-5" class="st2" d="M44.5,42.3c1.9,0,3.8-0.3,5.6-0.9v-2.7c-1,0.4-2.1,0.5-3.2,0.5c-5.1,0-7.9-3.7-7.9-8.6      c0-2.3,0.9-5.3,3.7-5.3c2.3,0,2.9,1.9,2.9,3.9h4.8c0-4.7-2.6-7-7.3-7c-5.8,0-8.8,3.6-8.8,9.2C34.2,38.1,37.7,42.3,44.5,42.3"></path>
				<path id="Fill-7" class="st2" d="M59.7,25c2.1,0,3.4,1.3,3.4,3.3h-7C56.3,26.4,57.8,25,59.7,25 M61.5,42.3      c1.8,0,3.6-0.2,5.4-0.8v-3.1c-1.1,0.4-2.5,0.7-3.7,0.7c-4.4,0-7.2-4-7.2-8.1h11.4v-1.1c0-4.7-2.4-7.8-7.3-7.8      c-5.7,0-8.2,3.6-8.2,9.1C51.8,37.5,54.7,42.3,61.5,42.3"></path>
				<path id="Fill-9" class="st2" d="M80,26.7c0.8,0.7,0.7,3.2,0.7,4.1v11h4.5V28.5c0-3.3-1.5-6.3-5.2-6.3c-2.7,0-4.7,1.6-5.7,4      h-0.1v-3.6h-4.5v19.2h4.5v-8.3c0-2.6,1.3-7.2,4.5-7.2C79.2,26.3,79.7,26.4,80,26.7"></path>
				<path id="Fill-11" class="st2" d="M94.5,16.2L90,18v4.6h-3.8v3.1H90V37c0,4,2,5.3,5.9,5.3c1.2,0,2.5-0.1,3.7-0.3v-3.2      c-0.7,0.2-1.4,0.3-2.1,0.3c-2.8,0-3-2.1-3-4.3v-9.1h5.7v-3.1h-5.7V16.2z"></path>
				<path id="Fill-13" class="st2" d="M113.1,38.2L113.1,38.2l0.1,3.6h4.5V22.6h-4.5v8.3c0,2.6-1.3,7.2-4.5,7.2c-0.4,0-1,0-1.3-0.4      c-0.8-0.7-0.7-3.2-0.7-4.1v-11h-4.5v13.3c0,3.3,1.5,6.3,5.2,6.3C110.1,42.3,112.1,40.6,113.1,38.2"></path>
				<path id="Fill-15" class="st2" d="M125.1,26.1L125.1,26.1l-0.1-3.6h-4.5v19.2h4.5v-8.4c0-4.5,1.7-6.5,6.3-6.5v-4.7      C128.1,22.1,126.6,23.5,125.1,26.1"></path>
				<path id="Fill-17" class="st2" d="M140.1,25c2.1,0,3.4,1.3,3.4,3.3h-7C136.7,26.4,138.2,25,140.1,25z M147.3,38.4      c-1.1,0.4-2.5,0.7-3.7,0.7c-4.4,0-7.2-4-7.2-8.1h11.4v-1.1c0-4.7-2.4-7.8-7.3-7.8c-5.7,0-8.2,3.6-8.2,9.1      c0,6.3,2.9,11.1,9.7,11.1c1.8,0,3.6-0.2,5.4-0.8V38.4z"></path>
				<path id="Fill-19" class="st2" d="M86.3,3.2c0,0,9,3.5,10.2,4c-1.3,0.5-10.2,3.9-10.2,3.9v3.2l14-5.7V5.7L86.3,0V3.2z"></path>
				<polygon id="Fill-21" class="st2" points="6.1,57.3 1.9,57.3 1.9,52.8 0.7,52.8 0.7,63.2 1.9,63.2 1.9,58.3 6.1,58.3 6.1,63.2       7.3,63.2 7.3,52.8 6.1,52.8     "></polygon>
				<g id="Clip-24">
				</g>
				<defs>
					<filter id="Adobe_OpacityMaskFilter" filterUnits="userSpaceOnUse" x="8.9" y="52.8" width="1.3" height="1.3">
						<feColorMatrix type="matrix" values="1 0 0 0 0  0 1 0 0 0  0 0 1 0 0  0 0 0 1 0"></feColorMatrix>
					</filter>
				</defs>
				<mask maskUnits="userSpaceOnUse" x="8.9" y="52.8" width="1.3" height="1.3" id="mask-2_1_">
					<g class="st3">
						<polygon id="path-1_1_" class="st4" points="0,66.4 150.6,66.4 150.6,0 0,0       "></polygon>
					</g>
				</mask>
				<polygon id="Fill-23" class="st5" points="8.9,54.2 10.3,54.2 10.3,52.8 8.9,52.8     "></polygon>
				<defs>
					<filter id="Adobe_OpacityMaskFilter_1_" filterUnits="userSpaceOnUse" x="9.1" y="56" width="1" height="7.1">
						<feColorMatrix type="matrix" values="1 0 0 0 0  0 1 0 0 0  0 0 1 0 0  0 0 0 1 0"></feColorMatrix>
					</filter>
				</defs>
				<mask maskUnits="userSpaceOnUse" x="9.1" y="56" width="1" height="7.1" id="mask-2_2_">
					<g class="st6">
						<polygon id="path-1_2_" class="st4" points="0,66.4 150.6,66.4 150.6,0 0,0       "></polygon>
					</g>
				</mask>
				<polygon id="Fill-25" class="st7" points="9.1,63.1 10.1,63.1 10.1,56 9.1,56     "></polygon>
				<defs>
					<filter id="Adobe_OpacityMaskFilter_2_" filterUnits="userSpaceOnUse" x="11.2" y="55.9" width="5.3" height="10.4">
						<feColorMatrix type="matrix" values="1 0 0 0 0  0 1 0 0 0  0 0 1 0 0  0 0 0 1 0"></feColorMatrix>
					</filter>
				</defs>
				<mask maskUnits="userSpaceOnUse" x="11.2" y="55.9" width="5.3" height="10.4" id="mask-2_3_">
					<g class="st8">
						<polygon id="path-1_3_" class="st4" points="0,66.4 150.6,66.4 150.6,0 0,0       "></polygon>
					</g>
				</mask>
				<path id="Fill-26" class="st9" d="M13.8,62.3c-1.3,0-1.5-1.7-1.5-2.6c0-0.9,0.2-2.9,1.5-2.9c1.3,0,1.7,1.8,1.7,2.7      C15.5,60.5,15.1,62.3,13.8,62.3z M15.5,57.2L15.5,57.2c-0.3-0.8-1-1.3-1.9-1.3c-1.9,0-2.4,2.2-2.4,3.8c0,1.6,0.4,3.5,2.4,3.5      c0.9,0,1.6-0.5,1.9-1.4h0V63c0,1.5-0.5,2.4-2.2,2.4c-0.6,0-1.2-0.1-1.8-0.4v1c0.7,0.1,1.2,0.2,1.9,0.2c2,0,3-1.1,3-3.1V56h-1      V57.2z"></path>
				<defs>
					<filter id="Adobe_OpacityMaskFilter_3_" filterUnits="userSpaceOnUse" x="18.1" y="52.8" width="5.1" height="10.3">
						<feColorMatrix type="matrix" values="1 0 0 0 0  0 1 0 0 0  0 0 1 0 0  0 0 0 1 0"></feColorMatrix>
					</filter>
				</defs>
				<mask maskUnits="userSpaceOnUse" x="18.1" y="52.8" width="5.1" height="10.3" id="mask-2_4_">
					<g class="st10">
						<polygon id="path-1_4_" class="st4" points="0,66.4 150.6,66.4 150.6,0 0,0       "></polygon>
					</g>
				</mask>
				<path id="Fill-27" class="st11" d="M21.3,55.9c-1.2,0-1.9,0.7-2.2,1.8h0v-4.8h-1v10.3h1v-2.9c0-1.1,0.6-3.3,2-3.3      c1.2,0,1,1.5,1,2.3v3.9h1v-5.1C23.2,56.9,22.6,55.9,21.3,55.9"></path>
				<defs>
					<filter id="Adobe_OpacityMaskFilter_4_" filterUnits="userSpaceOnUse" x="27.6" y="55.9" width="5.3" height="10.5">
						<feColorMatrix type="matrix" values="1 0 0 0 0  0 1 0 0 0  0 0 1 0 0  0 0 0 1 0"></feColorMatrix>
					</filter>
				</defs>
				<mask maskUnits="userSpaceOnUse" x="27.6" y="55.9" width="5.3" height="10.5" id="mask-2_5_">
					<g class="st12">
						<polygon id="path-1_5_" class="st4" points="0,66.4 150.6,66.4 150.6,0 0,0       "></polygon>
					</g>
				</mask>
				<path id="Fill-28" class="st13" d="M30.3,62.5c-1.3,0-1.6-1.9-1.6-2.9c0-1,0.4-2.8,1.7-2.8c1.3,0,1.5,1.6,1.5,2.6      C31.8,60.3,31.7,62.5,30.3,62.5 M30.5,55.9c-0.9,0-1.6,0.6-1.9,1.4h0V56h-1v10.3h1V62h0c0.3,0.9,1,1.3,1.9,1.3      c1.9,0,2.4-2.2,2.4-3.8C33,57.9,32.6,55.9,30.5,55.9"></path>
				<defs>
					<filter id="Adobe_OpacityMaskFilter_5_" filterUnits="userSpaceOnUse" x="33.8" y="55.9" width="5.3" height="7.4">
						<feColorMatrix type="matrix" values="1 0 0 0 0  0 1 0 0 0  0 0 1 0 0  0 0 0 1 0"></feColorMatrix>
					</filter>
				</defs>
				<mask maskUnits="userSpaceOnUse" x="33.8" y="55.9" width="5.3" height="7.4" id="mask-2_6_">
					<g class="st14">
						<polygon id="path-1_6_" class="st4" points="0,66.4 150.6,66.4 150.6,0 0,0       "></polygon>
					</g>
				</mask>
				<path id="Fill-29" class="st15" d="M35,58.1c0.2-0.8,0.7-1.3,1.5-1.3c0.8,0,1.4,0.6,1.4,1.3H35z M36.6,55.9      c-2.1,0-2.8,1.6-2.8,3.5c0,2.3,1,4,3.5,4c0.6,0,1.1,0,1.6-0.2v-0.8c-0.5,0.1-0.9,0.2-1.4,0.2c-1.8,0-2.5-1.6-2.5-3.1v-0.4h4.1      v-0.3C39.1,57,38.2,55.9,36.6,55.9z"></path>
				<defs>
					<filter id="Adobe_OpacityMaskFilter_6_" filterUnits="userSpaceOnUse" x="40.3" y="55.9" width="3.4" height="7.3">
						<feColorMatrix type="matrix" values="1 0 0 0 0  0 1 0 0 0  0 0 1 0 0  0 0 0 1 0"></feColorMatrix>
					</filter>
				</defs>
				<mask maskUnits="userSpaceOnUse" x="40.3" y="55.9" width="3.4" height="7.3" id="mask-2_7_">
					<g class="st16">
						<polygon id="path-1_7_" class="st4" points="0,66.4 150.6,66.4 150.6,0 0,0       "></polygon>
					</g>
				</mask>
				<path id="Fill-30" class="st17" d="M41.3,57.4L41.3,57.4l0-1.4h-1v7.1h1v-2.9c0-1.6,0.6-3.2,2.4-3.2v-1.1      C42.6,55.9,41.8,56.4,41.3,57.4"></path>
				<defs>
					<filter id="Adobe_OpacityMaskFilter_7_" filterUnits="userSpaceOnUse" x="44.5" y="52.8" width="4.7" height="10.4">
						<feColorMatrix type="matrix" values="1 0 0 0 0  0 1 0 0 0  0 0 1 0 0  0 0 0 1 0"></feColorMatrix>
					</filter>
				</defs>
				<mask maskUnits="userSpaceOnUse" x="44.5" y="52.8" width="4.7" height="10.4" id="mask-2_8_">
					<g class="st18">
						<polygon id="path-1_8_" class="st4" points="0,66.4 150.6,66.4 150.6,0 0,0       "></polygon>
					</g>
				</mask>
				<path id="Fill-31" class="st19" d="M48.2,53.6c0.4,0,0.7,0.1,1,0.2v-0.9c-0.4-0.1-0.8-0.1-1.2-0.1c-1.5,0-2.3,0.8-2.3,2.3v1      h-1.2v0.9h1.2v6.3h1v-6.3h2V56h-2C46.7,54.8,46.6,53.6,48.2,53.6"></path>
				<defs>
					<filter id="Adobe_OpacityMaskFilter_8_" filterUnits="userSpaceOnUse" x="49.1" y="55.9" width="5.8" height="7.5">
						<feColorMatrix type="matrix" values="1 0 0 0 0  0 1 0 0 0  0 0 1 0 0  0 0 0 1 0"></feColorMatrix>
					</filter>
				</defs>
				<mask maskUnits="userSpaceOnUse" x="49.1" y="55.9" width="5.8" height="7.5" id="mask-2_9_">
					<g class="st20">
						<polygon id="path-1_9_" class="st4" points="0,66.4 150.6,66.4 150.6,0 0,0       "></polygon>
					</g>
				</mask>
				<path id="Fill-32" class="st21" d="M52,62.5c-1.5,0-1.7-1.7-1.7-2.9c0-1.1,0.3-2.9,1.7-2.9c1.5,0,1.8,1.7,1.8,2.9      C53.7,60.7,53.5,62.5,52,62.5 M52,55.9c-2.2,0-2.9,1.8-2.9,3.7c0,1.9,0.7,3.7,2.9,3.7c2.2,0,2.9-1.8,2.9-3.7      C54.9,57.7,54.2,55.9,52,55.9"></path>
				<defs>
					<filter id="Adobe_OpacityMaskFilter_9_" filterUnits="userSpaceOnUse" x="56.1" y="55.9" width="3.4" height="7.3">
						<feColorMatrix type="matrix" values="1 0 0 0 0  0 1 0 0 0  0 0 1 0 0  0 0 0 1 0"></feColorMatrix>
					</filter>
				</defs>
				<mask maskUnits="userSpaceOnUse" x="56.1" y="55.9" width="3.4" height="7.3" id="mask-2_10_">
					<g class="st22">
						<polygon id="path-1_10_" class="st4" points="0,66.4 150.6,66.4 150.6,0 0,0       "></polygon>
					</g>
				</mask>
				<path id="Fill-33" class="st23" d="M57.2,57.4L57.2,57.4l0-1.4h-1v7.1h1v-2.9c0-1.6,0.6-3.2,2.4-3.2v-1.1      C58.4,55.9,57.6,56.4,57.2,57.4"></path>
				<defs>
					<filter id="Adobe_OpacityMaskFilter_10_" filterUnits="userSpaceOnUse" x="60.4" y="55.9" width="8.7" height="7.3">
						<feColorMatrix type="matrix" values="1 0 0 0 0  0 1 0 0 0  0 0 1 0 0  0 0 0 1 0"></feColorMatrix>
					</filter>
				</defs>
				<mask maskUnits="userSpaceOnUse" x="60.4" y="55.9" width="8.7" height="7.3" id="mask-2_11_">
					<g class="st24">
						<polygon id="path-1_11_" class="st4" points="0,66.4 150.6,66.4 150.6,0 0,0       "></polygon>
					</g>
				</mask>
				<path id="Fill-34" class="st25" d="M67.3,55.9c-1,0-1.7,0.7-2,1.6h0c-0.1-1.1-0.7-1.6-1.8-1.6c-1.2,0-1.7,0.8-2,1.8h0V56h-1v7.1      h1v-2.9c0-1,0.5-3.3,1.8-3.3c1.2,0,1,1.5,1,2.3v3.9h1v-2.9c0-1,0.5-3.3,1.8-3.3c1.2,0,1,1.5,1,2.3v3.9h1v-5.1      C69.1,56.9,68.6,55.9,67.3,55.9"></path>
				<defs>
					<filter id="Adobe_OpacityMaskFilter_11_" filterUnits="userSpaceOnUse" x="70.3" y="55.9" width="5.1" height="7.4">
						<feColorMatrix type="matrix" values="1 0 0 0 0  0 1 0 0 0  0 0 1 0 0  0 0 0 1 0"></feColorMatrix>
					</filter>
				</defs>
				<mask maskUnits="userSpaceOnUse" x="70.3" y="55.9" width="5.1" height="7.4" id="mask-2_12_">
					<g class="st26">
						<polygon id="path-1_12_" class="st4" points="0,66.4 150.6,66.4 150.6,0 0,0       "></polygon>
					</g>
				</mask>
				<path id="Fill-35" class="st27" d="M74.2,61.4c-0.3,0.6-0.9,1.1-1.7,1.1c-0.6,0-1-0.4-1-1c0-1.1,1.4-1.5,2.3-1.5h0.6      C74.4,60.5,74.4,60.8,74.2,61.4 M73.1,55.9c-1.3,0-2.5,0.6-2.6,2h1.1c0.1-0.9,0.6-1.1,1.5-1.1c1.4,0,1.3,1.1,1.3,2.2v0.2      c-0.2,0-0.5,0-0.7,0c-1.3,0-3.4,0.6-3.4,2.2c0,1.2,0.7,2,1.9,2c0.8,0,1.8-0.4,2.2-1.1h0v0.9h1v-5C75.5,56.6,74.7,55.9,73.1,55.9      "></path>
				<defs>
					<filter id="Adobe_OpacityMaskFilter_12_" filterUnits="userSpaceOnUse" x="77.1" y="55.9" width="5.1" height="7.3">
						<feColorMatrix type="matrix" values="1 0 0 0 0  0 1 0 0 0  0 0 1 0 0  0 0 0 1 0"></feColorMatrix>
					</filter>
				</defs>
				<mask maskUnits="userSpaceOnUse" x="77.1" y="55.9" width="5.1" height="7.3" id="mask-2_13_">
					<g class="st28">
						<polygon id="path-1_13_" class="st4" points="0,66.4 150.6,66.4 150.6,0 0,0       "></polygon>
					</g>
				</mask>
				<path id="Fill-36" class="st29" d="M80.3,55.9c-1.2,0-1.9,0.7-2.2,1.8h0V56h-1v7.1h1v-2.9c0-1.1,0.6-3.3,2-3.3      c1.2,0,1,1.5,1,2.3v3.9h1v-5.1C82.2,56.9,81.6,55.9,80.3,55.9"></path>
				<defs>
					<filter id="Adobe_OpacityMaskFilter_13_" filterUnits="userSpaceOnUse" x="83.4" y="55.9" width="5.3" height="7.5">
						<feColorMatrix type="matrix" values="1 0 0 0 0  0 1 0 0 0  0 0 1 0 0  0 0 0 1 0"></feColorMatrix>
					</filter>
				</defs>
				<mask maskUnits="userSpaceOnUse" x="83.4" y="55.9" width="5.3" height="7.5" id="mask-2_14_">
					<g class="st30">
						<polygon id="path-1_14_" class="st4" points="0,66.4 150.6,66.4 150.6,0 0,0       "></polygon>
					</g>
				</mask>
				<path id="Fill-37" class="st31" d="M86.3,56.7c0.9,0,1.3,0.7,1.3,1.5h1.2c0-1.5-0.9-2.3-2.4-2.3c-2.2,0-2.9,1.6-2.9,3.6      c0,2.4,1.2,3.9,3.7,3.9c0.5,0,1,0,1.5-0.2v-0.8c-0.4,0.1-0.8,0.1-1.2,0.1c-2,0-2.8-1.4-2.8-3.3C84.6,58.1,85,56.7,86.3,56.7"></path>
				<defs>
					<filter id="Adobe_OpacityMaskFilter_14_" filterUnits="userSpaceOnUse" x="89.2" y="55.9" width="5.3" height="7.4">
						<feColorMatrix type="matrix" values="1 0 0 0 0  0 1 0 0 0  0 0 1 0 0  0 0 0 1 0"></feColorMatrix>
					</filter>
				</defs>
				<mask maskUnits="userSpaceOnUse" x="89.2" y="55.9" width="5.3" height="7.4" id="mask-2_15_">
					<g class="st32">
						<polygon id="path-1_15_" class="st4" points="0,66.4 150.6,66.4 150.6,0 0,0       "></polygon>
					</g>
				</mask>
				<path id="Fill-38" class="st33" d="M90.4,58.1c0.2-0.8,0.7-1.3,1.5-1.3c0.8,0,1.4,0.6,1.4,1.3H90.4z M92,55.9      c-2.1,0-2.8,1.6-2.8,3.5c0,2.3,1,4,3.5,4c0.6,0,1.1,0,1.6-0.2v-0.8c-0.5,0.1-0.9,0.2-1.4,0.2c-1.8,0-2.5-1.6-2.5-3.1v-0.4h4.1      v-0.3C94.4,57,93.6,55.9,92,55.9z"></path>
				<defs>
					<filter id="Adobe_OpacityMaskFilter_15_" filterUnits="userSpaceOnUse" x="95.3" y="61.7" width="1.5" height="1.5">
						<feColorMatrix type="matrix" values="1 0 0 0 0  0 1 0 0 0  0 0 1 0 0  0 0 0 1 0"></feColorMatrix>
					</filter>
				</defs>
				<mask maskUnits="userSpaceOnUse" x="95.3" y="61.7" width="1.5" height="1.5" id="mask-2_16_">
					<g class="st34">
						<polygon id="path-1_16_" class="st4" points="0,66.4 150.6,66.4 150.6,0 0,0       "></polygon>
					</g>
				</mask>
				<polygon id="Fill-39" class="st35" points="95.3,63.1 96.8,63.1 96.8,61.7 95.3,61.7     "></polygon>
				<defs>
					<filter id="Adobe_OpacityMaskFilter_16_" filterUnits="userSpaceOnUse" x="100.8" y="52.8" width="6.6" height="10.3">
						<feColorMatrix type="matrix" values="1 0 0 0 0  0 1 0 0 0  0 0 1 0 0  0 0 0 1 0"></feColorMatrix>
					</filter>
				</defs>
				<mask maskUnits="userSpaceOnUse" x="100.8" y="52.8" width="6.6" height="10.3" id="mask-2_17_">
					<g class="st36">
						<polygon id="path-1_17_" class="st4" points="0,66.4 150.6,66.4 150.6,0 0,0       "></polygon>
					</g>
				</mask>
				<path id="Fill-40" class="st37" d="M104.6,61.9c-0.5,0.2-1.2,0.3-1.8,0.3H102v-8.4h0.7c0.6,0,1.2,0,1.7,0.2      c1.6,0.6,1.8,2.5,1.8,3.9C106.1,59.3,106,61.2,104.6,61.9 M103.2,52.8h-2.3v10.3h1.9c0.7,0,1.5,0,2.2-0.3      c2.1-0.7,2.5-2.9,2.5-4.9C107.4,55,106.5,52.8,103.2,52.8"></path>
				<defs>
					<filter id="Adobe_OpacityMaskFilter_17_" filterUnits="userSpaceOnUse" x="108.3" y="55.9" width="5.3" height="7.4">
						<feColorMatrix type="matrix" values="1 0 0 0 0  0 1 0 0 0  0 0 1 0 0  0 0 0 1 0"></feColorMatrix>
					</filter>
				</defs>
				<mask maskUnits="userSpaceOnUse" x="108.3" y="55.9" width="5.3" height="7.4" id="mask-2_18_">
					<g class="st38">
						<polygon id="path-1_18_" class="st4" points="0,66.4 150.6,66.4 150.6,0 0,0       "></polygon>
					</g>
				</mask>
				<path id="Fill-41" class="st39" d="M109.6,58.1c0.2-0.8,0.7-1.3,1.5-1.3c0.8,0,1.4,0.6,1.4,1.3H109.6z M111.1,55.9      c-2.1,0-2.8,1.6-2.8,3.5c0,2.3,1,4,3.5,4c0.6,0,1.1,0,1.6-0.2v-0.8c-0.5,0.1-0.9,0.2-1.4,0.2c-1.8,0-2.5-1.6-2.5-3.1v-0.4h4.1      v-0.3C113.6,57,112.8,55.9,111.1,55.9z"></path>
				<defs>
					<filter id="Adobe_OpacityMaskFilter_18_" filterUnits="userSpaceOnUse" x="114.9" y="52.8" width="1" height="10.3">
						<feColorMatrix type="matrix" values="1 0 0 0 0  0 1 0 0 0  0 0 1 0 0  0 0 0 1 0"></feColorMatrix>
					</filter>
				</defs>
				<mask maskUnits="userSpaceOnUse" x="114.9" y="52.8" width="1" height="10.3" id="mask-2_19_">
					<g class="st40">
						<polygon id="path-1_19_" class="st4" points="0,66.4 150.6,66.4 150.6,0 0,0       "></polygon>
					</g>
				</mask>
				<polygon id="Fill-42" class="st41" points="114.9,63.1 115.9,63.1 115.9,52.8 114.9,52.8     "></polygon>
				<defs>
					<filter id="Adobe_OpacityMaskFilter_19_" filterUnits="userSpaceOnUse" x="117.6" y="52.8" width="1.3" height="1.3">
						<feColorMatrix type="matrix" values="1 0 0 0 0  0 1 0 0 0  0 0 1 0 0  0 0 0 1 0"></feColorMatrix>
					</filter>
				</defs>
				<mask maskUnits="userSpaceOnUse" x="117.6" y="52.8" width="1.3" height="1.3" id="mask-2_20_">
					<g class="st42">
						<polygon id="path-1_20_" class="st4" points="0,66.4 150.6,66.4 150.6,0 0,0       "></polygon>
					</g>
				</mask>
				<polygon id="Fill-43" class="st43" points="117.6,54.2 118.9,54.2 118.9,52.8 117.6,52.8     "></polygon>
				<defs>
					<filter id="Adobe_OpacityMaskFilter_20_" filterUnits="userSpaceOnUse" x="117.7" y="56" width="1" height="7.1">
						<feColorMatrix type="matrix" values="1 0 0 0 0  0 1 0 0 0  0 0 1 0 0  0 0 0 1 0"></feColorMatrix>
					</filter>
				</defs>
				<mask maskUnits="userSpaceOnUse" x="117.7" y="56" width="1" height="7.1" id="mask-2_21_">
					<g class="st44">
						<polygon id="path-1_21_" class="st4" points="0,66.4 150.6,66.4 150.6,0 0,0       "></polygon>
					</g>
				</mask>
				<polygon id="Fill-44" class="st45" points="117.7,63.1 118.8,63.1 118.8,56 117.7,56     "></polygon>
				<defs>
					<filter id="Adobe_OpacityMaskFilter_21_" filterUnits="userSpaceOnUse" x="119.6" y="56" width="6.1" height="7.1">
						<feColorMatrix type="matrix" values="1 0 0 0 0  0 1 0 0 0  0 0 1 0 0  0 0 0 1 0"></feColorMatrix>
					</filter>
				</defs>
				<mask maskUnits="userSpaceOnUse" x="119.6" y="56" width="6.1" height="7.1" id="mask-2_22_">
					<g class="st46">
						<polygon id="path-1_22_" class="st4" points="0,66.4 150.6,66.4 150.6,0 0,0       "></polygon>
					</g>
				</mask>
				<polygon id="Fill-45" class="st47" points="122.8,61.7 122.8,61.7 120.7,56 119.6,56 122.3,63.1 123.3,63.1 125.7,56 124.6,56           "></polygon>
				<defs>
					<filter id="Adobe_OpacityMaskFilter_22_" filterUnits="userSpaceOnUse" x="125.9" y="55.9" width="5.3" height="7.4">
						<feColorMatrix type="matrix" values="1 0 0 0 0  0 1 0 0 0  0 0 1 0 0  0 0 0 1 0"></feColorMatrix>
					</filter>
				</defs>
				<mask maskUnits="userSpaceOnUse" x="125.9" y="55.9" width="5.3" height="7.4" id="mask-2_23_">
					<g class="st48">
						<polygon id="path-1_23_" class="st4" points="0,66.4 150.6,66.4 150.6,0 0,0       "></polygon>
					</g>
				</mask>
				<path id="Fill-46" class="st49" d="M127.2,58.1c0.1-0.8,0.7-1.3,1.5-1.3c0.8,0,1.4,0.6,1.4,1.3H127.2z M128.7,55.9      c-2.1,0-2.8,1.6-2.8,3.5c0,2.3,1,4,3.5,4c0.6,0,1.1,0,1.6-0.2v-0.8c-0.5,0.1-0.9,0.2-1.4,0.2c-1.8,0-2.5-1.6-2.5-3.1v-0.4h4.1      v-0.3C131.2,57,130.4,55.9,128.7,55.9z"></path>
				<defs>
					<filter id="Adobe_OpacityMaskFilter_23_" filterUnits="userSpaceOnUse" x="132.5" y="55.9" width="3.4" height="7.3">
						<feColorMatrix type="matrix" values="1 0 0 0 0  0 1 0 0 0  0 0 1 0 0  0 0 0 1 0"></feColorMatrix>
					</filter>
				</defs>
				<mask maskUnits="userSpaceOnUse" x="132.5" y="55.9" width="3.4" height="7.3" id="mask-2_24_">
					<g class="st50">
						<polygon id="path-1_24_" class="st4" points="0,66.4 150.6,66.4 150.6,0 0,0       "></polygon>
					</g>
				</mask>
				<path id="Fill-47" class="st51" d="M133.5,57.4L133.5,57.4l0-1.4h-1v7.1h1v-2.9c0-1.6,0.6-3.2,2.4-3.2v-1.1      C134.8,55.9,134,56.4,133.5,57.4"></path>
				<defs>
					<filter id="Adobe_OpacityMaskFilter_24_" filterUnits="userSpaceOnUse" x="136.3" y="55.9" width="5.3" height="7.4">
						<feColorMatrix type="matrix" values="1 0 0 0 0  0 1 0 0 0  0 0 1 0 0  0 0 0 1 0"></feColorMatrix>
					</filter>
				</defs>
				<mask maskUnits="userSpaceOnUse" x="136.3" y="55.9" width="5.3" height="7.4" id="mask-2_25_">
					<g class="st52">
						<polygon id="path-1_25_" class="st4" points="0,66.4 150.6,66.4 150.6,0 0,0       "></polygon>
					</g>
				</mask>
				<path id="Fill-48" class="st53" d="M137.6,58.1c0.2-0.8,0.7-1.3,1.5-1.3c0.8,0,1.4,0.6,1.4,1.3H137.6z M139.1,55.9      c-2.1,0-2.8,1.6-2.8,3.5c0,2.3,1,4,3.5,4c0.6,0,1.1,0,1.6-0.2v-0.8c-0.5,0.1-0.9,0.2-1.4,0.2c-1.8,0-2.5-1.6-2.5-3.1v-0.4h4.1      v-0.3C141.6,57,140.8,55.9,139.1,55.9z"></path>
				<defs>
					<filter id="Adobe_OpacityMaskFilter_25_" filterUnits="userSpaceOnUse" x="142.4" y="52.8" width="5.3" height="10.5">
						<feColorMatrix type="matrix" values="1 0 0 0 0  0 1 0 0 0  0 0 1 0 0  0 0 0 1 0"></feColorMatrix>
					</filter>
				</defs>
				<mask maskUnits="userSpaceOnUse" x="142.4" y="52.8" width="5.3" height="10.5" id="mask-2_26_">
					<g class="st54">
						<polygon id="path-1_26_" class="st4" points="0,66.4 150.6,66.4 150.6,0 0,0       "></polygon>
					</g>
				</mask>
				<path id="Fill-49" class="st55" d="M145.1,62.5c-1.3,0-1.5-1.6-1.5-2.6c0-1,0.1-3.1,1.5-3.1c1.3,0,1.6,1.9,1.6,2.9      C146.8,60.6,146.4,62.5,145.1,62.5z M146.8,57.2L146.8,57.2c-0.3-0.9-1-1.3-1.9-1.3c-1.9,0-2.4,2.2-2.4,3.8      c0,1.7,0.4,3.7,2.4,3.7c0.9,0,1.6-0.6,1.9-1.4h0v1.2h1V52.8h-1V57.2z"></path>
				<defs>
					<filter id="Adobe_OpacityMaskFilter_26_" filterUnits="userSpaceOnUse" x="149.1" y="61.7" width="1.5" height="1.5">
						<feColorMatrix type="matrix" values="1 0 0 0 0  0 1 0 0 0  0 0 1 0 0  0 0 0 1 0"></feColorMatrix>
					</filter>
				</defs>
				<mask maskUnits="userSpaceOnUse" x="149.1" y="61.7" width="1.5" height="1.5" id="mask-2_27_">
					<g class="st56">
						<polygon id="path-1_27_" class="st4" points="0,66.4 150.6,66.4 150.6,0 0,0       "></polygon>
					</g>
				</mask>
				<polygon id="Fill-50" class="st57" points="149.1,63.1 150.6,63.1 150.6,61.7 149.1,61.7     "></polygon>
			</g>
		</g>
	</g>
</g>
<g class="st0">
	<g class="st1">
		<g>
			<path class="st58" d="M22.1,44.2h7.2v1.1h-3v7.5H25v-7.5h-2.9V44.2z"></path>
			<path class="st58" d="M30.4,52.7v-8.6h2.1c0.9,0,1.6,0.2,2.1,0.6c0.5,0.4,0.8,1,0.8,1.7c0,0.5-0.1,0.9-0.4,1.3     c-0.2,0.4-0.6,0.6-1.1,0.8c0.3,0.2,0.5,0.4,0.8,0.7c0.3,0.3,0.6,0.9,1.1,1.6c0.3,0.5,0.5,0.9,0.7,1.1l0.5,0.6h-1.5l-0.4-0.6     c0,0,0-0.1-0.1-0.1l-0.2-0.3l-0.4-0.6l-0.4-0.7c-0.3-0.4-0.5-0.6-0.7-0.8c-0.2-0.2-0.4-0.4-0.6-0.4C32.6,49.1,32.4,49,32,49h-0.3     v3.7H30.4z M32,45.2h-0.4v2.7h0.5c0.6,0,1-0.1,1.3-0.2c0.2-0.1,0.4-0.3,0.5-0.5c0.1-0.2,0.2-0.5,0.2-0.7c0-0.3-0.1-0.5-0.2-0.7     c-0.1-0.2-0.3-0.4-0.6-0.5C33,45.3,32.6,45.2,32,45.2z"></path>
			<path class="st58" d="M40.7,44.1h0.9l3.8,8.6h-1.3L43,50.2h-3.7l-1.1,2.5H37L40.7,44.1z M42.5,49.1L41.1,46l-1.3,3.1H42.5z"></path>
			<path class="st58" d="M46.3,44.2h1.2v8.6h-1.2V44.2z"></path>
			<path class="st58" d="M56.3,44.2h1.2v8.6h-1.1l-5.7-6.6v6.6h-1.2v-8.6h1l5.8,6.7V44.2z"></path>
			<path class="st58" d="M59.3,44.2h1.2v8.6h-1.2V44.2z"></path>
			<path class="st58" d="M69.2,44.2h1.2v8.6h-1.1l-5.7-6.6v6.6h-1.2v-8.6h1l5.8,6.7V44.2z"></path>
			<path class="st58" d="M76.8,48.5h2.9v3.6c-1.1,0.5-2.1,0.7-3.1,0.7c-1.4,0-2.6-0.4-3.4-1.2c-0.8-0.8-1.3-1.8-1.3-3.1     c0-1.3,0.4-2.3,1.3-3.2c0.9-0.9,2-1.3,3.3-1.3c0.5,0,0.9,0.1,1.4,0.2c0.4,0.1,1,0.3,1.6,0.6V46c-1-0.6-2-0.9-3-0.9     c-0.9,0-1.7,0.3-2.4,1c-0.6,0.6-1,1.4-1,2.3c0,1,0.3,1.8,1,2.4c0.6,0.6,1.5,0.9,2.5,0.9c0.5,0,1.1-0.1,1.8-0.3l0.1,0v-1.8h-1.6     V48.5z"></path>
			<path class="st58" d="M86,44.1c0.5,0,1,0.1,1.4,0.2c0.5,0.1,1,0.3,1.5,0.6v1.6c-0.5-0.3-1-0.5-1.5-0.7c-0.4-0.1-0.9-0.2-1.4-0.2     c-0.6,0-1.2,0.1-1.6,0.4c-0.5,0.3-0.9,0.6-1.1,1.1c-0.3,0.5-0.4,1-0.4,1.5c0,0.6,0.1,1.1,0.4,1.5s0.6,0.8,1.1,1.1     c0.5,0.2,1,0.4,1.7,0.4c0.5,0,0.9-0.1,1.3-0.2c0.4-0.1,1-0.4,1.6-0.7v1.6c-0.6,0.3-1.1,0.5-1.5,0.6c-0.5,0.1-1,0.2-1.6,0.2     c-0.9,0-1.7-0.2-2.4-0.5s-1.3-0.9-1.7-1.6c-0.4-0.7-0.6-1.4-0.6-2.2c0-0.9,0.2-1.6,0.6-2.3c0.4-0.7,1-1.2,1.7-1.6     C84.3,44.3,85.1,44.1,86,44.1z"></path>
			<path class="st58" d="M96.1,44.2v1.3h-3.9v2.2H96V49h-3.7v2.4h4v1.3h-5.6v-8.6H96.1z"></path>
			<path class="st58" d="M99.2,44.2l5.1,6v-6h1.6v8.6h-1.4l-5.1-6.1v6.1h-1.6v-8.6H99.2z"></path>
			<path class="st58" d="M114.9,44.2v1.3h-3v7.3h-1.7v-7.3h-3v-1.3H114.9z"></path>
			<path class="st58" d="M121.7,44.2v1.3h-3.9v2.2h3.7V49h-3.7v2.4h4v1.3h-5.6v-8.6H121.7z"></path>
			<path class="st58" d="M126.4,44.2c0.8,0,1.5,0.2,2,0.7c0.5,0.4,0.8,1,0.8,1.7c0,0.5-0.1,0.9-0.4,1.3c-0.3,0.4-0.6,0.6-1.1,0.9     c0.3,0.1,0.5,0.3,0.7,0.6c0.2,0.3,0.5,0.7,0.8,1.3c0.5,1,0.9,1.8,1.2,2.1h-1.8c-0.1-0.2-0.3-0.5-0.5-0.9c-0.5-0.9-0.8-1.5-1-1.8     c-0.2-0.3-0.4-0.5-0.6-0.7c-0.2-0.1-0.4-0.2-0.7-0.2H125v3.6h-1.7v-8.6H126.4z M126.1,47.8c0.4,0,0.8-0.1,1-0.3     c0.2-0.2,0.4-0.5,0.4-0.9c0-0.4-0.1-0.7-0.4-0.9c-0.2-0.2-0.6-0.3-1-0.3h-1v2.4H126.1z"></path>
		</g>
		<g>
			<path class="st58" d="M112.3,61.1c-0.1,0-0.2,0-0.3,0.1c-0.1,0-0.2,0.1-0.3,0.2v1.7c0.2,0.1,0.4,0.1,0.6,0.1     c0.3,0,0.5-0.1,0.6-0.3c0.1-0.2,0.2-0.4,0.2-0.8c0-0.3-0.1-0.5-0.2-0.7C112.8,61.2,112.6,61.1,112.3,61.1z"></path>
			<path class="st58" d="M42.7,64.3c0,0.3,0.3,0.4,0.8,0.4c0.2,0,0.4,0,0.6-0.1c0.1-0.1,0.2-0.2,0.2-0.3c0-0.1-0.1-0.2-0.2-0.3     c-0.2-0.1-0.4-0.1-0.7-0.1c-0.2,0-0.4,0-0.5,0.1C42.8,64.1,42.7,64.2,42.7,64.3z"></path>
			<path class="st58" d="M43.1,61.3c-0.1,0.1-0.2,0.2-0.2,0.4c0,0.2,0.1,0.3,0.2,0.4c0.1,0.1,0.3,0.2,0.4,0.2c0.2,0,0.3-0.1,0.4-0.2     c0.1-0.1,0.2-0.3,0.2-0.4c0-0.2-0.1-0.3-0.2-0.4c-0.1-0.1-0.3-0.2-0.4-0.2C43.4,61.1,43.2,61.2,43.1,61.3z"></path>
			<path class="st58" d="M49.5,59.7h-0.9V63h1c0.5,0,0.9-0.2,1.2-0.5c0.3-0.3,0.5-0.7,0.5-1.2c0-0.5-0.2-0.9-0.5-1.2     C50.4,59.9,50,59.7,49.5,59.7z"></path>
			<path class="st58" d="M91.5,61.1c-0.3,0-0.5,0.1-0.6,0.3c-0.2,0.2-0.2,0.4-0.2,0.7c0,0.3,0.1,0.6,0.2,0.8     c0.2,0.2,0.4,0.3,0.6,0.3c0.3,0,0.5-0.1,0.6-0.3c0.2-0.2,0.2-0.4,0.2-0.8c0-0.3-0.1-0.6-0.2-0.7C92,61.2,91.8,61.1,91.5,61.1z"></path>
			<path class="st58" d="M101.2,61.1c-0.3,0-0.5,0.1-0.6,0.3c-0.2,0.2-0.2,0.4-0.2,0.7c0,0.3,0.1,0.6,0.2,0.8     c0.2,0.2,0.4,0.3,0.6,0.3c0.3,0,0.5-0.1,0.6-0.3c0.2-0.2,0.2-0.4,0.2-0.8c0-0.3-0.1-0.6-0.2-0.7     C101.7,61.2,101.5,61.1,101.2,61.1z"></path>
			<path class="st58" d="M58.1,62.6C58,62.7,58,62.8,58,62.9c0,0.1,0,0.2,0.1,0.3c0.1,0.1,0.2,0.1,0.3,0.1c0.2,0,0.4-0.1,0.5-0.2     v-0.8c-0.2,0.1-0.4,0.2-0.5,0.2C58.2,62.5,58.1,62.5,58.1,62.6z"></path>
			<path class="st58" d="M97.5,59.7h-0.6V61h0.7c0.2,0,0.4-0.1,0.6-0.2c0.1-0.1,0.2-0.3,0.2-0.5C98.3,60,98,59.7,97.5,59.7z"></path>
			<path class="st58" d="M62.1,61.1c-0.1,0-0.2,0-0.3,0.1c-0.1,0-0.2,0.1-0.3,0.2v1.7c0.2,0.1,0.4,0.1,0.6,0.1     c0.3,0,0.5-0.1,0.6-0.3c0.1-0.2,0.2-0.4,0.2-0.8c0-0.3-0.1-0.5-0.2-0.7C62.6,61.2,62.4,61.1,62.1,61.1z"></path>
			<path class="st58" d="M75.2,61.1c-0.2,0-0.4,0.1-0.5,0.2c-0.1,0.1-0.2,0.3-0.2,0.5h1.4c0-0.2-0.1-0.4-0.2-0.5     C75.6,61.2,75.4,61.1,75.2,61.1z"></path>
			<path class="st58" d="M125.4,61.1c-0.2,0-0.4,0.1-0.5,0.2c-0.1,0.1-0.2,0.3-0.2,0.5h1.4c0-0.2-0.1-0.4-0.2-0.5     C125.8,61.2,125.6,61.1,125.4,61.1z"></path>
			<path class="st58" d="M19.3,55.7V67H132V55.7H19.3z M26.5,59.7h-1.7v4h-0.9v-4h-1.7V59h4.2V59.7z M29.4,63.7h-0.8v-0.4     c-0.3,0.3-0.6,0.5-1,0.5c-0.3,0-0.6-0.1-0.8-0.3c-0.2-0.2-0.3-0.5-0.3-0.9v-2h0.8v1.9c0,0.2,0.1,0.4,0.2,0.5     c0.1,0.1,0.2,0.2,0.4,0.2c0.1,0,0.3,0,0.4-0.1s0.2-0.2,0.3-0.4v-2.1h0.8V63.7z M32.4,61.6c-0.2-0.2-0.4-0.3-0.6-0.3     c-0.1,0-0.3,0-0.4,0.1c-0.1,0.1-0.2,0.2-0.3,0.4c-0.1,0.2-0.1,0.3-0.1,0.5v1.4h-0.8v-3.1h0.8v0.8h0c0.1-0.3,0.3-0.5,0.5-0.7     c0.2-0.1,0.3-0.2,0.5-0.2c0.1,0,0.2,0,0.3,0.1c0.1,0,0.2,0.1,0.4,0.2L32.4,61.6z M36,63.7h-0.8v-1.9c0-0.2,0-0.4-0.1-0.5     c-0.1-0.1-0.2-0.2-0.4-0.2c-0.1,0-0.2,0-0.4,0.1c-0.1,0.1-0.2,0.2-0.4,0.4v2.1h-0.8v-3.1h0.8V61c0.2-0.2,0.3-0.3,0.5-0.4     c0.2-0.1,0.3-0.1,0.5-0.1c0.3,0,0.6,0.1,0.8,0.3c0.2,0.2,0.3,0.5,0.3,0.9V63.7z M37.7,63.7h-0.8v-3.1h0.8V63.7z M37.6,59.9     c-0.1,0.1-0.2,0.1-0.3,0.1c-0.1,0-0.2,0-0.3-0.1c-0.1-0.1-0.1-0.2-0.1-0.3c0-0.1,0-0.2,0.1-0.3c0.1-0.1,0.2-0.1,0.3-0.1     c0.1,0,0.2,0,0.3,0.1c0.1,0.1,0.1,0.2,0.1,0.3C37.7,59.7,37.7,59.8,37.6,59.9z M41.5,63.7h-0.8v-1.9c0-0.2,0-0.4-0.1-0.5     c-0.1-0.1-0.2-0.2-0.4-0.2c-0.1,0-0.2,0-0.4,0.1c-0.1,0.1-0.2,0.2-0.4,0.4v2.1h-0.8v-3.1h0.8V61c0.2-0.2,0.3-0.3,0.5-0.4     c0.2-0.1,0.3-0.1,0.5-0.1c0.3,0,0.6,0.1,0.8,0.3c0.2,0.2,0.3,0.5,0.3,0.9V63.7z M45.2,61.2h-0.5c0.1,0.1,0.1,0.2,0.2,0.3     c0,0.1,0.1,0.2,0.1,0.3c0,0.3-0.1,0.5-0.3,0.7c-0.2,0.2-0.4,0.3-0.9,0.4c-0.2,0-0.4,0.1-0.4,0.1c-0.1,0-0.1,0.1-0.1,0.2     c0,0.1,0,0.1,0.1,0.1c0.1,0,0.2,0.1,0.4,0.1c0.5,0.1,0.8,0.2,1,0.3c0.2,0.2,0.3,0.4,0.3,0.6c0,0.3-0.1,0.6-0.4,0.8     c-0.3,0.2-0.7,0.3-1.2,0.3c-0.5,0-0.9-0.1-1.1-0.3c-0.3-0.2-0.4-0.4-0.4-0.7c0-0.4,0.3-0.7,0.8-0.8c-0.2-0.1-0.4-0.2-0.4-0.4     c0-0.2,0.2-0.4,0.5-0.5v0c-0.2-0.1-0.4-0.2-0.6-0.4c-0.1-0.2-0.2-0.4-0.2-0.6c0-0.3,0.1-0.6,0.4-0.8c0.3-0.2,0.6-0.3,1-0.3h1.6     V61.2z M51.8,62.6c-0.2,0.4-0.5,0.6-0.9,0.8c-0.4,0.2-0.8,0.3-1.3,0.3h-1.9V59h2c0.5,0,0.9,0.1,1.3,0.3c0.4,0.2,0.7,0.5,0.9,0.8     s0.3,0.8,0.3,1.2C52.1,61.8,52,62.2,51.8,62.6z M53.7,63.7h-0.8v-3.1h0.8V63.7z M53.6,59.9c-0.1,0.1-0.2,0.1-0.3,0.1     c-0.1,0-0.2,0-0.3-0.1c-0.1-0.1-0.1-0.2-0.1-0.3c0-0.1,0-0.2,0.1-0.3c0.1-0.1,0.2-0.1,0.3-0.1c0.1,0,0.2,0,0.3,0.1     c0.1,0.1,0.1,0.2,0.1,0.3C53.8,59.7,53.7,59.8,53.6,59.9z M56.4,63.5c-0.2,0.2-0.5,0.3-0.9,0.3c-0.2,0-0.4,0-0.6-0.1     c-0.2,0-0.4-0.1-0.5-0.2v-0.7c0.4,0.2,0.7,0.3,1,0.3c0.1,0,0.3,0,0.3-0.1c0.1-0.1,0.1-0.1,0.1-0.2c0,0,0-0.1,0-0.1     s-0.1-0.1-0.1-0.1c-0.1,0-0.3-0.1-0.6-0.3c-0.3-0.1-0.4-0.3-0.6-0.4c-0.1-0.1-0.2-0.3-0.2-0.5c0-0.3,0.1-0.5,0.3-0.7     c0.2-0.2,0.5-0.2,0.9-0.2c0.2,0,0.3,0,0.5,0.1c0.2,0,0.3,0.1,0.5,0.2v0.7c-0.2-0.1-0.3-0.2-0.5-0.2c-0.2-0.1-0.3-0.1-0.5-0.1     c-0.1,0-0.2,0-0.3,0.1c-0.1,0-0.1,0.1-0.1,0.2c0,0,0,0.1,0.1,0.1c0.1,0,0.2,0.1,0.5,0.3c0.4,0.2,0.6,0.3,0.8,0.5     c0.1,0.2,0.2,0.3,0.2,0.6C56.7,63.1,56.6,63.3,56.4,63.5z M60.2,63.5c-0.3,0.2-0.6,0.3-0.8,0.3c-0.1,0-0.3,0-0.3-0.1     c-0.1,0-0.1-0.1-0.2-0.3c-0.3,0.2-0.6,0.3-1,0.3c-0.2,0-0.4-0.1-0.6-0.2c-0.2-0.2-0.2-0.3-0.2-0.5c0-0.3,0.1-0.5,0.2-0.6     s0.4-0.3,0.8-0.4l0.7-0.2v-0.1c0-0.3-0.2-0.5-0.6-0.5c-0.2,0-0.4,0-0.6,0.1c-0.2,0.1-0.4,0.2-0.5,0.4v-0.7     c0.3-0.3,0.7-0.4,1.2-0.4c0.4,0,0.7,0.1,0.9,0.3c0.2,0.2,0.3,0.4,0.3,0.7V63c0,0.1,0,0.2,0.1,0.2c0,0,0.1,0,0.2-0.1     c0.1,0,0.1-0.1,0.2-0.1V63.5z M63.3,63.3c-0.3,0.3-0.7,0.4-1.3,0.4c-0.5,0-0.9-0.1-1.4-0.3V59h0.8v1.8c0.2-0.2,0.5-0.3,0.8-0.3     c0.3,0,0.5,0.1,0.8,0.2c0.2,0.1,0.4,0.3,0.5,0.6c0.1,0.2,0.2,0.5,0.2,0.8C63.8,62.6,63.6,63,63.3,63.3z M65.3,63.7h-0.8v-3.1h0.8     V63.7z M65.2,59.9c-0.1,0.1-0.2,0.1-0.3,0.1c-0.1,0-0.2,0-0.3-0.1c-0.1-0.1-0.1-0.2-0.1-0.3c0-0.1,0-0.2,0.1-0.3     c0.1-0.1,0.2-0.1,0.3-0.1c0.1,0,0.2,0,0.3,0.1c0.1,0.1,0.1,0.2,0.1,0.3C65.3,59.7,65.3,59.8,65.2,59.9z M67,63.7h-0.8V59H67V63.7     z M68.7,63.7h-0.8v-3.1h0.8V63.7z M68.6,59.9c-0.1,0.1-0.2,0.1-0.3,0.1c-0.1,0-0.2,0-0.3-0.1c-0.1-0.1-0.1-0.2-0.1-0.3     c0-0.1,0-0.2,0.1-0.3c0.1-0.1,0.2-0.1,0.3-0.1c0.1,0,0.2,0,0.3,0.1c0.1,0.1,0.1,0.2,0.1,0.3C68.8,59.7,68.7,59.8,68.6,59.9z      M71.6,63.6c-0.3,0.1-0.6,0.2-0.8,0.2c-0.4,0-0.6-0.1-0.8-0.3c-0.2-0.2-0.3-0.5-0.3-0.8v-1.5h-0.5v-0.1l1.2-1.3h0.1v0.8h1.1v0.6     h-1.1v1.4c0,0.1,0,0.3,0.1,0.3c0.1,0.1,0.2,0.1,0.3,0.1c0.2,0,0.4-0.1,0.7-0.2V63.6z M72.9,63.7h-0.8v-3.1h0.8V63.7z M72.9,59.9     c-0.1,0.1-0.2,0.1-0.3,0.1c-0.1,0-0.2,0-0.3-0.1c-0.1-0.1-0.1-0.2-0.1-0.3c0-0.1,0-0.2,0.1-0.3c0.1-0.1,0.2-0.1,0.3-0.1     c0.1,0,0.2,0,0.3,0.1c0.1,0.1,0.1,0.2,0.1,0.3C73,59.7,73,59.8,72.9,59.9z M76.7,62.3h-2.2c0,0.3,0.1,0.5,0.3,0.6     s0.4,0.2,0.7,0.2c0.2,0,0.4,0,0.6-0.1c0.2-0.1,0.4-0.2,0.6-0.3v0.6c-0.4,0.3-0.8,0.4-1.3,0.4c-0.5,0-0.9-0.1-1.2-0.4     c-0.3-0.3-0.5-0.7-0.5-1.2c0-0.5,0.1-0.9,0.4-1.2c0.3-0.3,0.7-0.5,1.1-0.5c0.5,0,0.8,0.1,1.1,0.4s0.4,0.7,0.4,1.2V62.3z      M79.2,63.5c-0.2,0.2-0.5,0.3-0.9,0.3c-0.2,0-0.4,0-0.6-0.1c-0.2,0-0.4-0.1-0.5-0.2v-0.7c0.4,0.2,0.7,0.3,1,0.3     c0.1,0,0.3,0,0.3-0.1c0.1-0.1,0.1-0.1,0.1-0.2c0,0,0-0.1,0-0.1c0,0-0.1-0.1-0.1-0.1c-0.1,0-0.3-0.1-0.6-0.3     c-0.3-0.1-0.4-0.3-0.6-0.4c-0.1-0.1-0.2-0.3-0.2-0.5c0-0.3,0.1-0.5,0.3-0.7c0.2-0.2,0.5-0.2,0.9-0.2c0.2,0,0.3,0,0.5,0.1     c0.2,0,0.3,0.1,0.5,0.2v0.7c-0.2-0.1-0.3-0.2-0.5-0.2c-0.2-0.1-0.3-0.1-0.5-0.1c-0.1,0-0.2,0-0.3,0.1c-0.1,0-0.1,0.1-0.1,0.2     c0,0,0,0.1,0.1,0.1c0.1,0,0.2,0.1,0.5,0.3c0.4,0.2,0.6,0.3,0.8,0.5c0.1,0.2,0.2,0.3,0.2,0.6C79.5,63.1,79.4,63.3,79.2,63.5z      M82.9,63.7h-0.8v-3.1h0.8V63.7z M82.8,59.9c-0.1,0.1-0.2,0.1-0.3,0.1c-0.1,0-0.2,0-0.3-0.1c-0.1-0.1-0.1-0.2-0.1-0.3     c0-0.1,0-0.2,0.1-0.3c0.1-0.1,0.2-0.1,0.3-0.1c0.1,0,0.2,0,0.3,0.1c0.1,0.1,0.1,0.2,0.1,0.3C82.9,59.7,82.9,59.8,82.8,59.9z      M86.7,63.7h-0.8v-1.9c0-0.2,0-0.4-0.1-0.5c-0.1-0.1-0.2-0.2-0.4-0.2c-0.1,0-0.2,0-0.4,0.1c-0.1,0.1-0.2,0.2-0.4,0.4v2.1h-0.8     v-3.1h0.8V61c0.2-0.2,0.3-0.3,0.5-0.4c0.2-0.1,0.3-0.1,0.5-0.1c0.3,0,0.6,0.1,0.8,0.3c0.2,0.2,0.3,0.5,0.3,0.9V63.7z M89.5,63.6     c-0.3,0.1-0.6,0.2-0.8,0.2c-0.4,0-0.6-0.1-0.8-0.3c-0.2-0.2-0.3-0.5-0.3-0.8v-1.5h-0.5v-0.1l1.2-1.3h0.1v0.8h1.1v0.6h-1.1v1.4     c0,0.1,0,0.3,0.1,0.3c0.1,0.1,0.2,0.1,0.3,0.1c0.2,0,0.4-0.1,0.7-0.2V63.6z M93.1,63c-0.1,0.2-0.3,0.4-0.6,0.6     c-0.3,0.1-0.6,0.2-0.9,0.2c-0.3,0-0.6-0.1-0.9-0.2c-0.3-0.1-0.5-0.3-0.6-0.6c-0.1-0.2-0.2-0.5-0.2-0.9c0-0.3,0.1-0.6,0.2-0.8     s0.4-0.4,0.6-0.6c0.3-0.1,0.6-0.2,0.9-0.2c0.3,0,0.6,0.1,0.9,0.2c0.3,0.1,0.5,0.3,0.6,0.6c0.1,0.2,0.2,0.5,0.2,0.8     C93.3,62.5,93.2,62.7,93.1,63z M98.8,61.4c-0.3,0.3-0.6,0.4-1.1,0.4h-0.9v2H96V59h1.8c0.4,0,0.8,0.1,1.1,0.4     c0.3,0.3,0.4,0.6,0.4,1C99.2,60.8,99.1,61.1,98.8,61.4z M102.7,63c-0.1,0.2-0.3,0.4-0.6,0.6c-0.3,0.1-0.6,0.2-0.9,0.2     c-0.3,0-0.6-0.1-0.9-0.2c-0.3-0.1-0.5-0.3-0.6-0.6c-0.1-0.2-0.2-0.5-0.2-0.9c0-0.3,0.1-0.6,0.2-0.8c0.1-0.2,0.4-0.4,0.6-0.6     c0.3-0.1,0.6-0.2,0.9-0.2c0.3,0,0.6,0.1,0.9,0.2c0.3,0.1,0.5,0.3,0.6,0.6c0.1,0.2,0.2,0.5,0.2,0.8     C102.9,62.5,102.9,62.7,102.7,63z M105.4,63.5c-0.2,0.2-0.5,0.3-0.9,0.3c-0.2,0-0.4,0-0.6-0.1c-0.2,0-0.4-0.1-0.5-0.2v-0.7     c0.4,0.2,0.7,0.3,1,0.3c0.1,0,0.3,0,0.3-0.1c0.1-0.1,0.1-0.1,0.1-0.2c0,0,0-0.1,0-0.1c0,0-0.1-0.1-0.1-0.1     c-0.1,0-0.3-0.1-0.6-0.3c-0.3-0.1-0.4-0.3-0.6-0.4c-0.1-0.1-0.2-0.3-0.2-0.5c0-0.3,0.1-0.5,0.3-0.7c0.2-0.2,0.5-0.2,0.9-0.2     c0.2,0,0.3,0,0.5,0.1c0.2,0,0.3,0.1,0.5,0.2v0.7c-0.2-0.1-0.3-0.2-0.5-0.2c-0.2-0.1-0.3-0.1-0.5-0.1c-0.1,0-0.2,0-0.3,0.1     c-0.1,0-0.1,0.1-0.1,0.2c0,0,0,0.1,0.1,0.1c0.1,0,0.2,0.1,0.5,0.3c0.4,0.2,0.6,0.3,0.8,0.5c0.1,0.2,0.2,0.3,0.2,0.6     C105.7,63.1,105.6,63.3,105.4,63.5z M108.2,63.5c-0.2,0.2-0.5,0.3-0.9,0.3c-0.2,0-0.4,0-0.6-0.1c-0.2,0-0.4-0.1-0.5-0.2v-0.7     c0.4,0.2,0.7,0.3,1,0.3c0.1,0,0.3,0,0.3-0.1c0.1-0.1,0.1-0.1,0.1-0.2c0,0,0-0.1,0-0.1c0,0-0.1-0.1-0.1-0.1     c-0.1,0-0.3-0.1-0.6-0.3c-0.3-0.1-0.4-0.3-0.6-0.4c-0.1-0.1-0.2-0.3-0.2-0.5c0-0.3,0.1-0.5,0.3-0.7c0.2-0.2,0.5-0.2,0.9-0.2     c0.2,0,0.3,0,0.5,0.1c0.2,0,0.3,0.1,0.5,0.2v0.7c-0.2-0.1-0.3-0.2-0.5-0.2c-0.2-0.1-0.3-0.1-0.5-0.1c-0.1,0-0.2,0-0.3,0.1     c-0.1,0-0.1,0.1-0.1,0.2c0,0,0,0.1,0.1,0.1c0.1,0,0.2,0.1,0.5,0.3c0.4,0.2,0.6,0.3,0.8,0.5c0.1,0.2,0.2,0.3,0.2,0.6     C108.5,63.1,108.4,63.3,108.2,63.5z M110,63.7h-0.8v-3.1h0.8V63.7z M109.9,59.9c-0.1,0.1-0.2,0.1-0.3,0.1c-0.1,0-0.2,0-0.3-0.1     c-0.1-0.1-0.1-0.2-0.1-0.3c0-0.1,0-0.2,0.1-0.3c0.1-0.1,0.2-0.1,0.3-0.1c0.1,0,0.2,0,0.3,0.1c0.1,0.1,0.1,0.2,0.1,0.3     C110.1,59.7,110,59.8,109.9,59.9z M113.5,63.3c-0.3,0.3-0.7,0.4-1.3,0.4c-0.5,0-0.9-0.1-1.4-0.3V59h0.8v1.8     c0.2-0.2,0.5-0.3,0.8-0.3c0.3,0,0.5,0.1,0.8,0.2c0.2,0.1,0.4,0.3,0.5,0.6c0.1,0.2,0.2,0.5,0.2,0.8C114,62.6,113.8,63,113.5,63.3z      M115.5,63.7h-0.8v-3.1h0.8V63.7z M115.4,59.9c-0.1,0.1-0.2,0.1-0.3,0.1c-0.1,0-0.2,0-0.3-0.1c-0.1-0.1-0.1-0.2-0.1-0.3     c0-0.1,0-0.2,0.1-0.3c0.1-0.1,0.2-0.1,0.3-0.1c0.1,0,0.2,0,0.3,0.1c0.1,0.1,0.1,0.2,0.1,0.3C115.5,59.7,115.5,59.8,115.4,59.9z      M117.2,63.7h-0.8V59h0.8V63.7z M118.9,63.7h-0.8v-3.1h0.8V63.7z M118.8,59.9c-0.1,0.1-0.2,0.1-0.3,0.1c-0.1,0-0.2,0-0.3-0.1     c-0.1-0.1-0.1-0.2-0.1-0.3c0-0.1,0-0.2,0.1-0.3c0.1-0.1,0.2-0.1,0.3-0.1c0.1,0,0.2,0,0.3,0.1c0.1,0.1,0.1,0.2,0.1,0.3     C118.9,59.7,118.9,59.8,118.8,59.9z M121.8,63.6c-0.3,0.1-0.6,0.2-0.8,0.2c-0.4,0-0.6-0.1-0.8-0.3c-0.2-0.2-0.3-0.5-0.3-0.8v-1.5     h-0.5v-0.1l1.2-1.3h0.1v0.8h1.1v0.6h-1.1v1.4c0,0.1,0,0.3,0.1,0.3c0.1,0.1,0.2,0.1,0.3,0.1c0.2,0,0.4-0.1,0.7-0.2V63.6z      M123.1,63.7h-0.8v-3.1h0.8V63.7z M123.1,59.9c-0.1,0.1-0.2,0.1-0.3,0.1c-0.1,0-0.2,0-0.3-0.1c-0.1-0.1-0.1-0.2-0.1-0.3     c0-0.1,0-0.2,0.1-0.3c0.1-0.1,0.2-0.1,0.3-0.1c0.1,0,0.2,0,0.3,0.1c0.1,0.1,0.1,0.2,0.1,0.3C123.2,59.7,123.1,59.8,123.1,59.9z      M126.9,62.3h-2.2c0,0.3,0.1,0.5,0.3,0.6c0.2,0.2,0.4,0.2,0.7,0.2c0.2,0,0.4,0,0.6-0.1c0.2-0.1,0.4-0.2,0.6-0.3v0.6     c-0.4,0.3-0.8,0.4-1.3,0.4c-0.5,0-0.9-0.1-1.2-0.4c-0.3-0.3-0.5-0.7-0.5-1.2c0-0.5,0.1-0.9,0.4-1.2c0.3-0.3,0.7-0.5,1.1-0.5     c0.5,0,0.8,0.1,1.1,0.4c0.3,0.3,0.4,0.7,0.4,1.2V62.3z M129.4,63.5c-0.2,0.2-0.5,0.3-0.9,0.3c-0.2,0-0.4,0-0.6-0.1     c-0.2,0-0.4-0.1-0.5-0.2v-0.7c0.4,0.2,0.7,0.3,1,0.3c0.1,0,0.3,0,0.3-0.1c0.1-0.1,0.1-0.1,0.1-0.2c0,0,0-0.1,0-0.1     s-0.1-0.1-0.1-0.1c-0.1,0-0.3-0.1-0.6-0.3c-0.3-0.1-0.4-0.3-0.6-0.4c-0.1-0.1-0.2-0.3-0.2-0.5c0-0.3,0.1-0.5,0.3-0.7     c0.2-0.2,0.5-0.2,0.9-0.2c0.2,0,0.3,0,0.5,0.1c0.2,0,0.3,0.1,0.5,0.2v0.7c-0.2-0.1-0.3-0.2-0.5-0.2c-0.2-0.1-0.3-0.1-0.5-0.1     c-0.1,0-0.2,0-0.3,0.1c-0.1,0-0.1,0.1-0.1,0.2c0,0,0,0.1,0.1,0.1c0.1,0,0.2,0.1,0.5,0.3c0.4,0.2,0.6,0.3,0.8,0.5     c0.1,0.2,0.2,0.3,0.2,0.6C129.7,63.1,129.6,63.3,129.4,63.5z"></path>
		</g>
		<g>
			<path class="st58" d="M55.2,12.2c0.2-0.8,0.3-1.7,0.2-2.6c-0.1-1.7-1.7-2.7-3.3-1.9c-0.8,0.4-1.5,1-2,1.7     c-0.8,1.2-1.5,2.5-2.1,3.9c-1.5,3.4-2.8,6.9-4.2,10.4c-0.1,0.2-0.1,0.4-0.2,0.7c0.3-0.1,0.5-0.1,0.7-0.1     C49.9,21.9,53.7,18,55.2,12.2z"></path>
			<path class="st58" d="M28.3,32.3c-1,0.1-2.1,0.5-2.9,1c-1.1,0.6-1,1.9,0.2,2.4c0.9,0.4,2,0.6,3,0.5c2.7-0.3,5.2-1.4,7.4-3     c0.3-0.2,0.5-0.5,0.8-0.8c-0.3-0.1-0.4-0.2-0.5-0.2C33.6,31.9,30.9,31.9,28.3,32.3z"></path>
			<path class="st58" d="M106.7,12.6c-1.7,2-3.9,10.4-3.3,12.5C106.1,21.4,107.7,17.5,106.7,12.6z"></path>
			<path class="st58" d="M94.2,23.2c-0.1-0.3-0.2-0.6-0.3-1c-0.9-0.1-1.5,0.3-2,0.8c-1.6,1.5-2.5,3.4-2.9,5.6     c-0.1,0.8-0.2,1.6-0.1,2.4c0.4,2.3,2.1,2.8,3.8,1.3c1.5-1.4,2.4-3.1,2.9-5c0.1-0.3-0.1-0.8-0.2-1.1C95,25.1,94.6,24.2,94.2,23.2z     "></path>
		</g>
	</g>
	<path class="st59" d="M19.3,0.8v39.9H132V0.8H19.3z M58.3,17.4c0.7,0,1.2,0.5,1.2,1.2c0,0.7-0.5,1.2-1.2,1.2   c-0.7,0-1.2-0.5-1.2-1.2C57.1,18,57.6,17.4,58.3,17.4z M126.7,25.8c-1.7,2.1-3.3,4.2-5,6.3c-0.4,0.5-1,0.9-1.6,1.2   c-0.7,0.4-1.6,0.4-2.2-0.2c-0.6-0.6-0.9-1.3-0.6-2.2c0.6-1.8,1.2-3.7,1.7-5.5c0.2-0.7,0.4-1.4,0.5-1.9c-0.5-0.8-1.1-0.5-1.5-0.2   c-0.6,0.5-1.2,1-1.7,1.5c-1.9,2.2-3.7,4.5-4.8,7.2c-0.5,1.1-1.3,1.4-2.5,1.4c0.2-1.8,1-3.3,1.1-5c-0.3,0.4-0.7,0.8-1,1.2   c-0.8,0.9-1.6,1.8-2.5,2.6c-0.5,0.5-1.1,0.8-1.8,1.2c-1.9,0.9-3.6-0.2-4-2.1c-0.2-0.8-0.1-1.6-0.2-2.4c0-0.3,0-0.6,0-1.1   c-1-0.1-1.9-0.1-2.9-0.2c-0.3,0.7-0.6,1.4-1,2.1c-1.1,1.9-2.6,3.3-4.7,3.9c-2.4,0.6-4.2-0.4-5.1-2.6c-0.1-0.2-0.1-0.3-0.3-0.6   c-0.3,0.2-0.6,0.5-0.9,0.7c-1.4,1.2-2.9,2.1-4.7,2.5c-2.5,0.5-4.1-0.3-5.1-2.6c-0.1-0.2-0.2-0.3-0.4-0.7c-0.8,0.8-1.4,1.6-2.1,2.3   c-0.4,0.4-0.9,0.7-1.4,0.9c-1.4,0.5-2.6-0.3-2.6-1.8c0-0.7,0.2-1.5,0.4-2.2c0.5-1.5,1-3,1.5-4.5c0.1-0.3,0.2-0.6,0.2-0.8   c0-0.3-0.1-0.7-0.3-0.9c-0.2-0.1-0.7-0.1-0.9,0.1c-0.6,0.4-1.1,0.8-1.5,1.3c-2.1,2.4-4,4.8-5.3,7.8c-0.5,1.1-1.3,1.1-2.5,1.2   c0.4-1.4,0.7-2.7,1-3.6c-0.5,0.4-1.3,1-2,1.6c-0.8,0.6-1.5,1.3-2.4,1.7c-1.9,0.9-3.4-0.3-3.2-2c0-0.1-0.1-0.1-0.1-0.3   c-0.1,0-0.3,0-0.4,0.1c-2.3,1.1-4.6,1.7-7.2,1.6c-2.5-0.1-5-0.2-7.5-0.3c-0.8,0-1.4,0.2-2,0.7c-2.4,2-5.1,3.3-8.3,3.7   c-0.9,0.1-1.8,0.1-2.6-0.1c-1.6-0.4-2.3-1.7-1.7-3.3c0.4-1.2,1.3-2,2.4-2.6c1.5-0.7,3.1-1,4.8-1c2.6-0.1,5.2,0,8,0   c0.9-1.1,1.6-2.6,2.2-4.4c-0.6-0.1-1-0.2-1.5-0.2c-1.3,0-2.6-0.3-3.7-1.1c-1.8-1.1-2.5-4.3,0-6.1c-0.1,0.3-0.1,0.5-0.2,0.7   c-0.8,1.5-0.8,2.7,0.3,4c1.3,1.6,3.1,2.2,5.3,2c0.2-0.6,0.5-1.1,0.7-1.7c1-3,2-6,3-8.9c0.7-2,1.7-3.9,3.3-5.4   c1.1-1,2.3-1.5,3.7-1.5c1.8,0,3.1,1,3.7,2.7c0.5,1.6,0.2,3.1-0.3,4.6c-1,2.8-2.9,5.1-5.2,6.9c-2,1.6-4.2,2.9-6.7,3.6   c-0.4,0.1-0.8,0.4-1.1,0.8c-0.9,1.2-1.7,2.5-2.5,3.8c-0.1,0.1-0.1,0.2-0.1,0.4c0.6,0.1,1.2,0.2,1.8,0.3c2.8,0.2,5.5,0.4,8.3,0.6   c0.5,0,0.9,0,1.4,0c1.7-0.2,3-0.7,3.4-2.7c0.3-1.6,0.9-3,1.4-4.5c0.4-1.3,0.6-1.5,2.3-1.5c-0.1,0.4-0.2,0.7-0.3,1.1   c-0.7,2.3-1.5,4.5-2.2,6.8c-0.2,0.5-0.3,1-0.4,1.6c-0.1,1.1,0.6,1.6,1.6,1.2c0.1,0,0.2-0.1,0.2-0.1c2.1-1.7,4.1-3.5,5.1-6.1   c0.4-1,0.6-2,0.9-3c0.4-1.3,0.7-1.4,2.4-1.4c-0.8,2.5-1.5,4.9-2.2,7.3c0.1,0,0.1,0.1,0.2,0.1c0.2-0.3,0.4-0.5,0.6-0.8   c1.4-1.8,2.8-3.6,4.2-5.3c0.4-0.5,1.1-1,1.7-1.2c1.5-0.7,2.7,0.2,2.6,1.8c-0.1,0.8-0.3,1.6-0.5,2.3c-0.4,1.4-0.9,2.9-1.4,4.3   c-0.1,0.3-0.2,0.6-0.2,1c-0.1,0.7,0.5,1.2,1.1,0.8c1.4-0.9,2.8-1.9,3.2-3.7c0.7-2.9,2.4-5,5-6.4c1.1-0.6,2.3-0.8,3.5-0.3   c1.1,0.5,1.6,1.5,1.2,2.5c-0.4,1-1.3,1.5-2.6,1.1c0.3-0.4,0.6-0.7,0.8-1.1c0.4-0.6,0.5-1.2,0-1.8c-0.5-0.6-1.1-0.6-1.7-0.3   c-0.5,0.2-1,0.6-1.4,1c-1.5,1.6-2.3,3.6-2.6,5.8c0,0.2,0,0.3,0,0.5c-0.1,2.6,1.6,3.9,4.1,3.1c1.8-0.6,3.2-1.7,4.4-3   c0.3-0.3,0.3-0.8,0.4-1.2c0.5-3.1,3.4-6.2,6.3-6.8c2.4-0.5,4.1,0.5,4.7,2.9c0.4,1.6,1.3,2.1,2.9,1.8c0,0,0.1,0,0.2-0.2   c0.2-0.8,0.4-1.6,0.6-2.5c1-4.4,2.6-8.6,5-12.4c0.4-0.6,0.8-1.4,1.9-1.7c0.1,0.7,0.3,1.2,0.3,1.8c0.1,3.1-0.5,6-1.9,8.8   c-0.9,1.9-2.1,3.7-3.2,5.5c-1.2,1.8-1.1,3.7-0.7,5.5c0.3,1.2,1.3,1.6,2.3,1c0.9-0.5,1.7-1.1,2.4-1.8c1.1-1.2,2.1-2.5,3-3.9   c0.6-1,1-2.2,1.4-3.3c0.5-1.2,0.7-1.4,2.3-1.4c-0.5,2.5-1.5,4.9-2,7.4c0.2-0.2,0.4-0.4,0.6-0.7c1.2-1.6,2.3-3.2,3.6-4.7   c0.6-0.8,1.5-1.3,2.3-1.9c0.7-0.4,1.4-0.5,2.1,0c0.7,0.5,0.8,1.2,0.6,1.9c-0.2,0.9-0.5,1.8-0.8,2.7c-0.4,1.4-0.9,2.8-1.3,4.2   c-0.1,0.4,0,1,0.2,1.2c0.2,0.2,0.9,0,1.2-0.2c0.6-0.4,1.1-0.8,1.5-1.3c1.3-1.6,2.6-3.3,3.9-4.9c0.2-0.2,0.4-0.5,0.8-0.6   C126.9,25.3,126.8,25.6,126.7,25.8z"></path>
</g>
<g class="st0">
	<g class="st1">
		<g>
			<path class="st58" d="M125.1,28.2c0.5-0.1,0.6-0.4,0.7-0.7c0.4-1.2,0.8-2.3,1-3.5c0.3-1.5,0.6-3.1,0.8-4.7c0.2-1,0.3-1.9,0.4-2.9     c0-0.2,0.1-0.5,0.2-0.8c0.5,0.2,1.1,0.4,1.6,0.7c1.3,0.6,2.6,1.2,3.9,1.8c0.4,0.2,0.7,0.4,1.1,0.7c1.1,0.7,1.6,1.8,1.6,3.1     c0,0.6,0,1.2,0,1.7c0,0.5,0.2,0.9,0.7,1.1c0.5,0.2,1,0.4,1.6,0.6c0.1,0.7,0.7,1,1.3,1.3c0.9,0.5,1.7,1,2.6,1.5c0,0,0.1,0,0.1,0.1     c0.7,0.8,1.5,1.5,2.2,2.4c0.5,0.6,0.6,1.4,0.7,2.2c0,0.3,0,0.6,0.2,0.9c0.1,0.1,0.1,0.2,0.1,0.3c0.3,0.5,0.2,1.1,0.5,1.6     c0.3,0.5,0.4,1,0.5,1.6c0.1,0.3,0,0.6,0.1,0.9c-0.2,0.1-0.3,0.3-0.5,0.4c0.1,0.4,0.1,0.9,0.2,1.3c0,0.3,0,0.6-0.3,0.8     c-0.1-0.1-0.2-0.1-0.3-0.2c-0.1-0.1-0.1-0.2-0.2-0.3c-0.1,1.1,0,2.2-0.8,3.1c-0.3-0.3-0.3-0.7-0.4-1.1c-0.1,0.4-0.1,0.7-0.2,0.9     c-0.2,0.8-0.4,1.6-1.1,2c0,0-0.1,0-0.2,0.1c0-0.2-0.1-0.3-0.1-0.5c0-0.1,0-0.3-0.1-0.5c-0.2,0.2-0.2,0.4-0.3,0.7     c-0.2,0.8-0.5,1.5-1.3,1.9c-0.1,0.1-0.3,0.1-0.5,0.1c0.1-0.6,0.1-1.1,0.2-1.6c0,0-0.1,0-0.1,0c0,0.2-0.1,0.5-0.1,0.7     c-0.2,0.7-0.6,1.2-1,1.8c-0.2,0.3-0.6,0.4-1.1,0.5c-0.2-0.3-0.2-0.3-0.2-0.6c-0.4,0.4-0.8,0.8-1.2,1.2c-0.3,0.3-0.6,0.4-1,0.3     c0-0.1-0.1-0.2-0.1-0.4c0,0-0.1,0-0.1,0c-0.3,0.5-0.7,1-1.3,1.1c-0.3,0.1-0.6,0.1-0.9,0.1c-0.3,0-0.6,0-0.8,0.2     c-0.4,0.3-0.9,0.5-1.4,0.4c-0.4,0-0.7,0.1-1.1,0.3c-0.4,0.3-0.8,0.4-1.3,0.4c-0.3,0-0.6,0-1,0.2c-0.2,0.1-0.5,0.1-0.7,0.1     c-0.4,0-0.8,0-1.1,0.3c-0.4,0.3-0.8,0.3-1.3,0.1c-0.3-0.1-0.5-0.1-0.8,0c-0.5,0.3-1,0.4-1.6,0.2c-0.2-0.1-0.6,0-0.8,0.1     c-0.4,0.2-0.8,0.3-1.2,0.3c-0.4,0-0.7,0.1-1.1,0.1c-0.4,0-0.8,0-1.2,0c-0.3,0-0.6,0-0.9,0.2c-0.2,0.1-0.4,0.2-0.6,0.2     c-0.5,0.1-0.8-0.1-1-0.6c-0.1-0.3-0.1-0.5-0.2-0.8c0-0.1-0.1-0.2-0.3-0.4c-0.1,0.3-0.2,0.5-0.2,0.7c0,0.4-0.2,0.6-0.5,0.8     c-0.4,0.3-0.9,0.2-1.2-0.2c-0.3-0.4-0.4-0.8-0.4-1.2c0-0.3,0-0.5-0.3-0.8c0,0.2-0.1,0.4,0,0.5c0,0.6-0.1,1.1-0.4,1.5     c-0.4,0.7-0.8,0.8-1.5,0.3c-0.1-0.1-0.2-0.2-0.3-0.3c-1.2,0.8-1.5,0.8-2.3-0.2c-0.3,0.2-0.5,0.6-0.9,0.5c-0.3-0.1-0.6-0.3-1-0.5     c-0.1,0-0.2,0.1-0.4,0.2c-0.5,0.3-1,0.3-1.4-0.1c-0.1-0.1-0.2-0.1-0.3-0.2c-1.2,0.5-1.2,0.5-2.1-0.1c-0.7,0.6-1.4,0.6-2.1,0     c-0.2,0.1-0.3,0.1-0.5,0.1c-0.4,0.1-0.7,0.1-1.1-0.1c-0.4-0.2-0.8-0.3-1.3,0c-0.3,0.2-0.5,0.1-0.8,0c-0.2-0.1-0.4-0.2-0.6-0.4     c-0.7,0.7-1.5,0.6-2.3,0c-0.1,0.1-0.2,0.1-0.3,0.2c-0.4,0.2-0.7,0.3-1.1,0.1c-0.3-0.2-0.5-0.2-0.8,0c-0.7,0.4-0.9,0.4-1.5-0.1     c-0.1-0.1-0.1-0.1-0.2-0.2c-0.4,0.1-0.7,0.6-1.1,0.5c-0.4-0.1-0.7-0.3-1.1-0.5c-0.6,0.5-1.3,0.6-2-0.1c-0.4,0.2-0.8,0.3-1.2,0.4     c-0.3-0.2-0.7-0.4-1.1-0.6c-0.5,0.4-1.2,0.4-1.8,0c-0.2-0.1-0.5-0.2-0.7,0c-0.5,0.3-0.9,0.2-1.3-0.2c0,0-0.1-0.1-0.2-0.1     c-0.4,0.2-0.7,0.6-1.2,0.5c-0.4-0.1-0.8-0.3-1.3-0.4c-0.5,0.4-1.1,0.4-1.7,0c-0.5,0.2-1,0.6-1.6,0.3c-0.4,0.5-0.9,0.8-1.7,0.6     c-0.1,0.1-0.2,0.3-0.4,0.5c-0.1,0.1-0.3,0.3-0.5,0.3c-0.3,0.1-0.6,0.2-0.8,0.4c-0.2,0.2-0.5,0.1-0.9,0.2     c-0.1,0.1-0.3,0.3-0.6,0.5c-0.6,0.5-1.3,0.6-2.1,0.5c-0.9-0.1-1.6-0.5-2.3-1.1c-0.3-0.2-0.6-0.4-1-0.4c-2.2,0.1-4.2-0.5-6.2-1.5     c-2.1-1-4.1-2.3-5.9-3.8c-1-0.8-2.1-1.5-3.1-2.3c-0.7-0.5-1.4-1-2.2-1.4c-0.4-0.3-0.9-0.5-1.4-0.7c-1.8-0.7-3.7-1.2-5.6-1.4     c-1.7-0.2-3.4-0.4-5.1-0.6c-1.3-0.2-2.6-0.3-3.8-0.4c-1.1-0.1-2.2-0.3-3.2-0.5c-1.8-0.4-3.5-1.3-4.9-2.4     c-0.9-0.7-1.7-1.6-2.2-2.6c-0.1-0.3-0.2-0.6-0.3-1c0.7,0,1.2,0,1.9,0c0.1,0.1,0.2,0.2,0.3,0.4c0.4,0.8,1.1,1.3,1.8,1.8     c0.7,0.5,1.5,0.9,2.2,1.3c1.1,0.6,2.4,1,3.7,1.1c1.8,0.2,3.6,0.5,5.4,0.7c2,0.3,4,0.5,5.9,0.8c2,0.3,3.9,0.9,5.7,1.8     c1.1,0.6,2.2,1.3,3.2,2.1c2.1,1.5,4.2,3.1,6.4,4.6c1.7,1.2,3.7,2,5.8,2.3c0.4,0.1,0.8,0.1,1.3-0.1c0-0.2,0.1-0.5,0.1-0.7     c0.2-1.3,0.8-2.2,2.1-2.6c0.6-1.2,1.5-1.9,2.9-1.8c0.5-0.5,1.1-0.7,1.7-0.7c0.4,0,0.7-0.1,1-0.4c0.6-0.6,1.3-0.8,2.1-0.6     c0.3,0.1,0.6,0.1,0.9-0.1c0.7-0.3,1.3-0.5,2.1-0.2c0.2,0.1,0.5,0,0.7,0c0.5-0.1,1-0.1,1.6,0.1c0.2,0.1,0.5,0.1,0.7,0     c0.4-0.1,0.8-0.1,1.3,0c0.3,0.1,0.7,0,1.1,0c0.5-0.1,1.1-0.1,1.5,0.2c0.2,0.1,0.4,0.2,0.6,0.1c0.1,0,0.1-0.1,0.2,0     c0.9,0.1,1.9-0.1,2.8,0.1c0.4,0.1,0.7,0,1.1,0c0.1,0,0.2-0.1,0.3-0.1c0.8,0.2,1.6,0.1,2.4,0.2c0.5,0.1,1,0.2,1.5-0.1     c0.1,0,0.2-0.1,0.3-0.1c0.1,0,0.2,0,0.3,0.1c0.6,0.3,1.1,0.4,1.7,0.1c0.2-0.1,0.5,0,0.6,0.1c0.4,0.3,0.9,0.3,1.3,0.2     c0.2-0.1,0.4-0.1,0.6,0c0.7,0.1,1.3,0,2-0.1c0.3-0.1,0.6,0,0.8,0.2c0.2,0.1,0.3,0.2,0.5,0.3c0.3-0.1,0.5-0.1,0.7-0.2     c0.2,0,0.4-0.1,0.5-0.1c0.4,0.1,0.8,0.1,1.2,0c0.3,0,0.5,0,0.8,0.1c0.4,0.2,0.8,0.2,1.2,0.1c0.4-0.2,0.8-0.1,1.2,0     c0.2,0.1,0.5,0.1,0.8,0.1c0.2,0,0.4,0,0.7,0c0.5,0.1,1,0.1,1.5,0c0.2-0.1,0.5,0,0.8,0c0.3,0.1,0.6,0.2,1,0.3     c0.4-0.3,0.8-0.3,1.2-0.1c0.3,0.2,0.6,0.1,0.9-0.1c0.5-0.2,0.9-0.3,1.4-0.1c0.2,0.1,0.5,0,0.8,0c0.2,0,0.5-0.1,0.7-0.1     c0.6,0.2,1,0,1.6-0.1c0.2-0.1,0.5-0.1,0.7,0c0.5,0.3,0.9,0.2,1.4-0.1c0.1,0,0.2-0.1,0.3-0.1c0.1,0,0.3,0,0.4,0.1     c0.5,0.2,0.9,0.2,1.4-0.2c0.3-0.2,0.7-0.3,1.1-0.1c0.2,0.2,0.5,0.1,0.7-0.1c0.5-0.4,1-0.5,1.5-0.2c0.3,0.1,0.6,0,0.8-0.1     c0.4-0.2,0.8-0.4,1.3-0.2c0.3,0.1,0.5,0,0.7-0.3c0.6-0.7,0.7-0.7,1.4-0.2c0.1,0.1,0.2,0.1,0.3,0.2c0.1-0.1,0.3-0.2,0.4-0.3     c0.4-0.5,0.7-0.6,1.3-0.3c0.6,0.3,0.6,0.3,0.9-0.2c0.4-0.5,0.4-0.5,1-0.3c0.2,0.1,0.4,0.1,0.6,0.1c0.1,0,0.1,0,0.2-0.1     c0.4-0.5,0.8-0.9,1.6-0.8c0.1,0,0.2-0.1,0.3-0.2c0.2-0.1,0.4-0.3,0.7-0.4c0.4-0.2,0.8-0.3,1-0.7c0.1-0.2,0.3-0.3,0.5-0.4     c0.7-0.4,1.4-0.9,1.9-1.6c0.2-0.3,0.5-0.5,0.8-0.7c0-0.5-0.1-0.9-0.1-1.4c-0.4-0.5-0.7-1.2-0.7-2c0-0.2-0.1-0.3-0.2-0.5     c-0.1-0.3-0.3-0.5-0.4-0.7c-0.6-1.2-0.4-3.3,1.3-4c0.2-0.1,0.4-0.2,0.7-0.3c0.1-0.1,0.2-0.2,0.5-0.4c-0.2-0.1-0.3-0.1-0.4-0.2     c-0.4-0.2-0.9-0.5-1.3-0.7c-0.5-0.3-0.6-0.3-1,0c-0.3,0.2-0.6,0.3-1,0.2c-0.3-0.1-0.7-0.1-1.1-0.1c-0.1,0.2-0.2,0.4-0.3,0.6     c-0.3,0.8-0.6,1.6-1,2.3c-0.3,0.6-0.8,1-1.2,1.5c-0.4,0.5-0.9,0.7-1.5,0.8c-1,0.3-2.1,0.4-3.2,0.4c-1.4,0-2.9,0-4.3,0     c-1.8-0.1-3.6-0.2-5.5-0.4c-0.8-0.1-1.6-0.1-2.5-0.2c-1.3-0.1-2.6-0.2-3.8-0.4c-1.6-0.2-3.2-0.4-4.8-0.7c-0.7-0.1-1.4-0.3-2-0.7     c-0.8-0.5-1.1-1.3-1.1-2.2c0-1.2,0.1-2.3,0.2-3.5c0.3-2.3,0.8-4.6,1.4-6.8c0.3-1.2,0.8-2.3,1.2-3.5c0.2-0.5,0.5-0.9,0.7-1.3     c0.4-0.7,1-1,1.8-1c1.5,0,3,0.1,4.5,0.2c0.6,0,1.2,0.1,1.9,0.1c1.7,0.1,3.4,0.4,5.1,0.6c1.5,0.3,2.9,0.5,4.4,0.8     c0.2,0,0.3,0.1,0.5,0.1c0.8,0.3,1.2,0.7,1.1,1.6c0,0.7-0.1,1.4-0.1,2.1c-0.1,1.1-0.3,2.2-0.5,3.4c-0.2,1.2-0.5,2.4-0.9,3.6     c-0.2,0.7-0.5,1.4-0.8,2.1C125.2,27.8,125.2,27.9,125.1,28.2z M127.4,29.3c0.1,0.1,0.1,0.1,0.2,0.1c1.5,0.2,2.9,0.4,4.4,0.2     c0.4-0.1,0.7-0.2,0.8-0.6c0.2-0.4,0.4-0.9,0.5-1.3c0.5-2.2,1.2-4.3,1.5-6.5c0.1-0.6-0.1-1.1-0.6-1.4c-1.1-0.8-2.4-1.4-3.7-1.9     c-0.3-0.1-0.6-0.2-1-0.3c-0.1,0.3-0.1,0.5-0.1,0.8c0,0.3,0,0.6,0,0.9c-0.2,1.3-0.3,2.5-0.5,3.7c-0.3,1.8-0.6,3.7-1.4,5.4     C127.3,28.6,127.3,28.9,127.4,29.3z M109.1,14.2c-0.6,1.8-1.2,3.6-1.7,5.3c-0.4,1.5-0.7,3-0.9,4.5c0,0.2,0,0.5,0,0.7     c0.1,0.5,0.3,0.9,0.9,1c0.3,0,0.5,0.1,0.8,0.1c1.3,0.2,2.7,0.4,4,0.6c0.8,0.1,1.6,0.2,2.4,0.3c0.9,0.1,1.9,0.2,2.8,0.4     c1.2,0.2,2.4,0.3,3.6,0.4c0.8,0.1,1.6,0.2,2.4,0.2c0.8,0,1.1-0.2,1.4-0.9c0.6-1.4,1.1-2.9,1.4-4.5c0.4-1.7,0.7-3.5,0.8-5.3     c0.1-1.1-0.2-1.5-1.2-1.9c0,0-0.1,0-0.1-0.1c-2.3-0.8-4.6-1.1-7-1.4c-0.6-0.1-1.1-0.1-1.7-0.2c-0.8-0.1-1.5-0.2-2.3-0.2     c-1.3-0.1-2.7-0.1-4-0.1c-0.1,0-0.2,0-0.3,0c-0.6-0.3-1,0-1.4,0.5C109,14,109,14.1,109.1,14.2z M142.5,31.7     c-0.1-0.2-0.2-0.5-0.2-0.7c-0.7-0.2-1.3-0.1-1.9,0.1c-0.4,0.2-0.6,0.4-0.7,0.8c0,0.4-0.1,0.8,0.4,1.1c0.7-0.3,1.3-0.6,2-0.9     c0.1,0,0.2-0.1,0.3-0.2C142.5,31.9,142.5,31.8,142.5,31.7z M66.7,49.9c-0.1-0.9-0.1-1.7,0.1-2.6c0-0.1,0-0.3-0.1-0.5     c-0.2,0.1-0.3,0.1-0.4,0.2c-0.6,0.6-0.9,1.6-0.6,2.5C65.9,49.9,66.1,50,66.7,49.9z M64.6,49.2c-1,0.8-1.2,2-0.5,3     c0.1,0.1,0.2,0.2,0.3,0.3c0.2,0.1,0.5,0,0.5-0.2c0-0.1,0-0.2,0-0.3C64.4,51.1,64.3,50.2,64.6,49.2z M140.4,29.7     c0.1,0.1,0.1,0.2,0.2,0.2c0.8,0.1,1.5,0.1,2.3,0.3c0.1,0,0.3-0.1,0.4-0.3c0.1-0.2,0-0.4-0.1-0.5c-0.1-0.1-0.3-0.2-0.5-0.2     C141.9,29.1,141.1,29.2,140.4,29.7z M101.5,47.8c0.2,0,0.4,0,0.6-0.1c0.5-0.3,0.7-1.2,0.5-1.8c-0.2,0-0.4,0-0.6,0     C101.5,46.3,101.2,46.9,101.5,47.8z M98.3,45.7c-0.6-0.1-0.7-0.1-0.9,0.4c-0.1,0.3-0.2,0.6-0.3,0.9c-0.1,0.2,0,0.4,0.2,0.6     c0.2,0.1,0.5,0,0.6-0.2C98.3,46.9,98.5,46.3,98.3,45.7z M84.6,46.9c0.2,0,0.4,0,0.6,0c0.4-0.2,0.8-1.1,0.7-1.5     c0-0.1-0.2-0.3-0.3-0.4c-0.1,0-0.4,0-0.5,0.2C84.6,45.6,84.4,46.2,84.6,46.9z M108.3,26.7c-0.6-0.2-1-0.4-1.5-0.5     c-0.6-0.2-0.8-0.6-0.8-1.2c0-1.5,0.3-3,0.6-4.5c0.1-0.3,0.1-0.6,0.2-0.9c-0.1,0.1-0.2,0.2-0.2,0.3c-0.2,1.1-0.5,2.3-0.7,3.5     c-0.1,0.6-0.1,1.2-0.1,1.9c0,0.5,0.2,1,0.7,1.2C107,26.6,107.6,26.8,108.3,26.7z M72.1,45c-0.1,0-0.1,0-0.2,0     c-0.7,0.2-1.2,1.1-1.1,1.7c0,0.3,0.4,0.5,0.6,0.3c0.1-0.1,0.2-0.2,0.2-0.2c0.2-0.4,0.3-0.9,0.4-1.3C72.2,45.3,72.1,45.2,72.1,45z      M74.6,44.8c-0.6-0.2-0.7-0.2-0.9,0.1c-0.3,0.4-0.4,0.9-0.4,1.4c0,0.1,0.1,0.3,0.2,0.3c0.1,0,0.3,0,0.4-0.1     C74.3,46.1,74.6,45.5,74.6,44.8z M141.1,33.1c0.2,0.2,0.4,0.3,0.6,0.3c0.5-0.1,0.9-0.2,1.4-0.3c0.1,0,0.3-0.1,0.4-0.2     c-0.2-0.4-0.5-0.6-0.9-0.6C142,32.3,141.4,32.4,141.1,33.1z M95,47.2c0.3,0.2,0.6,0.1,0.8-0.1c0.2-0.3,0.3-0.6,0.4-0.9     c0.1-0.3,0.1-0.5-0.2-0.6c-0.2-0.1-0.5,0-0.7,0.2C95,46.2,94.8,46.7,95,47.2z M78.6,46.7c0.5-0.2,0.6-0.7,0.8-1.2     c0.1-0.4,0.1-0.5-0.4-0.8c-0.6,0.3-0.8,0.8-0.8,1.4C78.1,46.5,78.3,46.6,78.6,46.7z M87.7,45.5c-0.4-0.2-0.6-0.1-0.8,0.2     c-0.1,0.2-0.2,0.5-0.3,0.8c-0.2,0.6,0,0.8,0.7,0.7C87.8,46.6,88,46.1,87.7,45.5z M68.2,48.2c0.6,0,0.8,0,0.8-0.3     c0.1-0.5,0.1-0.9,0.1-1.4c0-0.2-0.1-0.4-0.4-0.3C68.4,46.8,67.9,47.4,68.2,48.2z M138.4,25.9c-0.7-0.5-1.4-0.5-2.1-0.7     c-0.1,0.2-0.1,0.2-0.1,0.3c0,0.1,0,0.2,0,0.4c0.6,0.3,1.2,0.6,2,0.5c0.1-0.1,0.1-0.1,0.1-0.2C138.3,26.1,138.3,26,138.4,25.9z      M81.6,45.3c-0.4-0.5-0.7-0.5-0.9,0c-0.2,0.4-0.3,0.7-0.4,1.1c0,0.1,0,0.1,0,0.2c0.1,0.1,0.2,0.2,0.4,0.4     C81.3,46.5,81.3,45.8,81.6,45.3z M99.6,47.7c0.6-0.4,0.9-1,1.1-1.7c0.1-0.3-0.3-0.5-0.6-0.3C99.5,46,99.2,47,99.6,47.7z      M130.5,45.8c0.3-0.5,0.3-0.9,0.2-1.4c-0.1-0.2-0.2-0.4-0.5-0.4c-0.2,0-0.4,0.2-0.5,0.5c0,0.3,0,0.5,0,0.8     C129.8,45.8,129.9,45.9,130.5,45.8z M112.6,45.9c-0.7,0.5-0.9,1.2-0.6,1.9c0.2,0,0.3,0,0.5,0c0.4-0.5,0.4-1,0.5-1.5     C113,46.2,112.8,46,112.6,45.9z M104.5,46.1c-0.4-0.1-0.5,0-0.7,0.2c-0.3,0.5-0.4,1-0.3,1.5c0.5,0.2,0.6,0.1,0.8-0.3     C104.6,47.1,104.6,46.6,104.5,46.1z M119.2,47.5c0.3-0.6,0.7-1.1,0.5-1.8c-0.2,0-0.5,0-0.8,0c-0.1,0.3-0.2,0.7-0.2,1     C118.6,47.1,118.6,47.2,119.2,47.5z M83.8,45.1c-0.3-0.1-0.6-0.2-0.7,0.1c-0.2,0.3-0.4,0.7-0.5,1c-0.1,0.2-0.1,0.5,0.2,0.6     c0.3,0.1,0.4,0,0.6-0.2c0.2-0.3,0.4-0.6,0.5-1C83.8,45.4,83.8,45.3,83.8,45.1z M132.4,43.3c-0.1,0.2-0.3,0.3-0.3,0.5     c0,0.3,0,0.7,0.1,1c0,0.1,0.2,0.3,0.4,0.3c0.1,0,0.3-0.1,0.4-0.3C133.2,44.3,133,43.7,132.4,43.3z M76,46.4c0.2,0,0.4,0,0.5-0.1     c0.3-0.2,0.6-1.1,0.4-1.4c-0.1-0.2-0.3-0.3-0.5-0.2c-0.1,0.1-0.3,0.2-0.4,0.4C75.9,45.5,75.9,45.9,76,46.4z M117.1,45.8     c-0.5,0.4-0.7,0.8-0.6,1.4c0,0.4,0.1,0.4,0.6,0.4C117.6,46.6,117.7,46.2,117.1,45.8z M121.8,45.7c-0.6-0.1-0.9,0.1-1,0.8     c0,0.2,0.1,0.4,0.2,0.6c0.1,0.2,0.3,0.2,0.5,0C121.8,46.5,121.9,46.4,121.8,45.7z M126.1,46.8c0-0.4,0-0.8,0-1.2     c0-0.1-0.1-0.3-0.3-0.4c-0.1-0.1-0.3,0-0.5,0.1c-0.1,0.6-0.3,1.1,0.1,1.6C125.6,46.8,125.8,46.8,126.1,46.8z M123.4,45.4     c-0.2,0.1-0.4,0.3-0.4,0.5c0,0.3,0,0.6,0.1,0.9c0,0.1,0.3,0.2,0.4,0.2c0.1,0,0.3-0.2,0.4-0.3C124.1,46.3,123.9,45.7,123.4,45.4z      M136.7,42.2c-0.2,0.7,0.1,1.1,0.6,1.4c0.5-0.3,0.6-0.3,0.4-0.7c-0.1-0.3-0.3-0.5-0.5-0.7C137.1,42,137,42,136.7,42.2z      M142.2,35.4c0.6,0.3,1.5,0.2,1.9-0.3c-0.3-0.3-0.4-0.4-0.7-0.4C143,34.8,142.4,34.8,142.2,35.4z M139.7,42.2     c0.2-0.7,0-1-0.7-1.3c-0.4,0.3-0.4,0.4-0.3,0.8C138.8,42.1,139.1,42.3,139.7,42.2z M106.3,45.9c-0.3,0.4-0.6,0.8-0.5,1.4     c0,0.1,0.1,0.3,0.2,0.3c0.1,0,0.3,0,0.3-0.1c0.3-0.3,0.5-0.6,0.5-1.1C106.9,46.1,106.7,46,106.3,45.9z M108.2,47.7     c0.4-0.3,0.6-0.7,0.6-1.2c0-0.3-0.1-0.4-0.4-0.4c-0.4,0.3-0.5,0.7-0.6,1.2C107.8,47.5,107.9,47.7,108.2,47.7z M92.8,46.9     c0.5,0.2,0.6,0.2,0.8-0.1c0.1-0.2,0.2-0.5,0.3-0.8c0-0.5-0.1-0.6-0.7-0.4C93,46,92.9,46.5,92.8,46.9z M134.9,42.6     c-0.5,0.3-0.6,0.5-0.3,1.1c0.2,0.4,0.3,0.5,0.8,0.3C135.5,43.5,135.4,43,134.9,42.6z M68.7,51.5c0-0.2,0.1-0.3,0.1-0.4     c-0.2-0.4-0.4-0.9-0.8-1.1c-0.5,0.3-0.5,0.4-0.3,0.7C67.9,51.1,68.2,51.4,68.7,51.5z M89.3,47.1c0.5-0.6,0.7-1.1,0.7-1.7     c-0.6,0-0.7,0.1-0.9,0.6C89,46.2,89,46.4,89,46.7C89,46.8,89.1,46.9,89.3,47.1z M91.2,47c0.6-0.2,0.6-0.7,0.7-1.1     c0.1-0.2-0.1-0.4-0.4-0.4C90.9,46,90.8,46.4,91.2,47z M114.9,47.6c0.3-0.5,0.3-1,0.2-1.5c-0.5,0-0.7,0.1-0.7,0.7     C114.3,47.4,114.3,47.5,114.9,47.6z M110.5,46.2c-0.6,0.4-0.8,0.8-0.7,1.2c0,0.1,0.1,0.3,0.2,0.3c0.1,0,0.3,0,0.4-0.1     C110.8,47.3,110.8,46.7,110.5,46.2z M128.1,46c0.4-0.4,0.3-0.8,0-1.2c-0.2,0-0.4,0-0.6,0C127.4,45.7,127.5,45.8,128.1,46z      M141.2,40.7c-0.2-0.4-0.5-0.8-1.1-0.9c0,0.1-0.1,0.3-0.1,0.4c0.1,0.2,0.2,0.4,0.4,0.6C140.7,40.8,141,41.1,141.2,40.7z      M143.1,37.8c-0.1-0.2-0.2-0.3-0.3-0.4c-0.2-0.2-0.5-0.2-0.8-0.1C142.1,37.8,142.3,37.9,143.1,37.8z M65,50.6     c0.3,0.4,0.3,0.4,0.8,0.2c0.1-0.2,0.1-0.4-0.1-0.6C65.4,50.1,65.2,50.4,65,50.6z"></path>
			<path class="st58" d="M32.3,27.3c0.1-0.5,0.1-0.9,0.2-1.3c0.1-0.4,0.2-0.8,0.3-1.1c0.1-0.2,0.2-0.4,0.3-0.6     c0.1-0.2,0.2-0.4,0.3-0.6c0.2-0.7,0.3-1.4,0.5-2.1c0-0.1,0.1-0.2,0-0.3c-0.2-0.6,0.1-1.2,0.2-1.8c0.3-1.6,0.7-3.1,1-4.7     c0-0.2,0.2-0.4,0.2-0.6c1.2,0,2.4,0,3.6,0c0.3,0.3,0.2,0.6,0.1,0.8c-0.5,1.8-0.9,3.7-1.4,5.5c-0.5,0.8-0.6,1.8-0.9,2.7     c0,0.1,0,0.2,0,0.2c0,0,0,0.1,0.1,0.1c0,0,0,0,0.1,0c0.2,0,0.3,0,0.5,0c1.8,0,3.7,0,5.6,0c0.1,0.1,0.1,0.2,0.2,0.4     c0.1,0,0.2-0.1,0.2-0.1c0.7-0.6,1.4-1.3,2.2-1.8c0.6-0.4,1.1-0.7,1.7-1.2c0.7-0.6,1.4-1.1,2.1-1.6c0.3-0.2,0.6-0.3,1-0.3     c0.8,0,1.7,0,2.5,0c0.3,0,0.6-0.1,0.9-0.3c0.5-0.4,1-0.7,1.5-1.1c0.4-0.2,0.4-0.6,0.4-1.1c-0.3,0-0.5,0-0.7,0c-2.9,0-5.9,0-8.8,0     c-0.3,0-0.6-0.1-1-0.1c-0.1,0.4-0.2,0.8-0.4,1.2c0.7-0.1,1.3-0.1,2-0.2c0.7,0,1.3,0,2,0c0.7,0,1.3-0.1,2,0c0,0.2,0,0.3-0.1,0.3     c-0.6,0.6-3.4,2.7-3.8,2.7c0.8-0.7,1.6-1.4,2.5-2.2c-0.3,0-0.4,0-0.6,0c-1.2,0-2.5,0-3.7,0c-0.2,0-0.5,0-0.8-0.1     c0.1-0.4,0.1-0.6,0.1-0.9c0.3-1,0.4-2.1,0.8-3.1c3.9,0,7.7,0,11.5,0c0.2,0.4,0.1,0.7,0,1c-0.2,0.8-0.4,1.5-0.6,2.3     c-0.1,0.3-0.2,0.5-0.4,0.6c-1,0.8-1.9,1.6-3,2.3c-0.6,0.5-1.4,0.8-2,1.3c-0.7,0.6-1.5,1.2-2.2,1.8c0,0-0.1,0.1-0.1,0.2     c2,0,4,0,6.1,0c0.1,0.3,0.1,0.7,0.2,1.2c0.1-0.2,0.1-0.3,0.2-0.4c0.4-0.3,0.5-0.8,0.6-1.3c0.1-0.7,0.3-1.4,0.5-2.1     c0-0.1,0-0.1,0-0.2c-0.2-0.7,0.1-1.4,0.2-2.1c0.2-1.2,0.5-2.4,0.8-3.6c0.1-0.3,0.1-0.6,0.2-0.9c0.2,0,0.4-0.1,0.6-0.1     c2.8,0,5.6,0,8.4,0c0.4,0,0.7,0.1,1.1,0.1c0.7,0.2,1.2,0.7,1.2,1.4c0.1,1.7-0.2,3.2-1.2,4.6c-0.2,0.2-0.3,0.5-0.2,0.7     c0.3,0.9,0.1,1.8-0.1,2.6c0,0.1-0.1,0.3,0,0.4c0.2,0.6-0.1,1.2-0.4,1.7c-0.5,1-1.4,1.5-2.6,1.5c-3.1,0-6.1,0-9.2,0     c-0.2,0-0.3,0-0.5-0.1c-0.1-0.2-0.1-0.4-0.2-0.5c-0.1,0.2-0.2,0.3-0.3,0.5C46.8,27.3,39.6,27.3,32.3,27.3z M67.9,16.6     c-0.3,0-0.5,0-0.7,0c-3,0-5.9,0-8.9,0c-0.2,0-0.3,0-0.5,0c-0.2,0-0.3-0.1-0.5-0.2c-0.3,0.9-0.5,1.8-0.7,2.8     c0.2-0.1,0.3-0.2,0.4-0.2c0.7,0,1.4,0,2.1,0c0.2-0.5,0.3-0.9,0.4-1.4c0.4-0.4-0.1-0.2,4.3-0.2c0.5,0,0.9,0,1.4,0.3     c-0.1,0.3-0.2,0.7-0.2,1c-0.1,0.4-0.4,0.6-0.8,0.6c-0.2,0-0.4,0-0.5,0c-1.2,0-2.5,0-3.7,0c-0.2,0-0.4-0.1-0.5,0.2     c0.3,0,0.5,0,0.7,0c1.2,0,2.4,0,3.6,0c0.6,0,1.1-0.1,1.5-0.5c0.5,0,1,0,1.5,0c0.4,0,0.6-0.1,0.7-0.5C67.8,18,67.9,17.4,67.9,16.6     z M58.5,23.8c0.2,0,0.3,0,0.4,0c1.3,0,2.6,0,3.9,0c0.2,0,0.4,0,0.5-0.1c0.8-0.2,1-0.6,0.7-1.5c-1.7,0-3.5,0-5.3,0     C58.8,22.7,58.7,23.2,58.5,23.8z M35.2,16.4c-0.3,0.9-0.6,1.8-0.7,2.8c0.9-0.5,1.8-0.1,2.7-0.3c0.3-0.7,0.7-1.4,0.5-2.3     C36.9,16.5,36.1,16.8,35.2,16.4z M64.7,18.2c-1.6,0-3,0-4.5,0c-0.1,0.2-0.2,0.4-0.1,0.8c1.4-0.1,2.9,0.1,4.4-0.2     C64.6,18.7,64.6,18.5,64.7,18.2z"></path>
			<path class="st58" d="M92.1,19.4c-0.1,0.2-0.2,0.3-0.2,0.5c-0.1,0.4-0.2,0.8-0.6,1c-0.1,0-0.1,0.1-0.1,0.2     c-0.2,0.5-0.6,0.8-1,1.1c0.4,0.5,0.6,1.1,0.4,1.8c0,0.2,0.1,0.4,0.2,0.7c-0.2,0.7-0.4,1.6-0.6,2.4c0,0.1-0.1,0.2-0.2,0.3     c-1.2,0-2.3,0-3.6,0c0-0.9,0.4-1.8,0.5-2.7c-1.5-0.1-2.9,0-4.4,0c-0.1,0.5-0.2,1-0.3,1.4c-0.1,0.4-0.3,0.9-0.4,1.3     c-1.2,0-2.4,0-3.6,0c0-0.1-0.1-0.3-0.1-0.4c-0.1,0.2-0.2,0.3-0.3,0.4c-3.5,0-7.1,0-10.6,0c-0.2-0.3-0.1-0.6-0.1-0.9     c0.1-0.5,0.2-1,0.4-1.6c0-0.1,0.1-0.3,0.2-0.4c0.4-0.3,0.4-0.7,0.5-1c0.1-0.6,0.3-1.3,0.4-1.9c0-0.1,0.1-0.2,0-0.3     c-0.2-0.7,0.1-1.3,0.2-2c0.3-1.5,0.7-2.9,1-4.4c0.1-0.2,0.2-0.4,0.3-0.7c3.6,0,7.1,0,10.6,0c0.1,0.2,0.2,0.3,0.3,0.5     c0-0.4,0.3-0.5,0.7-0.5c3,0,6,0,9,0c1.3,0,2.2,1.2,2,2.6c-0.1,0.5-0.2,1.1-0.2,1.6C92.3,18.7,92.2,19,92.1,19.4z M80.5,16.7     C80.4,16.7,80.4,16.7,80.5,16.7c-0.2,0.2-0.2,0.5-0.3,0.7c-0.2,0.7-0.3,0.8-1,0.8c-1.9,0-3.8,0-5.7,0c-0.2,0-0.5,0-0.7,0     c0,0.2-0.1,0.3-0.1,0.4c0,0,0,0,0.1,0.1c0.2,0,0.4,0,0.6,0c1.7,0,3.5,0,5.2,0c0.3,0,0.6,0,0.8,0.4c-0.1,0.4-0.2,1-0.4,1.4     c-0.2,0.4-0.4,0.7-0.5,1.2c-0.1,0.2-0.1,0.4-0.2,0.7c-2.3,0-4.5,0-6.8,0c-0.1,0.5-0.2,0.9-0.4,1.5c1.2,0,2.4,0,3.6,0     c1.2,0,2.4,0,3.6,0c0.1,0.2,0.1,0.5,0.2,0.8c0.1-0.1,0.1-0.3,0.2-0.4c0.3-0.2,0.4-0.5,0.4-0.8c0.2-0.6,0.3-1.3,0.4-1.9     c0.1-0.3,0.2-0.7,0-1c0-0.1,0-0.3,0-0.4c0.2-1,0.5-2,0.7-3C80.4,17,80.5,16.8,80.5,16.7z M91.8,16.6c-0.3,0-0.5,0-0.8,0     c-3,0-6.1,0-9.1,0c-0.3,0-0.6-0.1-0.9-0.1c-0.3,0.8-0.5,1.8-0.7,2.7c0.9-0.4,1.8-0.1,2.6-0.2c0.1-0.4,0.3-0.8,0.4-1.2     c0.1,0,0.2-0.1,0.2-0.1c1.6,0,3.1,0,4.7,0c0.3,0,0.5,0.1,0.6,0.3c-0.1,0.4-0.1,0.9-0.2,1.3c0.3-0.4,0.7-0.3,1.1-0.3     c0.5,0,1,0.1,1.5-0.1C91.6,18.2,91.9,17.5,91.8,16.6z M79.6,16.6c-0.4,0-0.6,0-0.9,0c-2.6,0-5.2,0-7.8,0c-0.3,0-0.7,0-1.1-0.1     c-0.2,0.9-0.6,1.7-0.6,2.6c0.9-0.4,1.7,0,2.5-0.2c0.1-0.1,0.1-0.1,0.1-0.2c0.1-0.3,0.1-0.5,0.2-0.8c0.1-0.4,0.3-0.5,0.7-0.6     c0.2,0,0.3,0,0.5,0c1.8,0,3.6,0,5.4,0c0.2,0,0.5,0,0.7,0C79.4,17.1,79.5,16.9,79.6,16.6z M88.3,18.4c-1.5,0-2.9,0-4.4,0     c-0.1,0.6-0.4,1.1-0.4,1.8c1.5,0,2.9,0,4.4,0C88.3,19.6,88.4,19.1,88.3,18.4z M72,19.2c0.1,0.1,0.2,0.1,0.2,0.1     c0.2,0,0.3,0,0.5,0c1.8,0,3.5,0,5.3,0c0.2,0,0.5,0.1,0.7-0.3c-2.2,0-4.3,0-6.4,0C72.3,19.1,72.2,19.2,72,19.2z M83.2,20.5     c0,0,0,0.1,0,0.1c0.1,0,0.2,0.1,0.2,0.1c1.4,0,2.8,0,4.2,0c0.3,0,0.5-0.1,0.7-0.3c-0.4,0-0.7,0.1-1,0.1c-1.2,0-2.3,0-3.5,0     C83.7,20.5,83.4,20.5,83.2,20.5z M82.4,24.1C82.4,24.2,82.4,24.2,82.4,24.1c1.4,0.1,2.9,0.1,4.3,0.1c0,0,0,0,0-0.1     C85.2,24.1,83.8,24.1,82.4,24.1z"></path>
			<path class="st58" d="M22.3,27.3c-0.3,0.5-0.5,1-0.6,1.6c0,0.7-0.3,1.4-0.4,2.2c0,0.3,0,0.6,0,0.8c0,0.3,0,0.7,0,1     c-0.4-0.4-0.6-0.9-0.5-2.3c-0.5,0-1,0-1.5,0c-0.4,0.7-0.1,1.6-0.3,2.4c-0.3-0.4-0.3-0.7-0.3-1.1c-0.1-1,0.2-2,0.4-3     c0.5-0.6,0.6-1.3,0.9-1.9c-0.7-0.7-0.8-1.5-0.7-2.4c0-0.1,0-0.2,0-0.2c0.5-0.5,0.4-1.2,0.6-1.7c0.1-0.4,0.2-0.9,0.3-1.4     c0-0.1,0.1-0.2,0-0.3c-0.2-0.6,0-1.2,0.1-1.8c0.2-1,0.5-2,0.9-3c0.7-1.4,1.8-2.1,3.4-2.2c1.9-0.2,3.8-0.1,5.7-0.1     c0.6,0,1.3,0.1,1.9,0.2c1.3,0.1,2.1,1.5,1.9,2.7c-0.2,1.1-0.4,2.3-0.7,3.4c-0.1,0.5-0.4,0.9-0.5,1.4c-0.2,0.5-0.3,1.1-0.5,1.7     c-0.1,0.4-0.3,0.7-0.1,1.1c0,0.1,0,0.2-0.1,0.3c-0.2,0.9-0.7,1.6-1.4,2.2c-0.4,0.3-0.9,0.4-1.4,0.4c-2.2,0-4.3,0-6.5,0     C22.7,27.3,22.5,27.3,22.3,27.3z M30,18.5c-0.3-0.1-0.5-0.2-0.6-0.2c-1.3,0-2.7,0-4,0c-0.4,0-0.6,0.2-0.8,0.5     c-0.4,0.7-0.5,1.5-1,2.2c-0.3,0.5-0.3,1.1-0.4,1.7c-0.1,0.5,0.2,0.8,0.7,0.9c0.4,0.1,0.9,0.1,1.3,0.1c0.8,0,1.6,0,2.3,0     c0.4,0,0.7-0.1,1.1-0.1c0.3-0.1,0.6-0.2,0.7-0.5c0.3-0.8,0.7-1.6,0.4-2.4c0-0.2,0-0.3,0-0.5C29.8,19.6,29.9,19.1,30,18.5z      M23.4,19c0.1-0.1,0.1-0.1,0.2-0.2c0.4-0.8,1-1.3,2-1.2c0.1,0,0.1,0,0.2,0c1.3-0.1,2.7-0.1,4,0.1c0.2,0,0.5,0.2,0.7,0.3     c0,0.5,0,0.8,0,1.2c0.9-0.4,1.7-0.1,2.6-0.2c0.3-0.7,0.4-1.5,0.4-2.3c-0.8-0.1-1.6,0-2.3-0.1c-0.7,0-1.5,0-2.2,0     c-0.8,0-1.5,0-2.3,0c-0.7,0-1.5,0-2.2,0c-0.8,0-1.5,0-2.3,0c0-0.2,0-0.3,0-0.6c-0.6,1.1-1.1,2.1-1.2,3.3c0.3-0.3,0.6-0.3,1-0.3     C22.4,19,22.9,19,23.4,19z"></path>
			<path class="st58" d="M92.1,19.4c0.1-0.3,0.2-0.7,0.3-1c0.3-0.7,0.5-1.4,0.8-2c0.6-1.3,1.6-1.9,2.9-2.1c1.7-0.2,3.5-0.3,5.2-0.2     c1,0.1,2,0.1,2.9,0.5c0.8,0.3,1.3,1,1.3,1.8c0,1.1-0.2,2.2-0.6,3.2c0,0,0,0,0,0.1c0.1,0.8-0.5,1.4-0.6,2.1     c-0.1,0.7-0.4,1.4-0.6,2c-0.1,0.2,0,0.5,0,0.7c0,0.4-0.2,0.8-0.3,1.1c-0.7,1.2-1.7,1.8-3,1.8c-2.4,0-4.8,0-7.2,0     c-1.3,0-2.1-0.8-2-2.1c0-0.3,0-0.5,0-0.8c0.3-0.2,0.4-0.5,0.4-0.8c0.1-0.7,0.3-1.3,0.4-1.9c0-0.2,0.1-0.5,0.1-0.7     C92,20.4,92.1,19.9,92.1,19.4z M100.8,22.8c-1.2,0-2.4,0-3.6,0c0-0.3,0.1-0.5,0.1-0.7c0.1-0.4,0.2-0.7,0.2-1.1c0-0.3,0-0.6,0-0.9     c0.1-0.6,0.2-0.6,0.7-0.6c0.8,0,1.6,0,2.5,0c0.2,0,0.3,0,0.5-0.1c0-0.4,0-0.7,0-1.1c-1.5,0-2.9,0-4.3,0c-0.2,0-0.5,0.2-0.7,0.4     c-0.2,0.2-0.3,0.5-0.4,0.7c-0.2,0.4-0.2,0.9-0.5,1.2c-0.2,0.4-0.3,0.8-0.4,1.2c-0.1,0.4-0.1,0.8-0.2,1.2c-0.1,0.4,0,0.7,0.3,0.9     c0.5,0,0.9,0.1,1.4,0.1c0.9,0,1.9,0,2.8,0c0.4,0,0.7-0.1,1.1-0.1C100.6,23.4,100.7,23.2,100.8,22.8z M101.8,18.7c1,0,1.8,0,2.6,0     c0.3-0.7,0.4-1.4,0.3-2.1c-0.6,0-1.2,0-1.8,0c-0.6,0-1.2,0-1.8,0c-0.6,0-1.2,0-1.7,0c-0.6,0-1.2,0-1.8,0c-0.6,0-1.2,0-1.8,0     c-0.6,0-1.2,0.1-1.8-0.1c0-0.1,0.1-0.2,0.1-0.3c0-0.1,0-0.1,0-0.3c-0.7,1.1-1.2,2.2-1.3,3.5c0.3-0.4,0.7-0.4,1.1-0.4     c0.3,0,0.6,0,0.9,0c0.5,0,0.8-0.1,1-0.6c0.2-0.6,0.7-0.9,1.4-0.9c1-0.1,2-0.1,3.1-0.1c0.5,0,0.9,0.1,1.4,0.1     c0.2,0,0.4,0.2,0.6,0.3C101.9,18.2,101.8,18.5,101.8,18.7z M98.1,19.8C98.1,19.9,98.1,19.9,98.1,19.8c2,0.1,4,0.1,6,0.1     c0,0,0,0,0-0.1C102.2,19.8,100.1,19.8,98.1,19.8z"></path>
			<path class="st58" d="M9.9,22.8c-0.1,0.6-0.3,1.1-0.2,1.7c0.1,0.5-0.1,1-0.2,1.5c-0.1,0.4-0.2,0.8-0.4,1.3c-1.3,0-2.5,0-3.7,0     c0-0.2-0.1-0.4,0-0.6c0.1-0.6,0.3-1.3,0.4-1.9c0.1-0.2,0.1-0.5,0.4-0.6c0.1-0.1,0.2-0.2,0.2-0.4c0.2-0.9,0.4-1.8,0.6-2.7     c0,0,0-0.1,0-0.1c-0.2-1,0.2-1.8,0.3-2.7C7.5,17.1,7.8,16,8.1,15c0.1-0.3,0.2-0.5,0.3-0.8c1.2,0,2.4,0,3.7,0     c0.3,0.3,0.1,0.6,0.1,0.9c-0.2,0.8-0.4,1.6-0.6,2.3c-0.1,0.3-0.1,0.6-0.2,0.9c0.5,0.2,4.1,0.2,5,0.1c0.4-1.4,0.5-2.8,1-4.2     c1.2-0.1,2.5,0,3.7,0c0,0.2,0.1,0.3,0.1,0.5c-0.1,0.5-0.2,1-0.3,1.4c-0.4,1.4-0.7,2.9-1.2,4.2c-0.4,1.2-0.7,2.5-1.1,3.8     c0.1,0.1,0.1,0.2,0.2,0.3c-0.1,0.5-0.2,1-0.3,1.5c-0.1,0.5-0.2,1-0.4,1.4c-0.5,0.1-3,0.1-3.7,0c0-0.1-0.1-0.3-0.1-0.4     c0.1-0.6,0.3-1.3,0.4-1.9c0.1-0.3,0.1-0.6,0.5-0.8c0.1-0.1,0.1-0.2,0.2-0.3c0.1-0.3,0.2-0.6,0.2-1C13.7,22.8,11.8,22.8,9.9,22.8z      M16.6,18.9c-0.3,0-0.5,0-0.8,0c-1.6,0-3.1,0-4.7,0c-0.1,0-0.4-0.1-0.4,0.2c0.1,0,0.2,0,0.3,0c0.2,0,0.5,0,0.7,0     c1.1,0,2.3,0,3.4,0c1.2,0,2.3-0.1,3.5-0.1c0.1,0,0.2,0,0.3,0c0.3,0,0.5-0.2,0.5-0.4c0.2-0.6,0.3-1.2,0.5-1.9     c-0.9-0.2-1.8,0.1-2.7-0.3C17,17.2,16.8,18,16.6,18.9z M8.2,16.4c-0.2,1-0.6,1.9-0.6,2.8c1-0.4,1.9-0.1,2.8-0.2     c0.2-0.8,0.3-1.5,0.5-2.3C10,16.5,9.1,16.8,8.2,16.4z"></path>
			<path class="st58" d="M123.4,15.2c0,0.2,0,0.4,0,0.6c-0.4,1.7-0.8,3.4-1.2,5.1c-0.3,1.1-0.5,2.2-0.7,3.3     c-0.2,0.8-0.3,1.6-0.5,2.4c-0.1,0.5-0.2,0.6-0.7,0.6c-0.5,0-1.1-0.1-1.6-0.1c-0.9-0.1-1.8-0.2-2.7-0.4c-1.1-0.1-2.2-0.3-3.2-0.4     c-1.4-0.2-2.7-0.4-4.1-0.6c-0.2,0-0.4-0.1-0.6-0.1c-0.7-0.2-1-0.5-1-1.3c0-0.7,0.1-1.4,0.2-2.1c0.1-0.9,0.3-1.9,0.5-2.8     c0.4-1.7,1-3.4,1.8-5c0.2-0.4,0.5-0.6,1-0.6c1.2,0,2.3,0,3.5,0c1.9,0.1,3.8,0.3,5.7,0.5c1.1,0.1,2.2,0.4,3.3,0.6     C123.1,15,123.2,15.1,123.4,15.2z M120,20.5c0.8-0.5,0.7-1.2,0.5-1.9c0.7-0.5,0.7-1.1,0.4-1.8c0.4-0.4,0.7-0.9,0.6-1.5     c-0.6-0.1-0.7,0-0.8,0.5c-0.3,1.1-0.5,2.2-0.7,3.3c-0.4,1.9-0.8,3.8-1.2,5.6c-0.1,0.5-0.3,1-0.1,1.5c0.3,0.1,0.4-0.1,0.5-0.2     c0.4-0.5,0.2-1.1,0.2-1.7c0.7-0.5,0.4-1.3,0.4-2C120.3,21.7,120.3,21.6,120,20.5z M122.6,15.4c-0.4,0-0.6,0.2-0.6,0.5     c-0.1,0.5-0.3,0.9-0.4,1.4c-0.5,2.5-1.1,4.9-1.6,7.4c-0.1,0.5-0.2,1-0.3,1.5c0.5,0.2,0.6,0.1,0.8-0.2c0.2-0.5,0.2-0.9-0.1-1.4     c0.6-0.5,0.7-1.2,0.4-2c0.7-0.5,0.7-1.2,0.5-2c0.2-0.2,0.3-0.3,0.4-0.4c0.1-0.5,0-1-0.2-1.5c0.4-0.1,0.7-0.3,0.7-0.7     c0-0.3-0.1-0.7-0.1-1.1c0.1-0.1,0.3-0.2,0.5-0.3C122.7,16.3,122.9,15.9,122.6,15.4z M109.3,23.1c0.6-0.5,0.6-1.1,0.4-1.8     c0.5-0.5,0.8-1.1,0.3-1.8c0.2-0.2,0.5-0.4,0.6-0.6c0.1-0.4,0.1-0.9,0.2-1.3c0.1-0.4,0.3-0.8,0.4-1.2c0-0.1-0.1-0.3-0.2-0.4     c-0.1-0.1-0.2,0-0.4,0c-0.7,2.3-0.9,4.7-1.6,6.9C109.1,23,109.2,23,109.3,23.1z M119.9,14.9c-0.1,0.3-0.3,0.4-0.3,0.6     c-0.3,1.2-0.6,2.4-0.9,3.7c-0.1,0.3-0.2,0.6,0.1,0.9c0.5-0.2,0.5-0.2,0.6-1.8c0.5-0.5,0.6-1.1,0.4-1.8     C120.3,15.9,120.4,15.5,119.9,14.9z M116,16.2c0.6-0.8,0.7-1.1,0.4-1.6c-0.5,0.1-0.4,0.5-0.5,0.8c-0.3,1.2-0.6,2.5-0.9,3.7     c0,0.1,0,0.3,0,0.4c0.4,0.1,0.5,0.1,0.6-0.2c0.2-0.4,0.2-0.9,0-1.4C116.1,17.5,116.2,16.9,116,16.2z M117.7,17.9     c0.4,0.3,0.5,0.3,0.7,0c0.3-0.5,0.2-0.9-0.1-1.4c0.8-0.6,0.9-1.1,0.5-1.7c-0.4,0.1-0.5,0.1-0.6,0.4     C118.1,16.2,117.9,17.1,117.7,17.9z M117,18.1c0.4-0.6,0.5-1.1,0.2-1.5c0.2-0.3,0.5-0.6,0.6-0.9c0.1-0.3,0.3-0.6-0.1-0.9     c-0.4-0.1-0.5,0.2-0.6,0.5c-0.2,0.7-0.4,1.5-0.5,2.2c0,0.2,0,0.3,0,0.5C116.7,18,116.9,18,117,18.1z M111.1,19.7     c-0.3,1-0.5,2.1-0.8,3.1c0,0.1,0.1,0.3,0.1,0.5c0.2-0.2,0.4-0.3,0.4-0.4c0.3-0.5,0.3-1,0.1-1.5c0.5-0.4,0.7-0.8,0.6-1.2     C111.6,19.9,111.5,19.8,111.1,19.7z M117.8,24c0.2-0.1,0.4-0.2,0.5-0.3c0.3-0.5,0.2-1,0.1-1.5c0.7-0.8,0.8-1.2,0.2-1.7     c-0.1,0.1-0.2,0.2-0.3,0.3C118.2,21.9,117.7,22.8,117.8,24z M109.3,19.1c0.1-0.2,0.1-0.4,0.2-0.6c0.2-0.7-0.1-0.9-0.8-0.7     c-0.3,0.4-0.4,0.8-0.2,1.3c0.1,0,0.2,0.1,0.3,0.1C109,19.1,109.1,19.1,109.3,19.1z M108.4,23c0.5-1,0.4-1.3-0.3-1.6     c-0.4,0.4-0.5,0.9-0.3,1.5C108,23,108.2,23,108.4,23z M108.2,19.6c0,0.5-0.3,0.9,0.1,1.3c0.6,0,0.8-0.2,0.8-0.7     C109.1,19.7,108.9,19.6,108.2,19.6z M109,17.1c0.5,0.2,0.8,0.1,0.9-0.4c0.1-0.4,0-0.6-0.5-0.9C109.2,16.2,108.9,16.6,109,17.1z      M111.6,17.7c-0.4,0.4-0.3,0.9-0.5,1.4c0,0.1,0.1,0.3,0.2,0.3c0.1,0,0.3,0,0.3-0.1c0.1-0.3,0.2-0.6,0.3-0.9     C112.1,18.1,111.9,17.9,111.6,17.7z M114.8,25.7c0.1,0,0.3,0.1,0.3,0c0.1-0.1,0.3-0.2,0.3-0.4c0.1-0.3,0.1-0.6,0.1-1     c0-0.1-0.2-0.2-0.3-0.3C115,24.5,114.9,24.7,114.8,25.7z M116.5,18.3c-0.4,0.4-0.3,0.8-0.4,1.2c-0.1,0.2,0,0.4,0.2,0.5     c0.2,0,0.4-0.1,0.4-0.3c0-0.4,0-0.7,0-1.1C116.8,18.4,116.6,18.4,116.5,18.3z M117.3,26.1c0.2,0,0.4,0,0.4,0     c0.1-0.1,0.3-0.3,0.3-0.5c0.2-0.6,0.1-0.9-0.3-1.2C117.4,24.9,117.4,25.4,117.3,26.1z M116,25.7c0.2,0.2,0.4,0.3,0.5,0.1     c0.2-0.3,0.3-0.6,0.3-1c0.1-0.3-0.1-0.5-0.5-0.6C116.2,24.8,116.1,25.2,116,25.7z M117.3,20c0.4,0,0.7-0.1,0.7-0.6     c0-0.3,0-0.6-0.1-0.8c0-0.1-0.2-0.1-0.3-0.1C117.4,19,117.3,19.5,117.3,20z M113.7,25.7c0.5-0.4,0.6-0.8,0.6-1.3     c0-0.2,0-0.4-0.3-0.4c-0.4,0.3-0.3,0.9-0.4,1.3C113.5,25.4,113.7,25.5,113.7,25.7z M115.3,23.6c0.6,0,0.6,0,0.7-0.5     c0.1-0.6,0.1-0.8-0.3-1C115.4,22.6,115.3,23.1,115.3,23.6z M117.1,22.4c-0.5,0-0.5,0.3-0.5,0.5c-0.1,0.3,0,0.6-0.1,0.9     c0.2,0,0.4,0,0.6-0.1C117.1,23.3,117.4,22.8,117.1,22.4z M110.1,25.1c0.7-0.4,0.8-1.1,0.2-1.5C110,24.1,109.8,24.5,110.1,25.1z      M115.7,21.7c0.3,0.2,0.5,0.1,0.6-0.1c0.3-0.6,0.2-1-0.2-1.3C115.8,20.7,115.8,20.9,115.7,21.7z M113.4,15.9     c0.5-0.2,0.8-0.8,0.8-1.2c0-0.1-0.1-0.2-0.2-0.2c-0.1,0-0.3,0-0.3,0.1C113.5,15,113.2,15.4,113.4,15.9z M113.4,16.2     c-0.4,0.3-0.4,0.8-0.5,1.2c0,0.1,0.1,0.2,0.2,0.3c0.1,0,0.2,0,0.3-0.1C113.7,17.2,113.7,16.7,113.4,16.2z M112.5,25.5     c0.6-0.4,0.6-0.9,0.6-1.4c0-0.2-0.2-0.3-0.4-0.2c-0.1,0.3-0.3,1.1-0.3,1.3C112.4,25.3,112.5,25.4,112.5,25.5z M116.9,21.7     c0.5,0.1,0.7,0,0.8-0.4c0.1-0.5,0-0.7-0.4-0.9C117.1,20.8,117,21.2,116.9,21.7z M112.1,21.7c-0.6,0.6-0.7,1.2-0.3,1.5     C112.3,22.8,112.4,22.4,112.1,21.7z M112.1,16c-0.3,0.5-0.5,0.9-0.4,1.4c0.5,0,0.5-0.1,0.6-0.4C112.4,16.7,112.5,16.4,112.1,16z      M114.6,16.3c-0.4,0.5-0.6,0.9-0.5,1.2c0,0.1,0.2,0.2,0.3,0.3c0.4-0.3,0.5-0.7,0.4-1.1C114.8,16.5,114.7,16.4,114.6,16.3z      M113.2,21.8c-0.4,0.5-0.4,1-0.4,1.4c0.3,0.1,0.5,0,0.5-0.2C113.5,22.6,113.7,22.2,113.2,21.8z M112.5,19.3     c0.3,0.1,0.5,0.1,0.5-0.1c0.1-0.3,0.2-0.5,0.2-0.8c0-0.1-0.1-0.3-0.2-0.3c-0.1,0-0.3,0.1-0.3,0.2C112.5,18.6,112.5,19,112.5,19.3     z M109.2,24.8c0.2-0.4,0.3-0.8,0.1-1.2c-0.3-0.1-0.4,0-0.5,0.2c-0.1,0.3-0.1,0.7,0,1C108.9,24.8,109,24.8,109.2,24.8z      M112.4,15.7c0.5-0.5,0.6-0.8,0.3-1.3c-0.4,0.2-0.6,0.5-0.6,0.9C112.1,15.5,112.1,15.7,112.4,15.7z M113.8,19.5     c0.3,0,0.4-0.2,0.4-0.4c0.1-0.2,0.1-0.5,0.1-0.7c0-0.1-0.1-0.2-0.2-0.2c-0.1,0-0.3,0.1-0.3,0.2c-0.1,0.3-0.1,0.5-0.2,0.8     C113.7,19.3,113.8,19.4,113.8,19.5z M113.4,21.5c0.6-0.5,0.7-1,0.3-1.5C113.3,20.3,113.2,20.9,113.4,21.5z M114.5,21.4     c0.2,0.2,0.4,0,0.5-0.2c0.1-0.3,0.2-0.6,0.2-0.9c0-0.1-0.1-0.2-0.2-0.3C114.7,20.4,114.6,20.6,114.5,21.4z M111.4,25.3     c0.5-0.2,0.4-0.7,0.5-1.1c0.1-0.2,0-0.4-0.3-0.5C111.2,24.2,111.2,24.5,111.4,25.3z M112.3,21.3c0.4-0.5,0.5-0.9,0.2-1.4     C112.1,20.2,112,20.8,112.3,21.3z M114.1,23.3c0.3,0.1,0.4-0.1,0.5-0.3c0.1-0.4,0.2-0.7-0.1-1.1C114.2,22.4,114,22.8,114.1,23.3z      M108.2,24c0-0.1,0-0.2,0-0.3c0-0.2-0.1-0.4-0.3-0.3c-0.1,0-0.2,0.2-0.3,0.3c0,0.2,0,0.3,0,0.5c0,0.2,0.1,0.4,0.3,0.3     c0.1,0,0.2-0.2,0.3-0.3C108.2,24.2,108.2,24.1,108.2,24z M111.4,14.3c-0.4,0.2-0.6,0.5-0.5,0.9c0,0.2,0.2,0.3,0.4,0.2     C111.7,14.9,111.7,14.8,111.4,14.3z M114.6,15.9c0.5,0,0.5-0.3,0.5-0.5c0.1-0.3,0.2-0.6-0.2-0.9     C114.7,14.9,114.5,15.3,114.6,15.9z M110.2,14.3c-0.5,0.5-0.5,0.5-0.3,1C110.5,15.1,110.6,14.8,110.2,14.3z"></path>
			<path class="st58" d="M126.4,16.1c-0.6,0.1-1.1-0.3-1.7-0.3c-0.4,0.4-0.4,1-0.6,1.5c-0.4,1.7-0.7,3.4-1.1,5.1     c-0.2,1.2-0.5,2.3-0.8,3.4c-0.1,0.4,0,0.8,0,1.2c-0.4,0.1-0.6,0-0.6-0.3c0-0.2,0-0.4,0-0.5c0.4-2.1,0.9-4.1,1.3-6.2     c0.3-1.3,0.5-2.6,0.8-3.8c0.1-0.7,0.5-0.9,1.1-0.8c0.3,0.1,0.6,0.2,1,0.3C126.1,15.7,126.3,15.8,126.4,16.1z"></path>
		</g>
	</g>
	<g class="st1">
		<path class="st58" d="M31.5,29.8h-1.7c-0.3,0-0.6,0.1-0.7,0.2c-0.1,0.1-0.2,0.4-0.2,0.7v1.6c0,0.3,0.1,0.6,0.2,0.7    c0.1,0.1,0.4,0.2,0.7,0.2h1.7c0.3,0,0.6-0.1,0.7-0.2c0.1-0.1,0.2-0.4,0.2-0.7v-0.5l-1-0.2v0.8h-1.6v-1.7h1.6v0.7l1-0.2V31    c0-0.6,0-0.7-0.1-0.8C32.2,29.9,31.9,29.8,31.5,29.8z"></path>
		<path class="st58" d="M36.2,29.8h-2.1c-0.3,0-0.6,0.1-0.7,0.2c-0.1,0.1-0.2,0.4-0.2,0.7v1.6c0,0.3,0.1,0.6,0.2,0.7    c0.1,0.1,0.4,0.2,0.7,0.2h2.1c0.3,0,0.6-0.1,0.7-0.2c0.1-0.1,0.2-0.4,0.2-0.7v-1.6c0-0.3-0.1-0.6-0.2-0.7    C36.8,29.9,36.5,29.8,36.2,29.8z M36.2,32.4h-2v-1.7h2V32.4z"></path>
		<polygon class="st58" points="41.7,29.8 41.5,29.8 40.2,31.6 38.9,29.8 38.8,29.8 38.4,29.8 38.1,29.8 38.1,33.3 39,33.3 39,31.4     40.1,32.8 40.4,32.8 41.4,31.4 41.4,33.3 42.3,33.3 42.3,29.8 41.9,29.8   "></polygon>
		<polygon class="st58" points="47,29.8 46.7,29.8 45.5,31.6 44.1,29.8 44,29.8 43.7,29.8 43.4,29.8 43.4,33.3 44.3,33.3 44.3,31.4     45.3,32.8 45.7,32.8 46.6,31.4 46.6,33.3 47.5,33.3 47.5,29.8 47.1,29.8   "></polygon>
		<path class="st58" d="M51.3,32.4h-1.7v-2.6h-1v2.5c0,0.3,0.1,0.6,0.2,0.7c0.1,0.1,0.4,0.2,0.7,0.2h1.8c0.3,0,0.6-0.1,0.7-0.2    c0.1-0.1,0.2-0.4,0.2-0.7v-2.5h-1V32.4z"></path>
		<path class="st58" d="M56.2,31.7C56.2,31.8,56.2,31.8,56.2,31.7l-2.2-2h-0.6v3.5h0.9v-2l2.3,2h0.3l0,0l0,0h0.3v-3.5h-0.9V31.7z"></path>
		<rect x="58.1" y="29.8" class="st58" width="1" height="3.5"></rect>
		<path class="st58" d="M62.7,29.8h-1.7c-0.3,0-0.6,0.1-0.7,0.2c-0.1,0.1-0.2,0.4-0.2,0.7v1.6c0,0.3,0.1,0.6,0.2,0.7    c0.1,0.1,0.4,0.2,0.7,0.2h1.7c0.3,0,0.6-0.1,0.7-0.2c0.1-0.1,0.2-0.4,0.2-0.7v-0.5l-1-0.2v0.8h-1.6v-1.7h1.6v0.7l1-0.2V31    c0-0.6,0-0.7-0.1-0.8C63.5,29.9,63.2,29.8,62.7,29.8z"></path>
		<path class="st58" d="M65.6,29.8l-1.9,3.5h1l0.4-0.7h1.7l0.4,0.7h1.1l-1.9-3.5H65.6z M65.6,31.7l0.4-0.8l0.4,0.8H65.6z"></path>
		<polygon class="st58" points="67.5,30.7 68.9,30.7 68.9,33.3 69.9,33.3 69.9,30.7 71.3,30.7 71.3,29.8 67.5,29.8   "></polygon>
		<rect x="71.6" y="29.8" class="st58" width="1" height="3.5"></rect>
		<path class="st58" d="M76.6,29.8h-2.1c-0.3,0-0.6,0.1-0.7,0.2c-0.1,0.1-0.2,0.4-0.2,0.7v1.6c0,0.3,0.1,0.6,0.2,0.7    c0.1,0.1,0.4,0.2,0.7,0.2h2.1c0.3,0,0.6-0.1,0.7-0.2c0.1-0.1,0.2-0.4,0.2-0.7v-1.6c0-0.3-0.1-0.6-0.2-0.7    C77.2,29.9,76.9,29.8,76.6,29.8z M76.6,32.4h-2v-1.7h2V32.4z"></path>
		<path class="st58" d="M81.4,31.7C81.4,31.8,81.4,31.8,81.4,31.7l-2.2-2h-0.6v3.5h0.9v-2l2.3,2h0.3l0,0l0,0h0.3v-3.5h-0.9V31.7z"></path>
		<path class="st58" d="M86.3,31.1l0.5-0.1v-0.2c0-0.3-0.1-0.6-0.2-0.7c-0.1-0.2-0.4-0.2-0.7-0.2h-1.6c-0.3,0-0.6,0.1-0.7,0.2    c-0.1,0.1-0.2,0.4-0.2,0.7c0,0.6,0,0.7,0.1,0.8c0.1,0.2,0.2,0.3,0.4,0.3l-0.7,0.2v0.2c0,0.4,0.1,0.6,0.2,0.8    c0.1,0.2,0.4,0.3,0.8,0.3H86c0.3,0,0.6-0.1,0.7-0.2c0.1-0.1,0.2-0.4,0.2-0.7V32c0-0.3-0.1-0.6-0.2-0.7    C86.6,31.2,86.5,31.1,86.3,31.1z M84.3,30.7h1.7V31h-1.7V30.7z M86,32.4h-1.8v-0.4c0,0,0.1,0,0.1,0H86V32.4z"></path>
		<path class="st58" d="M88.6,32.2h-0.3c-0.1,0-0.2,0-0.3,0.1c-0.1,0.1-0.1,0.2-0.1,0.3v0.3c0,0.2,0.1,0.3,0.2,0.4l-0.4,0.7h0.8    l0.5-0.8v-0.5c0-0.1,0-0.2-0.1-0.3C88.8,32.2,88.7,32.2,88.6,32.2z"></path>
		<rect x="90.8" y="29.8" class="st58" width="1" height="3.5"></rect>
		<path class="st58" d="M95.6,31.7C95.6,31.8,95.6,31.8,95.6,31.7l-2.2-2h-0.6v3.5h0.9v-2l2.3,2h0.3l0,0l0,0h0.3v-3.5h-0.9V31.7z"></path>
		<path class="st58" d="M100.2,29.8h-1.7c-0.3,0-0.6,0.1-0.7,0.2c-0.1,0.1-0.2,0.4-0.2,0.7v1.6c0,0.3,0.1,0.6,0.2,0.7    c0.1,0.1,0.4,0.2,0.7,0.2h1.7c0.3,0,0.6-0.1,0.7-0.2c0.1-0.1,0.2-0.4,0.2-0.7v-0.5l-1-0.2v0.8h-1.6v-1.7h1.6v0.7l1-0.2V31    c0-0.6,0-0.7-0.1-0.8C100.9,29.9,100.6,29.8,100.2,29.8z"></path>
		<path class="st58" d="M103,32.3L103,32.3c-0.1-0.1-0.2-0.1-0.3-0.1h-0.3c-0.1,0-0.2,0-0.3,0.1c-0.1,0.1-0.1,0.2-0.1,0.3v0.3    c0,0.3,0.2,0.4,0.4,0.4h0.4c0.1,0,0.2,0,0.3-0.1c0.1-0.1,0.1-0.2,0.1-0.3v-0.3C103.1,32.5,103,32.3,103,32.3z"></path>
	</g>
</g>
<g>
	<g>
		<g>
			<path class="st58" d="M3.1,23.7C6,23.5,6,23.5,7,26c1.5,3.6,2.9,7.2,4.4,10.8c0.1,0.2,0.2,0.3,0.4,0.6c1.7-3.8,3.4-7.5,5.2-11.5     c2,4,3.4,7.8,5.3,11.7c1.3-3.3,2.6-6.3,3.8-9.4c0.4-1.1,0.9-2.2,1.3-3.3c0.3-0.9,0.9-1.5,2-1.3c0.4,0.1,0.8,0,1.3,0     c-0.1,1.4-0.9,2.7-1.4,3.9C27.2,32.7,25,37.9,22.9,43c-0.2,0.4-0.2,0.8-0.3,1.2c-0.2,0-0.5,0-0.7,0c0-0.3,0-0.6-0.1-0.9     c-1.5-3.7-3.1-7.3-4.8-11.2c-1.9,4.2-3.6,8.1-5.3,12.1c-0.1,0-0.2,0-0.4,0c0-0.2,0-0.4-0.1-0.5C9.3,39,7.4,34.2,5.4,29.5     c-0.7-1.7-1.5-3.4-2.3-5.1C3.1,24.2,3.1,23.9,3.1,23.7z"></path>
			<path class="st58" d="M107.9,43.4C107.9,43.4,107.9,43.4,107.9,43.4c-3.5-1.7-5.2-4.9-4.7-8.7c0.5-3.4,2.9-6,6.7-6.8     c4.5-1,9.3,2.3,10,6.9c0.3,2.4,0.4,2.4-2.1,2.4c-2.9,0-5.9,0-8.8,0c-0.6,0-1.1,0-1.7,0c0.1,2,1.7,3.6,3.6,3.8     c1.6,0.2,3.1-0.1,4.4-1.3c1-1,1.1-0.9,2.3-0.3c0.5,0.3,1,0.6,1.6,0.9c-0.9,1.3-2,2.3-3.3,2.9c-0.1,0.1-0.2,0.1-0.4,0.2     C113.1,44.6,110.3,44.6,107.9,43.4z M115.8,34.3c-1-2.4-2.6-3.5-4.6-3.4c-1.8,0.1-3.3,1.3-3.9,3.2c0.1,0.1,0.3,0.2,0.5,0.2     C110.3,34.3,113,34.3,115.8,34.3z"></path>
			<path class="st58" d="M137.2,44.2c-1.1,0-2.2-0.2-3.3-0.6c0,0,0,0,0,0c-2.9-1.1-5.3-4.1-5.2-7.5c0.1-4.7,3.4-7.7,7.2-8.2     c3.1-0.4,5.9,0.2,8,2.5c4.4,4.7,1.9,11.4-3,13.2c0,0,0,0,0,0c-1,0.4-2.1,0.6-3.3,0.6H137.2z M142.5,36c0.2-2.7-2.2-5-4.9-4.9     c-3,0.1-5,2.1-5,5c0,2.7,2.3,5,5,4.8C140.7,40.8,142.6,38.5,142.5,36z"></path>
			<path class="st58" d="M36.2,44.2c-0.7,0-1.5-0.2-2.2-0.5c0,0,0,0,0,0c-3.3-1.3-4.9-3.9-5.4-7.3c-0.4-2.9,1.9-6.6,4.9-8     c3.4-1.5,6.7-1,9.5,1.7c0-0.3,0.1-0.5,0.1-0.7c0.1-1.2,0.2-1.2,1.2-1.2c1.1,0,1.3,0.1,1.3,1.3c0,4.3,0,8.6,0,12.9     c0,1.3-0.1,1.3-1.1,1.4c-1.2,0.1-1.3,0-1.5-1.3c0-0.2-0.1-0.3-0.1-0.4c-0.7,0.4-1.5,0.7-2.3,1.1c-1.3,0.6-2.6,0.9-4,0.9H36.2z      M37.2,30.1c-3-0.4-5.9,2.9-5.9,5.7c0,3.4,2.3,6.1,5.7,6.1c3.5,0.1,6.1-2.7,6.1-6C43.1,32.6,40.6,30.1,37.2,30.1z"></path>
			<path class="st58" d="M77.5,44.2c-0.7,0-1.3-0.1-1.9-0.3c0,0,0,0,0,0c-3.7-1.1-6.1-4.6-5.9-8.4c0.2-3.6,3.1-6.9,6.6-7.6     c5.2-1,9.4,2,10.3,7.3c0.2,1.2-0.1,1.5-1.3,1.5c-2.9,0-5.8,0-8.7,0c-1.3,0-2.6,0-3.8,0c-0.3,1.9,0.5,3.5,2.4,4.5     c3,1.6,5.7,0.8,8-1.6c0.7,0.4,1.3,0.7,1.9,1c-1.2,1.7-2.7,2.6-4.5,3.1c-0.1,0-0.1,0-0.2,0.1c-0.5,0.2-1,0.3-1.5,0.3H77.5z      M83.5,34.6c-0.4-3.2-3-4.8-6.3-4.5c-2.5,0.2-4.4,2-4.6,4.5C76.3,34.6,79.9,34.6,83.5,34.6z"></path>
			<path class="st58" d="M52.5,44.3c-1.7-0.4-3.3-1.2-4.7-2.5c0.2-0.3,0.4-0.6,0.7-0.9c0.5-0.6,1-0.6,1.7-0.1c1.5,1.1,3.2,1.5,5,1.3     c0.6-0.1,1.3-0.2,1.9-0.5c0.8-0.4,1.4-1,1.4-2.1c0-1-0.6-1.7-1.5-2c-1.1-0.3-2.2-0.5-3.3-0.8c-1-0.3-2.1-0.5-3-0.9     c-2.8-1.2-3.2-5.1-0.7-6.9c1.5-1.1,3.3-1.5,5.1-1.3c1.7,0.2,3.4,0.8,5,1.9c-0.4,0.5-0.7,1-1.1,1.5c-1.2-0.4-2.3-0.8-3.4-1.2     c-1.2-0.4-2.3-0.1-3.4,0.3c-0.9,0.4-1.5,1.2-1.4,2c0.1,0.9,0.5,1.6,1.4,1.8c1.2,0.4,2.5,0.6,3.8,0.9c0.7,0.2,1.5,0.2,2.2,0.5     c2.7,1,4.5,4,1.6,6.9c-0.8,0.8-1.9,1.5-3,1.8C55.4,44.6,54.1,44.7,52.5,44.3z"></path>
			<path class="st58" d="M67.9,44.2c-0.5-0.4-1.1-0.7-1.6-1c-1.9-1.1-2.7-2.7-2.7-4.8c0-2.2,0-4.4,0-6.5c0-0.3,0-0.7-0.1-1.1     c-0.3-0.1-0.6-0.2-0.8-0.2c-0.8,0-1.3-0.2-1.2-1.1c0-0.8,0.2-1.3,1.3-1.2c0.2,0,0.3-0.1,0.7-0.1c0-0.9,0.2-1.8,0.1-2.7     c-0.1-1.2,0.4-2,1.5-2.4c0.4,0,0.7,0,1.1,0c0,1.6,0,3.3,0,5.1c0.7,0,1.3,0.1,2,0.1c0.8,0,0.9,0.5,0.9,1.2c0,0.6-0.2,1-0.9,1     c-0.6,0-1.2,0.1-2,0.1c0,1,0,1.9,0,2.9c0,1.5,0.1,2.9,0,4.4c-0.1,1.8,0.6,3.2,2.3,4c0.2,0.1,0.4,0.2,0.6,0.4c0,0,0.1,0.1,0.2,0.2     c-0.3,0.6-0.6,1.2-0.9,1.8C68.1,44.2,68,44.2,67.9,44.2z"></path>
			<path class="st58" d="M103,23.7c-3.6,5.6-7,10.8-10.5,16.2c0.8,0,1.4,0.1,2,0.1c2.3,0,4.6,0,6.9,0c1.4,0,1.5,0.2,1.5,1.5     c0,0.2,0,0.4,0,0.5c0,1.8,0,1.8-1.7,1.8c-4.6,0-9.2,0-13.8,0c-0.5,0-0.9-0.1-1.6-0.1c1.6-3,3.4-5.5,5.1-8.2     c1.7-2.7,3.4-5.3,5.2-8.2c-0.6-0.1-1.1-0.1-1.5-0.1c-2.4,0-4.7,0-7.1,0c-1.2,0-1.3-0.1-1.3-1.3c0-2.5-0.2-2.3,2.3-2.3     c4.1,0,8.2,0,12.4,0C101.4,23.7,102,23.7,103,23.7z"></path>
			<path class="st58" d="M125.3,29.1c1.6-1.6,2.7-1.8,4.6-0.7c-0.3,0.8-0.6,1.6-0.9,2.4c-0.2,0.6-0.5,0.7-1.1,0.6     c-1.9-0.2-2.8,0.6-2.8,2.5c0,2.8,0,5.5,0,8.3c0,1.6,0,1.6-1.5,1.6c-2,0-2,0-2-2c0-3.9,0-7.9,0-11.8c0-1.8,0-1.8,1.9-1.8     c0.3,0,0.6-0.1,0.9,0C124.7,28.5,124.9,28.8,125.3,29.1z"></path>
		</g>
	</g>
	<g>
		<g>
			<g>
				<path class="st58" d="M147.4,30.4l-0.4-0.6h-0.4v0.6h-0.3v-1.7h0.8c0.4,0,0.6,0.2,0.6,0.5c0,0.3-0.2,0.5-0.4,0.5l0.5,0.6H147.4z       M147.1,28.9h-0.4v0.6h0.4c0.2,0,0.4-0.1,0.4-0.3C147.4,29,147.3,28.9,147.1,28.9z"></path>
			</g>
		</g>
		<g>
			<path class="st58" d="M147,31.6c-1.1,0-2-0.9-2-2c0-1.1,0.9-2,2-2s2,0.9,2,2C149,30.7,148.1,31.6,147,31.6z M147,27.8     c-1,0-1.7,0.8-1.7,1.7c0,1,0.8,1.7,1.7,1.7s1.7-0.8,1.7-1.7C148.7,28.6,147.9,27.8,147,27.8z"></path>
		</g>
	</g>
</g>
</svg>
