<?xml version="1.0" encoding="UTF-8"?>
<!-- Generator: Adobe Illustrator 22.1.0, SVG Export Plug-In . SVG Version: 6.00 Build 0)  -->
<svg xmlns="http://www.w3.org/2000/svg" xmlns:xlink="http://www.w3.org/1999/xlink" id="Layer_1" x="0px" y="0px" viewBox="0 0 151 67" style="enable-background:new 0 0 151 67;" xml:space="preserve">
<style type="text/css">
	.st0{fill:#808285;}
</style>
<title>accenture</title>
<desc>Created with Sketch.</desc>
<g id="LIgUX6_1_">
	<g>
		<g>
			<path class="st0" d="M12.3,32.4c0.1-0.6,0.3-1.2,0.4-1.8c0.2-0.6,0.3-1.3,0.5-1.9c0.2-0.8,0.4-1.5,0.6-2.3c0.1-0.5,0.3-1,0.4-1.5     c0.1-0.2,0.1-0.5,0.1-0.7c0-0.1,0.1-0.2,0.1-0.3c0.1-0.3,0.2-0.7,0.3-1.1c0.2-0.6,0.3-1.2,0.5-1.8c0.1-0.2,0.1-0.4,0.2-0.7     c0.2-0.5,0.3-1,0.4-1.5c0-0.1,0.1-0.3,0.1-0.4c1.5,0,3,0,4.6,0c0.2,0.1,0.1,0.4,0.1,0.6c0.1,0.3,0.3,0.6,0.2,0.9     c0,0.1,0.1,0.1,0.1,0.2c0,0.1-0.1,0.2-0.1,0.3c0.2,0.3,0.1,0.6,0.3,0.8c0,0.2,0,0.3,0,0.5c0.1,0.3,0.2,0.7,0.2,1     c0,0.1,0.3,0.1,0.1,0.3c-0.1,0.1,0,0.2,0.1,0.3c0.1,0.1,0.1,0.2,0.1,0.3c0,0.1,0,0.2,0,0.3c0,0.1,0.1,0.2,0.1,0.3     c0.1,0.5,0.2,0.9,0.3,1.4c0.2,0.8,0.4,1.6,0.6,2.5c0.1,0.5,0.2,0.9,0.3,1.4c0.1,0.4,0.2,0.7,0.3,1.1c0.1,0.5,0.3,0.9,0.2,1.6     c0.1-0.1,0.2-0.2,0.2-0.2c0-0.7,0.3-1.4,0.4-2.1c0.1-0.6,0.3-1.1,0.3-1.7c0.1-0.5,0.2-1,0.3-1.5c0.1-0.4,0.2-0.8,0.3-1.3     c0-0.3,0.1-0.7,0.2-1c0.1-0.4,0.2-0.8,0.3-1.2c0.1-0.5,0.2-1,0.3-1.5c0.1-0.4,0.2-0.8,0.3-1.2c0.1-0.4,0.2-0.8,0.3-1.2     c0.1-0.3,0.1-0.7,0.2-1c1.4,0,2.9,0,4.3,0c-0.2,1.1-0.6,2.1-0.8,3.2c-0.2,0.8-0.4,1.5-0.6,2.2c-0.2,0.9-0.4,1.9-0.7,2.8     c-0.2,0.7-0.4,1.5-0.6,2.2c-0.2,0.8-0.4,1.6-0.6,2.4c-0.2,0.7-0.3,1.4-0.6,2.1c-0.2,0.5-0.3,1-0.4,1.5c-0.1,0.3-0.2,0.6-0.2,0.9     c0,0.1,0,0.2,0,0.3c0,0-0.1,0-0.1,0.1c0,0.3,0,0.6-0.2,0.8c-1.5,0-3.1,0-4.6,0c-0.1-0.2-0.1-0.5-0.2-0.7     c-0.1-0.4-0.2-0.8-0.3-1.3c-0.1-0.4-0.2-0.9-0.3-1.3c-0.2-0.7-0.4-1.3-0.5-2c-0.1-0.6-0.3-1.2-0.5-1.8c-0.2-0.6-0.3-1.3-0.5-1.9     c-0.2-0.9-0.5-1.9-0.7-2.8c-0.1-0.5-0.2-0.9-0.3-1.4c-0.1,0.2-0.2,0.4-0.2,0.6c0,0.2,0,0.4-0.1,0.5c-0.2,0.6-0.3,1.3-0.5,1.9     c-0.2,0.6-0.3,1.2-0.5,1.8c-0.3,0.9-0.5,1.8-0.7,2.8c-0.1,0.4-0.2,0.8-0.4,1.3c-0.1,0.5-0.3,0.9-0.4,1.4     c-0.2,0.6-0.3,1.1-0.4,1.7c-0.1,0.4-0.2,0.8-0.3,1.2c-0.2,0-0.3,0-0.5,0c-1.3,0-2.7,0-4,0c-0.3,0-0.3,0-0.4-0.3     c-0.2-0.9-0.5-1.7-0.7-2.6c-0.2-0.7-0.5-1.4-0.5-2.2c-0.2-0.4-0.2-0.9-0.4-1.3c0,0,0-0.1,0-0.2c-0.1-0.2-0.1-0.5-0.1-0.7     c-0.1-0.4-0.3-0.8-0.4-1.3c-0.2-0.6-0.3-1.3-0.5-1.9c-0.2-0.6-0.3-1.1-0.5-1.7c0-0.1-0.1-0.2-0.1-0.2c0,0-0.1-0.1-0.1-0.1     c0.2-0.3-0.1-0.6-0.1-0.9c0-0.3-0.2-0.6-0.2-0.9c0-0.4-0.2-0.6-0.2-1c0,0-0.1-0.1-0.1-0.1c0-0.1,0.1-0.2,0.1-0.3     c-0.3-0.8-0.5-1.7-0.7-2.6c0-0.1-0.1-0.2-0.2-0.3c0.1,0,0.1-0.1,0.2-0.1c0.1,0.1,0.3,0,0.4,0c1.3,0,2.7,0,4,0     c0.1,0.3,0.1,0.6,0.2,0.9c0,0.2,0.2,0.4,0.1,0.6c0,0.3,0.2,0.5,0.2,0.7c0,0.3,0.1,0.5,0.1,0.7c0.1,0.6,0.3,1.3,0.4,1.9     c0.1,0.5,0.2,1,0.4,1.5c0.1,0.5,0.2,1.1,0.3,1.6c0.1,0.5,0.2,1,0.4,1.5c0.1,0.3,0.1,0.5,0.1,0.8c0.1,0.3,0.1,0.6,0.2,0.9     c0.1,0.3,0.2,0.6,0.3,1c0,0.3,0.2,0.7,0.1,1C12.1,32,12.2,32.2,12.3,32.4z"></path>
			<path class="st0" d="M32.7,17.5c1.2,0,2.5,0,3.7,0c0.1,0,0.2,0.2,0.3,0c0.1,0.1,0.1,0.1,0.1,0.2c0,0.1,0,0.3,0,0.4     c0,2.4,0,4.8,0,7.2c0,0.2,0,0.3,0,0.5c0.4-0.5,0.7-1,1.2-1.3c0-0.2,0.4-0.2,0.4-0.4c0.3,0.1,0.5-0.2,0.8-0.3     c0.4-0.1,0.9-0.2,1.3-0.2c0.7,0,1.4,0,2.1,0.3c0.2,0.1,0.4,0.1,0.6,0.3c0.6,0.4,0.8,0.4,1.3,1.4c0.3,0.5,0.4,1,0.6,1.6     c0.2,0.6,0.2,1.2,0.2,1.8c0,2.6,0,5.2,0,7.7c0,0.2,0,0.3,0,0.5c-1.4,0-2.7,0-4.1,0c0-0.1,0-0.2,0-0.4c0-2.4,0-4.7,0-7.1     c0-0.5-0.1-1-0.2-1.5c-0.2-0.6-0.6-1.1-1.3-1.3c-0.2-0.1-0.4,0-0.6-0.1c-0.3,0.1-0.6,0.1-0.9,0.2c-0.2,0.1-0.4,0.2-0.5,0.3     c-0.2,0.2-0.4,0.4-0.5,0.7c-0.3,0.4-0.4,0.9-0.4,1.4c0,2.4,0,4.8,0,7.3c0,0.2,0,0.3,0,0.5c-1.4,0-2.8,0-4.2,0     C32.7,30.6,32.7,24.1,32.7,17.5z"></path>
			<path class="st0" d="M85,23.8c0.2,0.4,0.4,0.8,0.7,1.2c0.2,0.4,0.4,0.8,0.6,1.2c0.2,0.4,0.4,0.8,0.6,1.2c0.2,0.4,0.5,0.8,0.5,1.3     c0.1-0.3,0.2-0.5,0.3-0.8c0,0,0-0.1-0.1-0.1c0.1-0.1,0.2-0.2,0.2-0.3c0.2-0.3,0.3-0.6,0.4-0.9c0.1-0.3,0.3-0.6,0.4-0.9     c0.3-0.7,0.7-1.4,1.1-2.1c1.5,0,3,0,4.4,0c-0.1,0.2-0.2,0.4-0.4,0.6c-0.2,0.3-0.4,0.7-0.7,1c-0.1,0.2-0.3,0.4-0.4,0.6     c-0.5,0.7-1.1,1.5-1.6,2.3c-0.3,0.4-0.5,0.8-0.8,1.2c-0.1,0.1-0.2,0.3-0.3,0.4c-0.2,0.3-0.2,0.5,0,0.8c0.5,0.6,0.8,1.2,1.2,1.8     c0.7,1,1.3,2.1,2,3.1c0.3,0.4,0.5,0.8,0.8,1.3c0,0.1,0,0.1,0.1,0.3c-0.8,0-1.6,0-2.3,0c-0.8,0-1.5,0-2.3,0     c-0.1-0.1-0.2-0.3-0.3-0.4c-0.7-1.4-1.5-2.8-2.2-4.2c-0.1,0.1-0.2,0.1-0.2,0.2c-0.2,0.5-0.5,1-0.7,1.4c-0.3,0.5-0.6,1-0.8,1.5     c-0.2,0.4-0.5,0.8-0.6,1.2c0,0.1-0.1,0.1-0.2,0.2c-1.5,0-3.1,0-4.7,0c0.7-1.2,1.5-2.2,2.2-3.3c0.7-1.1,1.5-2.2,2.2-3.3     c-0.2-0.3-0.4-0.6-0.6-1c-0.2-0.3-0.4-0.6-0.6-0.9c-0.2-0.3-0.4-0.7-0.6-1c-0.2-0.3-0.4-0.6-0.6-0.9c-0.2-0.3-0.4-0.6-0.6-0.9     c-0.2-0.3-0.4-0.6-0.6-0.9c-0.1-0.3-0.4-0.6-0.6-1c0,0,0,0,0-0.1c0,0,0,0,0,0C81.9,23.8,83.4,23.8,85,23.8z"></path>
			<path class="st0" d="M70.8,36.9c-0.1,0.2-0.3,0.2-0.4,0.2c-0.9,0-1.8,0-2.8,0c-0.3,0-0.6,0-0.9,0c0,0,0,0,0,0c0,0,0,0,0,0     c0-6.4,0-12.7,0-19.1c0-0.1,0-0.1,0-0.2c0,0,0-0.1,0-0.1c0,0,0,0,0,0c0,0,0,0,0,0c0,0,0,0,0.1-0.1c0.3,0.1,3.6,0.1,4,0     c0,0.1,0.1,0.2,0.1,0.3c0,0.1,0,0.1,0,0.2c0,6.3,0,12.6,0,18.8C70.8,36.8,70.8,36.9,70.8,36.9z"></path>
			<path class="st0" d="M60.3,23.8c0,0.7,0,1.5,0,2.2c0.1-0.2,0.2-0.3,0.3-0.4c0.1-0.3,0.3-0.6,0.6-0.9c0.5-0.5,1-0.9,1.7-1     c0.5-0.1,1-0.1,1.5-0.1c0.2,0,0.3,0.1,0.5,0.2c0,1.3,0,2.5,0,3.8c-0.2-0.1-0.4-0.2-0.7-0.3c-0.2-0.1-0.4-0.1-0.6-0.1     c-0.4,0-0.8,0-1.2,0c0,0.1,0.1,0.1,0.1,0.2c-0.4,0-0.7,0.1-0.9,0.4c-0.6,0.5-0.9,1.1-1,1.8c-0.1,0.3-0.1,0.7-0.1,1     c0,2.2,0,4.4,0,6.6c-0.1,0-0.2-0.1-0.2-0.1c-0.1,0-0.2,0-0.3,0c-1.1,0-2.2,0-3.2,0c-0.1,0-0.3,0.1-0.4-0.2c0,0,0-0.1,0-0.2     c0-4.1,0-8.2,0-12.3c0-0.2-0.1-0.4,0.2-0.5C57.5,23.8,58.9,23.8,60.3,23.8z"></path>
			<path class="st0" d="M113.5,25.5c0.2,0,0.3,0,0.5-0.1c0.3-0.2,0.7-0.2,1-0.5c0.4,0,0.7,0,1.1,0.1c0.7,0.3,1.4,0.6,2,0.9     c0.7,0.3,1.4,0.6,2.1,0.9c0.1,0,0.1,0.1,0.1,0.1c0.1,0.3,0.1,0.7-0.1,0.9c0,0-0.6,0.2-0.6,0.2c-0.6-0.2-1.3-0.3-1.9-0.5     c-0.4-0.1-0.8-0.2-1.2-0.3c-0.3-0.1-0.5,0.1-0.4,0.4c0.2,0.8,0.5,1.5,0.7,2.3c0.1,0.2,0.1,0.4,0.1,0.6c0,0.1,0.2,0,0.1,0.2     c-0.1,0.1,0.2,0.1,0.2,0.2c-0.1,0.3,0.1,0.5,0.1,0.7c0,0.1,0.3,0.2,0.1,0.4c0.1,0.2,0.1,0.3,0.2,0.5c0.1,0.2,0.1,0.3,0.2,0.5     c0.1,0.2,0.1,0.3,0.2,0.5c0,0.2,0.1,0.3,0.2,0.5c0.1,0.1,0,0.3,0.2,0.4c-0.1,0.3,0.1,0.4,0.1,0.7c0,0.2,0.2,0.5,0.3,0.7     c0,0.1,0,0.1,0.1,0.2c0.2,0.2,0.2,0.5,0.3,0.8c0.1,0.2,0.2,0.5,0.3,0.8c0.1,0.3,0.1,0.5,0.1,0.8c-0.3,0.4-0.3,0.4-1.1,0.4     c-0.2-0.1-0.3-0.2-0.4-0.3c0.1-0.3-0.2-0.2-0.3-0.4c0,0,0-0.1,0.1-0.1c-0.1-0.4-0.5-0.7-0.6-1.1c0-0.1-0.3,0-0.2-0.3     c0-0.1-0.1-0.2-0.2-0.3c-0.1-0.2-0.2-0.4-0.3-0.6c0-0.1,0-0.1-0.1-0.2c-0.1-0.1-0.2-0.2-0.2-0.3c0-0.2-0.1-0.2-0.1-0.4     c-0.1-0.1-0.1-0.3-0.1-0.4c0,0,0,0,0,0c-0.1-0.3-0.4-0.5-0.4-0.8c-0.1-0.3-0.2-0.6-0.4-0.8c0-0.1-0.1-0.1-0.2-0.2     c0,0.6,0,1.1,0,1.7c0,0.3,0,0.6,0,0.9c0,0.3,0.1,0.6,0.1,1c0,0.3,0,0.6,0,0.9c0.1,0.3,0,0.7,0.1,1c0.1,0.3,0.1,0.7,0.1,1     c0,0.1,0.1,0.1,0.1,0.2c-0.1,0.3-0.4,0.4-0.7,0.4c-0.3,0-0.6-0.2-0.7-0.4c0-0.5-0.2-0.9-0.3-1.3c-0.1-0.4-0.2-0.8-0.3-1.2     c-0.1-0.4-0.2-0.9-0.2-1.3c0-0.4-0.2-0.8-0.2-1.3c-0.1-0.4-0.1-0.9-0.2-1.3c-0.1-0.4-0.1-0.9-0.2-1.3c0-0.4-0.1-0.9-0.1-1.3     c0-0.4-0.1-0.9-0.1-1.3c0,0-0.1,0-0.1,0c-0.3,0.4-0.6,0.8-0.9,1.1c-0.4,0.6-0.8,1.3-1.5,1.9c-0.2-0.1-0.4-0.2-0.5-0.3     c0-0.2,0-0.4,0-0.6c0.1-0.3,0.3-0.5,0.4-0.8c0.2-0.6,0.6-1.2,0.9-1.8c0.3-0.6,0.6-1.1,0.9-1.7c0.1-0.2,0.3-0.4,0.5-0.5     c0.4-0.2,0.8-0.3,1.1-0.5C113.4,25.7,113.5,25.7,113.5,25.5L113.5,25.5z"></path>
			<path class="st0" d="M128.2,47.1c-0.2,0.4-0.2,0.4-0.9,0.6c-0.3-0.4-0.6-0.8-0.8-1.2c-0.5-0.8-1-1.6-1.5-2.4     c-0.1,0.1-0.1,0.1-0.1,0.2c0,0.5-0.1,1-0.1,1.4c0,0.5-0.1,1.1-0.1,1.6c0,0.3-0.1,0.6-0.1,1c-0.5,0.4-0.5,0.4-1.1,0.2     c-0.1-0.2-0.1-0.5-0.2-0.7c-0.1-0.5-0.2-1.1-0.3-1.7c-0.1-0.4-0.2-0.7-0.2-1.1c-0.1-0.5-0.2-1-0.3-1.6c-0.1-0.4-0.2-0.8-0.3-1.2     c-0.1-0.4-0.1-0.7-0.2-1.1c0-0.2-0.1-0.3-0.1-0.5c-0.5,0.5-1,0.9-1.4,1.5c-0.1,0.2-0.4,0.3-0.5,0.4c-0.2,0.2-0.4,0.4-0.6,0.6     c-0.2,0.1-0.3,0.1-0.5,0c-0.2-0.1-0.4-0.3-0.6-0.4c-0.1-0.3,0-0.5,0.1-0.7c0.2-0.3,0.4-0.6,0.6-0.9c0.2-0.3,0.4-0.6,0.6-1     c0-0.1,0-0.2,0.2-0.3c0.1,0,0.2-0.2,0.2-0.3c0.2-0.4,0.4-0.8,0.7-1.2c0.3-0.5,0.5-0.7,0.9-0.8c0.4-0.1,0.7-0.2,1.1-0.3     c0.7-0.1,1.4-0.4,2.1-0.6c0.2,0,0.3-0.1,0.5-0.2c0.2,0,0.3,0,0.5,0.1c0.4,0.2,0.8,0.3,1.1,0.5c0.1,0.1,0.3,0.1,0.4,0.2     c0.4,0.2,0.8,0.4,1.2,0.6c0.5,0.3,1,0.5,1.5,0.8c0.1,0.1,0.2,0.1,0.2,0.3c0,0.1,0.1,0.2,0.1,0.2c-0.2,0.3-0.3,0.7-0.8,0.8     c-1.1-0.3-2.2-0.6-3.3-0.8c0,0.1,0,0.2,0,0.3c0.3,0.8,0.5,1.7,0.7,2.5c0,0.2,0.1,0.3,0.2,0.5c0.4,1.2,0.7,2.4,1.1,3.6     C128.1,46.6,128.1,46.8,128.2,47.1z"></path>
			<path class="st0" d="M124.2,25.7c-0.4,0.2-0.6,0.6-0.9,0.9c-0.1,0.1-0.2,0.2-0.2,0.2c-0.2,0.1-0.4,0.3-0.5,0.5     c-0.2,0.4-0.5,0.6-1,0.5c-0.2-0.2-0.6-0.3-0.6-0.7c0.1-0.5,0.5-0.8,0.7-1.2c0.2-0.3,0.4-0.6,0.6-0.9c0.1-0.2,0.1-0.4,0.3-0.6     c0.2-0.1,0.2-0.3,0.4-0.5c0.2-0.3,0.5-0.7,0.7-1.1c0.5-0.2,1.1-0.2,1.6-0.3c0.6-0.1,1.2-0.1,1.8-0.2c0.2,0,0.4,0,0.5,0.1     c0.3,0.2,0.6,0.3,0.9,0.5c0.2,0.2,0.5,0.4,0.8,0.5c0.5,0.2,0.9,0.6,1.3,0.8c0.3,0.2,0.6,0.5,1,0.7c0.2,0.1,0.3,0.3,0.3,0.5     c0,0.2-0.1,0.3-0.1,0.5c-0.4,0-0.6-0.1-0.9-0.2c-0.6-0.3-1.2-0.6-1.8-0.8c-0.2-0.1-0.4-0.2-0.5-0.3c-0.1,0-0.1,0.1-0.1,0.1     c0,0,0,0.1,0,0.1c0.1,0.3,0.3,0.5,0.4,0.7c0,0.1,0.1,0.2,0.2,0.3c-0.1,0.1,0,0.2,0,0.4c0,0.1,0.1,0.2,0.2,0.3     c0.1,0.1,0,0.3,0.2,0.3c0,0.1,0,0.3,0.1,0.4c0.1,0.1,0.1,0.3,0.1,0.4c0.1,0.1,0.1,0.3,0.2,0.4c0,0.1,0.1,0.3,0.1,0.4     c0.3,0.5,0.5,1.1,0.7,1.6c0.3,0.7,0.5,1.4,0.7,2.1c0.2,0.5,0.3,1,0.5,1.5c0,0.4,0.3,0.7-0.1,1.1c-0.2,0.1-0.4,0.3-0.8,0.2     c0-0.1-0.1-0.1-0.2-0.2c-0.1-0.1,0-0.2,0-0.3c-0.1-0.1-0.1-0.2-0.2-0.3c0-0.1-0.1-0.2-0.1-0.3c-0.1-0.3-0.3-0.6-0.4-0.9     c-0.2-0.4-0.4-0.8-0.6-1.2c-0.3-0.7-0.7-1.3-1-1.9c-0.1-0.2-0.2-0.4-0.3-0.6c-0.1,0.4-0.1,0.7,0,1.2c0,0.2,0,0.4,0,0.6     c0,0.8,0.1,1.5,0.1,2.3c0,0.8,0,1.5,0,2.3c0,0.3-0.1,0.6-0.4,0.7c-0.4,0.2-0.8,0-0.9-0.4c-0.1-0.5-0.2-1.1-0.3-1.6     c0-0.5-0.2-1-0.2-1.5c0-0.3-0.1-0.6-0.2-0.9c-0.1-0.2-0.2-0.4-0.2-0.7c0-0.4-0.2-0.7-0.2-1.1c0-0.4-0.2-0.8-0.3-1.1     c-0.1-0.4-0.1-0.7-0.3-1.1c0-0.1-0.1-0.2-0.1-0.3c-0.2-0.5-0.2-1-0.4-1.5c0-0.1-0.1-0.3-0.1-0.4c-0.1-0.1-0.2-0.2-0.3-0.1     C124.3,25.4,124.2,25.4,124.2,25.7C124.2,25.7,124.2,25.7,124.2,25.7z"></path>
			<path class="st0" d="M48.6,37.1c0-4.4,0-8.8,0-13.3c1.4,0,2.8,0,4.1,0c0,4.4,0,8.8,0,13.3C51.4,37.1,50,37.1,48.6,37.1z"></path>
			<path class="st0" d="M78.2,37.1c-1.4,0-2.7,0-4,0c0,0-0.1-0.1-0.1-0.1c0.1-0.4,0-0.9,0-1.3c0-0.4,0-0.9,0-1.3c0-0.4,0-0.9,0-1.3     s0-0.9,0-1.3c0-0.4,0-0.9,0-1.3c0-0.4,0-0.9,0-1.3c0-0.4,0-0.9,0-1.3s0-0.9,0-1.3c0-0.4,0-0.9,0-1.3c0-0.4,0.1-0.9-0.1-1.3     c0.1,0,0.2-0.1,0.2-0.1c1.2,0,2.5,0,3.7,0c0.1,0,0.1,0,0.2,0.1c-0.1,0.6,0,1.3,0,1.9c0,0.6,0,1.2,0,1.9c0,0.6,0,1.3,0,1.9     s0,1.3,0,1.9c0,0.6,0,1.3,0,1.9c0,0.6,0,1.2,0,1.9C78.2,35.8,78.2,36.4,78.2,37.1z"></path>
			<path class="st0" d="M117.3,49.7c-0.3,0-0.5,0-0.8,0c-0.2-0.5-0.7-0.7-1-1.1c-0.3-0.4-0.7-0.8-1-1.2c-0.3-0.4-0.6-0.8-1-1.3     c0,0.1-0.1,0.2-0.1,0.2c0.2,0.1-0.1,0.4,0.2,0.5c-0.1,0.1-0.1,0.3-0.1,0.4c0.2,0.5,0.3,1,0.4,1.5c0.1,0.3,0.1,0.5,0.2,0.8     c0,0.2,0.1,0.3-0.1,0.4c-0.2,0-0.4,0-0.6-0.1c-0.2-0.1-0.3-0.4-0.5-0.6c-0.2-0.4-0.4-0.9-0.6-1.3c-0.3-0.6-0.7-1.3-0.9-2     c-0.3-0.8-0.6-1.6-0.9-2.5c0.1-0.2-0.2-0.1-0.1-0.3c0-0.1-0.1-0.2-0.2-0.4c-0.5,0.5-0.7,1.1-1.1,1.6c-0.4,0.1-0.5,0-0.9-0.6     c0.1-0.3,0.1-0.6,0.2-0.9c0,0,0-0.1,0-0.1c0.2-0.3,0.3-0.7,0.4-1.1c0.1-0.4,0.3-0.7,0.4-1.1c0.1-0.3,0.4-0.5,0.8-0.5     c0.2,0,0.4,0,0.6-0.1c0,0,0.1-0.1,0.1-0.1c-0.3-0.1-0.5-0.2-0.8-0.2c-0.6-0.1-0.9-0.6-1.1-1c-0.2-0.4-0.3-1.1-0.2-1.6     c0.2-0.8,0.8-1.3,1.6-1.2c0.3,0.1,0.6,0.3,0.9,0.6c0.3,0.4,0.5,0.7,0.6,1.2c0.1,0.5,0.1,1.1-0.2,1.6c-0.2,0.2-0.3,0.5-0.6,0.6     c0,0,0,0.1-0.1,0.1c0.3,0,0.5,0,0.7-0.1c0.4-0.1,0.8-0.1,1.2,0.2c0,0,0.1,0.1,0.1,0.1c0.4,0.2,0.7,0.4,1,0.6     c0.5,0.3,0.9,0.7,1.4,0.8c0.3,0.1,0.6,0.4,0.9,0.5c0.1,0,0.2,0.1,0.2,0.1c0.3,0.1,0.5,0.3,0.7,0.6c0,0.1,0,0.3,0,0.5     c-0.1,0.1-0.2,0.2-0.3,0.3c-0.5,0-0.8-0.3-1.3-0.4c-0.3-0.1-0.6-0.3-0.9-0.4c-0.4-0.2-0.8-0.3-1.1-0.5c0,0-0.1,0-0.2,0     c0.2,0.4,0.4,0.8,0.6,1.1c0.1,0.1,0,0.3,0.2,0.3c0,0.1,0,0.3,0.1,0.4c0.1,0.1,0.2,0.2,0.2,0.3c0.1,0.1,0.2,0.2,0.2,0.4     c0.1,0.4,0.4,0.7,0.6,1.1c0,0.1,0.1,0.1,0.1,0.2c0.1,0.2,0.3,0.4,0.4,0.6c0,0.2,0.1,0.3,0.2,0.4c0.3,0.5,0.6,0.9,0.9,1.4     c0.1,0.2,0.2,0.4,0.4,0.5C117.5,49.3,117.4,49.5,117.3,49.7z"></path>
			<path class="st0" d="M139.8,21.5c-0.1,0.3-0.1,0.3,0.1,0.4c-0.1,0.1-0.2,0.3-0.3,0.4c0.2,0,0.3,0.1,0.5,0.1     c0.2,0.2,0.3,0.4,0.5,0.6c0.2,0.2,0.3,0.3,0.5,0.5c0,0,0,0,0,0.1c0.2,0.3,0.4,0.6,0.7,0.9c0.3-0.2,0.2-0.5,0.1-0.6     c-0.1-0.3,0-0.7-0.1-1c0.1,0,0.2,0,0.3,0.1c-0.5-0.4-0.7-1-1-1.6c0-0.1,0-0.2,0-0.3c0.3,0,0.4,0.2,0.5,0.3     c0.2,0.3,0.3,0.6,0.5,0.9c0.1,0.2,0.1,0.5,0.3,0.7c0.2,0.2,0.2,0.5,0.4,0.6c-0.1,0.3,0.2,0.5,0.3,0.8c0.1,0.4,0.3,0.8,0.4,1.1     c0.2,0.4,0.2,0.8,0.4,1.2c-0.1,0.2,0.2,0.1,0.1,0.4c-0.1,0.1,0.1,0.3,0.1,0.5c0,0.1,0.1,0.3,0.1,0.4c0,0.1,0.1,0.3,0.1,0.4     c0,0.1,0,0.2-0.1,0.4c-0.1-0.3-0.2-0.5-0.3-0.9c-0.2,0.4,0.1,0.7,0,1c0.2,0.3,0,0.6,0.1,1c-0.1,0-0.2-0.1-0.2-0.1     c-0.1-0.1-0.1-0.2-0.1-0.3c0-0.3-0.2-0.6-0.2-0.9c-0.1-0.4-0.2-0.8-0.3-1.2c-0.2-0.6-0.4-1.2-0.6-1.9c-0.1-0.3-0.2-0.5-0.3-0.8     c0,0-0.1,0-0.1,0c0,0.2,0,0.5,0,0.7c-0.2,0-0.3-0.1-0.3-0.3c-0.1,0.1-0.1,0.1-0.2,0.2c-0.1,0-0.2-0.1-0.3-0.1     c0-0.2-0.2-0.4-0.7-0.8c0,0,0,0,0,0c0,0.2,0.3,0.2,0.2,0.5c0,0.2,0.2,0.4,0.2,0.6c0.1,0.2,0.1,0.4,0.2,0.6     c0.3,0.7,0.5,1.5,0.8,2.2c0.2,0.7,0.4,1.3,0.6,2c0,0.1,0,0.2-0.2,0.3c-0.2-0.1-0.2-0.3-0.3-0.4c-0.2-0.5-0.4-1.1-0.6-1.6     c-0.1-0.4-0.3-0.7-0.4-1.1c-0.2,0.2,0,0.3,0,0.5c0,0.3,0.1,0.6,0.2,0.9c0.1,0.4,0,0.7,0.1,1.1c0.1,0.3,0.1,0.6,0.1,1     c0,0.1,0,0.1,0,0.2c-0.2,0.1-0.3,0-0.5-0.1c0-0.1,0.1-0.1,0.1-0.2c-0.2-0.3-0.1-0.6-0.2-0.9c-0.2-0.5-0.2-1.1-0.4-1.6     c-0.1-0.5-0.2-1-0.4-1.5c-0.1-0.4-0.3-0.8-0.4-1.2c0.1-0.2-0.3-0.1-0.1-0.3c-0.1-0.1-0.1-0.2-0.1-0.4c0-0.2-0.2-0.3-0.3-0.5     c-0.1,0.4-0.2,0.8-0.3,1.1c-0.2,0.1-0.3-0.1-0.4-0.1c-0.3,0-0.5,0.1-0.6,0.1c-0.6-0.4-1.2-0.8-1.8-1.2c0,0,0,0-0.1,0     c0.1,0.3,0.3,0.6,0.4,0.9c0.2,0.6,0.5,1.1,0.8,1.7c0.2,0.5,0.3,0.9,0.5,1.4c0.2,0.5,0.3,0.9,0.5,1.4c0.2,0.6,0.3,1.1,0.5,1.7     c0.1,0.2,0,0.5,0,0.8c-0.1,0-0.1,0.1-0.2,0.2c-0.4-0.3-0.4-0.7-0.6-1.1c-0.2-0.5-0.4-1-0.6-1.5c-0.2-0.4-0.3-0.9-0.6-1.2     c0-0.3-0.1-0.4-0.2-0.6c0-0.1-0.1-0.1-0.2-0.2c0.2,0.6,0.1,1.1,0.3,1.5c0.1,0.3,0.1,0.6,0.1,1c0,0.6,0,1.1,0.1,1.7     c0,0.2,0.1,0.5,0.1,0.7c0,0.2-0.1,0.3-0.1,0.5c-0.2,0-0.3,0-0.5,0c-0.1-0.3-0.1-0.6-0.2-0.9c-0.1-0.4-0.1-0.9-0.3-1.3     c0-0.7-0.3-1.3-0.4-2c-0.1-0.6-0.3-1.2-0.5-1.8c-0.2-0.7-0.5-1.3-0.6-2c0-0.2-0.2-0.4-0.2-0.6c-0.1,0.1-0.2,0.1-0.2,0.2     c0,0.2-0.1,0.3-0.2,0.4c-0.3,0.4-0.5,0.8-0.8,1.2c-0.3,0.2-0.6,0-0.7-0.2c-0.1-0.1-0.2-0.4-0.2-0.6c0.1-0.4,0.2-0.8,0.4-1.1     c0.2-0.6,0.5-1.2,0.7-1.8c0,0,0.1-0.1,0.1-0.1c0.7,0,1.3,0,1.9,0c0.3,0,0.5,0.2,0.8,0.4c0.3,0.3,0.7,0.6,1,0.9     c0.4,0.3,0.8,0.7,1.2,1c0.1,0.1,0.2,0.3,0.3,0.5c0.1-0.1,0.1-0.2,0.1-0.3c0-0.3,0-0.5,0.1-0.8c0.1-0.2,0-0.5,0.1-0.8     c0.1-0.1,0-0.3,0-0.5c0-0.1,0.1-0.2,0.1-0.2c0.2,0,0.3,0,0.5,0.1c0,0,0,0,0-0.1c0,0-0.1,0-0.1-0.1c-0.2-0.2-0.5-0.4-0.7-0.6     c-0.1-0.1-0.2-0.2-0.2-0.4c0-0.2-0.1-0.3-0.2-0.5c0-0.1-0.1-0.2-0.1-0.4c0.1-0.1,0.2-0.2,0.2-0.3c0.4,0.1,0.6,0.4,0.9,0.6     c0.3,0.2,0.3,0.6,0.5,0.8C139.7,21.5,139.7,21.5,139.8,21.5L139.8,21.5z"></path>
			<path class="st0" d="M65.1,43.4c0,0.1-0.1,0.2-0.1,0.3c0,0.1-0.1,0.2-0.1,0.3c0,0.1-0.2,0.2,0,0.3c-0.3,0.2-0.2,0.5-0.3,0.7     c-0.1,0.2-0.2,0.5-0.3,0.8c-0.3,0.8-0.5,1.6-0.8,2.4c-0.1,0.3-0.1,0.3-0.2,0.4c-0.4,0-0.9,0-1.3,0c-0.2-0.4-0.3-0.8-0.5-1.2     c-0.2-0.5-0.4-1-0.5-1.5c-0.1-0.4-0.4-0.8-0.4-1.3c-0.2-0.1-0.1-0.4-0.2-0.5c-0.1-0.2-0.1-0.4-0.2-0.6c-0.1,0-0.1,0.2-0.1,0.3     c0,0.4,0,0.8,0,1.2c0,1.1,0,2.1,0,3.2c0,0.2,0,0.3,0,0.5c-0.8,0.1-1.3,0.1-1.6-0.1c0-2.5,0-5,0-7.6c0.2,0,0.4,0,0.6,0     c0.5,0,1,0,1.5,0c0.1,0,0.3,0,0.4-0.1c0.6,1.7,1.2,3.4,1.7,5.2c0.1,0,0.1,0,0.2,0c0.1-0.6,0.3-1.1,0.5-1.7     c0.1-0.3,0.1-0.7,0.3-0.9c0-0.4,0.2-0.7,0.3-1c0-0.2,0-0.2,0-0.3c0.3-0.3,0.5-0.6,0.4-1.1c0.1,0,0.1-0.1,0.3-0.1     c0.1,0.1,0.3,0,0.5,0c0.6,0,1.2,0,1.8,0c0,2.6,0,5.1,0,7.7c-0.5,0.1-1,0-1.6,0c-0.1,0-0.2-0.1-0.1-0.2c-0.1-0.3,0.1-0.6,0-0.9     c0-0.3,0-0.7,0-1c0-0.3,0-0.6,0-0.9c0-0.3,0-0.7,0-1c0-0.2,0-0.3-0.1-0.5c0-0.1,0-0.1,0-0.2C65.3,43.7,65.3,43.6,65.1,43.4z"></path>
			<path class="st0" d="M134.7,33.3c0.3,0,0.5,0,0.7-0.3c0.3,0.2,0.6,0.5,0.9,0.7c0.3,0.3,0.7,0.6,1,0.9c0,0,0,0.1,0.1,0.1     c0.4,0.2,0.6,0.5,0.9,0.8c0.1,0.4-0.1,0.6-0.2,0.9c-0.1,0-0.3-0.1-0.4-0.1c-0.3-0.1-0.6-0.3-0.9-0.4c-0.2-0.1-0.3-0.2-0.6,0     c0.1-0.2,0.1-0.2,0.1-0.3c-0.1,0-0.2,0-0.3,0c0,0.2,0.1,0.3,0.1,0.5c0.2,0.6,0.2,1.3,0.4,1.9c0.1,0.2,0,0.5,0.1,0.7     c0.1,0.4,0.1,0.8,0.1,1.2c0,0.2,0.1,0.5,0.1,0.7c0,0.2,0,0.4,0.1,0.6c0,0.1,0,0.2,0,0.2c0,0.6,0,1.1,0,1.7     c-0.1,0.1-0.2,0.2-0.4,0.3c-0.1,0-0.2,0-0.4,0c-0.3-1.2-0.6-2.3-0.9-3.6c-0.1,0.4-0.2,0.7-0.2,1.1c0,0.4-0.2,0.7-0.1,1.1     c0,0-0.1,0-0.1,0c-0.1,0.5-0.2,1-0.3,1.4c0,0.2-0.1,0.4-0.1,0.6c-0.1,0.4-0.3,0.6-0.6,0.7c-0.1,0-0.1,0.1-0.2,0.1     c-0.1-0.1-0.1-0.2-0.1-0.2c0-0.5-0.1-0.9,0.1-1.4c0-0.1,0-0.2,0-0.3c0-1.1,0-2.2,0-3.3c0-0.9-0.1-1.8-0.1-2.8c-0.1,0-0.2,0-0.3,0     c-0.2,0.3-0.5,0.6-0.7,1c-0.1,0.1-0.2,0.2-0.3,0.3c-0.2,0.3-0.5,0.7-0.7,1c-0.2,0.3-0.5,0.4-0.8,0.2c-0.3-0.2-0.4-0.4-0.2-0.7     c0.2-0.5,0.5-0.9,0.7-1.4c0.1-0.2,0.3-0.5,0.2-0.7c0.1,0,0.2,0,0.2-0.1c0.1-0.2,0.2-0.3,0.2-0.5c0.1-0.1,0-0.3,0.2-0.4     c0.1-0.1,0.2-0.3,0.1-0.6c0,0,0.1,0,0.1,0c0.2-0.4,0.4-0.8,0.7-1.3c0.1,0,0.1-0.1,0.2-0.1c0.2,0,0.4-0.4,0.6-0.2     c0.2-0.1,0.4-0.3,0.7-0.3C134.5,33.5,134.6,33.4,134.7,33.3L134.7,33.3z"></path>
			<path class="st0" d="M108.6,32.2c-0.4,0.1-0.7-0.1-1-0.2c-0.3-0.1-0.7-0.3-1-0.4c-0.1,0-0.2-0.1-0.4-0.1c0.1,0.6,0.3,1.1,0.4,1.6     c0.1,0.9,0.5,1.7,0.6,2.6c0.1,0.3,0.2,0.7,0.3,1c0.1,0.4,0.2,0.8,0.3,1.1c0.2,0.6,0.4,1.2,0.6,1.7c0.2,0.5,0.2,0.5,0.2,1     c-0.1,0.2-0.2,0.2-0.3,0.2c-0.2-0.1-0.4-0.1-0.5-0.4c-0.1-0.2-0.3-0.4-0.3-0.6c0-0.2-0.2-0.4-0.3-0.6c-0.3-0.7-0.6-1.3-0.9-2     c-0.1-0.3-0.3-0.6-0.4-0.9c0,0-0.1,0-0.1-0.1c-0.1,0.3,0,0.5,0,0.8c0,0.1,0.1,0.3,0.1,0.4c0,0.4,0,0.9,0.1,1.3     c0.1,0.5,0.1,0.9,0.2,1.4c0,0.3,0.1,0.6,0.1,0.9c-0.2,0-0.3,0-0.4,0c-0.3-0.2-0.3-0.6-0.4-0.9c-0.1-0.6-0.3-1.1-0.4-1.7     c-0.1-0.4-0.2-0.9-0.3-1.3c0-0.2,0-0.4-0.1-0.5c-0.1-0.5-0.1-1.1-0.3-1.6c-0.1-0.4-0.1-0.9-0.1-1.3c0-0.3-0.1-0.6-0.1-1     c-0.1,0.3-0.3,0.5-0.3,0.8c-0.3,0.2-0.3,0.5-0.4,0.7c-0.1,0.2-0.3,0.4-0.3,0.7c-0.1,0-0.2,0-0.3,0c-0.2-0.2-0.2-0.5-0.3-0.7     c0,0,0-0.1,0-0.1c0.2-0.3,0.2-0.6,0.3-0.9c0.1-0.3,0.2-0.6,0.3-0.9c0.2-0.5,0.4-1.1,0.6-1.6c0.1-0.2,0.3-0.3,0.4-0.5     c0.3,0.1,0.3-0.2,0.5-0.3c0.1,0,0.1-0.1,0.1-0.1c-0.4,0-0.4,0-0.9-0.2c0-0.3-0.1-0.7-0.1-1.1c0-0.7,0.3-1.3,0.9-1.8     c0.3-0.3,0.8-0.3,1.1,0.1c0,0.2,0.2,0.4,0.1,0.6c0,0.2-0.1,0.4,0,0.6c-0.1,0.2-0.2,0.4-0.3,0.7c-0.1,0.2-0.4,0.4-0.2,0.7     c0.1-0.1,0.1-0.2,0.2-0.2c0.2,0.1,0.4-0.1,0.7,0.1c0.4,0.3,0.7,0.6,1.1,0.8c0.2,0.1,0.3,0.2,0.5,0.4c0.1,0.1,0.2-0.1,0.3,0.1     c0,0.1,0.1,0.2,0.2,0.3c0.1,0,0.2,0.1,0.3,0.2c0.1,0.2,0.2,0.4,0.1,0.6C108.8,31.8,108.6,32,108.6,32.2z"></path>
			<path class="st0" d="M118.9,16.4c0.1,0.1,0.2,0.2,0.2,0.3c0,0.1,0.1,0.2,0.1,0.3c0.3,0.7,0.7,1.4,1.1,2c0.2,0.4,0.4,0.8,0.6,1.2     c0.2,0.5,0.5,0.9,0.7,1.4c0.1,0.2,0.1,0.4,0.1,0.5c-0.1,0.1-0.2,0.2-0.4,0.3c-0.2,0-0.3,0-0.5,0c-0.2,0-0.4,0-0.5-0.3     c-0.1-0.2-0.3-0.4-0.4-0.6c-0.5-0.7-1.1-1.5-1.6-2.2c-0.1-0.1-0.2-0.2-0.2-0.4c-0.2,0.3-0.1,0.5-0.2,0.8c0,0.5-0.1,1-0.1,1.5     c0,0.3,0,0.7-0.1,1c-0.1,0.3-0.1,0.6-0.1,0.9c-0.3,0.3-0.7,0.5-1.2,0.3c-0.1-0.1-0.1-0.3-0.1-0.5c0-0.6,0-1.2-0.1-1.7     c-0.1-0.3,0-0.7-0.1-1c-0.1-0.4,0-0.9-0.2-1.3c0,0,0,0,0,0c0-0.5-0.1-1-0.1-1.5c-0.2-0.1-0.2-0.1-0.3,0c-0.3,0.3-0.7,0.6-1,0.9     c-0.4,0.3-0.8,0.5-1.2,0.8c-0.2-0.1-0.3-0.1-0.4-0.1c-0.1-0.3,0.2-0.5,0.3-0.7c0.1-0.2,0.3-0.3,0.5-0.5c0.1-0.2,0.3-0.3,0.5-0.4     c0.3-0.3,0.7-0.6,1-1c0.3-0.3,0.7-0.4,1-0.6c0.2-0.1,0.4-0.1,0.6-0.1c-0.2-0.1-0.4-0.1-0.6-0.1c-0.3,0-0.6-0.1-0.8-0.3     c0-0.1,0-0.2,0-0.3c0.3-0.5,0.9-0.7,1.4-0.8c0.5-0.1,1.1-0.1,1.6,0.3c0,0.5-0.3,0.8-0.8,1c0.3,0.1,0.5,0,0.7-0.1     c0.2,0,0.3,0,0.4,0c0.2-0.1,0.3,0,0.4,0.1c0,0,0.1,0,0.2,0c0.1,0,0.1,0,0.2,0c0.8,0.3,1.7,0.4,2.5,0.7c0.2,0.1,0.2,0.2,0.3,0.3     c0,0.2-0.1,0.4-0.2,0.4c-0.2,0-0.3,0.1-0.5,0c-0.2-0.1-0.3-0.1-0.5,0c0-0.1-0.1-0.1-0.1-0.2C120.4,16.6,119.7,16.5,118.9,16.4z"></path>
			<path class="st0" d="M13.7,48.7c-0.7-0.1-1.4,0.1-2.1-0.1c0-0.1,0.1-0.1,0.1-0.1c-0.2-0.5-0.3-1-0.5-1.5c-0.9,0-1.7,0-2.6,0     c-0.2,0.6-0.3,1.2-0.6,1.7c-0.6,0-1.2,0-1.8,0c0,0,0,0-0.1-0.1c0.2-0.6,0.4-1.2,0.7-1.8c0.1-0.1-0.1-0.2,0-0.4     C6.9,46.4,7,46.2,7,46.1c0-0.1,0-0.3,0.1-0.4c0.1-0.1-0.2-0.3,0.1-0.3c0.1-0.1,0.1-0.3,0.2-0.4c0.2-0.6,0.5-1.1,0.6-1.8     c0.1-0.4,0.3-0.7,0.4-1.1c0,0,0,0,0,0c0.2-0.1-0.1-0.4,0.2-0.5c0.1-0.2,0.1-0.3,0.2-0.5C9,41,9.2,41,9.4,41c0.3,0.1,0.7,0,1,0     c0.2,0,0.3,0,0.5,0c0,0.1,0,0.1,0,0.2c0.3,0.5,0.3,1,0.6,1.5c0.1,0.1,0.1,0.3,0.2,0.4c0,0,0,0.2,0,0.3c0.2,0.7,0.5,1.3,0.7,2     c0,0,0,0.1,0,0.1c0,0.2,0.2,0.2,0.2,0.5c0,0.2,0.1,0.3,0.2,0.5c0.1,0.4,0.3,0.7,0.4,1.1c0,0.3,0.2,0.6,0.3,0.8     C13.6,48.5,13.6,48.6,13.7,48.7z M9,45.4c0.1,0,0.1,0.1,0.1,0.1c0.5,0,1.1,0,1.6,0c-0.3-0.9-0.6-1.8-0.9-2.8     C9.5,43.7,9.3,44.6,9,45.4z"></path>
			<path class="st0" d="M134.6,47.8c-0.7,0-1.3,0-2,0c0,0.1,0,0.2,0,0.3c0,0,0.1,0.1,0.1,0.1c0,0.4,0.1,0.8,0.1,1.3     c0,0.3,0.1,0.6,0.1,1c0,0.3,0,0.7,0,1c0,0.3,0,0.3-0.2,0.5c-0.1,0.1-0.3,0.2-0.4,0.3c0,0,0,0-0.1,0c-0.2,0-0.2-0.2-0.2-0.3     c-0.2-0.4-0.4-0.7-0.5-1.1c-0.1,0-0.1,0-0.2,0c-0.3,0.8-0.6,1.6-0.9,2.3c-0.3-0.1-0.5,0.3-0.8,0.1c0-0.3-0.1-0.5,0.1-0.8     c0,0,0-0.1,0-0.1c0-0.8,0.2-1.6,0.1-2.3c0-0.2-0.1-0.5-0.1-0.7c-0.2,0.2-0.4,0.4-0.6,0.6c-0.2,0.2-0.4,0.3-0.5,0.6     c-0.4,0-0.4,0.3-0.7,0.5c-0.1,0.1-0.3,0.2-0.4,0.1c-0.2,0-0.3,0-0.5,0c-0.1-0.3,0.1-0.5,0.2-0.7c0.4-0.4,0.8-0.8,1.1-1.2     c0.3-0.4,0.7-0.8,1.1-1.2c0.2-0.2,0.5-0.4,0.8-0.5c0.2-0.1,0.4-0.2,0.7-0.3c-0.3-0.1-0.6,0-0.9-0.1c-0.1,0-0.1-0.1-0.2-0.2     c-0.3-0.1-0.3-0.3-0.3-0.6c0-0.5,0.1-0.9,0.4-1.2c0.2-0.2,0.5-0.4,0.7-0.6c0.1-0.1,0.2-0.2,0.4-0.3c0.3-0.1,0.7-0.1,1.1-0.1     c0.3,0,0.6,0.4,0.6,0.7c0,0.2,0,0.4,0,0.7c0,0.2-0.1,0.3-0.2,0.5c-0.1,0.1-0.2,0.3-0.3,0.4c0,0.1,0,0.1,0,0.2c0.1,0,0.1,0,0.1,0     c0.3-0.2,0.7-0.2,1-0.1c0.6,0.2,1.1,0.4,1.7,0.6c0.1,0,0.3,0.1,0.3,0.2c0,0.2,0,0.3-0.2,0.4C134.8,47.5,134.7,47.6,134.6,47.8z"></path>
			<path class="st0" d="M16.9,43.2c0.6,0,1.2,0,1.7,0c0.1,0.4,0.1,0.7,0.2,1.1c0.1,0.4,0.1,0.8,0.2,1.2c0.1,0.4,0.1,0.8,0.3,1.1     c0.3-0.2,0.3-0.5,0.4-0.8c0.1-0.4,0.2-0.9,0.3-1.3c0.1-0.4,0.2-0.7,0.3-1.1c0-0.1,0.1-0.2,0.1-0.3c0.5,0,1,0,1.6-0.1     c0.2,0.5,0.3,1.1,0.5,1.7c0.2,0.6,0.3,1.2,0.4,1.8c0.2-0.1,0.2-0.3,0.2-0.4c0.1-0.4,0.2-0.9,0.3-1.3c0.1-0.4,0.1-0.8,0.2-1.2     c0-0.2,0.1-0.4,0.1-0.7c0.3,0,0.5,0,0.8,0c0.2,0,0.5,0.1,0.8-0.1c0,0.1,0,0.2,0,0.3c-0.2,0.5-0.3,1.1-0.5,1.7     c-0.2,0.5-0.3,1-0.4,1.5c-0.2,0.5-0.3,1-0.4,1.5c-0.1,0.2-0.2,0.5-0.2,0.7c-0.6,0-1.1,0-1.7,0c-0.2-0.1-0.1-0.3-0.2-0.5     c0,0-0.1-0.1-0.2-0.1c0.2-0.1,0-0.2,0-0.4c-0.1-0.7-0.4-1.3-0.5-2c0-0.1-0.1-0.2-0.2-0.3c-0.2,0.6-0.3,1.1-0.5,1.6     c-0.1,0.5-0.3,1-0.4,1.6c-0.1,0-0.2,0.1-0.3,0.1c-0.5,0-0.9,0-1.4,0c0,0-0.1-0.1-0.1-0.1c-0.5-1.7-0.9-3.4-1.5-5     C16.8,43.5,16.9,43.4,16.9,43.2z"></path>
			<path class="st0" d="M130.8,16.2c0,0.1,0,0.2,0,0.3c0,0-0.1,0-0.1,0c-0.3,0.1-0.6-0.1-0.9-0.2c-0.4-0.1-0.7-0.3-1.1-0.5     c-0.1,0.1-0.2,0.1-0.3,0.2c0.6,0.9,1.3,1.7,1.9,2.5c0.6,0.8,1.1,1.7,1.6,2.5c-0.1,0.4-0.4,0.2-0.5,0.3c-0.1-0.1-0.3-0.2-0.4-0.3     c-0.4-0.6-1-1.1-1.4-1.7c0,0-0.1,0-0.1,0.1c-0.3-0.6-0.9-1-1.3-1.6c0,0.1-0.1,0.2-0.1,0.3c0.1,0.2,0.1,0.4,0.2,0.6     c0.1,0.2,0.1,0.4,0.2,0.6c0.1,0.2,0.1,0.4,0.2,0.7c0.1,0.4,0.2,0.8,0.2,1.3c-0.1,0.1-0.3,0.2-0.4,0.2c-0.2-0.1-0.4-0.1-0.6-0.2     c-0.3-0.4-0.3-1-0.7-1.3c0.1-0.3-0.2-0.5-0.2-0.7c-0.1-0.2-0.2-0.5-0.3-0.7c-0.1-0.2-0.1-0.3-0.2-0.5c-0.2-0.4-0.4-0.8-0.5-1.2     c0,0,0,0,0,0c0-0.1-0.3-0.1-0.2-0.4c0-0.1-0.1-0.3-0.2-0.4c-0.1-0.1-0.1-0.3-0.2-0.4c-0.4,0.1-0.6,0.4-1,0.6     c-0.2,0.1-0.4,0.3-0.6,0.4c-0.4,0.2-0.8,0-1-0.4c0.3-0.4,0.7-0.6,1-1c0,0,0-0.1-0.1-0.1c0.4-0.1,0.6-0.4,0.8-0.8     c0.2,0.1,0.5,0.1,0.8,0.1c-0.2-0.1-0.2-0.2-0.3-0.2c-0.1,0-0.3-0.1-0.4-0.1c-0.3-0.1-0.5-0.3-0.7-0.5c0-0.1,0-0.2,0-0.2     c0.1-0.3,0.4-0.3,0.7-0.3c0.8-0.1,1.5,0.1,2.1,0.7c0,0.2,0.1,0.4-0.2,0.6c0.3,0.1,0.5,0.1,0.8,0.1c0.3,0.1,0.6,0.2,0.8,0.3     c0.5,0.2,1,0.4,1.4,0.7c0,0,0.1,0,0.1,0c0.1,0,0.3,0.1,0.4,0.2c0.1,0.1,0.2,0.2,0.4,0.2C130.5,16.1,130.6,16.1,130.8,16.2z"></path>
			<path class="st0" d="M108.2,22.9c-0.4,1.5-0.6,3-0.8,4.6c-0.2,0.1-0.4,0.3-0.6,0.5c-0.1-0.1-0.1-0.2-0.2-0.4     c0-0.2,0.1-0.4,0.1-0.7c0-0.4,0-0.7,0-1.1c0-0.2,0.1-0.5,0.1-0.7c0-0.2,0-0.5,0-0.7c0.1-0.3,0-0.5,0.1-0.8     c0.1-0.4,0.1-0.7,0.1-1.1c0.1-0.4,0.2-0.8,0.1-1.3c-0.4,0.4-0.8,0.9-1.1,1.3c-0.1,0.1-0.3,0.3-0.3,0.4c0,0.2-0.2,0.2-0.3,0.3     c-0.1,0.1-0.2,0.1-0.3,0.1c-0.1-0.2,0-0.4,0.1-0.5c0.1-0.1,0.2-0.3,0.2-0.5c0.3-0.1,0.4-0.3,0.5-0.6c0.2-0.4,0.6-0.8,0.8-1.2     c0.1-0.1,0.2-0.2,0.2-0.3c0.1-0.4,0.5-0.6,0.8-0.7c0.2-0.1,0.4-0.2,0.6-0.3c-0.2,0-0.5,0-0.7,0.1c-0.2-0.5,0-0.8,0.3-1.1     c0.3-0.3,0.6-0.6,1-0.8c0.1,0,0.1,0,0.2-0.1c0.1,0,0.2,0,0.4-0.1c0.1,0,0.2,0.1,0.3,0.2c0.2,0.5-0.3,0.8-0.5,1.2     c0.1,0,0.2,0,0.2,0c0.2-0.1,0.3-0.1,0.5-0.1c0.5,0.1,0.9,0.2,1.4,0.3c0.2,0.1,0.4,0.1,0.7,0.1c0.1,0,0.3,0.1,0.4,0.1     c-0.1,0.3-0.3,0.5-0.5,0.6c-0.1,0.1-0.3,0.2-0.5,0.1c-0.3-0.1-0.7-0.1-1-0.1c-0.3,0-0.5,0-0.8,0c0,0.3-0.1,0.5,0,0.8     c0,0.1,0,0.1,0,0.2c-0.1,0.5,0.1,1.1,0.1,1.6c0,0.2,0.1,0.3,0.1,0.5c0,0.2,0,0.3,0.1,0.4c0,0.5,0.2,1,0.2,1.6     c0,0.3,0.1,0.6,0.2,0.9c0.1,0.3-0.1,0.4-0.2,0.6c-0.2,0.2-0.4,0.2-0.6,0.2c-0.1,0-0.1-0.1-0.2-0.2c-0.1-0.5-0.3-0.9-0.4-1.3     c-0.2-0.6-0.4-1.2-0.6-1.8C108.4,23,108.3,23,108.2,22.9z"></path>
			<path class="st0" d="M143.7,29.7c0.2,0.1,0.3,0.3,0.4,0.4c0.2,0.3,0.3,0.7,0.5,1c0.1,0.1,0.2,0.2,0.3,0.4c-0.2,0.1,0,0.4-0.2,0.5     c-0.1-0.2-0.3-0.3-0.5-0.5c0,0.2,0,0.3,0,0.4c0.1,0.4,0.1,0.9,0.2,1.3c0.1,0.5,0,0.9,0.2,1.4c0.1,0.2,0,0.4,0,0.6     c0,0.5,0,0.9,0,1.4c0,0.1,0,0.3-0.1,0.3c-0.1,0-0.1,0-0.1-0.2c0-0.2,0-0.4,0-0.6c0-0.2,0-0.4-0.1-0.6c-0.1-0.2,0-0.5,0-0.7     c0,0-0.1,0-0.1,0c0,0.5-0.1,1.1-0.1,1.6c0,0.2,0,0.4-0.1,0.6c-0.1,0.1-0.1,0.3,0,0.4c-0.1,0.1-0.2,0.2-0.4,0.4c0-0.2,0-0.4,0-0.5     c0-1,0-2,0-3c0-0.6-0.1-1.2-0.1-1.9c0-0.1-0.1-0.2-0.1-0.4c-0.1,0.5-0.2,0.9-0.4,1.4c-0.1,0-0.1,0-0.2,0c0-0.1,0-0.2-0.1-0.3     c-0.1,0.2-0.1,0.3-0.2,0.5c-0.2-0.1-0.4-0.2-0.6-0.3c-0.2-0.1-0.2-0.4-0.5-0.4c0,0.2,0,0.3,0.1,0.5c0,0.2,0.1,0.3,0.1,0.5     c0,0.2-0.1,0.3,0.1,0.5c0,0,0,0.1,0,0.1c0,0.4,0,0.8,0.1,1.2c0.1,0.5,0,0.9,0.1,1.3c0.1,0.7,0,1.4,0.1,2.1c0,0.2-0.1,0.5-0.3,0.6     c-0.2,0-0.2-0.1-0.2-0.3c0-0.4-0.1-0.8-0.1-1.3c0-0.2,0-0.3-0.1-0.4c-0.1-0.2-0.1-0.3-0.1-0.5c0-0.1-0.1-0.3-0.2-0.4     c0,0.1,0,0.2,0,0.4c0,0.5-0.1,0.9-0.2,1.4c0,0.5-0.1,0.9-0.2,1.4c0,0.1,0,0.2,0,0.3c0,0.4-0.2,0.6-0.6,0.8c0-0.5-0.1-0.9,0.1-1.3     c0-0.1,0-0.2,0-0.3c0-1.4,0-2.8,0-4.2c0-0.2-0.1-0.5-0.1-0.7c0-0.2,0-0.4,0-0.6c0,0-0.1,0-0.1,0c-0.1,0.1-0.1,0.2-0.2,0.3     c-0.2,0.5-0.4,1-0.7,1.5c-0.1,0.3-0.3,0.4-0.4,0.3c-0.2-0.1-0.3-0.4-0.2-0.6c0.1-0.2,0.1-0.5,0.2-0.7c0-0.1,0-0.2,0.1-0.3     c0-0.1,0.1-0.2,0.1-0.3c0.2-0.7,0.4-1.3,0.6-2c0.1-0.5,0.3-0.8,0.8-0.9c0,0,0.1-0.1,0.1-0.1c0-0.2,0.1,0,0.2,0     c0.1-0.1,0.2-0.1,0.3-0.2c0,0,0,0,0,0c0.1,0,0.3,0,0.3,0.1c0.1,0.2,0.4,0.3,0.4,0.6c0,0.2,0.2,0.3,0.3,0.4     c0.2,0.2,0.4,0.4,0.5,0.7c0,0.1,0.2,0.1,0.3,0.2c0.1-1,0.3-1.9,0.4-2.8c0.2-0.1,0.3-0.2,0.4-0.3     C143.6,29.8,143.7,29.8,143.7,29.7z"></path>
			<path class="st0" d="M31.5,51.1c0-0.5,0.1-1,0-1.4c0.3,0.2,0.7,0.2,1,0.2c0.3,0,0.5-0.3,0.7-0.5c0.1-0.1-0.2-0.1,0-0.3     c0.2-0.2,0.2-0.5,0.1-0.8c-0.4-0.9-0.7-1.9-1.1-2.8c-0.2-0.6-0.5-1.2-0.7-1.8c-0.1-0.2-0.1-0.4-0.2-0.6c0.7,0.1,1.3,0,1.9,0.1     c0,0.1,0.1,0.2,0.1,0.2c0,0.1,0.1,0.2,0.1,0.3c0.2,0.8,0.4,1.6,0.7,2.4c0.1,0.2,0.2,0.4,0.3,0.6c0.1-0.2,0.2-0.4,0.3-0.6     c0.2-0.7,0.4-1.4,0.6-2c0.1-0.3,0.2-0.6,0.3-0.9c0.6,0.1,1.1,0,1.7,0.1c-0.2,0.7-0.5,1.3-0.7,1.9c-0.1,0.3-0.2,0.5-0.3,0.8     c-0.1,0.1,0,0.2,0.1,0.4c-0.1-0.1-0.2-0.1-0.2-0.1c-0.1,0.2-0.1,0.5-0.2,0.7c-0.1,0.3-0.3,0.7-0.4,1c-0.1,0.3-0.2,0.5-0.3,0.8     c0,0.1,0.1,0.3-0.1,0.4c-0.1,0.1-0.1,0.3-0.2,0.4c-0.1,0.1-0.1,0.3-0.2,0.4c-0.1,0.1-0.2,0.3-0.3,0.4c-0.1,0.1-0.2,0.3-0.4,0.4     c-0.3,0.2-0.6,0.4-1.1,0.4c-0.1,0-0.3,0-0.4,0C32,51.1,31.7,51.1,31.5,51.1z"></path>
			<path class="st0" d="M87.5,43.8c0.1,0.2,0.2,0.4,0.3,0.6c0.4,0.8,0.4,0.7,0.3,1.7c0,0.7-0.2,1.4-0.8,1.9     c-0.4,0.3-0.8,0.5-1.2,0.6c-0.4,0.1-0.9,0.1-1.3,0.1c-0.7-0.1-1.4-0.3-1.9-0.9c-0.4-0.4-0.6-0.9-0.6-1.5c0-0.3,0-0.6,0-0.9     c0-0.8,0.4-1.4,1-1.9c0.4-0.3,0.8-0.4,1.3-0.5c0.2,0,0.5-0.1,0.7-0.1c0.4,0.1,0.8,0,1.1,0.2c0.3,0.1,0.6,0.3,0.8,0.4     C87.2,43.7,87.4,43.8,87.5,43.8z M84.4,47.3c0,0,0.1-0.1,0.1,0c0,0,0.1,0.1,0.1,0.1c0.7,0.3,1.4-0.1,1.6-0.8     c0.1-0.3,0.1-0.6,0.1-1c0-0.3-0.1-0.5-0.2-0.7c-0.1-0.2-0.3-0.4-0.5-0.5c-0.3-0.1-0.6,0-0.8,0c-0.1,0-0.3,0.2-0.4,0.3     c-0.2,0.2-0.2,0.4-0.3,0.6c-0.2,0.6-0.1,1.2,0.3,1.7C84.3,47.1,84.4,47.2,84.4,47.3z"></path>
			<path class="st0" d="M74.1,45.9c0,0.3,0,0.7-0.1,1.1c-0.3,0.8-0.8,1.3-1.5,1.6c-0.6,0.2-1.2,0.2-1.8,0.2     c-0.2-0.2-0.5-0.1-0.8-0.2c-0.2-0.1-0.4-0.3-0.6-0.3c-0.1,0-0.2-0.2-0.3-0.3c-0.4-0.5-0.7-0.9-0.7-1.6c0-0.3,0-0.5,0-0.8     c0-0.4,0.1-0.8,0.2-1.2c0.1-0.3,0.4-0.5,0.5-0.8c0.5-0.2,0.9-0.6,1.5-0.6c0.2,0,0.4-0.1,0.6-0.1c0.5,0,0.9,0.1,1.4,0.2     c0.1,0,0.3,0,0.4,0.1c0.2,0.3,0.6,0.5,0.8,0.8C74,44.7,74.1,45.3,74.1,45.9z M71.6,44.4c-0.2,0-0.4,0-0.6,0     c-0.4,0-0.6,0.2-0.8,0.5c-0.1,0.2-0.2,0.4-0.2,0.7c0,0.2-0.1,0.4-0.1,0.5c0,0.2,0,0.4,0.1,0.5c0.1,0.1,0.1,0.3,0.2,0.4     c0.1,0.1,0.2,0.2,0.2,0.2c0.2-0.1,0.1,0.1,0.2,0.1c0.1,0,0.2,0.1,0.4,0.1c0.2,0,0.4-0.1,0.6-0.1c0.1,0,0.1-0.3,0.3-0.1     c0.2-0.3,0.5-0.6,0.4-1c0-0.1,0-0.3,0.1-0.4c-0.1-0.1-0.1-0.2-0.1-0.4c0-0.2-0.1-0.4-0.1-0.5c0-0.2-0.2-0.3-0.4-0.4     C71.7,44.6,71.7,44.5,71.6,44.4z"></path>
			<path class="st0" d="M126.5,50.7c-0.1,0.1-0.2,0.3-0.3,0.4c-0.2,0.1-0.4,0.2-0.7,0.1c-0.1,0-0.1-0.1-0.2-0.1     c-0.5,0-0.9-0.1-1.4-0.2c-0.2-0.1-0.5,0-0.7-0.1c0,0-0.1,0-0.1,0.1c0.5,0.8,1,1.6,1.5,2.4c0.2,0.3,0.3,0.5,0.5,0.8     c0.2,0.2,0,0.4-0.2,0.4c-0.2,0-0.4,0-0.6,0c-0.6-0.5-1.2-1-1.8-1.5c0,0.3-0.1,0.6-0.1,0.9c0,0.3,0,0.6,0,0.9     c-0.1,0-0.2,0.1-0.4,0.1c-0.3,0-0.5-0.1-0.6-0.4c-0.4-0.9-0.8-1.8-1.1-2.8c0-0.1-0.1-0.3-0.2-0.4c-0.6,0.4-1.2,0.8-1.8,1.1     c-0.2-0.1-0.5-0.1-0.7-0.2c0-0.1,0-0.2,0-0.3c0.4-0.5,0.8-0.9,1.2-1.4c0.1-0.2,0.3-0.3,0.5-0.4c0.1-0.2,0.4-0.2,0.6-0.2     c0.3,0,0.7-0.1,1-0.2c0.3-0.1,0.6,0,0.8-0.1c0.2-0.1,0.4-0.1,0.6-0.1c0.5-0.1,0.9,0.1,1.3,0.2c0.9,0.2,1.8,0.6,2.7,0.7     C126.3,50.5,126.4,50.6,126.5,50.7z"></path>
			<path class="st0" d="M90.9,48.6c-0.2,0-0.3,0.1-0.5,0.1c-0.3,0-0.6,0-0.9,0c-0.1,0-0.2,0-0.3,0.1c0-1.8,0-3.7,0-5.6     c0.3,0,0.5,0,0.8,0c0.3,0,0.6,0,0.9,0c0,0.2,0,0.4,0,0.6c0.2,0,0.3-0.2,0.4-0.3c0.2-0.1,0.3-0.2,0.5-0.2c0.2-0.1,0.5-0.2,0.7-0.2     c0.6,0,1.1,0.1,1.5,0.5c0.2,0.3,0.4,0.6,0.4,0.9c0.1,0.4,0.1,0.9,0.1,1.3c0,1,0,1.9,0,2.9c-0.6,0.1-1.2,0-1.8,0     c0-0.1,0-0.2,0-0.4c0-1,0-2,0-3c0-0.5-0.4-0.9-0.9-0.9c-0.4,0-0.7,0.3-0.8,0.7c-0.1,0.3-0.1,0.5-0.1,0.8c0,0.7,0,1.5,0,2.2     C90.8,48.3,90.8,48.4,90.9,48.6z"></path>
			<path class="st0" d="M48.6,43.2c0.6,0,1.1,0,1.7,0c0.2,0.2-0.1,0.5,0.2,0.6c0.3-0.6,0.9-0.7,1.5-0.8c0.4-0.1,0.9,0.1,1.2,0.4     c0.2,0.2,0.5,0.4,0.6,0.7c0,0,0.1,0.1,0.1,0.1c0,0.3,0.1,0.6,0.1,1c0,1,0,2,0,3c0,0.1,0,0.3,0,0.5c-0.4,0-0.8,0-1.2,0     c-0.2,0-0.4,0-0.6-0.1c0-0.9,0-1.9,0-2.8c0-0.3,0-0.6-0.1-0.8c-0.1-0.3-0.4-0.6-0.6-0.5c-0.2,0-0.3-0.1-0.5,0     c-0.1,0.1-0.2,0.1-0.3,0.2c-0.1,0.1-0.1,0.2-0.1,0.3c-0.1,0.3-0.2,0.7-0.2,1c0,0.9,0,1.7,0,2.7c-0.3,0-0.6,0-0.9,0     c-0.3,0-0.6,0.1-0.9-0.1c0.1-0.9,0-1.8,0-2.7C48.6,45,48.6,44.1,48.6,43.2z"></path>
			<path class="st0" d="M26.2,43.5c0.5-0.3,1.1-0.4,1.6-0.4c0.1,0,0.2,0,0.3-0.1c0.1,0,0.1,0,0.2,0c0.4,0.1,0.9,0.1,1.3,0.3     c0.5,0.3,0.8,0.7,1,1.2c0.1,0.3,0.1,0.6,0.1,0.9c0,1.1,0,2.1,0,3.3c-0.5,0-1,0-1.6,0c0-0.2,0-0.4,0-0.5c-0.2-0.1-0.3,0.1-0.3,0.2     c-0.2,0.3-0.6,0.3-0.9,0.5c-0.2,0.1-0.4,0-0.7,0c-0.2,0-0.3-0.2-0.5,0c-0.1-0.2-0.4-0.1-0.5-0.3c-0.1-0.2-0.3-0.3-0.4-0.5     c-0.1-0.2-0.2-0.4-0.2-0.6c0-0.2,0-0.5,0.1-0.7c0.2-0.6,0.2-0.6,0.7-1c0.3-0.2,0.6-0.3,0.9-0.4c0.1,0,0.2,0.1,0.3,0     c0.1,0,0.2-0.1,0.3-0.1c0.3,0,0.6,0,0.8-0.2c0.1,0,0.2,0,0.3,0.1c0-0.1,0-0.2,0-0.2c-0.1-0.2-0.3-0.4-0.5-0.5     c-0.2-0.1-0.5-0.1-0.7,0c-0.5,0.1-1,0.3-1.5,0.5c0,0-0.1-0.1-0.1-0.1C26.2,44.3,26.2,43.9,26.2,43.5z M29,46.1     c-0.3,0-0.5,0.1-0.7,0.1c-0.4,0-0.7,0.2-0.9,0.4c0,0.1,0,0.2,0,0.3c0,0.2,0.1,0.3,0.2,0.4c0.3,0.2,0.9,0.1,1.2-0.2     C28.9,46.9,29.1,46.6,29,46.1z"></path>
			<path class="st0" d="M99.9,25.9c0.2,0.3,0.3,0.6,0.7,0.8c0.2-0.5,0.4-1.1,0.7-1.6c0.2-0.5,0.4-0.9,0.7-1.4     c0.1-0.1,0.2-0.2,0.3-0.3c0.1-0.1,0.2-0.2,0.3-0.4c-0.1,0-0.1,0-0.2,0.1c-0.2-0.2-0.1-0.5,0-0.7c0.1-0.3,0.2-0.6,0.5-0.9     c0.2-0.2,0.4-0.4,0.6-0.6c0.2-0.1,0.4,0,0.4,0.2c0,0.3-0.1,0.5-0.2,0.8c-0.1,0.1-0.2,0.2-0.2,0.4c0,0,0.1,0.1,0.1,0.1     c0.5,0,0.9,0.4,1.4,0.5c0.1,0,0.2,0.2,0.1,0.3c-0.1,0.2-0.3,0.5-0.5,0.6c-0.3-0.2-0.7-0.1-1-0.1c-0.1,0.3-0.2,0.5-0.2,0.8     c0,1.3,0,2.6,0,3.9c0,0.4,0.1,0.7,0.1,1.1c0,0.3-0.1,0.5-0.3,0.7c-0.1,0-0.1-0.1-0.2-0.1c-0.1-0.2-0.1-0.5-0.1-0.8     c0-0.2-0.1-0.4-0.1-0.5c-0.1-0.5-0.2-0.9-0.2-1.4c0-0.1-0.1-0.1-0.1-0.2c-0.1,0.3-0.1,0.5-0.1,0.7c0,0.3,0,0.6-0.1,0.9     c-0.1,0.4,0,0.8-0.2,1.2c-0.1,0.2,0,0.5-0.1,0.8c0,0.3-0.1,0.3-0.4,0.3c0-0.8,0-1.5,0-2.3c0-0.4,0.1-0.7,0.1-1.1     c0-0.2,0.1-0.4,0.1-0.6c0-0.2,0-0.4,0.1-0.6c0.1-0.1,0-0.5-0.1-0.6c0.1,0,0.1,0,0.1-0.1c0.1-0.2-0.1-0.3-0.1-0.4     c-0.2,0.5-0.5,1-0.8,1.5c-0.1-0.1-0.2-0.1-0.2-0.2c-0.1,0.2-0.2,0.3-0.2,0.5c-0.2-0.1-0.4-0.1-0.5-0.2c-0.1,0.3-0.2,0.5-0.2,0.8     c0,0.9-0.2,1.7-0.1,2.6c0.1,0.6,0.1,1.2,0.1,1.8c0,0.2-0.1,0.3-0.1,0.5c-0.2-0.3-0.2-0.7-0.3-1.1c-0.1-0.4,0-0.7-0.1-1.1     c-0.2,0.3-0.2,0.6-0.2,0.8c0,0.3,0,0.5,0,0.8c0,0.4-0.1,0.7-0.1,1.1c0,0.1-0.1,0.1-0.2,0.2c0.1-0.3-0.1-0.5-0.1-0.7     c0.1-0.2,0-0.4,0-0.7c0-0.2,0.1-0.4,0-0.7c-0.1-0.2,0-0.4,0.1-0.6c0-0.2,0-0.4,0.1-0.6c0.1-0.2,0-0.5,0.1-0.7     c0-0.5,0.1-0.9,0.2-1.4c0-0.3,0.1-0.5,0.2-0.8c0.1-0.4,0.2-0.9,0.4-1.3C99.6,26.1,99.7,25.9,99.9,25.9z"></path>
			<path class="st0" d="M122.4,32.3c0.6-0.1,1.1,0.2,1.6,0.5c0.1,0.1,0.2,0.2,0.2,0.3c0.1,0.1,0.2,0.2,0.2,0.2     c-0.1,0.2,0.1,0.2,0.1,0.3c0.1,0.3,0.3,0.6,0.3,0.9c0,0.3,0,0.6-0.1,1c-0.1,0.4-0.3,0.7-0.5,1c-0.2,0.2-0.4,0.4-0.7,0.6     c0,0-0.1,0-0.2,0.1c-0.4,0.2-0.8,0.3-1.3,0.2c-0.5-0.1-0.9-0.2-1.3-0.6c-0.3-0.3-0.6-0.6-0.7-0.9c-0.3-0.8-0.3-1.5,0.1-2.3     c0.3-0.6,0.8-0.9,1.4-1.1C121.9,32.3,122.2,32.3,122.4,32.3z"></path>
			<path class="st0" d="M117.2,55.1c-0.4,0.2-0.7-0.1-1-0.2c-0.1-0.3-0.5-0.3-0.7-0.5c-0.1-0.1-0.2-0.2-0.3-0.3     c-0.1-0.1-0.1-0.2-0.2-0.2c-0.3,0-0.3-0.2-0.5-0.4c-0.1,0-0.1,0.1-0.2,0.2c0.2,0.4,0.3,0.8,0.5,1.2c-0.1,0-0.3,0.1-0.3,0     c-0.2-0.1-0.4-0.2-0.5-0.3c-0.4-0.4-0.7-0.9-1.1-1.3c-0.2-0.2-0.3-0.4-0.5-0.7c-0.3-0.4-0.5-0.8-0.8-1.2     c-0.2-0.1-0.3,0.2-0.4,0.3c-0.1,0.1-0.3,0.1-0.4,0.3c-0.4,0.1-0.7,0-0.9-0.4c0.1-0.2,0.1-0.4,0.2-0.5c0.1-0.2,0.2-0.4,0.3-0.5     c-0.2-0.2,0.3-0.3,0.1-0.5c0.4,0,0.7,0.1,1.1,0c-0.3,0.1-0.4-0.2-0.7-0.2c-0.1,0,0-0.2-0.2-0.1c-0.2-0.3-0.6-0.4-0.8-0.8     c-0.3-0.5-0.4-0.7-0.1-1.2c0.3-0.1,0.6-0.1,0.9,0c0.3,0.1,0.6,0.2,0.8,0.5c0.2,0.2,0.3,0.3,0.5,0.5c0.2,0.2,0.3,0.4,0.3,0.7     c0,0,0,0.1,0.1,0.1c-0.1,0.1-0.1,0.3-0.2,0.4c-0.1,0-0.3,0-0.4,0c0,0,0,0,0,0.1c0.1,0,0.2,0,0.2,0c0.5,0.1,1,0.1,1.4,0.4     c0.4,0.2,0.8,0.4,1.2,0.6c0.6,0.3,1.1,0.5,1.7,0.8c0.2,0.1,0.4,0.2,0.5,0.4c0,0-0.1,0.1-0.1,0.1c-0.2,0-0.4,0-0.6,0     c-0.2,0-0.3-0.2-0.5-0.1c-0.1-0.3-0.4-0.2-0.6-0.3c-0.2-0.1-0.3-0.3-0.5-0.1c-0.1-0.2-0.3-0.1-0.4-0.2c0,0.1,0,0.2,0.1,0.2     c0.1,0.1,0.2,0.2,0.3,0.3c0.3,0.3,0.6,0.7,0.9,1c0.3,0.3,0.5,0.5,0.8,0.8c0.3,0.3,0.6,0.6,0.8,0.8C117.1,55,117.2,55,117.2,55.1z     "></path>
			<path class="st0" d="M104.1,40.9c0.3,0,0.6,0,0.9,0c0.5,0.4,1,0.8,1.4,1.3c0.2,0.3,0.5,0.5,0.8,0.7c0.2,0.1,0.3,0.3,0.5,0.4     c0.2,0.1,0.3,0.3,0.4,0.4c0,0.1,0.1,0.1,0.1,0.2c0,0.1-0.1,0.2-0.1,0.3c-0.2,0-0.4,0-0.6-0.1c-0.5-0.3-1-0.6-1.5-1     c0,0-0.1,0-0.2,0c0.1,0.1,0.1,0.2,0.1,0.3c0.4,0.8,0.8,1.5,1.2,2.3c0.3,0.5,0.5,1,0.9,1.4c0.2,0.2,0.2,0.5,0.4,0.7     c0.2,0.2,0.3,0.4,0.4,0.6c0.1,0.2,0.2,0.4,0.4,0.6c0.1,0.1,0.1,0.3,0.1,0.4c-0.2,0-0.3,0-0.5,0c-0.2-0.2-0.2-0.5-0.5-0.6     c-0.2-0.1-0.2-0.3-0.4-0.5c-0.3-0.5-0.7-0.9-1-1.4c-0.1-0.1-0.1-0.2-0.2-0.3c-0.1,0-0.1,0.1-0.2,0.1c0.1,0.5,0.3,0.9,0.6,1.3     c0,0,0.4,1.1,0.4,1.2c-0.3,0-0.4-0.1-0.6-0.3c-0.1-0.1-0.2-0.3-0.2-0.4c-0.3-0.5-0.6-1-0.8-1.6c-0.3-0.8-0.8-1.6-1.1-2.4     c-0.2-0.4-0.3-0.8-0.5-1.3c0,0,0,0-0.1-0.1c-0.2,0.4-0.3,0.8-0.5,1.2c-0.2-0.1-0.3-0.2-0.4-0.3c0-0.1-0.1-0.2-0.1-0.3     c0-0.1,0-0.2,0-0.3c0-0.1,0-0.2,0.1-0.4c0-0.3,0-0.5,0.1-0.8c0.1-0.2,0-0.5,0.1-0.8c0.1-0.1,0-0.3,0-0.5     C103.6,41.1,103.8,41.1,104.1,40.9C104.1,41,104.1,40.9,104.1,40.9L104.1,40.9z"></path>
			<path class="st0" d="M137.4,45.4c-0.1,0.2-0.3,0.3-0.4,0.4c-0.2,0.2-0.3,0.4-0.4,0.5c-0.1,0.2-0.3,0.3-0.4,0.5     c-0.1,0.2-0.3,0.3-0.5,0.5c0-0.1-0.1-0.2-0.1-0.3c0,0-0.1,0-0.1,0.1c-0.1-0.2,0.3-0.4,0.2-0.6c0.3-0.1,0.4-0.4,0.6-0.6     c0.1-0.1,0.3-0.2,0.2-0.5c0,0,0,0,0,0c0.4-0.1,0.4-0.5,0.6-0.8c0.2-0.2,0.3-0.6,0.5-0.8c0.2-0.3,0.5-0.6,0.8-0.8     c0,0,0-0.1-0.1-0.1c-0.6-0.3-0.5-0.8-0.4-1.2c0-0.1,0-0.2,0-0.2c0.2-0.7,0.6-1.3,1.2-1.7c0.5,0.2,0.6,0.3,0.6,0.7     c0,0.1,0,0.2,0,0.3c0,0.5-0.1,0.8-0.4,1.2c0,0,0,0.1,0,0.2c0.1,0,0.2-0.1,0.2-0.1c0.1,0,0.2,0,0.3,0c0.4,0.3,0.8,0.6,1.2,0.9     c-0.2,0.3-0.3,0.5-0.4,0.7c-0.4-0.2-0.7,0-1-0.1c0,0.2-0.1,0.4-0.1,0.6c0,0.6,0,1.1-0.1,1.7c-0.1,0.4-0.1,0.9-0.2,1.3     c-0.1,0.2,0,0.4-0.1,0.5c0,0,0.1,0.1,0.1,0.2c-0.1,0.1-0.2,0.2-0.3,0.4c-0.1,0.1-0.2,0.2-0.3,0.1c0-0.3,0-0.6,0-1     c-0.1,0-0.1,0-0.2-0.1c0-0.1,0-0.2,0.1-0.3c-0.1,0-0.1,0-0.1,0c-0.1,0.2-0.2,0.3-0.3,0.5c-0.1,0.2-0.2,0.4-0.2,0.6     c-0.1,0.3-0.2,0.5-0.3,0.8c-0.1,0.2-0.2,0.5-0.4,0.7c-0.1,0.1-0.3,0.1-0.4,0.1c0.2-0.5,0.3-0.9,0.5-1.4c0.1-0.5,0.2-1,0.3-1.4     C137.3,46.4,137.4,45.9,137.4,45.4z"></path>
			<path class="st0" d="M102.6,34.7c-0.1,0.1-0.1,0.2-0.2,0.3c-0.2-0.1-0.3-0.2-0.5-0.2c-0.1-0.1-0.2-0.2-0.3-0.3     c-0.1-0.1-0.3-0.1-0.4,0c0.1,0.2,0.1,0.4,0.2,0.7c0,0.5,0.2,1,0.3,1.5c0,0.3,0.2,0.7,0.3,1c0.2,0.5,0.3,1.1,0.5,1.6     c0.1,0.3,0.2,0.6,0.3,0.9c0,0.2,0.3,0.2,0.2,0.3c-0.1,0.2,0.1,0.2,0.1,0.4c0,0.2,0.1,0.4-0.1,0.6c-0.2-0.1-0.4-0.3-0.4-0.6     c-0.2-0.4-0.3-0.9-0.5-1.3c-0.1,0-0.1,0-0.1,0.1c-0.1-0.1,0.2-0.3-0.1-0.3c0.1-0.1,0-0.2,0-0.4c0-0.1-0.1-0.3-0.1-0.4     c-0.1-0.1-0.1-0.2-0.2-0.4c0,0.2,0,0.3,0,0.5c0,0.1,0.1,0.2,0.1,0.4c0,0.3,0.1,0.7,0.2,1c0.1,0.1-0.1,0.2,0,0.3     c0.1,0.2,0.1,0.4,0.2,0.6c0,0.2,0,0.3,0,0.5c-0.1,0-0.2,0-0.3,0c-0.1-0.4-0.3-0.9-0.4-1.3c0-0.1-0.1-0.2-0.1-0.3     c-0.2-0.6-0.3-1.2-0.4-1.9c0-0.3-0.1-0.7-0.2-1c-0.1-0.5-0.2-0.9-0.2-1.4c0-0.1,0-0.3-0.2-0.3c-0.1,0.4-0.2,0.7-0.3,1.1     c-0.1,0-0.3,0.1-0.5,0.1c-0.2-0.2-0.4-0.5-0.6-0.7c0-0.3,0-0.6,0-0.8c-0.1-0.1-0.1-0.1-0.2-0.2c0-0.1,0.1-0.1,0.1-0.2     c0.2,0.2,0.3,0.5,0.5,0.7c0.2,0.2,0.1,0.5,0.4,0.6c0-0.3,0.1-0.5,0.1-0.7c0-0.5,0.2-0.9,0.2-1.4c0-0.3,0-0.7,0.4-0.9     c0,0,0.1-0.2,0-0.2c-0.1-0.1-0.2-0.2-0.3-0.3c0,0,0.1-0.1,0-0.1c-0.2-0.5-0.1-0.9,0-1.4c0.1-0.3,0.1-0.8,0.6-0.9     c0.3,0,0.2,0.4,0.4,0.5c-0.1,0.6,0.1,1.3-0.3,1.8c0.4,0.1,0.6,0.4,0.8,0.6c0.1,0.1,0.1,0.2,0.2,0.3c0.2,0.3,0.5,0.5,0.7,0.8     c0.1,0.3,0.2,0.3,0.2,0.7C102.5,34.6,102.5,34.7,102.6,34.7z"></path>
			<path class="st0" d="M41.4,43.2c-0.2,0.5,0,0.9-0.1,1.4c-0.2-0.1-0.4-0.1-0.5-0.2c0,0-0.1-0.1-0.1-0.1c-0.3,0.1-0.5-0.2-0.8-0.1     c-0.2,0.1-0.5,0.1-0.6,0.3c-0.1,0.1-0.1,0.3,0,0.4c0.3,0.2,0.5,0.3,0.8,0.4c0.5,0.2,0.9,0.3,1.3,0.7c0.3,0.3,0.4,0.8,0.3,1.2     c0,0.2-0.2,0.4-0.1,0.6c-0.1,0.1-0.2,0.3-0.4,0.4c-0.4,0.2-0.7,0.5-1.2,0.5c-0.1,0-0.2,0.1-0.3,0.1c-0.1,0-0.3,0-0.4,0     c-0.5,0-0.9,0-1.4-0.1c-0.2,0-0.3-0.1-0.5-0.2c0-0.5,0-0.9,0-1.5c0.6,0.4,1.3,0.6,2,0.5c0.2,0,0.5-0.1,0.5-0.3c0-0.1,0-0.1,0-0.2     c-0.1-0.1-0.2-0.3-0.4-0.3c-0.2,0-0.5-0.2-0.7-0.3c-0.2-0.1-0.5-0.2-0.7-0.3c-0.2-0.1-0.3-0.3-0.4-0.4c-0.2-0.4-0.3-0.8-0.2-1.3     c0.1-0.3,0.2-0.5,0.4-0.6c0,0,0,0,0,0c0.3-0.5,0.8-0.5,1.2-0.6c0.2-0.1,0.4,0,0.6-0.1c0.2,0,0.4,0,0.5,0c0.1,0,0.2,0,0.3,0     C40.8,43.1,41.1,43.2,41.4,43.2z"></path>
			<path class="st0" d="M52.4,21.3c0,0-0.1,0-0.1,0c-0.4,0.4-0.9,0.5-1.4,0.5c-0.4,0-0.8,0-1.2-0.2c-0.4-0.2-1-0.7-1.2-1.2     c-0.4-0.8-0.1-1.5,0.4-2.1c0.3-0.4,0.7-0.7,1.2-0.7c0.2,0,0.4-0.1,0.7-0.1c0.4,0,0.8,0.1,1.1,0.3c0.1,0.1,0.3,0.1,0.5,0.2     c0,0,0,0.1,0,0.1c0.5,0.4,0.7,0.9,0.7,1.6C53.1,20.3,52.8,20.9,52.4,21.3z"></path>
			<path class="st0" d="M74,18.6c0.1-0.1,0.3-0.2,0.4-0.3c0.3-0.3,0.7-0.5,1-0.6c0.8-0.2,1.5-0.1,2.3,0.3c0.1,0.1,0.3,0.2,0.4,0.3     c0.1,0.3,0.4,0.6,0.4,0.9c0,0.3,0.1,0.5,0,0.8c0,0.1,0,0.3,0,0.5c-0.2,0.2-0.3,0.4-0.5,0.7c-0.4,0.4-1,0.6-1.6,0.6     c-0.4,0-0.8-0.1-1.2-0.2c-0.7-0.2-1.4-1.1-1.3-1.8c0-0.4,0-0.8,0.2-1.1C74.1,18.7,74.1,18.7,74,18.6C74.1,18.6,74,18.6,74,18.6z"></path>
			<path class="st0" d="M78.5,47.4c0,0.4,0,0.8,0,1.2c-0.2,0.2-0.4,0.2-0.7,0.2c-0.4,0-0.7,0-1.1-0.1c-0.5-0.1-0.9-0.6-1-1.1     c-0.1-0.6-0.1-1.2-0.1-1.9c0-0.4,0-0.8,0-1.2c-0.3-0.1-0.6,0.1-0.8-0.2c0-0.5,0-0.9-0.1-1.4c0.1,0.1,0.1,0.1,0.2,0.2     c0.2,0,0.4,0,0.7,0c0-0.4,0-0.8,0-1.2c0.6-0.1,1.1-0.4,1.7-0.4c0,0.6,0,1.1,0,1.6c0.4,0,0.8,0,1.2,0c0,0.4,0,0.9,0,1.3     c-0.4,0-0.7,0-1.1,0c0,0.1-0.1,0.2-0.1,0.3c0,0.6,0,1.1,0,1.7c0,0.1,0.2,0.6,0.2,0.7c0.1,0.1,0.1,0.2,0.3,0.2     c0.1,0,0.2,0.1,0.4,0C78.2,47.4,78.3,47.4,78.5,47.4z"></path>
			<path class="st0" d="M136.5,17.4c0,0.1,0,0.1,0,0.2c-0.6-0.2-1.1-0.7-1.7-1c0,0.1,0,0.1,0,0.2c0.5,0.5,0.9,1.1,1.3,1.7     c0.4,0.6,0.8,1.2,1.2,1.8c0.2,0.4,0.4,0.7,0.6,1.1c0,0.1,0,0.1,0,0.3c-0.1,0-0.2,0-0.3-0.1c-0.2-0.1-0.3-0.3-0.4-0.4     c-0.4-0.6-0.8-1.3-1.3-1.8c-0.2-0.2-0.4-0.5-0.5-0.7c0,0-0.1-0.1-0.2-0.1c0.1,0.3,0.3,0.6,0.4,0.9c0.1,0.3,0.3,0.6,0.4,1     c-0.1,0.4,0.3,0.6,0.2,1c-0.2,0-0.4,0-0.6-0.2c-0.3-0.4-0.5-0.9-0.7-1.3c-0.3-0.5-0.5-1-0.8-1.5c-0.1-0.1-0.4-0.1-0.2-0.3     c-0.1-0.1-0.2-0.3-0.3-0.4c-0.1-0.1-0.2-0.3-0.3-0.4c-0.1-0.1-0.2-0.3-0.3-0.4c-0.1-0.1-0.2-0.3-0.3-0.4     c-0.1-0.2-0.2-0.2-0.3-0.3c-0.3,0.2-0.5,0.5-0.7,0.7c-0.3-0.1-0.5-0.2-0.7-0.4c-0.1-0.1-0.1-0.3-0.1-0.4c0.2-0.4,0.4-0.7,0.7-1.1     c0.1,0,0.3,0,0.4,0c-0.4-0.3-0.9-0.5-1.2-0.9c0-0.1-0.1-0.3,0.1-0.4c0.1,0,0.2,0,0.4,0c0.3,0.1,0.5,0.2,0.8,0.3     c0.3,0.2,0.6,0.4,0.8,0.7c0.1,0.1,0.1,0.3,0.1,0.4c-0.1,0-0.2,0-0.2,0c0,0,0,0,0,0c0.1,0.1,0.3,0.1,0.4,0     c0.1,0.1,0.3,0.2,0.4,0.2c0.3,0.1,0.5,0.3,0.8,0.5c0.2,0.2,0.4,0.3,0.6,0.4C135.5,16.6,136,17,136.5,17.4L136.5,17.4z"></path>
			<path class="st0" d="M14.4,40.6c0.6,0,1.1,0,1.7,0c0,2.7,0,5.3,0,8c-0.1,0-0.1,0.1-0.2,0.1c-0.6,0.1-1.3,0-1.5-0.1     c0,0,0.1-0.1,0-0.1c-0.1-0.6,0.1-1.1,0-1.7c0-0.6,0-1.1,0-1.7c0-0.6,0-1.2,0-1.8c0-0.6,0-1.1,0-1.7c0-0.3-0.1-0.5-0.1-0.8     C14.3,40.8,14.4,40.7,14.4,40.6z"></path>
			<path class="st0" d="M119.8,14.7c-0.2-0.1-0.3-0.2-0.3-0.4c0-0.1,0-0.3-0.2-0.4c0.2-0.2,0-0.4-0.1-0.5c0,0,0-0.1,0-0.1     c-0.1-0.4-0.2-0.8-0.3-1.2c-0.4-0.1-0.6,0.2-0.9,0.3c-0.3,0.1-0.5,0.2-0.8,0.4c-0.2,0.1-0.4,0.1-0.7-0.1c0.6-0.5,1.3-0.7,1.9-1.3     c0.1,0,0.3,0,0.5,0c0,0,0,0,0-0.1c-0.1,0-0.2,0-0.3,0c-0.2,0-0.2-0.1-0.3-0.2c0-0.1,0.1-0.2,0.2-0.3c0.5-0.2,1-0.2,1.5-0.2     c0.2,0,0.4,0.1,0.5,0.2c0,0,0.1,0.1,0.1,0.1c-0.1,0.1-0.1,0.1-0.2,0.2c0.6,0.1,1.1,0.1,1.7,0.2c0.5,0.1,1,0.1,1.5,0.4     c0,0,0.1,0.1,0.1,0.1c-0.4,0.1-0.7,0.1-1.1,0c-0.4-0.1-0.9-0.2-1.3-0.2c0.8,0.8,1.5,1.6,2.3,2.3c0,0.1-0.1,0.1-0.1,0.2     c0.1,0,0.1,0.1,0.2,0.1c-0.7,0.1-1.2,0-1.5-0.5c-0.2-0.2-0.4-0.4-0.6-0.5c-0.2-0.2-0.4-0.3-0.7-0.5c-0.2,0-0.2,0.2-0.2,0.3     c0,0.4,0,0.9,0,1.3C120.3,14.7,120,14.5,119.8,14.7z"></path>
			<path class="st0" d="M112.7,14.7c-0.1,0.3-0.3,0.6-0.4,0.9c-0.2,0.4-0.3,0.8-0.5,1.2c-0.1,0.2-0.3,0.4-0.5,0.4     c-0.1,0-0.2,0.1-0.3,0.1c-0.1-0.6,0.1-1.1,0.2-1.7c0-0.5,0.2-1,0.4-1.5c-0.2,0-0.2,0.2-0.4,0.2c-0.1,0-0.3,0.2-0.4,0.3     c-0.1,0.1-0.3,0.1-0.4,0.3c-0.3,0.1-0.6,0.5-1,0.3c0-0.1,0.1-0.1,0.1-0.1c0.3-0.2,0.5-0.5,0.8-0.7c0.5-0.4,0.9-0.7,1.4-1.1     c0.1-0.1,0.3-0.1,0.4-0.2c-0.2,0-0.3-0.1-0.5-0.1c0.6-0.7,1.3-1,2.2-1c0,0.2,0,0.2-0.2,0.5c0.2,0,0.4,0,0.5,0c0.6,0,1.1,0,1.7,0     c0.2,0,0.3,0,0.4,0.2c-0.2,0.2-0.4,0.3-0.7,0.3c-0.5,0-1.1,0.1-1.7,0.1c0.3,0.9,0.6,1.8,0.8,2.6c-0.2,0.3-0.5,0.3-0.8,0.4     C113.4,15.8,113.1,15.2,112.7,14.7z"></path>
			<path class="st0" d="M81.1,48.6c-0.1,0-0.2,0.1-0.3,0.1c-0.3,0-0.7,0-1,0.1c-0.2,0.1-0.5-0.1-0.5-0.4c0-1.7,0-3.4,0-5.1     c0,0,0,0,0-0.1c0.6,0,1.1,0,1.7,0C81.1,45,81.1,46.8,81.1,48.6z"></path>
			<path class="st0" d="M45.6,48.7c-0.1-0.1-0.2-0.1-0.2-0.2c0-0.2,0-0.3,0-0.5c0-1.5,0-2.9,0-4.4c0-0.2,0.1-0.4,0.1-0.5     c0.6,0,1.1,0,1.7,0c0,1.8,0,3.6,0,5.4c-0.1,0-0.2,0.1-0.3,0.1c-0.3,0-0.7,0-1,0C45.8,48.7,45.7,48.7,45.6,48.7z"></path>
			<path class="st0" d="M126.5,54.3c-0.4-0.1-0.8-0.1-0.9-0.6c0.3,0,0.3-0.4,0.6-0.4c0.2-0.2,0.5-0.2,0.7-0.3     c0.2-0.1,0.5-0.2,0.8-0.2c0.3,0,0.5,0,0.8,0.2c0,0.1,0,0.2,0,0.4c-0.1,0.1-0.2,0.2-0.3,0.4c0.5-0.1,0.8,0,1.2,0     c0.4,0,0.8,0,1.2,0c0.1,0,0.2,0.1,0.4,0.2c-0.2,0.1-0.3,0.1-0.4,0.2c-0.4,0.1-0.8,0.2-1.2,0.2c-0.2,0-0.3,0.2-0.5,0.1     c-0.1,0-0.1,0.2-0.1,0.3c0,0.1,0.1,0.2,0.2,0.3c0.1,0.2,0,0.3-0.2,0.3c-0.6,0.2-1.3,0.4-1.9,0.5c-0.1,0-0.3,0-0.4,0.1     c-0.1-0.3-0.1-0.5-0.2-0.8c-0.3,0.1-0.5,0.2-0.7,0.4c-0.1,0.1-0.2,0-0.2,0c-0.1,0-0.2,0.1-0.2,0.1c-0.1,0-0.2,0.1-0.3,0.1     c-0.1,0-0.2,0.1-0.3,0.1c-0.1,0-0.2,0-0.3,0c-0.1,0-0.2-0.1-0.3-0.1C124.8,55.3,125.5,54.6,126.5,54.3z"></path>
			<path class="st0" d="M134.7,33.3c-0.1,0-0.1-0.1-0.2,0c-0.5,0.3-1,0.2-1.5-0.2c-0.3-0.3-0.5-0.6-0.6-1c-0.1-0.3-0.1-0.7-0.1-1     c0-0.4,0.2-0.8,0.4-1.2c0.2-0.1,0.4-0.4,0.7-0.4c0.3,0,0.6,0,0.9,0.2c0.3,0.2,0.6,0.5,0.7,0.8c0.3,0.5,0.3,1.4,0.1,1.9     c-0.1,0.2-0.3,0.4-0.4,0.7C134.7,33.2,134.7,33.3,134.7,33.3L134.7,33.3z"></path>
			<path class="st0" d="M123.8,11.7c0.4-0.4,0.9-0.7,1.5-0.7c-0.2-0.1-0.5-0.2-0.7-0.3c0-0.1,0-0.1,0-0.2c0,0,0.1,0,0.1-0.1     c0.7,0,1.4,0,2,0.4c0,0.1-0.1,0.2-0.1,0.2c0.2,0,0.4,0.1,0.6,0.1c0,0,0.1-0.1,0.1-0.1c-0.2-0.1-0.3-0.3-0.5-0.4     c0.5,0,0.7,0.1,1,0.4c-0.1,0-0.2,0.2-0.3,0.1c-0.1-0.1-0.2,0-0.3,0.1c1.2,0.3,2.1,0.7,2.5,1c-0.2,0.1-0.3,0.1-0.4,0     c-0.1-0.1-0.3,0-0.4-0.1c-0.1-0.1-0.3,0-0.4-0.1c-0.1-0.1-0.3,0.1-0.4,0c0.3,0.3,0.6,0.5,0.9,0.8c0.2,0.2,0.4,0.3,0.5,0.4     c0.2,0.1,0.3,0.3,0.5,0.4c0.2,0.2,0.4,0.3,0.6,0.5c0.1,0.1,0.1,0.2,0.1,0.3c-0.2,0.1-0.4,0-0.6-0.1c-0.3-0.2-0.5-0.5-0.9-0.6     c-0.1-0.2-0.2-0.3-0.4-0.3c-0.2-0.1-0.3-0.2-0.4-0.4c-0.1-0.1-0.3-0.2-0.5-0.4c0.1,0.6,0.5,0.9,0.4,1.5c-0.3,0.1-0.5,0-0.8-0.2     c-0.1-0.1-0.2-0.3-0.3-0.4c-0.3-0.3-0.5-0.8-0.9-1c-0.1-0.1-0.1-0.2-0.2-0.3c-0.2-0.2-0.4-0.5-0.6-0.7c-0.1-0.1-0.2,0-0.3,0     c-0.1,0-0.2,0.1-0.3,0.1c-0.3,0.2-0.7,0.1-1.1,0.1C124,11.9,123.9,11.8,123.8,11.7z"></path>
			<path class="st0" d="M113.5,25.5c-0.3,0-0.7,0-1,0c-0.1-0.1-0.2-0.1-0.3-0.2c-0.3-0.2-0.4-0.5-0.4-0.8c0-0.8,0.3-1.4,0.9-1.8     c0.2-0.2,0.5-0.3,0.8-0.4c0.5-0.1,0.9-0.1,1.3,0.1c0,0,0.1,0.1,0.1,0.1c0,0,0.1,0,0.1,0c0.1,0.2,0.2,0.4,0.3,0.5     c0,0.1,0.1,0.2,0.1,0.3c-0.1,0.5-0.1,1-0.6,1.3c-0.2,0.2-0.3,0.4-0.5,0.6c0,0-0.1,0-0.2,0c-0.1,0-0.1,0.1-0.2,0.1     C113.7,25.4,113.6,25.5,113.5,25.5L113.5,25.5z"></path>
			<path class="st0" d="M106.8,19.5c-0.1,0.2-0.4,0.4-0.7,0.4c0-0.3,0-0.6-0.1-0.8c-0.1-0.2,0.1-0.5-0.2-0.7     c-0.1,0.2-0.2,0.3-0.3,0.5c-0.2,0.5-0.5,1-0.6,1.5c-0.1,0.3-0.3,0.5-0.4,0.7c-0.1,0.1-0.2,0.2-0.3,0.1c0.2-0.6,0.4-1.2,0.5-1.8     c0.2-0.6,0.5-1.1,0.6-1.7c-0.1,0.1-0.3,0.3-0.4,0.4c-0.2,0.2-0.3,0.4-0.5,0.6c-0.1,0.2-0.3,0.3-0.5,0.3c0-0.2,0.1-0.3,0.2-0.4     c0.4-0.5,0.8-0.9,1.1-1.4c0.3-0.3,0.6-0.7,1.1-0.9c-0.2-0.1-0.3-0.1-0.3-0.1c0,0,0-0.1,0-0.1c0.3-0.2,0.5-0.5,0.8-0.7     c0.2-0.2,0.3-0.4,0.6-0.5c0.2-0.1,0.3-0.1,0.4,0.1c-0.1,0.2-0.3,0.3-0.5,0.6c0.5-0.2,1,0,1.5-0.2c0.1,0,0.2,0,0.3,0     c-0.3,0.4-0.5,0.6-1,0.6c-0.3,0-0.6,0.1-0.8,0.2C107,17.3,107,18.4,106.8,19.5z"></path>
			<path class="st0" d="M143.1,38.8c0.1,0,0.2-0.1,0.2-0.1c0.4,0.5,0.8,0.9,0.4,1.6c-0.2,0-0.3-0.1-0.5-0.2     c-0.2,0.4-0.1,0.8-0.1,1.2c0,0.4-0.1,0.8-0.2,1.1c-0.1,0.4-0.3,0.7-0.5,1c0-0.1,0-0.2-0.1-0.3c-0.2,0.3-0.2,0.6-0.3,0.8     c-0.1,0.3-0.2,0.5-0.3,0.7c-0.1,0.3-0.3,0.5-0.4,0.8c-0.2-0.3,0-0.4,0-0.6c0-0.2,0.2-0.3,0.1-0.5c0-0.2,0.2-0.3,0.2-0.5     c0-0.2,0.1-0.4,0.1-0.6c0-0.2,0.1-0.4,0.1-0.6c0-0.2,0-0.3,0.1-0.5c0.1-0.2,0.1-0.4,0.1-0.6c-0.2,0.2-0.3,0.5-0.4,0.7     c-0.2,0.2-0.3,0.5-0.4,0.8c-0.1,0-0.1,0-0.3,0c0-0.1,0-0.3,0.1-0.4c0.2-0.4,0.3-0.7,0.5-1.1c0.1-0.3,0.3-0.7,0.4-1     c0.2-0.4,0.4-0.8,0.6-1.2c0-0.1,0.1-0.1,0.2-0.2c-0.1-0.2-0.1-0.3-0.2-0.5c0-0.1-0.1-0.3-0.1-0.4c0.1-0.4,0-0.8,0.3-1.2     c0.1-0.1,0.1-0.3,0.1-0.5c0.1,0,0.2-0.1,0.3-0.1c0,0,0.1,0,0.1,0c0.1,0.1,0.1,0.2,0.2,0.3l0,0.6C143.4,38,143.2,38.4,143.1,38.8z     "></path>
			<path class="st0" d="M126.4,22.2c-0.1,0-0.1,0-0.2,0c-0.2,0.2-0.5,0.2-0.7,0.2c-0.4,0-0.7,0-1.1-0.1c-0.2-0.1-0.4-0.1-0.5-0.2     c-0.1,0-0.2,0-0.2,0c-0.1,0-0.1-0.1-0.1-0.2c-0.1-0.1-0.2-0.2-0.3-0.3c-0.3-0.2-0.4-0.6-0.4-0.9c0-0.3,0.2-0.6,0.4-0.8     c0.5-0.4,1.1-0.5,1.7-0.4c0.5,0.1,1,0.3,1.4,0.8c0.2,0.3,0.3,0.5,0.4,0.9c0,0,0,0.3,0,0.3c-0.1,0.1,0,0.2-0.2,0.3     C126.5,21.9,126.4,22.1,126.4,22.2z"></path>
			<path class="st0" d="M102.9,44.2c-0.3-0.4-0.7-0.7-1-1.1c0,0.1,0,0.1,0,0.2c0.1,0.3,0.4,0.6,0.5,1c0,0.2,0.2,0.4,0.2,0.5     c0.5,1,1.1,2,1.8,3c0.1,0.2,0.2,0.4,0.3,0.6c-0.3,0-0.5-0.2-0.6-0.4c-0.2-0.3-0.5-0.7-0.7-1.1c0,0-0.1,0-0.2,0.1     c0-0.1,0-0.1,0-0.3c-0.1-0.2-0.3-0.4-0.5-0.7c0,0.1-0.1,0.1-0.1,0.2c-0.2-0.3-0.4-0.6-0.6-0.9c-0.3-0.5-0.6-1-0.8-1.5     c-0.1-0.1-0.1-0.3-0.2-0.4c-0.1-0.2-0.1-0.5-0.4-0.7c-0.2-0.4-0.5-0.8-0.4-1.3c0-0.1,0-0.1,0-0.2c0.1,0,0.1-0.1,0.2-0.1     c-0.5-0.7-0.7-1.4-0.7-2.3c0.1,0,0.2-0.1,0.2-0.1c0.1,0,0.1,0,0.1,0c0.1,0.2,0.3,0.3,0.4,0.5c0.3,0.5,0.4,1.1,0.3,1.7     c-0.1,0-0.1,0.1-0.2,0.2c0,0,0,0,0,0c0.1,0,0.3,0,0.5-0.1c0.4,0.6,0.9,1.1,1.3,1.7c0.1,0.1,0.2,0.2,0.3,0.3     c0.2,0.2,0.3,0.4,0.4,0.6C103.1,44,103,44.1,102.9,44.2z"></path>
			<path class="st0" d="M109.7,51.8c-0.1,0-0.2-0.1-0.2-0.1c-0.1,0-0.1,0-0.2-0.1c-0.1,0-0.1-0.1-0.2-0.1c0,0-0.1-0.1-0.1-0.1     c-0.1,0-0.1,0-0.2,0.1c0-0.1,0.1-0.1,0.1-0.2c-0.1-0.1-0.2-0.1-0.4,0.2c0.1,0.1,0.2,0.2,0.3,0.3c0.3,0.4,0.7,0.8,1,1.2     c-0.1,0-0.2-0.1-0.3-0.1c-0.3-0.3-0.7-0.5-1.1-0.7c-0.2-0.2-0.5-0.3-0.7-0.5c-0.1-0.2-0.4-0.1-0.5-0.4c-0.3-0.1-0.5-0.4-0.7-0.6     c-0.1-0.1-0.2-0.2-0.3-0.2c-0.3-0.2-0.6-0.5-0.8-0.7c0-0.2,0-0.3,0-0.5c0.1-0.1,0.1-0.2,0.2-0.2c0,0,0-0.1,0-0.1     c-0.5-0.3-0.8-0.8-1-1.3c-0.1-0.3,0-0.4,0.3-0.4c0,0,0.1,0,0.1,0c0.2,0.2,0.4,0.3,0.6,0.4c0.3,0.3,0.6,0.7,0.8,1.1     c0.1,0.1,0.1,0.3,0.1,0.4c-0.1,0-0.2,0.1-0.4,0.1c0.7,0.1,1.2,0.5,1.7,0.9c0.3,0.2,0.5,0.4,0.8,0.6c0.1,0.1,0.2-0.1,0.3,0.1     c0,0.1,0.2,0.1,0.3,0.2c0.1,0.1,0.2,0.1,0.3,0.2c0.2,0.1,0.3,0.2,0.5,0.3C109.8,51.7,109.8,51.7,109.7,51.8z"></path>
			<path class="st0" d="M133.8,51.5c-0.1-0.1-0.2-0.2-0.3-0.3c0.1-0.4,0.3-0.8,0.7-1c0.1-0.1,0.2-0.2,0.4-0.3     c0.3-0.2,0.6-0.4,1.1-0.4c0.3,0.4-0.1,0.8-0.3,1.2c0.2,0,0.3,0,0.5,0c0.1,0,0.2,0,0.4,0c0.1,0,0.3,0.1,0.4,0.1c0.1,0,0.3,0,0.5,0     c-0.4,0.5-0.9,0.6-1.5,0.8c-0.4,0.1-0.4,0.1-0.3,0.5c-0.6,0.6-1.4,1-2.2,1.5c-0.1-0.3,0.1-0.5,0.1-0.8c-0.1,0.2-0.3,0.2-0.4,0.4     c-0.1,0.1-0.2,0.1-0.3,0.2c-0.2,0.1-0.4,0.3-0.6,0.5c-0.2,0.2-0.4,0.3-0.8,0.2c0.3-0.3,0.6-0.4,0.8-0.7c0.3-0.4,0.8-0.6,1.2-1     C133.3,51.8,133.6,51.7,133.8,51.5z"></path>
			<path class="st0" d="M135.9,15.6c-0.1-0.2-0.3-0.3-0.2-0.6c0.2,0,0.3,0.1,0.5,0.1c0.2,0.5,0.8,0.6,1.1,1.1c0,0.1,0,0.2,0,0.3     c0.6,0.2,0.9,0.7,1.3,1c0.4,0.4,0.7,0.8,1.1,1.3c-0.1,0-0.1,0-0.2-0.1c-0.2-0.2-0.3-0.3-0.6-0.6c0,0.2,0,0.3,0.1,0.4     c0.7,0.9,1.2,1.8,1.7,2.7c0.1,0.3,0.3,0.5,0.4,0.8c0,0,0,0.1,0.1,0.2c-0.3,0-0.4-0.2-0.5-0.3c-0.1-0.2-0.2-0.5-0.5-0.6     c0.1-0.2-0.2-0.3-0.1-0.5c-0.1,0.1-0.2,0.1-0.2,0.2c0.1,0.4,0.4,0.7,0.3,1.1c-0.2,0-0.3-0.1-0.4-0.3c-0.1-0.1-0.1-0.2-0.2-0.3     l0,0c-0.1-0.3-0.3-0.6-0.4-0.9c-0.2-0.4-0.4-0.8-0.7-1.1c-0.3-0.6-0.7-1.1-1-1.7c-0.1-0.1-0.2-0.2-0.3-0.3     c-0.4,0.5-0.4,0.5-0.8,0.1c0,0-0.1,0-0.1-0.1l0,0c0-0.3,0-0.6,0-0.9c0,0,0-0.1,0-0.1c0.1-0.1,0.1-0.1,0.2-0.2     C136.4,16,136.2,15.8,135.9,15.6C135.9,15.6,135.9,15.6,135.9,15.6z"></path>
			<path class="st0" d="M120.3,47.2c0.3,0,0.6,0.1,0.9,0.1c0.4,0.1,0.8,0.4,1,0.8c0.2,0.3,0.1,0.5,0,0.7c-0.3,0.5-0.7,0.7-1.2,0.7     c-0.2,0-0.3,0-0.4,0.1c-0.3-0.1-0.7-0.1-1-0.2c-0.3-0.1-0.5-0.3-0.7-0.5c-0.5-0.5-0.3-1.1,0.2-1.5     C119.4,47.3,119.8,47.2,120.3,47.2z"></path>
			<path class="st0" d="M117.1,56c0.4-0.3,0.8-0.5,1.1-0.7c-0.3-0.2-0.5-0.4-0.8-0.6c0.3-0.4,0.6-0.5,1-0.5c0.4,0,0.7,0,1.1,0.1     c0.2,0.1,0.5,0.2,0.7,0.4c0.1,0,0,0.2,0,0.3c0,0.1-0.1,0.1-0.1,0.2c0.6,0.1,1.1,0.1,1.7,0.2c0.4,0.1,0.8,0.1,1.2,0.3     c0.1,0,0.2,0,0.3,0c0.2,0,0.2,0.1,0.3,0.2c-0.3,0-0.6,0.3-0.9,0c0,0,0,0,0,0c-0.4,0-0.8,0-1.2-0.1c-0.1,0-0.2,0-0.4,0     c0.2,0.2,0.3,0.3,0.5,0.4c-0.9,0.2-1.7-0.1-2.5,0c-0.1-0.1-0.2-0.2-0.3-0.3c-0.2,0.2-0.5,0.2-0.8,0.1     C117.7,56.1,117.5,56,117.1,56z"></path>
			<path class="st0" d="M135.1,21.4c-0.1,0.2-0.2,0.3-0.2,0.5c-0.7,0.1-1.3-0.2-1.8-0.7c-0.2-0.3-0.5-0.5-0.6-0.9     c0-0.1-0.1-0.2-0.1-0.4c0-0.4,0.2-0.5,0.5-0.5c0.5,0,0.9,0.1,1.2,0.5c0.1,0.1,0.3,0.3,0.4,0.4c0.2,0.2,0.3,0.4,0.4,0.7     C135,21.1,135,21.2,135.1,21.4z"></path>
			<path class="st0" d="M104.1,40.9c-0.1,0-0.1-0.1-0.2-0.1c-0.3,0-0.4-0.1-0.5-0.3c-0.4-0.5-0.6-1-0.6-1.6c0-0.1,0-0.1,0-0.2     c-0.1-0.4,0.1-0.7,0.4-1c0.3-0.1,0.6,0.2,0.7,0.4c0.4,0.5,0.6,1.1,0.6,1.8C104.6,40.4,104.4,40.7,104.1,40.9L104.1,40.9z"></path>
			<path class="st0" d="M135.9,15.6c0,0.1-0.1,0.1-0.1,0.2c-0.3,0-0.4-0.2-0.6-0.3c-0.3-0.3-0.7-0.7-1.1-1c-0.1,0-0.2-0.1-0.3-0.1     c0.2,0.4,0.5,0.6,0.5,1c-0.3-0.1-0.7-0.3-0.8-0.6c0-0.1-0.2-0.2-0.3-0.3c-0.2-0.2-0.4-0.4-0.5-0.6c-0.1-0.1-0.1-0.1-0.2-0.2     c-0.1-0.1-0.2-0.1-0.3-0.2c-0.2-0.4-0.7-0.6-1-1c-0.2,0.1-0.5,0.2-0.7,0.2c-0.2,0-0.3-0.1-0.5-0.2c0.1-0.3,0.3-0.4,0.5-0.5     c0.4,0.2,0.8,0.4,1.2,0.5c0.4,0.1,0.8,0.4,1.2,0.6c0.1,0.1,0.2,0.1,0.3,0.2c0.2,0.1,0.3,0.1,0.4,0.3c0.4,0.2,0.7,0.7,1.2,0.9     c0.1,0,0.2,0.1,0.3,0.2c0.1,0.4,0.6,0.6,0.8,0.9C135.7,15.5,135.8,15.5,135.9,15.6L135.9,15.6z"></path>
			<path class="st0" d="M140.8,31C140.8,31,140.8,30.9,140.8,31c-0.1,0.1-0.2,0.1-0.3,0.2c-0.1,0.1-0.2-0.2-0.2,0     c-0.5-0.1-0.8-0.4-1-0.9c-0.1-0.4-0.1-0.7-0.2-1.1c0-0.2,0.1-0.5,0.1-0.7c0-0.1,0-0.1,0.1-0.2c0.2-0.2,0.4-0.1,0.7-0.1     c0.4,0.4,0.6,0.8,0.7,1.4c0,0.2,0.1,0.4,0.1,0.6c0,0.1,0,0.3-0.1,0.4C140.7,30.7,140.7,30.8,140.8,31z"></path>
			<path class="st0" d="M45.4,41.9c0-0.2-0.1-0.4-0.1-0.5c0-0.2,0.1-0.3,0.2-0.4c0.1-0.1,0.3-0.3,0.5-0.3c0.5-0.1,1.1-0.1,1.3,0.6     c0,0.1,0,0.2,0,0.3c0,0.4-0.2,0.7-0.7,0.8c-0.1,0-0.2,0.1-0.4,0c-0.1-0.1-0.3,0-0.4,0C45.7,42.2,45.6,42.1,45.4,41.9z"></path>
			<path class="st0" d="M81.2,41.8C81.2,41.9,81.1,42,81,42c-0.1,0.2-0.3,0.3-0.5,0.3c-0.2,0-0.3,0-0.5,0c-0.6,0.1-0.7-0.4-0.8-0.8     c0-0.2,0-0.5,0.2-0.6c0.1-0.1,0.2-0.3,0.3-0.4c0.1,0,0.2,0.1,0.3,0.1c0.1,0,0.3,0,0.4,0c0.2,0,0.4,0,0.5,0.2     c0.1,0.2,0.3,0.3,0.3,0.6C81.2,41.5,81.2,41.6,81.2,41.8z"></path>
			<path class="st0" d="M139.5,47.7c-0.1-0.1-0.2-0.2-0.3-0.2c0.3-0.8,0.6-1.5,1.4-1.9c0.2,0.1,0.2,0.3,0.1,0.5     c-0.1,0.3-0.3,0.6-0.5,0.9c-0.1,0.1-0.2,0.3-0.1,0.4c-0.2,0.1-0.4,0.2-0.3,0.5c-0.1,0.1-0.2,0.1-0.3,0.2     c-0.2,0.2-0.4,0.5-0.6,0.7c-0.3,0.4-0.6,0.7-1.1,1c0-0.1,0-0.2,0-0.2c0.2-0.2,0.4-0.5,0.6-0.7c0.1-0.1,0-0.4,0.2-0.4     c0.2-0.1,0.2-0.3,0.4-0.4C139.2,48,139.3,47.8,139.5,47.7z"></path>
			<path class="st0" d="M101.4,23.7c-0.2-0.2,0-0.5,0-0.7c0-0.2,0-0.5-0.1-0.7c-0.1,0.3-0.2,0.6-0.3,0.9c-0.1,0.5-0.4,0.9-0.5,1.5     c0,0.1-0.1,0.2-0.2,0.3c-0.1,0-0.1-0.1-0.1-0.1c0.1-0.3,0.2-0.7,0.3-1c0-0.1,0.1-0.2,0.1-0.3c0.2-0.5,0.4-0.9,0.7-1.3     c0.2-0.4,0.4-0.8,0.7-1.1c0.1-0.1,0.1-0.3,0.2-0.4c0-0.1,0.2-0.1,0-0.2c0.1,0,0.2,0,0.2,0c0,0,0,0.1,0,0.1     c-0.1,0.3-0.1,0.6-0.2,0.9c0,0.1-0.1,0.3-0.1,0.4c-0.1,0.5-0.2,1-0.3,1.4C101.8,23.5,101.7,23.6,101.4,23.7z"></path>
			<path class="st0" d="M116.7,10.6c0.2,0.3,0.5,0.5,0.7,0.8c-0.3,0.2-0.6,0.3-1,0c-0.1,0-0.2,0-0.2,0c-0.1,0-0.1-0.1-0.2-0.2     c-0.1-0.1-0.3-0.1-0.4-0.2c-0.2,0.3-0.3,0.5-0.4,0.7c-0.2,0.3-0.5,0.5-0.9,0.5c0.1-0.4,0.1-0.7,0.2-1.1     C115.3,11,116,10.7,116.7,10.6z"></path>
			<path class="st0" d="M124,10.8c-0.2,0.2-0.4,0.2-0.6,0.1c-0.5-0.2-1.1-0.5-1.7-0.7c0,0.1-0.1,0.2,0,0.3c0.1,0.2,0,0.3,0.1,0.5     c-0.3,0-0.5,0-0.7,0c-0.2-0.2-0.3-0.5-0.6-0.8c0.1,0,0.2,0,0.3,0c0.6,0,1.2,0,1.8,0c0.2,0,0.3,0,0.4,0.1     C123.4,10.4,123.7,10.6,124,10.8z"></path>
			<path class="st0" d="M143.7,29.7c0,0.1-0.1,0.1-0.2,0.1c-0.1,0-0.3,0-0.4-0.1c-0.2-0.4-0.4-0.7-0.4-1.2c0-0.3-0.1-0.6-0.2-0.9     c0.2,0.1,0.3-0.3,0.6-0.1c0.2,0.4,0.5,0.9,0.4,1.4c0,0.2,0.2,0.4,0,0.6C143.6,29.6,143.7,29.7,143.7,29.7z"></path>
			<path class="st0" d="M113.4,54.8c-0.8-0.2-1.5-0.6-2.2-0.9c0.1-0.2,0.2-0.3,0.4-0.2c0.4,0.1,0.7,0.2,1.1,0.4     c0.3,0.1,0.5,0.3,0.6,0.4C113.3,54.5,113.3,54.6,113.4,54.8z"></path>
			<path class="st0" d="M110.8,12.8c0,0.3,0,0.5,0,0.8c-0.1,0.2-0.4,0.2-0.6,0.3c-0.1-0.2-0.2-0.4-0.3-0.6     C110.1,13.2,110.4,12.9,110.8,12.8z"></path>
			<path class="st0" d="M108.2,15c-0.1-0.1-0.1-0.1-0.1-0.1c0.1-0.3,0.3-0.5,0.4-0.8c0.3-0.2,0.6-0.3,0.9-0.5     C109.2,14.1,108.7,14.7,108.2,15z"></path>
			<path class="st0" d="M103.9,19c-0.1,0.2-0.2,0.4-0.4,0.5c-0.1,0.1-0.3,0.1-0.6,0.2c0.2-0.3,0.4-0.5,0.5-0.7     C103.5,18.8,103.7,18.9,103.9,19z"></path>
		</g>
	</g>
</g>
</svg>
