<svg xmlns="http://www.w3.org/2000/svg" width="148.807" height="121.82" viewBox="0 0 148.807 121.82"><g transform="translate(-3429 -5735)"><g transform="translate(3204 5397)"><g transform="translate(251 337.82)"><path d="M61.9.18A60.91,60.91,0,1,1,.987,61.09,60.91,60.91,0,0,1,61.9.18" fill="#efefef" fill-rule="evenodd"/></g><path d="M126.115,40.048l-1.406-13.453L111.258,28a1.787,1.787,0,0,0,.183,3.564,1.674,1.674,0,0,0,.187-.01l7.257-.757A129.253,129.253,0,0,1,97.418,50.239C82.741,60.87,66.3,68.276,51.131,71.093a1.787,1.787,0,0,0,.325,3.544,2.015,2.015,0,0,0,.328-.027C67.466,71.7,84.416,64.07,99.513,53.134a132.731,132.731,0,0,0,22.264-20.207l.782,7.493a1.783,1.783,0,0,0,1.776,1.6c.06,0,.125,0,.188-.009a1.792,1.792,0,0,0,1.592-1.964" transform="translate(225 337)" fill="#009dda" fill-rule="evenodd"/><g transform="translate(225 350.82)"><path d="M.86,32.715C16.511,21.192,21.1,17.236,21.1,12.534c0-3.325-3.038-4.987-6.248-4.987a13.634,13.634,0,0,0-10.2,4.415L0,6.572C3.727,2.273,9.4.323,14.734.323c8.141,0,14.619,4.587,14.619,12.211,0,6.536-5.389,12.211-15.651,19.436H29.64v7.166H.86Z" fill="#009dda" fill-rule="evenodd"/></g><path d="M39.613,44.3a4.643,4.643,0,1,1-4.644,4.643A4.7,4.7,0,0,1,39.613,44.3" transform="translate(225 337)" fill="#009dda" fill-rule="evenodd"/><path d="M52.225,42.407a13.966,13.966,0,0,0,10.2,4.128c4.529,0,7.108-2.58,7.108-5.733,0-3.5-2.522-5.848-6.879-5.848a11.02,11.02,0,0,0-8.026,3.153l-5.676-1.548V14.717H75.214v6.994H56.926v9.574a13.209,13.209,0,0,1,8.6-3.211A11.953,11.953,0,0,1,77.794,40.458c0,8.083-6.077,13.185-15.307,13.185-6.65,0-11.466-2.177-14.734-5.732Z" transform="translate(225 337)" fill="#009dda" fill-rule="evenodd"/><path d="M91.712,36.68,88.28,41.721H83.92l5.288-7.669-4.979-7.267H88.62l3.092,4.608,3.061-4.608h4.391l-5.009,7.267L99.5,41.721H95.113Z" transform="translate(225 337)" fill="#009dda" fill-rule="evenodd"/><path d="M108.959,88.694h15.1V50.61h-15.1Z" transform="translate(225 337)" fill="#6688a2" fill-rule="evenodd"/><path d="M89.884,88.694h15.1V61.665h-15.1Z" transform="translate(225 337)" fill="#6688a2" fill-rule="evenodd"/><path d="M70.809,88.694h15.1V72.42h-15.1Z" transform="translate(225 337)" fill="#6688a2" fill-rule="evenodd"/><path d="M51.734,88.694h15.1V83.328h-15.1Z" transform="translate(225 337)" fill="#6688a2" fill-rule="evenodd"/></g></g></svg>