<svg xmlns="http://www.w3.org/2000/svg" width="147.139" height="113.515" viewBox="0 0 147.139 113.515"><g transform="translate(-3351 -5875)"><g transform="translate(-170 -12)"><g transform="translate(2437 4970)"><path d="M147.139,30.671H28.569v78.1a4.687,4.687,0,0,0,.291,1.581H146.849a4.687,4.687,0,0,0,.29-1.581Z" transform="translate(1084 917)" fill="#efefef" fill-rule="evenodd"/><g transform="translate(1112 1026.514)"><path d="M5.311,4H114.4A4.729,4.729,0,0,0,118.848.838H.859A4.727,4.727,0,0,0,5.311,4" fill="#d5d6db" fill-rule="evenodd"/></g><path d="M28.568,30.672h118.57V27.51H28.568Z" transform="translate(1084 917)" fill="#d5d6db" fill-rule="evenodd"/><path d="M142.4,7.9H33.311a4.744,4.744,0,0,0-4.743,4.743V27.509h118.57V12.647A4.743,4.743,0,0,0,142.4,7.9" transform="translate(1084 917)" fill="#6688a2" fill-rule="evenodd"/><path d="M51.965,15.809a2.371,2.371,0,0,1-2.371-2.371V2.371a2.372,2.372,0,0,1,4.743,0V13.438a2.372,2.372,0,0,1-2.372,2.371" transform="translate(1084 917)" fill="#2f4859" fill-rule="evenodd"/><path d="M42.479,15.809a2.371,2.371,0,0,1-2.371-2.371V2.371a2.371,2.371,0,0,1,4.742,0V13.438a2.371,2.371,0,0,1-2.371,2.371" transform="translate(1084 917)" fill="#2f4859" fill-rule="evenodd"/><path d="M133.228,15.809a2.372,2.372,0,0,1-2.372-2.371V2.371a2.371,2.371,0,0,1,4.743,0V13.438a2.371,2.371,0,0,1-2.371,2.371" transform="translate(1084 917)" fill="#2f4859" fill-rule="evenodd"/><path d="M123.742,15.809a2.371,2.371,0,0,1-2.371-2.371V2.371a2.371,2.371,0,0,1,4.743,0V13.438a2.371,2.371,0,0,1-2.372,2.371" transform="translate(1084 917)" fill="#2f4859" fill-rule="evenodd"/><path d="M55.73,56.821H46.749a1.581,1.581,0,0,1-1.581-1.581v1.581A1.581,1.581,0,0,0,46.749,58.4H55.73a1.581,1.581,0,0,0,1.581-1.581V55.241a1.581,1.581,0,0,1-1.581,1.581" transform="translate(1084 917)" fill="#d5d6db" fill-rule="evenodd"/><path d="M80.14,56.821H71.159a1.581,1.581,0,0,1-1.581-1.581v1.581A1.581,1.581,0,0,0,71.159,58.4H80.14a1.581,1.581,0,0,0,1.581-1.581V55.241a1.581,1.581,0,0,1-1.581,1.581" transform="translate(1084 917)" fill="#d5d6db" fill-rule="evenodd"/><path d="M104.549,56.821H95.568a1.581,1.581,0,0,1-1.581-1.581v1.581A1.581,1.581,0,0,0,95.568,58.4h8.981a1.581,1.581,0,0,0,1.581-1.581V55.241a1.581,1.581,0,0,1-1.581,1.581" transform="translate(1084 917)" fill="#d5d6db" fill-rule="evenodd"/><path d="M128.958,56.821h-8.981a1.581,1.581,0,0,1-1.581-1.581v1.581a1.581,1.581,0,0,0,1.581,1.581h8.981a1.581,1.581,0,0,0,1.581-1.581V55.241a1.581,1.581,0,0,1-1.581,1.581" transform="translate(1084 917)" fill="#d5d6db" fill-rule="evenodd"/><path d="M55.73,46.259H46.749a1.581,1.581,0,0,0-1.581,1.581v7.4a1.581,1.581,0,0,0,1.581,1.581H55.73a1.581,1.581,0,0,0,1.581-1.581v-7.4a1.581,1.581,0,0,0-1.581-1.581" transform="translate(1084 917)" fill="#fff" fill-rule="evenodd"/><path d="M80.14,46.259H71.159a1.581,1.581,0,0,0-1.581,1.581v7.4a1.581,1.581,0,0,0,1.581,1.581H80.14a1.581,1.581,0,0,0,1.581-1.581v-7.4a1.581,1.581,0,0,0-1.581-1.581" transform="translate(1084 917)" fill="#fff" fill-rule="evenodd"/><path d="M104.549,46.259H95.568a1.581,1.581,0,0,0-1.581,1.581v7.4a1.581,1.581,0,0,0,1.581,1.581h8.981a1.581,1.581,0,0,0,1.581-1.581v-7.4a1.581,1.581,0,0,0-1.581-1.581" transform="translate(1084 917)" fill="#fff" fill-rule="evenodd"/><path d="M128.958,46.259h-8.981A1.581,1.581,0,0,0,118.4,47.84v7.4a1.581,1.581,0,0,0,1.581,1.581h8.981a1.581,1.581,0,0,0,1.581-1.581v-7.4a1.581,1.581,0,0,0-1.581-1.581" transform="translate(1084 917)" fill="#fff" fill-rule="evenodd"/><path d="M55.73,77.374H46.749a1.581,1.581,0,0,1-1.581-1.581v1.581a1.581,1.581,0,0,0,1.581,1.581H55.73a1.581,1.581,0,0,0,1.581-1.581V75.793a1.581,1.581,0,0,1-1.581,1.581" transform="translate(1084 917)" fill="#d5d6db" fill-rule="evenodd"/><path d="M80.14,77.374H71.159a1.581,1.581,0,0,1-1.581-1.581v1.581a1.581,1.581,0,0,0,1.581,1.581H80.14a1.581,1.581,0,0,0,1.581-1.581V75.793a1.581,1.581,0,0,1-1.581,1.581" transform="translate(1084 917)" fill="#d5d6db" fill-rule="evenodd"/><path d="M104.549,77.374H95.568a1.581,1.581,0,0,1-1.581-1.581v1.581a1.581,1.581,0,0,0,1.581,1.581h8.981a1.581,1.581,0,0,0,1.581-1.581V75.793a1.581,1.581,0,0,1-1.581,1.581" transform="translate(1084 917)" fill="#d5d6db" fill-rule="evenodd"/><path d="M128.958,77.374h-8.981a1.581,1.581,0,0,1-1.581-1.581v1.581a1.581,1.581,0,0,0,1.581,1.581h8.981a1.581,1.581,0,0,0,1.581-1.581V75.793a1.581,1.581,0,0,1-1.581,1.581" transform="translate(1084 917)" fill="#d5d6db" fill-rule="evenodd"/><path d="M55.73,66.812H46.749a1.581,1.581,0,0,0-1.581,1.581v7.4a1.581,1.581,0,0,0,1.581,1.581H55.73a1.581,1.581,0,0,0,1.581-1.581v-7.4a1.581,1.581,0,0,0-1.581-1.581" transform="translate(1084 917)" fill="#fff" fill-rule="evenodd"/><path d="M80.14,66.812H71.159a1.581,1.581,0,0,0-1.581,1.581v7.4a1.581,1.581,0,0,0,1.581,1.581H80.14a1.581,1.581,0,0,0,1.581-1.581v-7.4a1.581,1.581,0,0,0-1.581-1.581" transform="translate(1084 917)" fill="#fff" fill-rule="evenodd"/><path d="M104.549,66.812H95.568a1.581,1.581,0,0,0-1.581,1.581v7.4a1.581,1.581,0,0,0,1.581,1.581h8.981a1.581,1.581,0,0,0,1.581-1.581v-7.4a1.581,1.581,0,0,0-1.581-1.581" transform="translate(1084 917)" fill="#fff" fill-rule="evenodd"/><path d="M128.958,66.812h-8.981a1.581,1.581,0,0,0-1.581,1.581v7.4a1.581,1.581,0,0,0,1.581,1.581h8.981a1.581,1.581,0,0,0,1.581-1.581v-7.4a1.581,1.581,0,0,0-1.581-1.581" transform="translate(1084 917)" fill="#fff" fill-rule="evenodd"/><path d="M55.73,97.925H46.749a1.58,1.58,0,0,1-1.581-1.58v1.58a1.581,1.581,0,0,0,1.581,1.581H55.73a1.581,1.581,0,0,0,1.581-1.581v-1.58a1.58,1.58,0,0,1-1.581,1.58" transform="translate(1084 917)" fill="#d5d6db" fill-rule="evenodd"/><path d="M80.14,97.925H71.159a1.58,1.58,0,0,1-1.581-1.58v1.58a1.581,1.581,0,0,0,1.581,1.581H80.14a1.581,1.581,0,0,0,1.581-1.581v-1.58a1.58,1.58,0,0,1-1.581,1.58" transform="translate(1084 917)" fill="#d5d6db" fill-rule="evenodd"/><path d="M104.549,97.925H95.568a1.58,1.58,0,0,1-1.581-1.58v1.58a1.581,1.581,0,0,0,1.581,1.581h8.981a1.581,1.581,0,0,0,1.581-1.581v-1.58a1.58,1.58,0,0,1-1.581,1.58" transform="translate(1084 917)" fill="#d5d6db" fill-rule="evenodd"/><path d="M128.958,97.925h-8.981a1.58,1.58,0,0,1-1.581-1.58v1.58a1.581,1.581,0,0,0,1.581,1.581h8.981a1.581,1.581,0,0,0,1.581-1.581v-1.58a1.58,1.58,0,0,1-1.581,1.58" transform="translate(1084 917)" fill="#d5d6db" fill-rule="evenodd"/><path d="M55.73,87.364H46.749a1.581,1.581,0,0,0-1.581,1.581v7.4a1.581,1.581,0,0,0,1.581,1.581H55.73a1.581,1.581,0,0,0,1.581-1.581v-7.4a1.581,1.581,0,0,0-1.581-1.581" transform="translate(1084 917)" fill="#fff" fill-rule="evenodd"/><path d="M80.14,87.364H71.159a1.581,1.581,0,0,0-1.581,1.581v7.4a1.581,1.581,0,0,0,1.581,1.581H80.14a1.581,1.581,0,0,0,1.581-1.581v-7.4a1.581,1.581,0,0,0-1.581-1.581" transform="translate(1084 917)" fill="#fff" fill-rule="evenodd"/><path d="M104.549,87.364H95.568a1.581,1.581,0,0,0-1.581,1.581v7.4a1.581,1.581,0,0,0,1.581,1.581h8.981a1.581,1.581,0,0,0,1.581-1.581v-7.4a1.581,1.581,0,0,0-1.581-1.581" transform="translate(1084 917)" fill="#fff" fill-rule="evenodd"/><path d="M128.958,87.364h-8.981a1.581,1.581,0,0,0-1.581,1.581v7.4a1.581,1.581,0,0,0,1.581,1.581h8.981a1.581,1.581,0,0,0,1.581-1.581v-7.4a1.581,1.581,0,0,0-1.581-1.581" transform="translate(1084 917)" fill="#fff" fill-rule="evenodd"/><path d="M5.444,77.973a19.546,19.546,0,0,0,13.538,5.591c5.959,0,9.27-2.575,9.27-6.327,0-3.973-3.016-5.812-9.859-5.812-2.059,0-5.37,0-6.107.073V62.375c.883.074,4.268.074,6.107.074,5.445,0,9.05-1.766,9.05-5.445,0-3.9-3.973-5.886-9.123-5.886a17.9,17.9,0,0,0-12.507,5.15L.662,49.794C4.635,45.306,10.815,42,19.423,42c11.477,0,18.541,5.15,18.541,13.317,0,6.18-5.3,10.227-10.742,11.183,5,.516,11.478,4.415,11.478,11.771,0,8.462-7.579,14.421-19.351,14.421C10.3,92.687,3.606,89.229,0,84.815Z" transform="translate(1084 917)" fill="#009dda" fill-rule="evenodd"/><path d="M62.682,51.266c-7.063,0-9.712,6.989-9.712,16.039s2.649,16.112,9.712,16.112c6.989,0,9.638-7.063,9.638-16.112s-2.649-16.039-9.638-16.039m0-9.271c13.979,0,20.306,12.655,20.306,25.31S76.661,92.687,62.682,92.687c-14.053,0-20.306-12.728-20.306-25.382S48.63,42,62.682,42" transform="translate(1084 917)" fill="#009dda" fill-rule="evenodd"/></g></g></g></svg>