<svg xmlns="http://www.w3.org/2000/svg" width="143.646" height="143.646" viewBox="0 0 143.646 143.646"><g transform="translate(-3679 -5887)"><g transform="translate(3304 5886)"><path d="M114.384,76.7c-1.327,0-2.279.884-2.279,2.584a2.216,2.216,0,0,0,2.279,2.519,2.265,2.265,0,0,0,2.349-2.519A2.3,2.3,0,0,0,114.384,76.7Zm0-3.131a5.688,5.688,0,1,1,0,11.364,5.686,5.686,0,1,1,0-11.364Zm-.578-11.738h2.96L102.238,84.52H99.312Zm-12.249,2.79A2.273,2.273,0,0,0,99.278,67.2a2.25,2.25,0,0,0,2.279,2.518,2.56,2.56,0,0,0,0-5.1Zm0-3.131a5.634,5.634,0,0,1,5.989,5.716c0,3.165-2.348,5.649-5.989,5.649a5.686,5.686,0,1,1,0-11.365Z" transform="translate(375)" fill="#009dda" fill-rule="evenodd"/><path d="M45.862,61.2c-3.808,0-6.52,1.673-6.52,4.385,0,3,4.154,4.327,6.52,4.673,2.365-.346,6.461-1.673,6.461-4.673,0-2.712-2.711-4.385-6.461-4.385m0,15.808c-2.423.289-7.154,1.9-7.154,5.25,0,2.826,3.115,4.615,7.154,4.615,3.923,0,7.154-1.789,7.154-4.615,0-3.347-4.789-4.961-7.154-5.25M38.65,73.372c-4.269-1.5-7.615-4.269-7.615-9.058,0-7.211,7.673-10.153,14.827-10.153,7.1,0,14.827,2.942,14.827,10.153,0,4.789-3.4,7.558-7.673,9.058,4.615,1.616,8.307,5.192,8.307,9.866,0,7.153-7.384,10.672-15.461,10.672S30.4,90.45,30.4,83.239c0-4.674,3.634-8.25,8.249-9.866" transform="translate(375)" fill="#009dda" fill-rule="evenodd"/><path d="M78.63,61.431c-5.538,0-7.615,5.481-7.615,12.577s2.077,12.634,7.615,12.634c5.48,0,7.558-5.538,7.558-12.634S84.109,61.431,78.63,61.431m0-7.269c10.961,0,15.923,9.923,15.923,19.846S89.59,93.91,78.63,93.91c-11.019,0-15.923-9.98-15.923-19.9s4.9-19.846,15.923-19.846" transform="translate(375)" fill="#009dda" fill-rule="evenodd"/><g transform="translate(375 0.646)"><path d="M71.823.354a71.823,71.823,0,1,0,71.823,71.823A71.9,71.9,0,0,0,71.823.354m0,11.551A60.271,60.271,0,1,1,11.552,72.177,60.272,60.272,0,0,1,71.823,11.905" fill="#6688a2" fill-rule="evenodd"/></g><path d="M70.283,12.591V1.04a71.76,71.76,0,0,0-56.748,29.9l9.317,6.773A60.173,60.173,0,0,1,70.283,12.591" transform="translate(375)" fill="#a0a0a0" fill-rule="evenodd"/></g></g></svg>