<svg xmlns="http://www.w3.org/2000/svg" width="80.954" height="73.5" viewBox="0 0 80.954 73.5"><g transform="translate(-3794 -5736)"><g transform="translate(-32 -42)"><g transform="translate(3146 3138)"><path d="M29.848,73.5h22.43V21.663H29.848Z" transform="translate(680 2640)" fill="#009dda" fill-rule="evenodd"/><path d="M58.524,73.5h22.43V33.814H58.524Z" transform="translate(680 2640)" fill="#40596b" fill-rule="evenodd"/><path d="M0,73.5H22.43V46.689H0Z" transform="translate(680 2640)" fill="#6688a2" fill-rule="evenodd"/><path d="M48.922,11.382a10.673,10.673,0,0,1-1.473,1.441,12.383,12.383,0,0,0,1.576-6.035V4.849h2.194V4.9h.052A10.1,10.1,0,0,1,48.922,11.382Zm-15.721,0A10.281,10.281,0,0,1,30.854,4.9V4.849H33.1V6.737a12.432,12.432,0,0,0,1.623,6.148A10.344,10.344,0,0,1,33.2,11.382ZM49.025,2.808V1.277a.621.621,0,0,0,.612-.614A.633.633,0,0,0,49.025,0H33.1a.621.621,0,0,0-.613.612.634.634,0,0,0,.613.665V2.808H28.812V4.9a12.3,12.3,0,0,0,7.6,11.331,11.021,11.021,0,0,0,1.827.595,12.573,12.573,0,0,0,1.619,1l-.281.65.018.008-.018.042-.765,1.633H35.958a1.025,1.025,0,0,0-1.021,1.022V24.5h12.2V21.183a.952.952,0,0,0-.97-1.022H43.308l-.766-1.633-.3-.682a12.4,12.4,0,0,0,1.677-1.028,11.186,11.186,0,0,0,1.784-.586A12.3,12.3,0,0,0,53.312,4.9V2.808Z" transform="translate(680 2640)" fill="#009dda" fill-rule="evenodd"/></g></g></g></svg>