<svg xmlns="http://www.w3.org/2000/svg" width="131.6" height="83.856" viewBox="0 0 131.6 83.856"><g transform="translate(-3906 -5834)"><g transform="translate(-20 3)"><g transform="translate(3272 2860)"><g transform="translate(654 2971)"><g transform="translate(7 73.857)"><path d="M.464.289C.464,5.677,6.167,10,13.274,10H111.79C118.9,10,124.6,5.677,124.6.289Z" fill="#cacacc" fill-rule="evenodd"/></g><path d="M53.167,76.213H85.813V74.146H53.167Z" fill="#fff" fill-rule="evenodd"/><path d="M81.465,34.862h10.9V28.118h-10.9Z" fill="#e1e6e9" fill-rule="evenodd"/><path d="M94.733,34.863H106.3V33.01H94.733Z" fill="#dededf" fill-rule="evenodd"/><path d="M81.465,44.35h10.9V37.6h-10.9Z" fill="#e1e6e9" fill-rule="evenodd"/><path d="M94.733,44.351H106.3V42.5H94.733Z" fill="#dededf" fill-rule="evenodd"/><path d="M81.465,53.763h10.9V47.017h-10.9Z" fill="#e1e6e9" fill-rule="evenodd"/><path d="M94.733,53.764H106.3V51.911H94.733Z" fill="#dededf" fill-rule="evenodd"/><path d="M81.465,63.251h10.9V56.506h-10.9Z" fill="#e1e6e9" fill-rule="evenodd"/><path d="M94.733,63.25H106.3V61.4H94.733Z" fill="#dededf" fill-rule="evenodd"/><path d="M20.643,38.015a7.319,7.319,0,0,0-6.572,7.257,5.726,5.726,0,0,0,.1,1.354L1.2,59.651a4.008,4.008,0,0,0-.494.6c-.044.065-.079.134-.119.2a4.042,4.042,0,0,0-.247.469c-.033.077-.061.154-.09.233a4.109,4.109,0,0,0-.149.5c-.015.068-.031.135-.043.205a4.257,4.257,0,0,0-.06.657c0,.019,0,.038,0,.057,0,.1.007.2.014.3,0,.035,0,.067-.009.1A4.2,4.2,0,0,0,.578,64.7c.006-.025.008-.047.014-.073l0,0a4.057,4.057,0,0,0,.658.853,3.947,3.947,0,0,0,.386.316l-.021.049a2.192,2.192,0,0,0,.73.469l.023-.056a3.906,3.906,0,0,0,.454.192l-.009.02a3.913,3.913,0,0,0,.834.209c.005-.012.011-.024.015-.035a4.114,4.114,0,0,0,1.046,0l-.019.039a4.146,4.146,0,0,0,1.146-.313.449.449,0,0,0,.021-.049,4.108,4.108,0,0,0,1.229-.837L18.818,53.71l-.058.106,1.3-1.3.312.052.034-.067a8.9,8.9,0,0,0,1.009.067c.126,0,.25-.012.375-.019l-.011.02a6.435,6.435,0,0,0,1.043-.105c.007-.013.014-.026.022-.039a7.324,7.324,0,0,0,5.819-6.381,21.96,21.96,0,0,1-8.022-8.026" fill="#009dda" fill-rule="evenodd"/><path d="M57.185,15a21.243,21.243,0,0,1,1.479,2.519h47.631v3.41H60.042a21.347,21.347,0,0,1,.571,2.445h49.24V15Z" fill="#009dda" fill-rule="evenodd"/><path d="M60.906,28.118a21.273,21.273,0,0,1-25.989,19.8V50.5h41.73V28.118Z" fill="#e1e6e9" fill-rule="evenodd"/><path d="M111.929,10.921H53.512A21.479,21.479,0,0,1,57.185,15h52.668V70H29.284V45.78a21.5,21.5,0,0,1-4.373-3.224v31.59h89.316v-61a2.247,2.247,0,0,0-2.3-2.223" fill="#cacacc" fill-rule="evenodd"/><path d="M39.6,0a27.089,27.089,0,1,0,27.09,27.09A27.1,27.1,0,0,0,39.6,0" fill="#6688a2" fill-rule="evenodd"/><path d="M39.6,48.451a21.36,21.36,0,1,1,21.359-21.36A21.39,21.39,0,0,1,39.6,48.451" fill="#fff" fill-rule="evenodd"/><path d="M39.6,0a27.089,27.089,0,1,0,27.09,27.09A27.1,27.1,0,0,0,39.6,0" fill="#6688a2" fill-rule="evenodd"/><path d="M39.6,48.451a21.36,21.36,0,1,1,21.359-21.36A21.39,21.39,0,0,1,39.6,48.451" fill="#fefefe" fill-rule="evenodd"/></g></g></g></g></svg>