<svg xmlns="http://www.w3.org/2000/svg" width="63.997" height="95.503" viewBox="0 0 63.997 95.503"><g transform="translate(-3721 -5998)"><g transform="translate(3743 6086.502)"><path d="M.821.286C.821,3.994,5.055,7,10.279,7S19.735,3.994,19.735.286Z" fill="#40596b" fill-rule="evenodd"/></g><g transform="translate(3721 5997.502)"><path d="M29.9.564C14.768,1.52,1.032,15.1.068,30.049A31.351,31.351,0,0,0,10.24,55.3a17.845,17.845,0,0,1,5.95,13.117l31.618,0a17.1,17.1,0,0,1,5.6-12.805A31.362,31.362,0,0,0,64,32.121,31.844,31.844,0,0,0,29.9.564" fill="#009dda" fill-rule="evenodd"/></g><path d="M30.061,67.822h3.876l4.891-25.312V36.391a12.248,12.248,0,0,1-13.658,0v6.119ZM34.832,70H29.166a1.086,1.086,0,0,1-1.065-.881L23.019,42.824A1.152,1.152,0,0,1,23,42.616V34.088a1.085,1.085,0,0,1,1.853-.769,10.072,10.072,0,0,0,14.294,0A1.085,1.085,0,0,1,41,34.088v8.528a1.062,1.062,0,0,1-.021.208L35.9,69.119A1.086,1.086,0,0,1,34.832,70Z" transform="translate(3721 5997.502)" fill="#fff" fill-rule="evenodd"/><path d="M52,78a3.45,3.45,0,0,0-2.518-3.275,3.474,3.474,0,0,0,.455-.169A3.429,3.429,0,0,0,52,71.444,3.505,3.505,0,0,0,48.437,68H16.563a3.579,3.579,0,0,0-3.009,1.617A3.336,3.336,0,0,0,13,71.444a3.449,3.449,0,0,0,2.512,3.273,3.562,3.562,0,0,0-1.959,1.457A3.335,3.335,0,0,0,13,78a3.447,3.447,0,0,0,2.512,3.273,3.562,3.562,0,0,0-1.959,1.457A3.338,3.338,0,0,0,13,84.557,3.5,3.5,0,0,0,16.563,88H48.437a3.632,3.632,0,0,0,1.5-.329,3.386,3.386,0,0,0-.455-6.389,3.814,3.814,0,0,0,.455-.167A3.433,3.433,0,0,0,52,78" transform="translate(3721 5997.502)" fill="#587593" fill-rule="evenodd"/></g></svg>