<?xml version="1.0" encoding="UTF-8"?>
<svg xmlns="http://www.w3.org/2000/svg" xmlns:xlink="http://www.w3.org/1999/xlink" width="16px" height="19px" viewBox="0 0 16 19">
  <!-- Generator: Sketch 51 (57462) - http://www.bohemiancoding.com/sketch -->
  <title>case study</title>
  <desc>Created with Sketch.</desc>
  <defs></defs>
  <g id="Visual-Design" stroke="none" stroke-width="1" fill="none" fill-rule="evenodd">
    <g id="Artboard" transform="translate(-974.000000, -171.000000)" fill="#617793">
      <g id="case-study" transform="translate(974.000000, 171.000000)">
        <path d="M15.84,15.2 L15.84,0.7125 C15.84,0.35625 15.54,0.059375 15.18,0.059375 L3.86,0.059375 C3.56,0.059375 3.3,0.316666667 3.3,0.613541667 L3.3,1.721875 L13.46,1.721875 C13.86,1.721875 14.18,2.03854167 14.18,2.434375 L14.18,15.79375 L15.28,15.79375 C15.58,15.7541667 15.84,15.5166667 15.84,15.2 Z" id="Shape"></path>
        <path d="M12.94,18.8416667 L0.74,18.8416667 C0.42,18.8416667 0.18,18.584375 0.18,18.2677083 L0.18,2.909375 C0.18,2.59270833 0.44,2.33541667 0.74,2.33541667 L12.94,2.33541667 C13.26,2.33541667 13.5,2.59270833 13.5,2.909375 L13.5,18.2875 C13.52,18.584375 13.26,18.8416667 12.94,18.8416667 Z M0.98,18.0697917 L12.72,18.0697917 L12.72,3.12708333 L0.98,3.12708333 L0.98,18.0697917 Z" id="Shape" fill-rule="nonzero"></path>
        <rect id="Rectangle-path" x="2.56" y="4.61145833" width="8.58" height="3.04791667"></rect>
        <rect id="Rectangle-path" x="2.56" y="11.4395833" width="6.58" height="1"></rect>
        <rect id="Rectangle-path" x="2.56" y="9.915625" width="8.58" height="1"></rect>
        <rect id="Rectangle-path" x="2.56" y="8.39166667" width="8.58" height="1"></rect>
        <rect id="Rectangle-path" fill-rule="nonzero" x="7.18" y="12.9635417" width="3.92" height="1"></rect>
        <rect id="Rectangle-path" fill-rule="nonzero" x="7.18" y="14.4875" width="3.92" height="1"></rect>
        <rect id="Rectangle-path" fill-rule="nonzero" x="7.18" y="16.0114583" width="2.6" height="1"></rect>
        <rect id="Rectangle-path" fill-rule="nonzero" x="2.56" y="13.003125" width="3.8" height="3.76041667"></rect>
      </g>
    </g>
  </g>
</svg>
