<svg xmlns="http://www.w3.org/2000/svg" width="1074.317" height="582.572" viewBox="0 0 1074.317 582.572"><g transform="translate(-3306.72 -5066.34)"><g transform="translate(-75 145)"><g transform="matrix(-1, 0.017, -0.017, -1, 4450.828, 4909.851)"><path d="M127-157.034,398.735-90.945l79.43-105.408-91.972-61.069L479-61.665,313.452-175.439,170.477-19l27.592-202.45L158.772-536" fill="none" stroke="#d1d1d1" stroke-width="2" fill-rule="evenodd"/><path d="M317.061-181,382-256,203-223.135l104.9,41.292" fill="none" stroke="#d1d1d1" stroke-width="2" fill-rule="evenodd"/><path d="M481.011-70l20.039-62.471L562-424,486.02-388.185l21.709,93.29L390-255.747l91.845-124.108" fill="none" stroke="#d1d1d1" stroke-width="2" fill-rule="evenodd"/><path d="M386-258,338.244-562,324-323.144l54.459,59.3" fill="none" stroke="#d1d1d1" stroke-width="2" fill-rule="evenodd"/><path d="M15-282l151.083-20.033L318-322.067,180.273-484" fill="none" stroke="#d1d1d1" stroke-width="2" fill-rule="evenodd"/><path d="M165-310.086,136.429-456,125-160" fill="none" stroke="#d1d1d1" stroke-width="2" fill-rule="evenodd"/><path d="M507-132.326l74.963,25.8L751.047-15l-1.666-237.149L841-39.131,710.234-155.625l-79.96-73.224L704.4-299.579,608.617-352,581.131-114.02,629.44-220.529" fill="none" stroke="#d1d1d1" stroke-width="2" fill-rule="evenodd"/><path d="M511-296l104.167-62.4L631-509" fill="none" stroke="#d1d1d1" stroke-width="2" fill-rule="evenodd"/><path d="M638-228l422,2.489L992.315-106.879,914.6-109.368,851.091-43" fill="none" stroke="#d1d1d1" stroke-width="2" fill-rule="evenodd"/><path d="M909.89-114,755.807-254.258,705-296l304,46.752-243.2-1.669" fill="none" stroke="#d1d1d1" stroke-width="2" fill-rule="evenodd"/><path d="M705.913-306,780-452,621-357.727" fill="none" stroke="#d1d1d1" stroke-width="2" fill-rule="evenodd"/><path d="M708.117-151,586-109.394,849.468-37,995-103.569" fill="none" stroke="#d1d1d1" stroke-width="2" fill-rule="evenodd"/><path d="M915-114l95-128" fill="none" stroke="#d1d1d1" stroke-width="2" fill-rule="evenodd"/><path d="M482-394,342-567" fill="none" stroke="#d1d1d1" stroke-width="2" fill-rule="evenodd"/><path d="M185.276-21.393a12.691,12.691,0,0,0-12.691-12.692A12.691,12.691,0,0,0,159.9-21.393,12.691,12.691,0,0,0,172.585-8.7a12.691,12.691,0,0,0,12.691-12.692" fill="#78777c" fill-rule="evenodd"/><path d="M139.143-158.021a12.69,12.69,0,0,0-12.69-12.692,12.691,12.691,0,0,0-12.69,12.692,12.691,12.691,0,0,0,12.69,12.692,12.69,12.69,0,0,0,12.69-12.692" fill="#009dda" fill-rule="evenodd"/><g transform="translate(0 -263.932)"><path d="M34.052-17.491A17.026,17.026,0,0,0,17.027-34.518,17.026,17.026,0,0,0,0-17.491,17.026,17.026,0,0,0,17.027-.464,17.026,17.026,0,0,0,34.052-17.491" fill="#6887a1" fill-rule="evenodd"/></g><path d="M170.4-539.235a17.027,17.027,0,0,0-17.026-17.027,17.027,17.027,0,0,0-17.027,17.027,17.027,17.027,0,0,0,17.027,17.027A17.027,17.027,0,0,0,170.4-539.235" fill="#009dda" fill-rule="evenodd"/><path d="M494.532-64.773A17.026,17.026,0,0,0,477.507-81.8,17.027,17.027,0,0,0,460.48-64.773a17.027,17.027,0,0,0,17.027,17.027,17.026,17.026,0,0,0,17.025-17.027" fill="#6887a1" fill-rule="evenodd"/><path d="M773.473-254.138a17.025,17.025,0,0,0-17.026-17.027,17.027,17.027,0,0,0-17.027,17.027,17.027,17.027,0,0,0,17.027,17.026,17.025,17.025,0,0,0,17.026-17.026" fill="#009dda" fill-rule="evenodd"/><path d="M862-39.484a17.026,17.026,0,0,0-17.025-17.027,17.027,17.027,0,0,0-17.027,17.027,17.027,17.027,0,0,0,17.027,17.027A17.026,17.026,0,0,0,862-39.484" fill="#6887a1" fill-rule="evenodd"/><path d="M800.334-458.449a17.024,17.024,0,0,0-17.025-17.027,17.026,17.026,0,0,0-17.027,17.027,17.027,17.027,0,0,0,17.027,17.027,17.025,17.025,0,0,0,17.025-17.027" fill="#6887a1" fill-rule="evenodd"/><path d="M352.466-570.973A17.025,17.025,0,0,0,335.441-588a17.026,17.026,0,0,0-17.027,17.027,17.027,17.027,0,0,0,17.027,17.027,17.026,17.026,0,0,0,17.025-17.027" fill="#6887a1" fill-rule="evenodd"/><path d="M210.1-221.691A12.691,12.691,0,0,0,197.4-234.384a12.691,12.691,0,0,0-12.689,12.692A12.691,12.691,0,0,0,197.4-209,12.691,12.691,0,0,0,210.1-221.691" fill="#6887a1" fill-rule="evenodd"/><path d="M326.416-175.075a12.69,12.69,0,0,0-12.69-12.692,12.691,12.691,0,0,0-12.69,12.692,12.69,12.69,0,0,0,12.69,12.692,12.69,12.69,0,0,0,12.69-12.692" fill="#6887a1" fill-rule="evenodd"/><path d="M411.39-91.118A12.691,12.691,0,0,0,398.7-103.81a12.691,12.691,0,0,0-12.69,12.692A12.691,12.691,0,0,0,398.7-78.426,12.691,12.691,0,0,0,411.39-91.118" fill="#78777c" fill-rule="evenodd"/><path d="M491.381-196.692a12.691,12.691,0,0,0-12.691-12.692A12.691,12.691,0,0,0,466-196.692,12.691,12.691,0,0,0,478.69-184a12.691,12.691,0,0,0,12.691-12.692" fill="#009dda" fill-rule="evenodd"/><path d="M644.381-509.658A12.691,12.691,0,0,0,631.69-522.35,12.69,12.69,0,0,0,619-509.658a12.69,12.69,0,0,0,12.689,12.692,12.691,12.691,0,0,0,12.691-12.692" fill="#009dda" fill-rule="evenodd"/><path d="M511.151-135.336a12.691,12.691,0,0,0-12.691-12.692,12.691,12.691,0,0,0-12.69,12.692,12.691,12.691,0,0,0,12.69,12.692,12.691,12.691,0,0,0,12.691-12.692" fill="#bfbfbf" fill-rule="evenodd"/><path d="M594.708-110.257a12.691,12.691,0,0,0-12.691-12.692,12.69,12.69,0,0,0-12.689,12.692,12.69,12.69,0,0,0,12.689,12.693,12.691,12.691,0,0,0,12.691-12.693" fill="#78777c" fill-rule="evenodd"/><path d="M645.378-228.945a12.691,12.691,0,0,0-12.691-12.692A12.69,12.69,0,0,0,620-228.945a12.69,12.69,0,0,0,12.689,12.692,12.691,12.691,0,0,0,12.691-12.692" fill="#6887a1" fill-rule="evenodd"/><path d="M724.607-157.342a12.691,12.691,0,0,0-12.691-12.693,12.69,12.69,0,0,0-12.689,12.693,12.69,12.69,0,0,0,12.689,12.692,12.691,12.691,0,0,0,12.691-12.692" fill="#bfbfbf" fill-rule="evenodd"/><path d="M714.954-297.264a12.691,12.691,0,0,0-12.691-12.692,12.69,12.69,0,0,0-12.689,12.692,12.69,12.69,0,0,0,12.689,12.693,12.692,12.692,0,0,0,12.691-12.693" fill="#78777c" fill-rule="evenodd"/><path d="M626.316-355.537a12.691,12.691,0,0,0-12.691-12.692,12.691,12.691,0,0,0-12.689,12.692,12.691,12.691,0,0,0,12.689,12.692,12.691,12.691,0,0,0,12.691-12.692" fill="#bfbfbf" fill-rule="evenodd"/><path d="M517.76-296.366a12.691,12.691,0,0,0-12.691-12.692,12.69,12.69,0,0,0-12.689,12.692,12.691,12.691,0,0,0,12.689,12.692,12.691,12.691,0,0,0,12.691-12.692" fill="#6887a1" fill-rule="evenodd"/><path d="M499.387-388.241A12.691,12.691,0,0,0,486.7-400.933a12.69,12.69,0,0,0-12.689,12.692A12.69,12.69,0,0,0,486.7-375.549a12.691,12.691,0,0,0,12.691-12.692" fill="#009dda" fill-rule="evenodd"/><path d="M574.9-425.843a12.691,12.691,0,0,0-12.691-12.692,12.69,12.69,0,0,0-12.689,12.692,12.69,12.69,0,0,0,12.689,12.692A12.691,12.691,0,0,0,574.9-425.843" fill="#78777c" fill-rule="evenodd"/><path d="M397.319-257.271a12.691,12.691,0,0,0-12.691-12.692,12.691,12.691,0,0,0-12.689,12.692,12.691,12.691,0,0,0,12.689,12.693,12.691,12.691,0,0,0,12.691-12.693" fill="#009dda" fill-rule="evenodd"/><path d="M337.221-321.195a12.691,12.691,0,0,0-12.691-12.692,12.691,12.691,0,0,0-12.689,12.692A12.691,12.691,0,0,0,324.53-308.5a12.691,12.691,0,0,0,12.691-12.692" fill="#bfbfbf" fill-rule="evenodd"/><g transform="translate(738.272)"><path d="M25.886-12.842A12.691,12.691,0,0,0,13.2-25.534,12.691,12.691,0,0,0,.506-12.842,12.691,12.691,0,0,0,13.2-.15,12.691,12.691,0,0,0,25.886-12.842" fill="#009dda" fill-rule="evenodd"/></g><path d="M925.342-110.563a12.691,12.691,0,0,0-12.691-12.692,12.691,12.691,0,0,0-12.689,12.692,12.691,12.691,0,0,0,12.689,12.692,12.691,12.691,0,0,0,12.691-12.692" fill="#78777c" fill-rule="evenodd"/><path d="M1004.872-105.947a12.69,12.69,0,0,0-12.689-12.692,12.691,12.691,0,0,0-12.689,12.692,12.691,12.691,0,0,0,12.689,12.693,12.69,12.69,0,0,0,12.689-12.693" fill="#009dda" fill-rule="evenodd"/><path d="M1021.242-245.669a12.69,12.69,0,0,0-12.69-12.692,12.689,12.689,0,0,0-12.688,12.692,12.689,12.689,0,0,0,12.688,12.692,12.69,12.69,0,0,0,12.69-12.692" fill="#009dda" fill-rule="evenodd"/><g transform="translate(1047.278 -213.155)"><path d="M25.717-12.859A12.691,12.691,0,0,0,13.026-25.551,12.691,12.691,0,0,0,.337-12.859,12.691,12.691,0,0,0,13.026-.167,12.691,12.691,0,0,0,25.717-12.859" fill="#bfbfbf" fill-rule="evenodd"/></g><path d="M180.816-302.419a12.691,12.691,0,0,0-12.691-12.692,12.691,12.691,0,0,0-12.689,12.692,12.691,12.691,0,0,0,12.689,12.693,12.691,12.691,0,0,0,12.691-12.693" fill="#009dda" fill-rule="evenodd"/><path d="M149.364-457.994a11.243,11.243,0,0,0-11.243-11.244,11.243,11.243,0,0,0-11.244,11.244,11.243,11.243,0,0,0,11.244,11.243,11.243,11.243,0,0,0,11.243-11.243" fill="#6887a1" fill-rule="evenodd"/><path d="M193.627-479.71a11.243,11.243,0,0,0-11.243-11.244A11.243,11.243,0,0,0,171.14-479.71a11.244,11.244,0,0,0,11.244,11.244,11.244,11.244,0,0,0,11.243-11.244" fill="#78777c" fill-rule="evenodd"/></g></g></g></svg>