<?xml version="1.0" encoding="UTF-8"?>
<svg xmlns="http://www.w3.org/2000/svg" xmlns:xlink="http://www.w3.org/1999/xlink" width="20px" height="15px" viewBox="0 0 20 15">
  <!-- Generator: Sketch 51 (57462) - http://www.bohemiancoding.com/sketch -->
  <title>ebooks</title>
  <desc>Created with Sketch.</desc>
  <defs></defs>
  <g id="Visual-Design" stroke="none" stroke-width="1" fill="none" fill-rule="evenodd">
    <g id="Artboard" transform="translate(-1293.000000, -173.000000)" fill="#617793" fill-rule="nonzero">
      <g id="ebooks" transform="translate(1293.000000, 173.000000)">
        <path d="M3.24489796,0.967105263 C4.73469388,0.986842105 7.26530612,1.36184211 8.57142857,3.35526316 L8.57142857,8.72368421 L8.57142857,12.375 C6.69387755,11.2697368 4.57142857,11.0328947 3.24489796,11.0131579 L3.24489796,0.967105263 Z M3.08163265,0.118421053 C2.89795918,0.118421053 2.71428571,0.197368421 2.57142857,0.315789474 C2.42857143,0.453947368 2.36734694,0.611842105 2.36734694,0.809210526 L2.36734694,11.1710526 C2.36734694,11.5460526 2.69387755,11.8618421 3.08163265,11.8618421 C4.73469388,11.8618421 7.53061224,12.1973684 9.44897959,14.1513158 C9.44897959,14.1513158 9.44897959,3.31578947 9.44897959,3.31578947 C9.44897959,3.17763158 9.40816327,3.05921053 9.34693878,2.96052632 C7.7755102,0.493421053 4.73469388,0.118421053 3.08163265,0.118421053 Z" id="Shape"></path>
        <path d="M16.755102,0.967105263 L16.755102,11.0131579 C15.4285714,11.0328947 13.3061224,11.2697368 11.4285714,12.375 L11.4285714,3.33552632 C12.755102,1.36184211 15.2653061,0.986842105 16.755102,0.967105263 Z M16.9387755,0.118421053 C15.2653061,0.118421053 12.244898,0.493421053 10.6530612,2.96052632 C10.5918367,3.05921053 10.5510204,3.17763158 10.5510204,3.31578947 L10.5510204,14.1513158 C12.4693878,12.1973684 15.2653061,11.8618421 16.9183673,11.8618421 C17.3061224,11.8618421 17.6326531,11.5460526 17.6326531,11.1710526 L17.6326531,0.809210526 C17.6326531,0.631578947 17.5510204,0.453947368 17.4285714,0.315789474 C17.3061224,0.177631579 17.122449,0.118421053 16.9387755,0.118421053 Z" id="Shape"></path>
        <path d="M19.2653061,2.50657895 L18.755102,2.50657895 L18.755102,11.1710526 C18.755102,12.1381579 17.9387755,12.9276316 16.9387755,12.9276316 C15.5306122,12.9276316 13.2040816,13.2039474 11.5510204,14.7039474 C14.4081633,14.0328947 17.4081633,14.4671053 19.122449,14.8421053 C19.3265306,14.8815789 19.5510204,14.8421053 19.7346939,14.7039474 C19.8979592,14.5657895 20,14.3684211 20,14.1710526 L20,3.19736842 C19.9795918,2.82236842 19.6530612,2.50657895 19.2653061,2.50657895 Z" id="Shape"></path>
        <path d="M1.24489796,11.1710526 L1.24489796,2.50657895 L0.734693878,2.50657895 C0.346938776,2.50657895 0.0204081633,2.82236842 0.0204081633,3.19736842 L0.0204081633,14.1710526 C0.0204081633,14.3881579 0.12244898,14.5855263 0.285714286,14.7039474 C0.448979592,14.8421053 0.673469388,14.8815789 0.897959184,14.8421053 C2.6122449,14.4671053 5.6122449,14.0328947 8.46938776,14.7039474 C6.81632653,13.2039474 4.48979592,12.9276316 3.08163265,12.9276316 C2.06122449,12.9276316 1.24489796,12.1381579 1.24489796,11.1710526 Z" id="Shape"></path>
      </g>
    </g>
  </g>
</svg>
