<svg xmlns="http://www.w3.org/2000/svg" width="80.493" height="80.578" viewBox="0 0 80.493 80.578"><g transform="translate(-4122 -5863)"><path d="M80.493,28.089l-11.4,8.218L42.427,55.424a3.775,3.775,0,0,1-4.529,0L11.4,36.307,0,28.089l11.4-8.217L36.222,2.1,38.066.755a3.776,3.776,0,0,1,4.529,0L44.439,2.1,56.346,10.65l5.869,4.192,6.875,5.03Z" transform="translate(4122 5863)" fill="#6688a2" fill-rule="evenodd"/><path d="M66.988,15.677V41.039l-24.72,17.75a3.5,3.5,0,0,1-4.2,0L13.507,41.039V9.149a3.119,3.119,0,0,1,3.109-3.11H57.193Z" transform="translate(4122 5863)" fill="#fff" fill-rule="evenodd"/><path d="M66.988,15.677V41.039l-24.72,17.75a3.5,3.5,0,0,1-4.2,0L13.507,41.039V9.149a3.119,3.119,0,0,1,3.109-3.11H57.193Z" transform="translate(4122 5863)" fill="none" stroke="#6688a2" stroke-width="3" fill-rule="evenodd"/><path d="M36.2,32.313a3.472,3.472,0,0,0,.622,2.332,2.158,2.158,0,0,0,1.555.777,2.939,2.939,0,0,0,1.244-.31,4.161,4.161,0,0,0,.933-.778,5.672,5.672,0,0,0,1.087-2.176,8.6,8.6,0,0,0,.467-2.644,3.285,3.285,0,0,0-.622-2.176,2.158,2.158,0,0,0-1.555-.777,2.867,2.867,0,0,0-1.865.777,4.264,4.264,0,0,0-1.4,2.332,8.6,8.6,0,0,0-.467,2.643m13.215,4.975h2.488a8.211,8.211,0,0,1-3.731,3.887,13.719,13.719,0,0,1-7,1.555,15.344,15.344,0,0,1-6.841-1.4,9.172,9.172,0,0,1-4.354-4.043,12.113,12.113,0,0,1-1.4-5.752,12.9,12.9,0,0,1,1.555-6.374,9.817,9.817,0,0,1,4.353-4.354,14.212,14.212,0,0,1,6.374-1.4,12.181,12.181,0,0,1,5.441,1.244,7.632,7.632,0,0,1,3.577,3.42,10.1,10.1,0,0,1,1.244,4.82,9.314,9.314,0,0,1-1.866,5.6A6.992,6.992,0,0,1,43.2,37.6a3.9,3.9,0,0,1-1.555-.311,1.574,1.574,0,0,1-.621-1.088,4.478,4.478,0,0,1-3.265,1.4,4.017,4.017,0,0,1-3.265-1.4,5.044,5.044,0,0,1-1.4-3.732,9.506,9.506,0,0,1,1.554-5.286,5.785,5.785,0,0,1,4.976-2.8,3.851,3.851,0,0,1,3.265,1.71l.31-1.4h3.266L44.6,33.4a4.091,4.091,0,0,0-.156,1.089.57.57,0,0,0,.156.466c.155.156.155.156.311.156a3.527,3.527,0,0,0,1.555-.778,6.481,6.481,0,0,0,2.02-2.488,8.342,8.342,0,0,0,.778-3.264,6.465,6.465,0,0,0-2.177-4.975c-1.4-1.4-3.42-2.022-6.063-2.022a10.68,10.68,0,0,0-5.6,1.4,8.778,8.778,0,0,0-3.42,3.731,11.257,11.257,0,0,0-1.089,5.13,9.5,9.5,0,0,0,1.244,4.664,7.7,7.7,0,0,0,3.576,3.11,13.946,13.946,0,0,0,5.286.933A15.919,15.919,0,0,0,46,39.776a9.278,9.278,0,0,0,3.42-2.488" transform="translate(4122 5863)" fill="#009dda" fill-rule="evenodd"/><path d="M69.09,36.306,42.427,55.423a3.772,3.772,0,0,1-4.527,0L11.4,36.306,0,28.088V77.223a3.412,3.412,0,0,0,1.006,2.516,4.007,4.007,0,0,0,2.348.838H77.14a3.632,3.632,0,0,0,2.347-.838,3.412,3.412,0,0,0,1.006-2.516V28.088Z" transform="translate(4122 5863)" fill="#009dda" fill-rule="evenodd"/><g transform="translate(4123 5908.578)"><path d="M78.488,34.161A3.638,3.638,0,0,1,76.14,35H2.353a4.005,4.005,0,0,1-2.347-.839L39.248.454Z" fill="#047dac" fill-rule="evenodd"/></g></g></svg>