<svg xmlns="http://www.w3.org/2000/svg" width="436.035" height="446.98" viewBox="0 0 436.035 446.98"><g transform="translate(-217 -2484.02)"><path d="M94.211,79,94,76l3,1.385" transform="translate(217 2484)" fill="none" stroke="#7c7c7c" stroke-width="5" fill-rule="evenodd"/><path d="M102,81,334,202" transform="translate(217 2484)" fill="none" stroke="#7c7c7c" stroke-width="5" stroke-dasharray="15.291 15.291" fill-rule="evenodd"/><path d="M338,204l3,1.373L338.168,207" transform="translate(217 2484)" fill="none" stroke="#7c7c7c" stroke-width="5" fill-rule="evenodd"/><path d="M333,209,116,350" transform="translate(217 2484)" fill="none" stroke="#7c7c7c" stroke-width="5" stroke-dasharray="15.051 15.051" fill-rule="evenodd"/><path d="M115,352.359,112.208,354,112,351" transform="translate(217 2484)" fill="none" stroke="#7c7c7c" stroke-width="5" fill-rule="evenodd"/><path d="M110,344,94,83" transform="translate(217 2484)" fill="none" stroke="#7c7c7c" stroke-width="5" stroke-dasharray="15.297 15.297" fill-rule="evenodd"/><g transform="translate(217 2484)"><path d="M138.591,33.919h13.1V31.985h-13.1Z" fill="#d9d8d7" fill-rule="evenodd"/><path d="M153.13,33.919h3.815V31.985H153.13Z" fill="#d9d8d7" fill-rule="evenodd"/><path d="M138.591,49.431h18.358V47.5H138.591Z" fill="#d9d8d7" fill-rule="evenodd"/><path d="M154.678,57.184h2.266V55.249h-2.266Z" fill="#d9d8d7" fill-rule="evenodd"/><path d="M138.591,57.184h14.88V55.249h-14.88Z" fill="#d9d8d7" fill-rule="evenodd"/><path d="M138.591,41.674h6.665V39.741h-6.665Z" fill="#d9d8d7" fill-rule="evenodd"/><path d="M147.1,41.674h4.044V39.741H147.1Z" fill="#d9d8d7" fill-rule="evenodd"/><path d="M152.9,41.674h4.043V39.741H152.9Z" fill="#d9d8d7" fill-rule="evenodd"/><g transform="translate(244.443 111.947)"><path d="M95.81.03A95.764,95.764,0,1,1,.026,95.793,95.773,95.773,0,0,1,95.81.03" fill="#d9d8d7" fill-rule="evenodd"/></g><path d="M95.784.02A95.764,95.764,0,1,1,0,95.784,95.773,95.773,0,0,1,95.784.02" fill="#009dda" fill-rule="evenodd"/><path d="M117.42,145.824H76.454l5.2-25.321h30.56Z" fill="#f2f2f2" fill-rule="evenodd"/><path d="M117.42,145.824,112.211,120.5H81.651l25.326,25.321Z" fill="#d9d8d7" fill-rule="evenodd"/><path d="M65.49,148.883h62.9v-3.064H65.49Z" fill="#f2f2f2" fill-rule="evenodd"/><path d="M22.151,16.316a3.837,3.837,0,0,0-3.816,3.825V116.68a3.831,3.831,0,0,0,3.816,3.823H171.725a3.839,3.839,0,0,0,3.83-3.823V20.141a3.845,3.845,0,0,0-3.83-3.825Z" fill="#242d3c" fill-rule="evenodd"/><path d="M26.281,112.556H167.61v-88.3H26.281Z" fill="#fff" fill-rule="evenodd"/><path d="M71.162,95.432h88.293V93.676H71.162Z" fill="#d9d8d7" fill-rule="evenodd"/><path d="M34.422,95.432H64.273V93.676H34.422Z" fill="#d9d8d7" fill-rule="evenodd"/><path d="M34.422,100.876H159.455V99.12H34.422Z" fill="#d9d8d7" fill-rule="evenodd"/><path d="M34.422,106.306H96.937V104.55H34.422Z" fill="#d9d8d7" fill-rule="evenodd"/><path d="M36.931,86.892H55.21V30.519H36.931Z" fill="#6688a2" fill-rule="evenodd"/><path d="M61.74,86.9H80.019v-26.2H61.74Z" fill="#d9d8d7" fill-rule="evenodd"/><path d="M86.563,86.895h18.278V39.617H86.563Z" fill="#009dda" fill-rule="evenodd"/><path d="M111.385,86.887h18.279v-10.4H111.385Z" fill="#d9d8d7" fill-rule="evenodd"/><path d="M109.574,255.473a95.763,95.763,0,1,1-95.783,95.763,95.773,95.773,0,0,1,95.783-95.763" fill="#6688a2" fill-rule="evenodd"/><path d="M403.525,159.352a5.143,5.143,0,0,1,5.134,5.123v83.989a5.146,5.146,0,0,1-5.134,5.122H277a5.132,5.132,0,0,1-5.118-5.122V164.475A5.129,5.129,0,0,1,277,159.352Z" fill="#242d3c" fill-rule="evenodd"/><path d="M277.593,201.27a2.282,2.282,0,0,1,2.28-2.278h.567a2.283,2.283,0,0,1,2.28,2.278v10.4a2.283,2.283,0,0,1-2.28,2.279h-.567a2.285,2.285,0,0,1-2.28-2.279Z" fill="#3e4959" fill-rule="evenodd"/><path d="M399.626,206.459a2.35,2.35,0,0,1,4.7,0,2.35,2.35,0,1,1-4.7,0" fill="#3e4959" fill-rule="evenodd"/><path d="M288.426,248.231h106.86V164.689H288.426Z" fill="#fff" fill-rule="evenodd"/><path d="M323.557,229.448H390.4v-1.329H323.557Z" fill="#d9d8d7" fill-rule="evenodd"/><path d="M295.745,229.448h22.6v-1.329h-22.6Z" fill="#d9d8d7" fill-rule="evenodd"/><path d="M295.745,233.569H390.4V232.24H295.745Z" fill="#d9d8d7" fill-rule="evenodd"/><path d="M295.745,237.68H343.07v-1.329H295.745Z" fill="#d9d8d7" fill-rule="evenodd"/><path d="M297.644,222.982h13.838V180.307H297.644Z" fill="#6688a2" fill-rule="evenodd"/><path d="M316.425,222.986h13.838V203.15H316.425Z" fill="#d9d8d7" fill-rule="evenodd"/><path d="M335.216,222.985h13.839V187.194H335.216Z" fill="#009dda" fill-rule="evenodd"/><path d="M354.008,222.979h13.838v-7.87H354.008Z" fill="#d9d8d7" fill-rule="evenodd"/><path d="M72.554,293.539a4.988,4.988,0,0,1,4.97-4.979h64.1a4.991,4.991,0,0,1,4.969,4.979V407.75a4.979,4.979,0,0,1-4.969,4.964h-64.1a4.975,4.975,0,0,1-4.97-4.964Z" fill="#242d3c" fill-rule="evenodd"/><path d="M109.567,297.32a2.279,2.279,0,0,1,0-4.558,2.279,2.279,0,0,1,0,4.558" fill="#3e4959" fill-rule="evenodd"/><path d="M109.569,295.993a.951.951,0,0,1,0-1.9.951.951,0,1,1,0,1.9" fill="#d9d8d7" fill-rule="evenodd"/><path d="M77.741,396.667h63.667V301.529H77.741Z" fill="#fff" fill-rule="evenodd"/><path d="M113.753,404.736a4.179,4.179,0,1,1-4.179-4.179,4.178,4.178,0,0,1,4.179,4.179" fill="#3e4959" fill-rule="evenodd"/><path d="M113.348,359.017h17.014v-1.488H113.348Z" fill="#d9d8d7" fill-rule="evenodd"/><path d="M85.127,359.017h25.294v-1.488H85.127Z" fill="#d9d8d7" fill-rule="evenodd"/><path d="M85.127,363.63h48.147v-1.488H85.127Z" fill="#d9d8d7" fill-rule="evenodd"/><path d="M85.127,368.231h41.159v-1.487H85.127Z" fill="#d9d8d7" fill-rule="evenodd"/><path d="M113.348,373.719h17.014v-1.488H113.348Z" fill="#d9d8d7" fill-rule="evenodd"/><path d="M85.127,373.719h25.294v-1.488H85.127Z" fill="#d9d8d7" fill-rule="evenodd"/><path d="M85.127,378.332h48.147v-1.487H85.127Z" fill="#d9d8d7" fill-rule="evenodd"/><path d="M85.127,382.934h41.159v-1.488H85.127Z" fill="#d9d8d7" fill-rule="evenodd"/><path d="M84.632,348.232h9.789v-30.19H84.632Z" fill="#6688a2" fill-rule="evenodd"/><path d="M97.918,348.235h9.789V334.2H97.918Z" fill="#d9d8d7" fill-rule="evenodd"/><path d="M111.212,348.233H121V322.915h-9.788Z" fill="#009dda" fill-rule="evenodd"/><path d="M124.5,348.23h9.789v-5.568H124.5Z" fill="#d9d8d7" fill-rule="evenodd"/></g></g></svg>