<svg xmlns="http://www.w3.org/2000/svg" width="319.648" height="319.7" viewBox="0 0 319.648 319.7"><g transform="translate(-4601 -5813)"><g transform="translate(4601 5812.649)"><g transform="translate(-821 -3064)"><g transform="translate(821 3064)"><path d="M159.825.351A159.85,159.85,0,1,1,0,160.2,159.837,159.837,0,0,1,159.825.351" fill="#6688a2" fill-rule="evenodd"/><path d="M54,235H266V164H54Z" fill="#e6e9ee" fill-rule="evenodd"/><path d="M112,223h95V177H112Z" fill="#acb3ba" fill-rule="evenodd"/><path d="M124,107a36,36,0,0,1,72,0" fill="#fff" fill-rule="evenodd"/><path d="M160,69h3V48h-3Z" fill="#009dda" fill-rule="evenodd"/><path d="M160,60h15V48H160Z" fill="#009dda" fill-rule="evenodd"/><path d="M124,121h72V107H124Z" fill="#e6e9ee" fill-rule="evenodd"/><path d="M113,127h93v-6H113Z" fill="#acb3ba" fill-rule="evenodd"/><path d="M121,164h5V126h-5Z" fill="#fff" fill-rule="evenodd"/><path d="M193,164h5V126h-5Z" fill="#fff" fill-rule="evenodd"/><path d="M181,164h5V126h-5Z" fill="#fff" fill-rule="evenodd"/><path d="M169,164h5V126h-5Z" fill="#fff" fill-rule="evenodd"/><path d="M157,164h5V126h-5Z" fill="#fff" fill-rule="evenodd"/><path d="M145,164h5V126h-5Z" fill="#fff" fill-rule="evenodd"/><path d="M133,164h5V126h-5Z" fill="#fff" fill-rule="evenodd"/><path d="M159.5,145,104,176H215Z" fill="#acb3ba" fill-rule="evenodd"/><path d="M104,236H215v-7H104Z" fill="#acb3ba" fill-rule="evenodd"/><path d="M112,229h95v-7H112Z" fill="#acb3ba" fill-rule="evenodd"/><path d="M121,223h10V177H121Z" fill="#fff" fill-rule="evenodd"/><path d="M143,223h10V177H143Z" fill="#fff" fill-rule="evenodd"/><path d="M166,223h10V177H166Z" fill="#fff" fill-rule="evenodd"/><path d="M189,223h10V177H189Z" fill="#fff" fill-rule="evenodd"/><path d="M58,220h7V188H58Z" fill="#6688a2" fill-rule="evenodd"/><path d="M72,220h7V188H72Z" fill="#6688a2" fill-rule="evenodd"/><path d="M85,220h7V188H85Z" fill="#6688a2" fill-rule="evenodd"/><path d="M99,220h7V188H99Z" fill="#6688a2" fill-rule="evenodd"/><path d="M215,220h7V188h-7Z" fill="#6688a2" fill-rule="evenodd"/><path d="M228,220h7V188h-7Z" fill="#6688a2" fill-rule="evenodd"/><path d="M242,220h7V188h-7Z" fill="#6688a2" fill-rule="evenodd"/><path d="M254,220h7V188h-7Z" fill="#6688a2" fill-rule="evenodd"/></g></g></g></g></svg>