<?xml version="1.0" encoding="UTF-8"?>
<svg xmlns="http://www.w3.org/2000/svg" xmlns:xlink="http://www.w3.org/1999/xlink" width="9px" height="7px" viewBox="0 0 9 7">
  <!-- Generator: Sketch 51 (57462) - http://www.bohemiancoding.com/sketch -->
  <title>Group-3</title>
  <desc>Created with Sketch.</desc>
  <defs></defs>
  <g id="Visual-Design" stroke="none" stroke-width="1" fill="none" fill-rule="evenodd">
    <g id="Artboard" transform="translate(-677.000000, -708.000000)" fill="#617793" fill-rule="nonzero">
      <g id="video-btn" transform="translate(677.000000, 496.000000)">
        <g id="video-(1)" transform="translate(0.924757, 212.810073)">
          <g id="posts">
            <g id="Group-3">
              <g id="video-btn">
                <path d="M3.97754854,1.20938976 C3.12521671,1.20938976 2.4352338,1.89471062 2.4352338,2.74128346 C2.4352338,3.58785629 3.12521671,4.27317713 3.97754854,4.27317713 C4.82988036,4.27317713 5.51986328,3.58785629 5.51986328,2.74128346 C5.51986328,1.89471062 4.82988036,1.20938976 3.97754854,1.20938976 Z M4.78117571,2.78159645 L3.64473326,3.5475433 C3.63661581,3.55560589 3.62849837,3.55560589 3.61226347,3.55560589 C3.60414603,3.55560589 3.59602858,3.55560589 3.58791113,3.5475433 C3.57167624,3.5394807 3.5635588,3.5233555 3.5635588,3.49916771 L3.5635588,1.96727401 C3.5635588,1.95114881 3.57167624,1.92696102 3.58791113,1.91889842 C3.60414603,1.91083582 3.62849837,1.91083582 3.64473326,1.91889842 L4.78117571,2.68484527 C4.79741059,2.69290787 4.80552806,2.70903306 4.80552806,2.72515826 C4.80552806,2.74128346 4.78929313,2.77353385 4.78117571,2.78159645 Z" id="Shape"></path>
                <path d="M6.76183252,0.0322503936 L1.19326456,0.0322503936 C0.568221221,0.0322503936 0.0568221221,0.540194094 0.0568221221,1.16907677 L0.0568221221,4.79724604 C0.0568221221,5.42612873 0.568221221,5.93407241 1.20138201,5.93407241 L6.76183252,5.93407241 C7.3949933,5.93407241 7.9063924,5.42612873 7.9063924,4.79724604 L7.9063924,1.16907677 C7.89827498,0.540194094 7.38687588,0.0322503936 6.76183252,0.0322503936 Z M1.18514712,5.29712716 L0.85233183,5.52287989 C0.85233183,5.52287989 0.844214385,5.52287989 0.844214385,5.52287989 C0.844214385,5.52287989 0.83609694,5.52287989 0.83609694,5.52287989 C0.827979492,5.52287989 0.827979492,5.51481732 0.827979492,5.50675471 L0.827979492,5.0471866 C0.827979492,5.03912399 0.827979492,5.03912399 0.83609694,5.03106138 C0.844214385,5.03106138 0.844214385,5.03106138 0.85233183,5.03106138 L1.18514712,5.25681415 C1.19326456,5.25681415 1.19326456,5.26487676 1.19326456,5.27293937 C1.19326456,5.28906455 1.19326456,5.29712716 1.18514712,5.29712716 Z M1.57478452,5.5309425 L1.40431816,5.5309425 L1.40431816,5.05524921 L1.57478452,5.05524921 L1.57478452,5.5309425 Z M1.85077769,5.5309425 L1.68031133,5.5309425 L1.68031133,5.05524921 L1.85077769,5.05524921 L1.85077769,5.5309425 Z M7.02970825,5.38581571 L2.2404151,5.38581571 C2.17547553,5.38581571 2.12677086,5.33744013 2.12677086,5.27293937 C2.12677086,5.20843857 2.17547553,5.16006299 2.2404151,5.16006299 L7.02970825,5.16006299 C7.09464781,5.16006299 7.1433525,5.20843857 7.1433525,5.27293937 C7.1433525,5.33744013 7.09464781,5.38581571 7.02970825,5.38581571 Z M7.36252354,4.78918343 L0.592573559,4.78918343 L0.592573559,1.16907677 C0.592573559,0.838510234 0.868566723,0.564381888 1.20138201,0.564381888 L6.76183252,0.564381888 C7.09464781,0.564381888 7.37064096,0.838510234 7.37064096,1.16907677 L7.37064096,4.78918343 L7.36252354,4.78918343 Z" id="Shape"></path>
              </g>
            </g>
          </g>
        </g>
      </g>
    </g>
  </g>
</svg>
