<svg xmlns="http://www.w3.org/2000/svg" width="178.414" height="121.82" viewBox="0 0 178.414 121.82"><g transform="translate(-3852 -5696)"><g transform="translate(3852 5695)"><g transform="translate(36 0.82)"><path d="M60.958.18A60.91,60.91,0,1,1,.049,61.09,60.91,60.91,0,0,1,60.958.18" fill="#efefef" fill-rule="evenodd"/></g><path d="M110.03,36.064c-1.312,0-2.254.875-2.254,2.557a2.192,2.192,0,0,0,2.254,2.491,2.24,2.24,0,0,0,2.323-2.491A2.278,2.278,0,0,0,110.03,36.064Zm0-3.1a5.627,5.627,0,1,1,0,11.241,5.624,5.624,0,1,1,0-11.241Zm-.572-11.609h2.927L98.017,43.8H95.123Zm-12.115,2.76a2.247,2.247,0,0,0-2.253,2.556,2.225,2.225,0,0,0,2.253,2.491,2.258,2.258,0,0,0,2.324-2.491A2.279,2.279,0,0,0,97.343,24.118Zm0-3.1a5.571,5.571,0,0,1,5.923,5.653c0,3.131-2.321,5.587-5.923,5.587a5.623,5.623,0,1,1,0-11.24Z" fill="#009dda" fill-rule="evenodd"/><path d="M10.956,24.79,4.622,31.238,0,26.388l11.982-12.04h7.077V52.407h-8.1Z" fill="#009dda" fill-rule="evenodd"/><path d="M25.22,46.017C40.8,34.548,45.363,30.61,45.363,25.931c0-3.31-3.025-4.964-6.22-4.964a13.569,13.569,0,0,0-10.156,4.394L24.365,20c3.709-4.279,9.357-6.22,14.664-6.22,8.1,0,14.55,4.565,14.55,12.154,0,6.505-5.364,12.154-15.577,19.344H53.865v7.133H25.22Z" fill="#009dda" fill-rule="evenodd"/><path d="M72.465,20.967c-5.478,0-7.532,5.421-7.532,12.439s2.054,12.5,7.532,12.5c5.42,0,7.475-5.477,7.475-12.5s-2.055-12.439-7.475-12.439m0-7.19c10.841,0,15.748,9.815,15.748,19.629S83.306,53.092,72.465,53.092c-10.9,0-15.749-9.872-15.749-19.686s4.851-19.629,15.749-19.629" fill="#009dda" fill-rule="evenodd"/><path d="M18.312,108.594,82.349,63.4l18.965,22.949L135.145,61.36q.456-3.342.72-6.682l-33.72,24.9-18.9-22.872L20.638,100.9" fill="#6688a2" fill-rule="evenodd"/><g transform="translate(135 22.82)"><path d="M39.981,26.324,43.413,3.509,40.97,3.143h-.01L20.6.077a2.475,2.475,0,1,0-.736,4.895L34.324,7.147.864,31.859Q.6,35.2.145,38.541L37.261,11.129,35.085,25.591a2.477,2.477,0,0,0,1.446,2.63,2.588,2.588,0,0,0,.633.185,2.479,2.479,0,0,0,2.817-2.082" fill="#6688a2" fill-rule="evenodd"/></g><path d="M23.053,96.632a8.869,8.869,0,1,1-11.694,4.532,8.867,8.867,0,0,1,11.694-4.532" fill="#009dda" fill-rule="evenodd"/><path d="M21.337,100.532a4.607,4.607,0,1,1-6.075,2.354,4.606,4.606,0,0,1,6.075-2.354" fill="#fff" fill-rule="evenodd"/></g></g></svg>