<?xml version="1.0" encoding="UTF-8"?>
<svg xmlns="http://www.w3.org/2000/svg" xmlns:xlink="http://www.w3.org/1999/xlink" width="19px" height="18px" viewBox="0 0 19 18">
  <!-- Generator: Sketch 51 (57462) - http://www.bohemiancoding.com/sketch -->
  <title>infographic</title>
  <desc>Created with Sketch.</desc>
  <defs></defs>
  <g id="Visual-Design" stroke="none" stroke-width="1" fill="none" fill-rule="evenodd">
    <g id="Artboard" transform="translate(-1295.000000, -485.000000)" fill="#617793" fill-rule="nonzero">
      <g id="infographic" transform="translate(1295.000000, 485.000000)">
        <g id="Group" transform="translate(0.000000, 6.340909)">
          <path d="M4.13645833,0.0613636364 L0.435416667,0.0613636364 C0.257291667,0.0613636364 0.0989583333,0.204545455 0.0989583333,0.409090909 L0.0989583333,11.2704545 C0.0989583333,11.4545455 0.2375,11.6181818 0.435416667,11.6181818 L4.31458333,11.6181818 C4.49270833,11.6181818 4.65104167,11.475 4.65104167,11.2704545 L4.65104167,0.593181818 C4.65104167,0.306818182 4.41354167,0.0613636364 4.13645833,0.0613636364 Z M3.68125,10.7795455 L1.06875,10.7795455 L1.06875,0.9 L3.68125,0.9 L3.68125,10.7795455 Z" id="Shape"></path>
          <path d="M15.3979167,2.84318182 L11.696875,2.84318182 C11.51875,2.84318182 11.3802083,2.98636364 11.3802083,3.17045455 L11.3802083,11.25 C11.3802083,11.4340909 11.51875,11.5977273 11.7166667,11.5977273 L15.5958333,11.5977273 C15.7739583,11.5977273 15.9322917,11.4545455 15.9322917,11.25 L15.9322917,3.375 C15.8927083,3.08863636 15.675,2.84318182 15.3979167,2.84318182 Z M12.3895833,3.90681818 L13.18125,3.90681818 L12.3895833,4.725 L12.3895833,3.90681818 Z M12.3895833,5.58409091 L13.9927083,3.92727273 L14.8041667,3.92727273 L12.3895833,6.42272727 L12.3895833,5.58409091 Z M14.8833333,10.5545455 L14.0916667,10.5545455 L14.8833333,9.73636364 L14.8833333,10.5545455 Z M14.8833333,8.87727273 L13.2604167,10.5545455 L12.4489583,10.5545455 L14.8635417,8.05909091 L14.8833333,8.87727273 Z M14.8833333,7.2 L12.3895833,9.77727273 L12.3895833,8.93863636 L14.8833333,6.36136364 L14.8833333,7.2 Z M14.8833333,5.52272727 L12.3895833,8.1 L12.3895833,7.26136364 L14.8833333,4.68409091 L14.8833333,5.52272727 Z" id="Shape"></path>
        </g>
        <g id="Group" transform="translate(11.479167, 0.000000)">
          <path d="M3.8,5.25681818 C3.0875,5.23636364 2.49375,4.70454545 2.33541667,3.98863636 C2.315625,3.88636364 2.29583333,3.78409091 2.29583333,3.68181818 L2.29583333,3.43636364 L0.0989583333,2.86363636 L0.059375,3.21136364 C0.0197916667,3.62045455 0.0395833333,4.05 0.11875,4.43863636 C0.514583333,6.38181818 2.25625,7.73181818 4.15625,7.56818182 L4.49270833,7.54772727 L4.01770833,5.23636364 L3.8,5.25681818 Z M0.633333333,3.64090909 L0.969791667,3.72272727 L0.653125,4.05 C0.653125,3.90681818 0.633333333,3.78409091 0.633333333,3.64090909 Z M0.732291667,4.41818182 L1.32604167,3.80454545 L1.6625,3.88636364 L0.83125,4.74545455 C0.791666667,4.64318182 0.752083333,4.54090909 0.732291667,4.41818182 Z M1.10833333,5.35909091 C1.04895833,5.27727273 1.009375,5.175 0.969791667,5.07272727 L1.80104167,4.21363636 C1.82083333,4.31590909 1.86041667,4.43863636 1.91979167,4.54090909 L1.10833333,5.35909091 Z M1.26666667,5.625 L2.03854167,4.82727273 C2.09791667,4.90909091 2.15729167,4.99090909 2.21666667,5.07272727 L1.46458333,5.85 C1.40520833,5.78863636 1.32604167,5.70681818 1.26666667,5.625 Z M1.68229167,6.09545455 L2.434375,5.31818182 C2.51354167,5.37954545 2.59270833,5.44090909 2.671875,5.50227273 L1.91979167,6.27954545 C1.82083333,6.21818182 1.74166667,6.15681818 1.68229167,6.09545455 Z M2.15729167,6.46363636 L2.92916667,5.66590909 C3.028125,5.70681818 3.12708333,5.74772727 3.22604167,5.78863636 L2.41458333,6.62727273 C2.33541667,6.56590909 2.23645833,6.525 2.15729167,6.46363636 Z M2.73125,6.75 L3.5625,5.89090909 L3.64166667,6.25909091 L3.06770833,6.85227273 C2.92916667,6.83181818 2.83020833,6.79090909 2.73125,6.75 Z M3.40416667,6.93409091 L3.70104167,6.62727273 L3.78020833,6.975 C3.64166667,6.975 3.52291667,6.95454545 3.40416667,6.93409091 Z" id="Shape"></path>
          <path d="M7.32291667,2.90454545 C6.946875,1.08409091 5.34375,-0.122727273 3.60208333,0.0204545455 L3.95833333,1.73863636 C4.78958333,1.77954545 5.521875,2.39318182 5.7,3.27272727 C5.878125,4.15227273 5.44270833,5.01136364 4.690625,5.4 L5.046875,7.11818182 C6.66979167,6.48409091 7.67916667,4.70454545 7.32291667,2.90454545 Z" id="Shape"></path>
          <path d="M3.04791667,1.92272727 L2.69166667,0.204545455 C1.68229167,0.572727273 0.930208333,1.37045455 0.573958333,2.33181818 L2.21666667,2.74090909 C2.39479167,2.39318182 2.69166667,2.10681818 3.04791667,1.92272727 Z" id="Shape"></path>
        </g>
        <path d="M6.05625,2.14772727 C5.878125,2.14772727 5.73958333,2.29090909 5.73958333,2.475 L5.73958333,17.5909091 C5.73958333,17.775 5.878125,17.9181818 6.05625,17.9181818 L9.93541667,17.9181818 C10.1135417,17.9181818 10.2520833,17.775 10.2520833,17.5909091 L10.2520833,2.49545455 C10.2520833,2.31136364 10.1135417,2.16818182 9.93541667,2.16818182 L6.05625,2.16818182 L6.05625,2.14772727 Z" id="Shape"></path>
      </g>
    </g>
  </g>
</svg>
