<svg xmlns="http://www.w3.org/2000/svg" width="142.47" height="142.47" viewBox="0 0 142.47 142.47"><g transform="translate(-3941 -5927)"><g transform="translate(3941 5926.47)"><path d="M71.235,134.528a62.7,62.7,0,1,1,18.848-2.879,62.763,62.763,0,0,1-18.848,2.879m0-134A71.235,71.235,0,1,0,142.47,71.765,71.236,71.236,0,0,0,71.235.53" fill="#009dda" fill-rule="evenodd"/></g><path d="M73.692,9.526v8.929a2.457,2.457,0,0,1-4.914,0V9.526c.813-.035,1.643-.052,2.457-.052s1.644.017,2.457.052" transform="translate(3941 5926)" fill="#6688a2" fill-rule="evenodd"/><path d="M28.63,26.156l6.313,6.313a2.458,2.458,0,0,1-3.475,3.476l-6.313-6.314c.551-.6,1.126-1.2,1.7-1.774s1.174-1.151,1.774-1.7" transform="translate(3941 5926)" fill="#6688a2" fill-rule="evenodd"/><path d="M8.525,69.778h8.929a2.458,2.458,0,0,1,0,4.915H8.525c-.035-.814-.052-1.644-.052-2.458s.017-1.644.052-2.457" transform="translate(3941 5926)" fill="#6688a2" fill-rule="evenodd"/><path d="M25.155,114.84l6.313-6.313A2.458,2.458,0,0,1,34.944,112l-6.314,6.313c-.6-.551-1.2-1.125-1.774-1.7s-1.15-1.174-1.7-1.774" transform="translate(3941 5926)" fill="#6688a2" fill-rule="evenodd"/><path d="M68.778,134.945v-8.929a2.457,2.457,0,0,1,4.914,0v8.929c-.813.034-1.644.052-2.457.052s-1.644-.018-2.457-.052" transform="translate(3941 5926)" fill="#6688a2" fill-rule="evenodd"/><path d="M113.84,118.315,107.527,112A2.457,2.457,0,0,1,111,108.526l6.314,6.314c-.551.6-1.126,1.2-1.7,1.774s-1.174,1.15-1.774,1.7" transform="translate(3941 5926)" fill="#6688a2" fill-rule="evenodd"/><path d="M133.944,74.693h-8.929a2.458,2.458,0,0,1,0-4.915h8.929c.035.814.052,1.644.052,2.457s-.017,1.645-.052,2.458" transform="translate(3941 5926)" fill="#6688a2" fill-rule="evenodd"/><path d="M117.314,29.63,111,35.944a2.458,2.458,0,0,1-3.476-3.475l6.314-6.314c.6.551,1.2,1.126,1.774,1.7s1.151,1.175,1.7,1.774" transform="translate(3941 5926)" fill="#6688a2" fill-rule="evenodd"/><path d="M45.791,82.256a13.863,13.863,0,0,0,10.132,4.1c4.5,0,7.059-2.561,7.059-5.692,0-3.472-2.5-5.806-6.831-5.806a10.943,10.943,0,0,0-7.969,3.13L42.546,76.45V54.762H68.618v6.945H50.459v9.506A13.111,13.111,0,0,1,59,68.025a11.868,11.868,0,0,1,12.182,12.3c0,8.026-6.034,13.093-15.2,13.093-6.6,0-11.384-2.163-14.629-5.693Z" transform="translate(3941 5926)" fill="#009dda" fill-rule="evenodd"/><path d="M88.254,61.365c-5.465,0-7.514,5.408-7.514,12.409S82.789,86.24,88.254,86.24c5.408,0,7.457-5.464,7.457-12.466s-2.049-12.409-7.457-12.409m0-7.172c10.815,0,15.711,9.791,15.711,19.581s-4.9,19.639-15.711,19.639c-10.873,0-15.711-9.848-15.711-19.639s4.838-19.581,15.711-19.581" transform="translate(3941 5926)" fill="#009dda" fill-rule="evenodd"/><path d="M71.235,51.057a2.311,2.311,0,0,1-2.311-2.311V26.029a2.311,2.311,0,1,1,4.622,0V48.746a2.311,2.311,0,0,1-2.311,2.311" transform="translate(3941 5926)" fill="#2f4859" fill-rule="evenodd"/><path d="M48.516,51.443a2.306,2.306,0,0,1-1.587-.632l-9.837-9.305a2.31,2.31,0,1,1,3.175-3.356l9.837,9.3a2.31,2.31,0,0,1-1.588,3.989" transform="translate(3941 5926)" fill="#2f4859" fill-rule="evenodd"/></g></svg>