<svg xmlns="http://www.w3.org/2000/svg" width="541.451" height="401.364" viewBox="0 0 541.451 401.364"><g transform="translate(-4925.549 -5771)"><g transform="translate(4927 5771)"><path d="M505.394,17.3l-97.33,105.946" fill="none" stroke="#009dda" stroke-width="4" fill-rule="evenodd"/><path d="M488.812,15.008l15.295,3.358,4.626,14.787L521.255,0Z" fill="#009dda" fill-rule="evenodd"/><path d="M315.06,85.045,244.045,161.8" fill="none" stroke="#6688a2" stroke-width="4" fill-rule="evenodd"/><path d="M330.921,67.748,298.478,82.7,313.753,86.1l4.593,14.8Z" fill="#6688a2" fill-rule="evenodd"/><path d="M187.45,273.874,102.377,365.4" fill="none" stroke="#6688a2" stroke-width="4" fill-rule="evenodd"/><path d="M203.311,256.577l-32.443,14.957,15.275,3.39,4.593,14.806Z" fill="#6688a2" fill-rule="evenodd"/><path d="M348.945,245.766,263.872,337.3" fill="none" stroke="#009dda" stroke-width="4" fill-rule="evenodd"/><path d="M364.806,228.468l-32.443,14.957,15.275,3.39,4.593,14.807Z" fill="#009dda" fill-rule="evenodd"/><path d="M524.139,188.108,326.6,400" fill="none" stroke="#6688a2" stroke-width="4" fill-rule="evenodd"/><path d="M540,171.532l-32.443,14.957,15.275,3.39,4.593,14.806Z" fill="#6688a2" fill-rule="evenodd"/><path d="M467.183,164.515l-59.491,67.011-20.586-85.94L166.542,375.495" fill="none" stroke="#6688a2" stroke-width="4" fill-rule="evenodd"/><path d="M483.044,147.027l-31.722,15.854,15.157,3.11,4.85,14.91Z" fill="#6688a2" fill-rule="evenodd"/><path d="M409.506,53.333,244.264,231.274l-16.2-54.476L79.306,338.018" fill="none" stroke="#009dda" stroke-width="4" fill-rule="evenodd"/><path d="M425.367,36.036l-32.443,14.92,15.262,3.414,4.567,14.82Z" fill="#009dda" fill-rule="evenodd"/><path d="M305.688,26.667l-84.93,91.7-8.1-16.179L0,326.486" fill="none" stroke="#009dda" stroke-width="4" fill-rule="evenodd"/><path d="M321.549,9.369,289.105,24.326l15.276,3.391,4.592,14.8Z" fill="#009dda" fill-rule="evenodd"/></g></g></svg>