<svg xmlns="http://www.w3.org/2000/svg" width="186.962" height="95.583" viewBox="0 0 186.962 95.583"><g transform="translate(-4083 -5626)"><g transform="translate(3260 5275)"><g transform="translate(862 350.582)"><path d="M114.755.418H3.633A2.922,2.922,0,0,0,.719,3.331V83.273H117.767V3.331A2.945,2.945,0,0,0,114.755.418" fill="#d5d6db" fill-rule="evenodd"/></g><path d="M45.449,78.416H151.034V6.343H45.449Z" transform="translate(823 350)" fill="#fff" fill-rule="evenodd"/><path d="M45.449,17.319H151.034V6.343H45.449Z" transform="translate(823 350)" fill="#6688a2" fill-rule="evenodd"/><path d="M58.564,14.113h87.809V9.644H58.564Z" transform="translate(823 350)" fill="#fff" fill-rule="evenodd"/><path d="M16.855,83.855c0,7.061,7.475,12.727,16.787,12.727H162.747c9.312,0,16.787-5.666,16.787-12.727Z" transform="translate(823 350)" fill="#d5d6db" fill-rule="evenodd"/><path d="M76.748,86.565H119.53v-2.71H76.748Z" transform="translate(823 350)" fill="#fff" fill-rule="evenodd"/><path d="M52.832,52.869H107.52V23.535H52.832Z" transform="translate(823 350)" fill="#e1e6e9" fill-rule="evenodd"/><path d="M113.832,32.375h14.279V23.535H113.832Z" transform="translate(823 350)" fill="#e1e6e9" fill-rule="evenodd"/><path d="M131.219,32.375h15.153V29.947H131.219Z" transform="translate(823 350)" fill="#dededf" fill-rule="evenodd"/><path d="M113.832,44.808h14.279V35.967H113.832Z" transform="translate(823 350)" fill="#e1e6e9" fill-rule="evenodd"/><path d="M131.219,44.808h15.153V42.38H131.219Z" transform="translate(823 350)" fill="#dededf" fill-rule="evenodd"/><path d="M113.832,57.145h14.279V48.3H113.832Z" transform="translate(823 350)" fill="#e1e6e9" fill-rule="evenodd"/><path d="M131.219,57.145h15.153V54.715H131.219Z" transform="translate(823 350)" fill="#dededf" fill-rule="evenodd"/><path d="M113.832,69.577h14.279V60.738H113.832Z" transform="translate(823 350)" fill="#e1e6e9" fill-rule="evenodd"/><path d="M131.219,69.577h15.153V67.148H131.219Z" transform="translate(823 350)" fill="#dededf" fill-rule="evenodd"/><path d="M12.444,53.535H28.558V28.647Zm16.114,11.19H0V54.7L23.724,17.367H41.271V53.535h7.7v11.19h-7.7V77.08H28.558Z" transform="translate(823 350)" fill="#009dda" fill-rule="evenodd"/><path d="M78.511,27.752c-8.6,0-11.817,8.505-11.817,19.517s3.222,19.605,11.817,19.605c8.5,0,11.728-8.594,11.728-19.605S87.015,27.752,78.511,27.752m0-11.28c17.009,0,24.708,15.4,24.708,30.8s-7.7,30.885-24.708,30.885c-17.1,0-24.71-15.487-24.71-30.885s7.609-30.8,24.71-30.8" transform="translate(823 350)" fill="#009dda" fill-rule="evenodd"/><path d="M115.448,57.166V45.216h-3.794V39.953h3.794V33.694h6.069v6.259h4.647v5.263h-4.647V55.554c0,1.423.758,2.512,2.086,2.512a3.289,3.289,0,0,0,2.085-.663l1.281,4.552a7.43,7.43,0,0,1-5.027,1.47c-4.219,0-6.494-2.181-6.494-6.259" transform="translate(823 350)" fill="#009dda" fill-rule="evenodd"/><path d="M146.552,51.381c0-3.556-2.134-6.639-5.879-6.639s-5.833,3.083-5.833,6.639c0,3.6,2.086,6.686,5.833,6.686s5.879-3.082,5.879-6.686m-17.971,0a11.6,11.6,0,0,1,12.092-12c7.586,0,12.139,5.5,12.139,12,0,6.544-4.553,12.044-12.139,12.044-7.541,0-12.092-5.5-12.092-12.044" transform="translate(823 350)" fill="#009dda" fill-rule="evenodd"/><path d="M174.251,33.75l-9.938,10.117-7.25-7.61,18.8-18.89h11.1V77.08H174.251Z" transform="translate(823 350)" fill="#009dda" fill-rule="evenodd"/></g></g></svg>