<svg xmlns="http://www.w3.org/2000/svg" width="79.17" height="79.171" viewBox="0 0 79.17 79.171"><g transform="translate(-4267 -5944)"><g transform="translate(4267 5943)"><g transform="translate(0 0.17)"><path d="M39.585.83A39.586,39.586,0,1,1,0,40.415,39.585,39.585,0,0,1,39.585.83" fill="#6688a2" fill-rule="evenodd"/></g><path d="M39.585,70.274A29.689,29.689,0,1,1,69.274,40.585,29.775,29.775,0,0,1,39.585,70.274" fill="#f2f2f2" fill-rule="evenodd"/><path d="M39.585,60.378A19.792,19.792,0,1,1,59.378,40.585,19.851,19.851,0,0,1,39.585,60.378" fill="#009dda" fill-rule="evenodd"/><path d="M39.585,50.481a9.9,9.9,0,1,1,9.9-9.9,9.925,9.925,0,0,1-9.9,9.9" fill="#cdd6e0" fill-rule="evenodd"/><path d="M39.585,50.481a9.9,9.9,0,1,1,9.9-9.9,9.925,9.925,0,0,1-9.9,9.9" fill="#fff" fill-rule="evenodd"/><path d="M66.635,17,42.389,41.245a2.566,2.566,0,0,1-3.629-3.629L63.172,13.535a2.589,2.589,0,0,1,3.628,0A2.551,2.551,0,0,1,66.635,17" fill="#40596b" fill-rule="evenodd"/><g transform="translate(61 0.17)"><path d="M7.944,11.056.192,18.808V8.581L7.944.829Z" fill="#009dda" fill-rule="evenodd"/></g><g transform="translate(61 11.17)"><path d="M10.418,7.808,18.17.056H7.944L.191,7.808Z" fill="#009dda" fill-rule="evenodd"/></g></g></g></svg>