<svg xmlns="http://www.w3.org/2000/svg" width="313.412" height="313.412" viewBox="0 0 313.412 313.412"><g transform="translate(-5550 -5919)"><g transform="translate(5210 5441.521)"><g transform="translate(340 477)"><path d="M129.72,101.875,68.529,40.849a26.63,26.63,0,0,0,.491-6.347A34.267,34.267,0,1,0,34.752,68.676a51.8,51.8,0,0,0,6.366-.487l60.945,61.025a19.386,19.386,0,0,0,27.413,0,19.05,19.05,0,0,0,.244-27.339" transform="translate(178 179)" fill="#d1783d" fill-rule="evenodd"/><path d="M129.72,101.875,68.529,40.849a26.63,26.63,0,0,0,.491-6.347A34.267,34.267,0,1,0,34.752,68.676a51.8,51.8,0,0,0,6.366-.487l60.945,61.025a19.386,19.386,0,0,0,27.413,0,19.05,19.05,0,0,0,.244-27.339" transform="translate(178 179)" fill="#009dda" fill-rule="evenodd"/><path d="M122.133,133.853c-10.769-23.432-20.561-48.575-27.659-67.129l-6.853-6.833,1.712,4.394c9.3,24.165,18.848,48.575,28.882,70.543A18.248,18.248,0,0,0,122.133,133.853Z" transform="translate(178 179)" fill="#04648a" fill-rule="evenodd"/><path d="M135.1,112.86a18.831,18.831,0,0,0-2.448-7.079c-1.958,4.4-1.958,11.474,0,19.772a19.637,19.637,0,0,0,2.692-8.054A31.157,31.157,0,0,1,135.1,112.86Z" transform="translate(178 179)" fill="#d1783d" fill-rule="evenodd"/><path d="M121.4,115.545c-4.406-11.718-5.629-20.5-3.426-25.143l-2.938-2.93c-2.694,4.64-3.428,13.183,2.692,29.537,1.957,4.882,4.16,10.495,6.61,16.113a10.313,10.313,0,0,0,3.425-2.2C125.559,126.043,123.6,120.916,121.4,115.545Z" transform="translate(178 179)" fill="#04648a" fill-rule="evenodd"/><path d="M64.614,17.9H60.7a59.562,59.562,0,0,1,6.121,4.885A17.7,17.7,0,0,0,64.614,17.9Z" transform="translate(178 179)" fill="#d1783d" fill-rule="evenodd"/><path d="M28.143,68.189a30.088,30.088,0,0,0,4.9.49c-7.59-14.4-15.667-27.826-31.82-38.811C.975,31.331.975,32.8.73,34.5,13.948,44.024,21.291,55.5,28.143,68.189Z" transform="translate(178 179)" fill="#04648a" fill-rule="evenodd"/><path d="M111.118,130.436c-7.586-14.4-15.418-29.293-18.847-38.324-.977-2.443-1.712-5.127-2.692-7.811-4.16-12.205-9.3-27.1-18.847-41.01l-2.2-2.2v-.732A89.438,89.438,0,0,0,43.565,17.9H35C68.04,33.283,78.564,64.04,85.907,85.521c.981,2.929,1.958,5.371,2.691,8.056,3.429,9.277,11.261,24.411,18.848,38.813.245.242.245.488.488.975a19.554,19.554,0,0,0,5.386,1.464Z" transform="translate(178 179)" fill="#04648a" fill-rule="evenodd"/><path d="M85.173,101.143c-5.629-11.473-9.544-21.723-13.215-31C64.858,51.593,59.474,38.165,46.5,32.305c-6.855-2.926-10.524-3.416-12.484-.974-3.18,3.662.735,11.228,11.5,27.826L68.775,95.286c.246.242.246.487.489.487a1.842,1.842,0,0,0,2.2,0,1.729,1.729,0,0,0,.492-2.684L48.7,56.961c-3.671-5.614-13.218-20.748-11.749-23.187,0,0,1.226-.735,7.835,2.2,11.5,5.124,16.4,17.329,23.5,35.638,3.425,9.03,7.585,19.529,13.214,31.244,1.961,4.149,3.43,7.323,4.653,10.253l6.855,6.836C91.783,115.79,89.333,109.931,85.173,101.143Z" transform="translate(178 179)" fill="#04648a" fill-rule="evenodd"/><path d="M3.178,21.81c7.1,5.369,14.93,11.718,19.582,18.306a203.33,203.33,0,0,1,16.155,27.1l.734,1.462,1.469-.242,6.117,6.1L42.1,65.259c-5.141-9.52-9.79-18.551-16.4-27.58C20.557,30.6,11.991,23.763,4.647,18.149A22.712,22.712,0,0,1,3.178,21.81Z" transform="translate(178 179)" fill="#04648a" fill-rule="evenodd"/><path d="M132.9,125.065a19.274,19.274,0,0,0-3.182-23.19L68.775,40.849a26.769,26.769,0,0,0,.489-6.347A34.318,34.318,0,0,0,35,.33,34.788,34.788,0,0,0,14.683,6.921a35.332,35.332,0,0,0-6.607,20.5A34.319,34.319,0,0,0,42.341,61.6a51.712,51.712,0,0,0,6.364-.487l60.944,61.025a19.712,19.712,0,0,0,23.253,2.93" transform="translate(178 179)" fill="#009dda" fill-rule="evenodd"/><path d="M224.225,211c-6.848-2.934-10.514-3.426-12.472-.977-3.177,3.672.734,11.26,11.492,27.906l1.225,1.958,1.956-.243,7.09,7.1-7.09-11.017c-3.669-5.63-13.205-20.807-11.738-23.254,0,0,1.221-.737,7.824,2.2,11.492,5.138,16.385,17.378,23.476,35.74q2.565,6.974,5.866,14.689l7.581,7.588c-3.913-8.814-7.09-16.648-9.782-23.747C242.563,230.347,237.184,216.88,224.225,211Zm45.969,59.732c-.979-2.447-1.713-5.142-2.689-7.834-4.156-12.239-9.291-27.172-18.828-41.126l-2.2-2.2v-.734a89.441,89.441,0,0,0-24.94-22.519h-8.8c33.01,15.42,43.526,46.265,50.859,67.806.98,2.938,1.96,5.387,2.692,8.08a133.7,133.7,0,0,0,5.867,13.463l8.8,8.813C276.306,285.424,272.15,276.857,270.194,270.736Zm-27.875-74.175h-3.913a59.693,59.693,0,0,1,6.115,4.9A17.811,17.811,0,0,0,242.319,196.561Zm29.831,48.96-6.846-6.853,1.71,4.407c7.825,20.562,16.14,41.615,24.7,60.708a14.824,14.824,0,0,0,5.135,1.961C287.064,284.445,278.507,262.414,272.15,245.521ZM185.833,204.4a82.248,82.248,0,0,1,14.673,14.441,171.887,171.887,0,0,1,12.96,20.81,30.283,30.283,0,0,0,4.89.489,219.425,219.425,0,0,0-14.428-23.745c-4.4-5.877-11-11.751-17.361-16.647A26.692,26.692,0,0,0,185.833,204.4Zm126.908,87.392a18.916,18.916,0,0,0-2.447-7.1c-1.955,4.161-1.955,11.26-.241,19.338a.237.237,0,0,0,.241-.245,19.345,19.345,0,0,0,2.447-8.079Zm-13.692,2.692c-4.4-11.751-5.624-20.562-3.423-25.214l-2.935-2.939c-2.691,4.653-3.426,13.221,2.689,29.622,1.222,3.183,2.689,6.856,4.156,10.525a22.492,22.492,0,0,0,4.156-.243C302.225,302.56,300.758,298.4,299.049,294.481ZM194.4,228.632a38.361,38.361,0,0,0,10.025,7.833,94.719,94.719,0,0,0-17.361-21.542,31.932,31.932,0,0,0,5.378,11.259Z" fill="#04648a" fill-rule="evenodd"/><path d="M127.151.479C56.974.479,0,57.518,0,127.774S56.974,255.069,127.151,255.069,254.3,198.03,254.3,127.774,197.327.479,127.151.479" fill="#6688a2" fill-rule="evenodd"/><path d="M127.151,24.959a102.815,102.815,0,1,1-102.7,102.815,102.744,102.744,0,0,1,102.7-102.815" fill="#dcf8ff" fill-rule="evenodd"/><path d="M127.151,228.143C71.889,228.143,26.9,183.1,26.9,127.774A100.445,100.445,0,0,1,127.151,27.409c55.26,0,100.253,45.041,100.253,100.365S182.411,228.143,127.151,228.143" fill="#c5e6ff" fill-rule="evenodd"/><path d="M127.151,24.959A102.423,102.423,0,0,0,49.883,60.21a101.543,101.543,0,0,1,67.488-25.46,102.723,102.723,0,0,1,77.267,170.382A102.743,102.743,0,0,0,127.151,24.959" fill="#a6d5e5" fill-rule="evenodd"/></g></g></g></svg>