<svg xmlns="http://www.w3.org/2000/svg" width="103.208" height="52.213" viewBox="0 0 103.208 52.213"><g transform="translate(-5874 -5867)"><g transform="translate(5641 3206)"><g transform="translate(233 2660)"><g transform="translate(0 0.213)"><path d="M103.208,49.988a1,1,0,0,1-1.008,1H57.975a11.111,11.111,0,0,1-12.742,0H1.008a1,1,0,0,1-1.008-1A49.294,49.294,0,0,1,49.387.787h4.434a49.294,49.294,0,0,1,49.387,49.2" fill="#6688a2" fill-rule="evenodd"/></g><path d="M50.463,9.028l2.419.01a42.362,42.362,0,0,1,41.423,34.3L8.765,43a42.363,42.363,0,0,1,41.7-33.973" fill="#e5e5e5" fill-rule="evenodd"/><path d="M15.521,43.172H8.834A42.361,42.361,0,0,1,50.395,9.033h2.419a42.362,42.362,0,0,1,41.561,34.14H87.688a36.391,36.391,0,0,0-35.045-26.6H50.566a36.389,36.389,0,0,0-35.045,26.6" fill="#f5f5f5" fill-rule="evenodd"/><path d="M70.962,25.711,54.989,43.9a3.765,3.765,0,1,1-5.322-5.3L67.921,22.683a2.15,2.15,0,0,1,3.041,3.028" fill="#009dda" fill-rule="evenodd"/><path d="M56.644,42.168a5.04,5.04,0,1,1-5.04-5.021,5.031,5.031,0,0,1,5.04,5.021" fill="#40596b" fill-rule="evenodd"/></g></g></g></svg>