<svg xmlns="http://www.w3.org/2000/svg" width="118.333" height="114.013" viewBox="0 0 118.333 114.013"><g transform="translate(-4365 -5773)"><g transform="translate(3719 4541)"><g transform="translate(687 1231.013)"><path d="M57.522.987H2.975A2.649,2.649,0,0,0,.324,3.637v99.747a2.649,2.649,0,0,0,2.651,2.651H74.681a2.649,2.649,0,0,0,2.651-2.651V20.8a2.253,2.253,0,0,0-.837-1.814l-17.02-17.3a3.337,3.337,0,0,0-1.953-.7" fill="#686868" fill-rule="evenodd"/></g><path d="M94.168,5.355H39.621A2.648,2.648,0,0,0,36.97,8v99.747a2.649,2.649,0,0,0,2.651,2.651h71.706a2.649,2.649,0,0,0,2.651-2.651V25.165a2.252,2.252,0,0,0-.837-1.814l-17.02-17.3a3.33,3.33,0,0,0-1.953-.7" transform="translate(646 1231)" fill="#a0a0a0" fill-rule="evenodd"/><g transform="translate(678 1240.013)"><path d="M57.557.952H3.01A2.649,2.649,0,0,0,.359,3.6v99.747A2.649,2.649,0,0,0,3.01,106H74.716a2.649,2.649,0,0,0,2.651-2.651V20.762a2.252,2.252,0,0,0-.837-1.814L59.51,1.649a3.33,3.33,0,0,0-1.953-.7" fill="#efefef" fill-rule="evenodd"/></g><path d="M93.324,28.659H108.53a.378.378,0,0,0,.279-.558L91.231,10.523c-.279-.279-.557,0-.557.28V26.009a2.648,2.648,0,0,0,2.65,2.65" transform="translate(646 1231)" fill="#ccc" fill-rule="evenodd"/><path d="M38.638,28.477H77v-5.44H38.638Z" transform="translate(646 1231)" fill="#6688a2" fill-rule="evenodd"/><path d="M38.638,39.958h64.313v-2.65H38.638Z" transform="translate(646 1231)" fill="#dbdbdb" fill-rule="evenodd"/><path d="M38.638,47.353h64.313V44.7H38.638Z" transform="translate(646 1231)" fill="#dbdbdb" fill-rule="evenodd"/><path d="M38.638,54.886H85.512v-2.65H38.638Z" transform="translate(646 1231)" fill="#dbdbdb" fill-rule="evenodd"/><path d="M38.638,62.419H96.672v-2.65H38.638Z" transform="translate(646 1231)" fill="#dbdbdb" fill-rule="evenodd"/><path d="M38.638,69.952h61.94V67.3H38.638Z" transform="translate(646 1231)" fill="#dbdbdb" fill-rule="evenodd"/><path d="M38.638,77.485H85.512v-2.65H38.638Z" transform="translate(646 1231)" fill="#dbdbdb" fill-rule="evenodd"/><path d="M38.638,84.879h64.313v-2.65H38.638Z" transform="translate(646 1231)" fill="#dbdbdb" fill-rule="evenodd"/><path d="M58.029,100.365l-1.813-1.813.976-2.651-2.372-.837V92.553H52.17l-1.117-2.372-2.232.977-1.813-1.814L45.194,91.3l-2.65-.977-.837,2.232H39.335v2.79l-2.511,1.116.976,2.232-1.813,1.674,1.953,1.953-.976,2.512,2.371.976v2.371h2.651l1.115,2.511,2.233-.976,1.674,1.674,1.953-1.953,2.511,1.117.977-2.373H54.82v-2.65l2.511-1.116-.977-2.233Z" transform="translate(646 1231)" fill="#08729b" fill-rule="evenodd"/><path d="M47.008,92.274a8.092,8.092,0,1,1-8.091,8.091,8.091,8.091,0,0,1,8.091-8.091" transform="translate(646 1231)" fill="#009dda" fill-rule="evenodd"/><path d="M76.3,108.037a1.4,1.4,0,0,1-1.4-.836,1.98,1.98,0,0,1,.559-2.372c.139-.14.418-.279.558-.419.139,0,.139-.139.279-.139a4.763,4.763,0,0,0,1.255-2.511,63.572,63.572,0,0,0,1.256-7.951.6.6,0,0,1,.557-.558.714.714,0,0,1,.7.558c.557,2.372.976,4.743,1.394,7.116a5.874,5.874,0,0,1,.977-.7.63.63,0,0,1,.837,0v.139l2.092-1.256a.625.625,0,0,1,.7,0,.725.725,0,0,1,.279.558v.7c.14,0,.279,0,.279.14a.86.86,0,0,1,.14,1.115c1.116-.836,2.093-1.674,3.068-2.511a35.61,35.61,0,0,1,7.395-5.3.624.624,0,1,1,.557,1.116,51.225,51.225,0,0,0-7.114,5.161,53.04,53.04,0,0,1-5.3,4.046,14.892,14.892,0,0,1-1.534,1.255,9.2,9.2,0,0,1-4.046,1.256h-.7a.659.659,0,0,1-.7-.7.638.638,0,0,1,.558-.7h.7a12.3,12.3,0,0,0,2.372-.837c.557-.278.976-.557,1.534-.836a.262.262,0,0,1,0-.419,3.306,3.306,0,0,1,1.256-2.093v-.278l-1.116.7a1.626,1.626,0,0,1-.977.28c-.14,0-.14,0-.279-.14-.7.558-1.534,1.117-2.371,1.675-.28.139-.7.139-.837-.14a.612.612,0,0,1-.14-.7,1.145,1.145,0,0,1,.558-.837c.139,0,.139-.14.279-.14l.14-.139v-.14a29,29,0,0,0-.559-3.067,18.907,18.907,0,0,1-.837,4.045,4.7,4.7,0,0,1-1.813,3.209c-.14.139-.28.139-.418.279s-.28.141-.419.279a1.026,1.026,0,0,0-.28.838.49.49,0,0,0,.28.139.73.73,0,0,1,1.256.7c0,.278-.419.418-.977.418" transform="translate(646 1231)" fill="#6688a2" fill-rule="evenodd"/><path d="M6.7,66.117A24.038,24.038,0,0,0,23.35,72.995c7.33,0,11.4-3.168,11.4-7.783,0-4.887-3.71-7.15-12.127-7.15-2.534,0-6.607,0-7.512.091V46.93c1.086.091,5.249.091,7.512.091,6.7,0,11.132-2.172,11.132-6.7,0-4.8-4.887-7.24-11.223-7.24A22.024,22.024,0,0,0,7.15,39.418L.815,31.454C5.7,25.933,13.3,21.861,23.893,21.861,38.011,21.861,46.7,28.2,46.7,38.242c0,7.6-6.516,12.58-13.212,13.757,6.153.634,14.118,5.43,14.118,14.479,0,10.409-9.323,17.739-23.8,17.739-11.131,0-19.367-4.254-23.8-9.684Z" transform="translate(646 1231)" fill="#009dda" fill-rule="evenodd"/></g></g></svg>