<svg xmlns="http://www.w3.org/2000/svg" width="83.056" height="83.055" viewBox="0 0 83.056 83.055"><g transform="translate(-6008 -5909)"><g transform="translate(6008 5909)"><g transform="translate(0 -1)"><g transform="translate(0 0.056)"><path d="M41.528,79.061A36.589,36.589,0,1,1,78.117,42.472,36.59,36.59,0,0,1,41.528,79.061m0-78.117A41.527,41.527,0,1,0,83.056,42.472,41.528,41.528,0,0,0,41.528.944" fill="#6688a2" fill-rule="evenodd"/></g><path d="M41.528,14.618a2.018,2.018,0,0,0-2.018,2.018v22.7a2.018,2.018,0,0,0,4.036,0v-22.7a2.018,2.018,0,0,0-2.018-2.018" fill="#009dda" fill-rule="evenodd"/><path d="M63.385,42.528a2.018,2.018,0,0,0-2.018-2.018H44.723a2.018,2.018,0,1,0,0,4.036H61.367a2.018,2.018,0,0,0,2.018-2.018" fill="#009dda" fill-rule="evenodd"/><path d="M41.528,36.979a5.549,5.549,0,1,1-5.548,5.549,5.548,5.548,0,0,1,5.548-5.549" fill="#40596b" fill-rule="evenodd"/><path d="M42.96,5.97v5.2a1.433,1.433,0,0,1-2.865,0V5.97c.474-.02.959-.03,1.432-.03s.959.01,1.433.03" fill="#6688a2" fill-rule="evenodd"/><path d="M16.691,15.665l3.681,3.681a1.433,1.433,0,0,1-2.027,2.025l-3.68-3.681c.321-.349.656-.7.991-1.034s.685-.671,1.035-.991" fill="#6688a2" fill-rule="evenodd"/><path d="M4.97,41.1h5.205a1.433,1.433,0,0,1,0,2.865H4.97c-.021-.474-.031-.959-.031-1.432s.01-.959.031-1.433" fill="#6688a2" fill-rule="evenodd"/><path d="M14.665,67.365l3.681-3.681a1.433,1.433,0,0,1,2.026,2.027l-3.681,3.68c-.349-.321-.7-.656-1.035-.992s-.67-.684-.991-1.034" fill="#6688a2" fill-rule="evenodd"/><path d="M40.1,79.086V73.881a1.433,1.433,0,0,1,2.865,0v5.205c-.473.021-.958.03-1.432.03s-.958-.009-1.433-.03" fill="#6688a2" fill-rule="evenodd"/><path d="M66.366,69.392l-3.681-3.681a1.433,1.433,0,0,1,2.026-2.026l3.68,3.681c-.32.349-.656.7-.991,1.034s-.684.671-1.034.992" fill="#6688a2" fill-rule="evenodd"/><path d="M78.086,43.961H72.88a1.433,1.433,0,0,1,0-2.865h5.206c.02.473.03.958.03,1.432s-.01.958-.03,1.433" fill="#6688a2" fill-rule="evenodd"/><path d="M68.391,17.69,64.71,21.371a1.432,1.432,0,0,1-2.025-2.026l3.681-3.68c.349.32.7.656,1.034.991s.671.684.991,1.034" fill="#6688a2" fill-rule="evenodd"/></g></g></g></svg>