<svg xmlns="http://www.w3.org/2000/svg" width="87.797" height="71.32" viewBox="0 0 87.797 71.32"><g transform="translate(-6122 -5902)"><path d="M17.74,18.394A2.045,2.045,0,0,1,15.7,16.555L14.513,5.189,3.149,6.375a1.929,1.929,0,0,1-.216.011,2.051,2.051,0,0,1-.21-4.092L18.171.68l1.614,15.448a2.057,2.057,0,0,1-1.829,2.255c-.072.007-.147.011-.216.011" transform="translate(6190 5901.32)" fill="#009dda" fill-rule="evenodd"/><path d="M68.084,72.32H85.747V28.578H68.084Z" transform="translate(6122 5901)" fill="#6688a2" fill-rule="evenodd"/><path d="M2.051,55.848a2.052,2.052,0,0,1-.373-4.069c17.423-3.236,36.3-11.74,53.152-23.948A146.269,146.269,0,0,0,82.748,1.642a2.052,2.052,0,0,1,3.188,2.586,150.524,150.524,0,0,1-28.7,26.928C39.9,43.714,20.436,52.471,2.427,55.817a2.394,2.394,0,0,1-.376.031" transform="translate(6122 5901.32)" fill="#009dda" fill-rule="evenodd"/><path d="M46.054,72.32H63.716v-31.2H46.054Z" transform="translate(6122 5901)" fill="#6688a2" fill-rule="evenodd"/><path d="M24.023,72.32H41.686V53.592H24.023Z" transform="translate(6122 5901)" fill="#6688a2" fill-rule="evenodd"/><path d="M1.908,72.32H19.571V66.084H1.908Z" transform="translate(6122 5901)" fill="#6688a2" fill-rule="evenodd"/></g></svg>