<?xml version="1.0" encoding="UTF-8"?>
<svg xmlns="http://www.w3.org/2000/svg" xmlns:xlink="http://www.w3.org/1999/xlink" width="18px" height="19px" viewBox="0 0 18 19">
  <!-- Generator: Sketch 51 (57462) - http://www.bohemiancoding.com/sketch -->
  <title>white paper</title>
  <desc>Created with Sketch.</desc>
  <defs></defs>
  <g id="Visual-Design" stroke="none" stroke-width="1" fill="none" fill-rule="evenodd">
    <g id="Artboard" transform="translate(-656.000000, -171.000000)" fill="#617793" fill-rule="nonzero">
      <path d="M665.12,181.766667 C665.12,181.45 665.38,181.192708 665.7,181.192708 L669.2,181.192708 C669.52,181.192708 669.78,181.45 669.78,181.766667 C669.78,182.083333 669.52,182.340625 669.2,182.340625 L665.7,182.340625 C665.38,182.340625 665.12,182.083333 665.12,181.766667 Z M665.7,180.044792 L669.2,180.044792 C669.52,180.044792 669.78,179.7875 669.78,179.470833 C669.78,179.154167 669.52,178.896875 669.2,178.896875 L665.7,178.896875 C665.38,178.896875 665.12,179.154167 665.12,179.470833 C665.12,179.7875 665.38,180.044792 665.7,180.044792 Z M673.88,175.809375 L673.88,185.428125 C673.88,185.447917 673.88,185.447917 673.88,185.467708 C673.88,185.60625 673.82,185.725 673.74,185.823958 C673.74,185.823958 673.74,185.823958 673.74,185.823958 C673.74,185.823958 673.74,185.823958 673.74,185.823958 C673.74,185.823958 673.74,185.823958 673.74,185.823958 C673.74,185.84375 673.72,185.84375 673.72,185.863542 L669.82,189.683333 C669.72,189.782292 669.58,189.841667 669.44,189.861458 C669.44,189.861458 669.42,189.861458 669.42,189.861458 L661.62,189.861458 C661.3,189.861458 661.04,189.604167 661.04,189.2875 L661.04,185.626042 L656.58,185.626042 C656.26,185.626042 656,185.36875 656,185.052083 L656,171.573958 C656,171.257292 656.26,171 656.58,171 L668.26,171 C668.58,171 668.84,171.257292 668.84,171.573958 L668.84,175.235417 L673.28,175.235417 C673.62,175.235417 673.88,175.492708 673.88,175.809375 Z M661.62,175.235417 L667.7,175.235417 L667.7,172.147917 L657.16,172.147917 L657.16,184.458333 L661.02,184.458333 L661.02,175.809375 C661.04,175.492708 661.3,175.235417 661.62,175.235417 Z M672.72,176.383333 L662.2,176.383333 L662.2,188.69375 L668.82,188.69375 L668.82,185.428125 C668.82,185.111458 669.08,184.854167 669.4,184.854167 L672.72,184.854167 L672.72,176.383333 Z" id="white-paper"></path>
    </g>
  </g>
</svg>
